solid joint469R.stl
facet normal 0.000000 11.250000 -1.782002
  outer loop
    vertex 15.000000 12.631200 9.000000
    vertex 0.000000 12.750000 9.750000
    vertex 15.000000 12.750000 9.750000
  endloop
endfacet
facet normal 0.000000 11.250000 -1.782002
  outer loop
    vertex 0.000000 12.750000 9.750000
    vertex 15.000000 12.631200 9.000000
    vertex 0.000000 12.631200 9.000000
  endloop
endfacet
facet normal 0.000000 -9.360452 -59.099548
  outer loop
    vertex 15.000000 -3.939970 -2.375970
    vertex 0.000000 0.000000 -3.000000
    vertex 15.000000 0.000000 -3.000000
  endloop
endfacet
facet normal 0.000000 -9.360452 -59.099548
  outer loop
    vertex 0.000000 0.000000 -3.000000
    vertex 15.000000 -3.939970 -2.375970
    vertex -0.000000 -3.939970 -2.375970
  endloop
endfacet
facet normal 0.000000 -59.099995 9.359994
  outer loop
    vertex -0.000000 -12.750000 9.750000
    vertex 15.000000 -12.750000 9.750000
    vertex 15.000000 -12.126000 13.690000
  endloop
endfacet
facet normal -213.660141 0.000000 0.000023
  outer loop
    vertex 0.000000 12.126000 13.690000
    vertex -0.000000 -12.126000 13.690000
    vertex 0.000001 0.000000 22.500000
  endloop
endfacet
facet normal 2.109000 0.000000 0.000000
  outer loop
    vertex 15.000000 12.750000 9.750000
    vertex 15.000000 9.638650 10.453000
    vertex 15.000000 9.750000 9.750000
  endloop
endfacet
facet normal 6.929786 0.000000 0.000000
  outer loop
    vertex 15.000000 12.126000 13.690000
    vertex 15.000000 9.272800 12.762900
    vertex 15.000000 9.638650 10.453000
  endloop
endfacet
facet normal 9.038900 0.000000 0.000000
  outer loop
    vertex 15.000000 10.315000 17.244301
    vertex 15.000000 7.887920 15.480900
    vertex 15.000000 9.272800 12.762900
  endloop
endfacet
facet normal 11.820158 0.000000 0.000000
  outer loop
    vertex 15.000000 7.494260 20.065001
    vertex 15.000000 7.887920 15.480900
    vertex 15.000000 10.315000 17.244301
  endloop
endfacet
facet normal 9.038827 0.000000 0.000000
  outer loop
    vertex 15.000000 7.494260 20.065001
    vertex 15.000000 5.730910 17.637899
    vertex 15.000000 7.887920 15.480900
  endloop
endfacet
facet normal 11.820045 0.000000 0.000000
  outer loop
    vertex 15.000000 3.939970 21.875999
    vertex 15.000000 5.730910 17.637899
    vertex 15.000000 7.494260 20.065001
  endloop
endfacet
facet normal 9.038839 0.000000 0.000000
  outer loop
    vertex 15.000000 3.939970 21.875999
    vertex 15.000000 3.012920 19.022800
    vertex 15.000000 5.730910 17.637899
  endloop
endfacet
facet normal 11.819998 0.000000 0.000000
  outer loop
    vertex 15.000000 0.000000 22.500000
    vertex 15.000000 3.012920 19.022800
    vertex 15.000000 3.939970 21.875999
  endloop
endfacet
facet normal 9.038759 0.000000 0.000000
  outer loop
    vertex 15.000000 0.000000 22.500000
    vertex 15.000000 0.000000 19.500000
    vertex 15.000000 3.012920 19.022800
  endloop
endfacet
facet normal 9.038759 0.000000 0.000000
  outer loop
    vertex 15.000000 0.000000 22.500000
    vertex 15.000000 -3.012920 19.022800
    vertex 15.000000 0.000000 19.500000
  endloop
endfacet
facet normal 11.819999 -0.000000 0.000000
  outer loop
    vertex 15.000000 -3.939970 21.875999
    vertex 15.000000 -3.012920 19.022800
    vertex 15.000000 0.000000 22.500000
  endloop
endfacet
facet normal 9.038839 0.000000 0.000000
  outer loop
    vertex 15.000000 -3.939970 21.875999
    vertex 15.000000 -5.730910 17.637899
    vertex 15.000000 -3.012920 19.022800
  endloop
endfacet
facet normal 11.820046 -0.000000 0.000000
  outer loop
    vertex 15.000000 -7.494260 20.065001
    vertex 15.000000 -5.730910 17.637899
    vertex 15.000000 -3.939970 21.875999
  endloop
endfacet
facet normal 9.038827 0.000000 0.000000
  outer loop
    vertex 15.000000 -7.494260 20.065001
    vertex 15.000000 -7.887920 15.480900
    vertex 15.000000 -5.730910 17.637899
  endloop
endfacet
facet normal 11.820158 -0.000000 0.000000
  outer loop
    vertex 15.000000 -10.315000 17.244301
    vertex 15.000000 -7.887920 15.480900
    vertex 15.000000 -7.494260 20.065001
  endloop
endfacet
facet normal 11.820110 -0.000000 0.000000
  outer loop
    vertex 15.000000 -12.126000 13.690000
    vertex 15.000000 -9.272800 12.762900
    vertex 15.000000 -10.315000 17.244301
  endloop
endfacet
facet normal 9.038901 0.000000 0.000000
  outer loop
    vertex 15.000000 -7.887920 15.480900
    vertex 15.000000 -10.315000 17.244301
    vertex 15.000000 -9.272800 12.762900
  endloop
endfacet
facet normal 11.820046 -0.000000 0.000000
  outer loop
    vertex 15.000000 9.638650 10.453000
    vertex 15.000000 12.750000 9.750000
    vertex 15.000000 12.126000 13.690000
  endloop
endfacet
facet normal 33.458878 -0.000000 0.000000
  outer loop
    vertex 15.000000 12.631200 9.000000
    vertex 15.000000 25.500000 6.400000
    vertex 15.000000 25.500000 9.000000
  endloop
endfacet
facet normal 11.820110 0.000000 0.000000
  outer loop
    vertex 15.000000 9.272800 12.762900
    vertex 15.000000 12.126000 13.690000
    vertex 15.000000 10.315000 17.244301
  endloop
endfacet
facet normal 2.250000 0.000000 0.000000
  outer loop
    vertex 15.000000 12.750000 9.750000
    vertex 15.000000 9.750000 9.750000
    vertex 15.000000 12.631200 9.000000
  endloop
endfacet
facet normal 6.929671 0.000000 0.000000
  outer loop
    vertex 15.000000 9.384150 7.440100
    vertex 15.000000 12.631200 9.000000
    vertex 15.000000 9.750000 9.750000
  endloop
endfacet
facet normal 2.109048 0.000000 0.000000
  outer loop
    vertex 15.000000 9.272800 6.737080
    vertex 15.000000 12.631200 9.000000
    vertex 15.000000 9.384150 7.440100
  endloop
endfacet
facet normal 0.743393 0.000000 0.000000
  outer loop
    vertex 15.000000 9.101050 6.400000
    vertex 15.000000 12.631200 9.000000
    vertex 15.000000 9.272800 6.737080
  endloop
endfacet
facet normal 42.637268 0.000000 0.000000
  outer loop
    vertex 15.000000 12.631200 9.000000
    vertex 15.000000 9.101050 6.400000
    vertex 15.000000 25.500000 6.400000
  endloop
endfacet
facet normal 0.000009 0.000000 0.000000
  outer loop
    vertex 15.000000 0.000000 6.400000
    vertex 15.000000 -0.000001 0.000000
    vertex 15.000000 0.000000 0.000000
  endloop
endfacet
facet normal 38.399994 -0.000000 0.000000
  outer loop
    vertex 15.000000 -6.000000 2.131180
    vertex 15.000000 -0.000001 0.000000
    vertex 15.000000 0.000000 6.400000
  endloop
endfacet
facet normal 25.612919 0.000000 0.000000
  outer loop
    vertex 15.000000 -6.000000 2.131180
    vertex 15.000000 0.000000 6.400000
    vertex 15.000000 -6.000000 6.400000
  endloop
endfacet
facet normal 22.652599 0.000000 0.000000
  outer loop
    vertex 15.000000 -0.000001 0.000000
    vertex 15.000000 -6.000000 2.131180
    vertex 15.000000 -3.939970 -2.375970
  endloop
endfacet
facet normal 12.288996 0.000000 0.000000
  outer loop
    vertex 15.000000 -6.000000 2.131180
    vertex 15.000000 -7.494260 -0.564967
    vertex 15.000000 -3.939970 -2.375970
  endloop
endfacet
facet normal 7.911172 -0.000000 0.000000
  outer loop
    vertex 15.000000 -10.315000 2.255740
    vertex 15.000000 -6.000000 2.131180
    vertex 15.000000 -7.887920 4.019090
  endloop
endfacet
facet normal 9.038809 0.000000 0.000000
  outer loop
    vertex 15.000000 -10.315000 2.255740
    vertex 15.000000 -7.887920 4.019090
    vertex 15.000000 -9.272800 6.737080
  endloop
endfacet
facet normal 11.819998 0.000000 0.000000
  outer loop
    vertex 15.000000 -6.000000 2.131180
    vertex 15.000000 -10.315000 2.255740
    vertex 15.000000 -7.494260 -0.564967
  endloop
endfacet
facet normal 9.038851 0.000000 0.000000
  outer loop
    vertex 15.000000 -12.126000 5.810030
    vertex 15.000000 -9.272800 6.737080
    vertex 15.000000 -9.750000 9.750000
  endloop
endfacet
facet normal 9.038818 0.000000 0.000000
  outer loop
    vertex 15.000000 -9.272800 12.762900
    vertex 15.000000 -12.126000 13.690000
    vertex 15.000000 -9.750000 9.750000
  endloop
endfacet
facet normal 11.819999 0.000000 0.000000
  outer loop
    vertex 15.000000 -12.750000 9.750000
    vertex 15.000000 -9.750000 9.750000
    vertex 15.000000 -12.126000 13.690000
  endloop
endfacet
facet normal 11.819989 0.000000 0.000000
  outer loop
    vertex 15.000000 -9.272800 6.737080
    vertex 15.000000 -12.126000 5.810030
    vertex 15.000000 -10.315000 2.255740
  endloop
endfacet
facet normal 11.819910 0.000000 0.000000
  outer loop
    vertex 15.000000 -9.750000 9.750000
    vertex 15.000000 -12.750000 9.750000
    vertex 15.000000 -12.126000 5.810030
  endloop
endfacet
facet normal 76.499992 -0.000000 0.000000
  outer loop
    vertex 15.000000 0.000001 0.000000
    vertex 15.000000 25.500000 -3.000000
    vertex 15.000000 25.500000 0.000000
  endloop
endfacet
facet normal 0.000004 0.000000 0.000000
  outer loop
    vertex 15.000000 0.000000 -3.000000
    vertex 15.000000 0.000001 0.000000
    vertex 15.000000 0.000000 -0.000000
  endloop
endfacet
facet normal 76.500000 0.000000 0.000000
  outer loop
    vertex 15.000000 0.000001 0.000000
    vertex 15.000000 0.000000 -3.000000
    vertex 15.000000 25.500000 -3.000000
  endloop
endfacet
facet normal 0.000004 0.000000 0.000000
  outer loop
    vertex 15.000000 -0.000001 0.000000
    vertex 15.000000 0.000000 -3.000000
    vertex 15.000000 0.000000 -0.000000
  endloop
endfacet
facet normal 11.819909 0.000000 0.000000
  outer loop
    vertex 15.000000 0.000000 -3.000000
    vertex 15.000000 -0.000001 0.000000
    vertex 15.000000 -3.939970 -2.375970
  endloop
endfacet
facet normal 0.000000 53.314514 27.165010
  outer loop
    vertex 15.000000 12.126000 13.690000
    vertex 0.000001 10.315000 17.244301
    vertex 15.000000 10.315000 17.244301
  endloop
endfacet
facet normal 0.000000 53.314518 27.165012
  outer loop
    vertex 0.000001 10.315000 17.244301
    vertex 15.000000 12.126000 13.690000
    vertex 0.000000 12.126000 13.690000
  endloop
endfacet
facet normal -0.000000 -59.099548 -9.359994
  outer loop
    vertex 15.000000 -12.126000 5.810030
    vertex 15.000000 -12.750000 9.750000
    vertex -0.000000 -12.126000 5.810030
  endloop
endfacet
facet normal -76.500000 0.000000 0.000000
  outer loop
    vertex 0.000000 0.000000 -3.000000
    vertex 0.000000 25.500000 0.000000
    vertex 0.000000 25.500000 -3.000000
  endloop
endfacet
facet normal -76.500000 0.000000 0.000000
  outer loop
    vertex 0.000000 0.000000 -3.000000
    vertex 0.000000 0.000000 0.000000
    vertex 0.000000 25.500000 0.000000
  endloop
endfacet
facet normal -11.819910 0.000000 0.000000
  outer loop
    vertex -0.000000 -3.939970 -2.375970
    vertex 0.000000 0.000000 0.000000
    vertex 0.000000 0.000000 -3.000000
  endloop
endfacet
facet normal -15.580183 0.000000 -0.000000
  outer loop
    vertex -0.000000 -7.494260 -0.564967
    vertex 0.000000 0.000000 0.000000
    vertex -0.000000 -3.939970 -2.375970
  endloop
endfacet
facet normal -0.201891 0.000000 0.000000
  outer loop
    vertex 0.000000 0.000000 6.400000
    vertex -0.000000 -0.126182 8.019980
    vertex 0.000000 0.000000 8.000000
  endloop
endfacet
facet normal -47.963264 0.000000 0.000000
  outer loop
    vertex 0.000000 0.000000 0.000000
    vertex -0.000000 -7.494260 -0.564967
    vertex 0.000000 0.000000 6.400000
  endloop
endfacet
facet normal -0.663353 0.000000 0.000000
  outer loop
    vertex 0.000000 0.000000 6.400000
    vertex -0.000000 -0.540779 8.085650
    vertex -0.000000 -0.126182 8.019980
  endloop
endfacet
facet normal -0.687908 0.000000 0.000000
  outer loop
    vertex 0.000000 0.000000 6.400000
    vertex -0.000000 -1.028620 8.334220
    vertex -0.000000 -0.540779 8.085650
  endloop
endfacet
facet normal -40.785469 0.000000 0.000000
  outer loop
    vertex -0.000000 -10.315000 2.255740
    vertex 0.000000 0.000000 6.400000
    vertex -0.000000 -7.494260 -0.564967
  endloop
endfacet
facet normal -0.350611 0.000000 -0.000000
  outer loop
    vertex 0.000000 0.000000 6.400000
    vertex -0.000000 -1.415780 8.721380
    vertex -0.000000 -1.028620 8.334220
  endloop
endfacet
facet normal -29.812397 0.000000 -0.000000
  outer loop
    vertex 0.000000 0.000000 6.400000
    vertex -0.000000 -10.315000 2.255740
    vertex -0.000000 -1.415780 8.721380
  endloop
endfacet
facet normal -5.948557 0.000000 -0.000000
  outer loop
    vertex -0.000000 -1.415780 8.721380
    vertex -0.000000 -10.315000 2.255740
    vertex -0.000000 -1.664350 9.209220
  endloop
endfacet
facet normal -33.458878 0.000000 0.000000
  outer loop
    vertex 0.000000 25.500000 6.400000
    vertex 0.000000 12.631200 9.000000
    vertex 0.000000 25.500000 9.000000
  endloop
endfacet
facet normal -4.560604 0.000000 0.000000
  outer loop
    vertex 0.000000 1.684330 10.164600
    vertex 0.000000 12.750000 9.750000
    vertex 0.000000 1.750000 9.750000
  endloop
endfacet
facet normal -66.299995 0.000000 -0.000000
  outer loop
    vertex 0.000000 0.000000 6.400000
    vertex 0.000000 12.631200 9.000000
    vertex 0.000000 25.500000 6.400000
  endloop
endfacet
facet normal -1.387979 0.000000 -0.000000
  outer loop
    vertex 0.000000 12.631200 9.000000
    vertex 0.000000 1.730010 9.623820
    vertex 0.000000 1.750000 9.750000
  endloop
endfacet
facet normal -4.560597 0.000000 0.000000
  outer loop
    vertex 0.000000 12.631200 9.000000
    vertex 0.000000 1.664350 9.209220
    vertex 0.000000 1.730010 9.623820
  endloop
endfacet
facet normal -5.402071 0.000000 0.000000
  outer loop
    vertex 0.000000 12.631200 9.000000
    vertex 0.000000 1.415780 8.721380
    vertex 0.000000 1.664350 9.209220
  endloop
endfacet
facet normal -25.640787 0.000000 -0.000000
  outer loop
    vertex 0.000000 12.631200 9.000000
    vertex 0.000000 0.000000 6.400000
    vertex 0.000000 1.415780 8.721380
  endloop
endfacet
facet normal -0.350612 0.000000 0.000000
  outer loop
    vertex 0.000000 1.415780 8.721380
    vertex 0.000000 0.000000 6.400000
    vertex 0.000000 1.028620 8.334220
  endloop
endfacet
facet normal -0.687908 0.000000 -0.000000
  outer loop
    vertex 0.000000 1.028620 8.334220
    vertex 0.000000 0.000000 6.400000
    vertex 0.000000 0.540779 8.085650
  endloop
endfacet
facet normal -0.663353 0.000000 -0.000000
  outer loop
    vertex 0.000000 0.540779 8.085650
    vertex 0.000000 0.000000 6.400000
    vertex 0.000000 0.126182 8.019980
  endloop
endfacet
facet normal -0.201891 0.000000 0.000000
  outer loop
    vertex 0.000000 0.126182 8.019980
    vertex 0.000000 0.000000 6.400000
    vertex 0.000000 0.000000 8.000000
  endloop
endfacet
facet normal -8.250000 0.000000 0.000000
  outer loop
    vertex 0.000000 1.750000 9.750000
    vertex 0.000000 12.750000 9.750000
    vertex 0.000000 12.631200 9.000000
  endloop
endfacet
facet normal -43.340027 0.000000 -0.000000
  outer loop
    vertex 0.000000 12.750000 9.750000
    vertex 0.000000 1.684330 10.164600
    vertex 0.000000 12.126000 13.690000
  endloop
endfacet
facet normal -1.388173 0.000000 -0.000000
  outer loop
    vertex 0.000000 1.664350 10.290800
    vertex 0.000000 12.126000 13.690000
    vertex 0.000000 1.684330 10.164600
  endloop
endfacet
facet normal -5.948129 0.000000 -0.000000
  outer loop
    vertex 0.000000 1.415780 10.778600
    vertex 0.000000 12.126000 13.690000
    vertex 0.000000 1.664350 10.290800
  endloop
endfacet
facet normal -5.274179 0.000000 0.000000
  outer loop
    vertex 0.000000 1.028620 11.165800
    vertex 0.000000 12.126000 13.690000
    vertex 0.000000 1.415780 10.778600
  endloop
endfacet
facet normal -3.989106 0.000000 -0.000000
  outer loop
    vertex 0.000000 0.540779 11.414300
    vertex 0.000000 12.126000 13.690000
    vertex 0.000000 1.028620 11.165800
  endloop
endfacet
facet normal -0.518862 0.000000 0.000000
  outer loop
    vertex 0.000000 0.414597 11.434300
    vertex 0.000000 12.126000 13.690000
    vertex 0.000000 0.540779 11.414300
  endloop
endfacet
facet normal -1.704640 0.000000 -0.000000
  outer loop
    vertex 0.000000 0.000000 11.500000
    vertex 0.000000 12.126000 13.690000
    vertex 0.000000 0.414597 11.434300
  endloop
endfacet
facet normal -1.704639 0.000000 0.000000
  outer loop
    vertex -0.000000 -12.126000 13.690000
    vertex 0.000000 0.000000 11.500000
    vertex -0.000000 -0.414597 11.434300
  endloop
endfacet
facet normal -0.518864 0.000000 0.000000
  outer loop
    vertex -0.000000 -12.126000 13.690000
    vertex -0.000000 -0.414597 11.434300
    vertex -0.000000 -0.540779 11.414300
  endloop
endfacet
facet normal -43.339680 0.000000 -0.000000
  outer loop
    vertex -0.000000 -12.126000 5.810030
    vertex -0.000000 -1.664350 9.209220
    vertex -0.000000 -10.315000 2.255740
  endloop
endfacet
facet normal -4.560595 0.000000 -0.000000
  outer loop
    vertex -0.000000 -1.664350 9.209220
    vertex -0.000000 -12.126000 5.810030
    vertex -0.000000 -1.730010 9.623820
  endloop
endfacet
facet normal -43.339695 0.000000 -0.000000
  outer loop
    vertex -0.000000 -12.750000 9.750000
    vertex -0.000000 -1.730010 9.623820
    vertex -0.000000 -12.126000 5.810030
  endloop
endfacet
facet normal -1.387977 0.000000 0.000000
  outer loop
    vertex -0.000000 -1.730010 9.623820
    vertex -0.000000 -12.750000 9.750000
    vertex -0.000000 -1.750000 9.750000
  endloop
endfacet
facet normal -4.560604 0.000000 -0.000000
  outer loop
    vertex -0.000000 -1.750000 9.750000
    vertex -0.000000 -12.750000 9.750000
    vertex -0.000000 -1.684330 10.164600
  endloop
endfacet
facet normal -43.340027 0.000000 0.000000
  outer loop
    vertex -0.000000 -12.126000 13.690000
    vertex -0.000000 -1.684330 10.164600
    vertex -0.000000 -12.750000 9.750000
  endloop
endfacet
facet normal -1.388173 0.000000 0.000000
  outer loop
    vertex -0.000000 -1.684330 10.164600
    vertex -0.000000 -12.126000 13.690000
    vertex -0.000000 -1.664350 10.290800
  endloop
endfacet
facet normal -5.948129 0.000000 0.000000
  outer loop
    vertex -0.000000 -1.664350 10.290800
    vertex -0.000000 -12.126000 13.690000
    vertex -0.000000 -1.415780 10.778600
  endloop
endfacet
facet normal -53.111870 0.000000 0.000000
  outer loop
    vertex 0.000000 0.000000 11.500000
    vertex -0.000000 -12.126000 13.690000
    vertex 0.000000 12.126000 13.690000
  endloop
endfacet
facet normal -5.274179 0.000000 -0.000000
  outer loop
    vertex -0.000000 -1.415780 10.778600
    vertex -0.000000 -12.126000 13.690000
    vertex -0.000000 -1.028620 11.165800
  endloop
endfacet
facet normal -3.989106 0.000000 0.000000
  outer loop
    vertex -0.000000 -1.028620 11.165800
    vertex -0.000000 -12.126000 13.690000
    vertex -0.000000 -0.540779 11.414300
  endloop
endfacet
facet normal 0.000000 59.099995 9.359994
  outer loop
    vertex 15.000000 12.750000 9.750000
    vertex 0.000000 12.126000 13.690000
    vertex 15.000000 12.126000 13.690000
  endloop
endfacet
facet normal 0.000000 59.099995 9.359994
  outer loop
    vertex 0.000000 12.126000 13.690000
    vertex 15.000000 12.750000 9.750000
    vertex 0.000000 12.750000 9.750000
  endloop
endfacet
facet normal -27.144505 -0.000001 0.000004
  outer loop
    vertex 0.000001 0.000000 22.500000
    vertex -0.000000 -12.126000 13.690000
    vertex 0.000001 -3.939970 21.875999
  endloop
endfacet
facet normal 0.000000 -59.099995 9.359994
  outer loop
    vertex -0.000000 -12.126000 13.690000
    vertex -0.000000 -12.750000 9.750000
    vertex 15.000000 -12.126000 13.690000
  endloop
endfacet
facet normal -0.000000 -9.360007 59.099548
  outer loop
    vertex 0.000001 0.000000 22.500000
    vertex 15.000000 -3.939970 21.875999
    vertex 15.000000 0.000000 22.500000
  endloop
endfacet
facet normal 0.000000 -9.360007 59.099548
  outer loop
    vertex 15.000000 -3.939970 21.875999
    vertex 0.000001 0.000000 22.500000
    vertex 0.000001 -3.939970 21.875999
  endloop
endfacet
facet normal -0.000000 9.360007 59.099548
  outer loop
    vertex 0.000001 3.939970 21.875999
    vertex 15.000000 0.000000 22.500000
    vertex 15.000000 3.939970 21.875999
  endloop
endfacet
facet normal 0.000000 9.360007 59.099548
  outer loop
    vertex 15.000000 0.000000 22.500000
    vertex 0.000001 3.939970 21.875999
    vertex 0.000001 0.000000 22.500000
  endloop
endfacet
facet normal 0.000000 -27.165045 -53.314346
  outer loop
    vertex 15.000000 -7.494260 -0.564967
    vertex -0.000000 -3.939970 -2.375970
    vertex 15.000000 -3.939970 -2.375970
  endloop
endfacet
facet normal 0.000000 -27.165045 -53.314346
  outer loop
    vertex -0.000000 -3.939970 -2.375970
    vertex 15.000000 -7.494260 -0.564967
    vertex -0.000000 -7.494260 -0.564967
  endloop
endfacet
facet normal 0.000000 -59.099548 -9.359994
  outer loop
    vertex -0.000000 -12.126000 5.810030
    vertex 15.000000 -12.750000 9.750000
    vertex -0.000000 -12.750000 9.750000
  endloop
endfacet
facet normal -4.917469 -0.000003 0.000003
  outer loop
    vertex 0.000001 -7.494260 20.065001
    vertex -0.000000 -12.126000 13.690000
    vertex 0.000001 -10.315000 17.244301
  endloop
endfacet
facet normal -0.000000 27.164982 53.314342
  outer loop
    vertex 0.000001 7.494260 20.065001
    vertex 15.000000 3.939970 21.875999
    vertex 15.000000 7.494260 20.065001
  endloop
endfacet
facet normal 0.000000 27.164982 53.314342
  outer loop
    vertex 15.000000 3.939970 21.875999
    vertex 0.000001 7.494260 20.065001
    vertex 0.000001 3.939970 21.875999
  endloop
endfacet
facet normal -0.000000 42.310493 42.311092
  outer loop
    vertex 0.000001 10.315000 17.244301
    vertex 15.000000 7.494260 20.065001
    vertex 15.000000 10.315000 17.244301
  endloop
endfacet
facet normal 0.000000 42.310493 42.311092
  outer loop
    vertex 15.000000 7.494260 20.065001
    vertex 0.000001 10.315000 17.244301
    vertex 0.000001 7.494260 20.065001
  endloop
endfacet
facet normal 0.000000 -42.310604 -42.311096
  outer loop
    vertex -0.000000 -7.494260 -0.564967
    vertex 15.000000 -10.315000 2.255740
    vertex -0.000000 -10.315000 2.255740
  endloop
endfacet
facet normal 0.000000 -42.310604 -42.311096
  outer loop
    vertex 15.000000 -10.315000 2.255740
    vertex -0.000000 -7.494260 -0.564967
    vertex 15.000000 -7.494260 -0.564967
  endloop
endfacet
facet normal -4.917469 0.000003 0.000003
  outer loop
    vertex 0.000000 12.126000 13.690000
    vertex 0.000001 7.494260 20.065001
    vertex 0.000001 10.315000 17.244301
  endloop
endfacet
facet normal -14.270523 0.000002 0.000003
  outer loop
    vertex 0.000000 12.126000 13.690000
    vertex 0.000001 3.939970 21.875999
    vertex 0.000001 7.494260 20.065001
  endloop
endfacet
facet normal -27.144501 0.000001 0.000004
  outer loop
    vertex 0.000000 12.126000 13.690000
    vertex 0.000001 0.000000 22.500000
    vertex 0.000001 3.939970 21.875999
  endloop
endfacet
facet normal 0.000000 -53.314350 -27.165012
  outer loop
    vertex -0.000000 -10.315000 2.255740
    vertex 15.000000 -12.126000 5.810030
    vertex -0.000000 -12.126000 5.810030
  endloop
endfacet
facet normal 0.000000 -53.314350 -27.165012
  outer loop
    vertex 15.000000 -12.126000 5.810030
    vertex -0.000000 -10.315000 2.255740
    vertex 15.000000 -10.315000 2.255740
  endloop
endfacet
facet normal 0.000000 -27.164982 53.314342
  outer loop
    vertex 0.000001 -3.939970 21.875999
    vertex 15.000000 -7.494260 20.065001
    vertex 15.000000 -3.939970 21.875999
  endloop
endfacet
facet normal 0.000000 -27.164982 53.314342
  outer loop
    vertex 15.000000 -7.494260 20.065001
    vertex 0.000001 -3.939970 21.875999
    vertex 0.000001 -7.494260 20.065001
  endloop
endfacet
facet normal -14.270523 -0.000002 0.000003
  outer loop
    vertex 0.000001 -3.939970 21.875999
    vertex -0.000000 -12.126000 13.690000
    vertex 0.000001 -7.494260 20.065001
  endloop
endfacet
facet normal 0.000000 -42.310493 42.311092
  outer loop
    vertex 0.000001 -7.494260 20.065001
    vertex 15.000000 -10.315000 17.244301
    vertex 15.000000 -7.494260 20.065001
  endloop
endfacet
facet normal 0.000000 -42.310493 42.311092
  outer loop
    vertex 15.000000 -10.315000 17.244301
    vertex 0.000001 -7.494260 20.065001
    vertex 0.000001 -10.315000 17.244301
  endloop
endfacet
facet normal 0.000000 -53.314514 27.165010
  outer loop
    vertex -0.000000 -12.126000 13.690000
    vertex 15.000000 -10.315000 17.244301
    vertex 0.000001 -10.315000 17.244301
  endloop
endfacet
facet normal 0.000000 -53.314518 27.165012
  outer loop
    vertex 15.000000 -10.315000 17.244301
    vertex -0.000000 -12.126000 13.690000
    vertex 15.000000 -12.126000 13.690000
  endloop
endfacet
facet normal 0.000000 0.000000 2.293179
  outer loop
    vertex 9.664350 18.584200 0.000000
    vertex 15.000000 25.500000 0.000000
    vertex 9.750000 19.125000 0.000000
  endloop
endfacet
facet normal 0.000000 0.000000 3.385221
  outer loop
    vertex 15.000000 25.500000 0.000000
    vertex 9.664350 19.665800 0.000000
    vertex 9.750000 19.125000 0.000000
  endloop
endfacet
facet normal 0.000000 0.000000 4.052938
  outer loop
    vertex 15.000000 25.500000 0.000000
    vertex 9.415780 20.153601 0.000000
    vertex 9.664350 19.665800 0.000000
  endloop
endfacet
facet normal 0.000000 0.000000 4.232121
  outer loop
    vertex 15.000000 25.500000 0.000000
    vertex 9.028620 20.540800 0.000000
    vertex 9.415780 20.153601 0.000000
  endloop
endfacet
facet normal 0.000000 0.000000 3.903187
  outer loop
    vertex 15.000000 25.500000 0.000000
    vertex 8.540780 20.789301 0.000000
    vertex 9.028620 20.540800 0.000000
  endloop
endfacet
facet normal 0.000000 0.000000 3.101000
  outer loop
    vertex 15.000000 25.500000 0.000000
    vertex 8.000000 20.875000 0.000000
    vertex 8.540780 20.789301 0.000000
  endloop
endfacet
facet normal -0.000000 0.000000 69.375000
  outer loop
    vertex 0.000000 25.500000 0.000000
    vertex 8.000000 20.875000 0.000000
    vertex 15.000000 25.500000 0.000000
  endloop
endfacet
facet normal 0.000000 0.000000 3.186700
  outer loop
    vertex 8.000000 20.875000 0.000000
    vertex 0.000000 25.500000 0.000000
    vertex 7.459220 20.789301 0.000000
  endloop
endfacet
facet normal 0.000000 0.000000 0.000519
  outer loop
    vertex 7.459220 17.460699 0.000000
    vertex 3.500000 0.000006 0.000000
    vertex 3.500030 0.000006 0.000000
  endloop
endfacet
facet normal 0.000000 0.000000 0.000000
  outer loop
    vertex 3.500000 0.000006 0.000000
    vertex 3.500000 0.000000 0.000000
    vertex 3.500000 0.000002 0.000000
  endloop
endfacet
facet normal 0.000000 0.000000 4.151689
  outer loop
    vertex 7.459220 20.789301 0.000000
    vertex 0.000000 25.500000 0.000000
    vertex 6.971380 20.540800 0.000000
  endloop
endfacet
facet normal 0.000000 0.000000 4.619320
  outer loop
    vertex 0.000000 25.500000 0.000000
    vertex 6.584220 20.153601 0.000000
    vertex 6.971380 20.540800 0.000000
  endloop
endfacet
facet normal 0.000000 0.000000 4.540741
  outer loop
    vertex 0.000000 25.500000 0.000000
    vertex 6.335650 19.665800 0.000000
    vertex 6.584220 20.153601 0.000000
  endloop
endfacet
facet normal 0.000000 0.000000 3.926018
  outer loop
    vertex 0.000000 25.500000 0.000000
    vertex 6.250000 19.125000 0.000000
    vertex 6.335650 19.665800 0.000000
  endloop
endfacet
facet normal 0.000000 0.000000 161.559082
  outer loop
    vertex 6.335650 18.584200 0.000000
    vertex 0.000000 25.500000 0.000000
    vertex 0.000000 0.000000 0.000000
  endloop
endfacet
facet normal 0.000000 0.000000 65.044662
  outer loop
    vertex 6.335650 18.584200 0.000000
    vertex 0.000000 0.000000 0.000000
    vertex 3.500000 0.000006 0.000000
  endloop
endfacet
facet normal 0.000000 0.000000 0.000021
  outer loop
    vertex 3.500000 0.000006 0.000000
    vertex 0.000000 0.000000 0.000000
    vertex 3.500000 0.000000 0.000000
  endloop
endfacet
facet normal 0.000000 0.000000 136.059082
  outer loop
    vertex 15.000000 25.500000 0.000000
    vertex 9.664350 18.584200 0.000000
    vertex 15.000000 0.000001 0.000000
  endloop
endfacet
facet normal -0.000000 0.000000 7.222198
  outer loop
    vertex 9.415780 18.096399 0.000000
    vertex 15.000000 0.000001 0.000000
    vertex 9.664350 18.584200 0.000000
  endloop
endfacet
facet normal -0.000000 0.000000 9.168413
  outer loop
    vertex 9.028620 17.709200 0.000000
    vertex 15.000000 0.000001 0.000000
    vertex 9.415780 18.096399 0.000000
  endloop
endfacet
facet normal -0.000000 0.000000 10.123143
  outer loop
    vertex 8.540780 17.460699 0.000000
    vertex 15.000000 0.000001 0.000000
    vertex 9.028620 17.709200 0.000000
  endloop
endfacet
facet normal -0.000000 0.000000 9.995946
  outer loop
    vertex 8.000000 17.375000 0.000000
    vertex 15.000000 0.000001 0.000000
    vertex 8.540780 17.460699 0.000000
  endloop
endfacet
facet normal 0.000000 0.000000 9.781693
  outer loop
    vertex 3.500030 0.000006 0.000000
    vertex 8.000000 17.375000 0.000000
    vertex 7.459220 17.460699 0.000000
  endloop
endfacet
facet normal 0.000000 0.000000 9.501888
  outer loop
    vertex 3.500000 0.000006 0.000000
    vertex 7.459220 17.460699 0.000000
    vertex 6.971380 17.709200 0.000000
  endloop
endfacet
facet normal 0.000000 0.000000 8.200413
  outer loop
    vertex 3.500000 0.000006 0.000000
    vertex 6.971380 17.709200 0.000000
    vertex 6.584220 18.096399 0.000000
  endloop
endfacet
facet normal 0.000000 0.000000 6.002705
  outer loop
    vertex 3.500000 0.000006 0.000000
    vertex 6.584220 18.096399 0.000000
    vertex 6.335650 18.584200 0.000000
  endloop
endfacet
facet normal 0.000000 0.000000 199.811920
  outer loop
    vertex 8.000000 17.375000 0.000000
    vertex 3.500030 0.000006 0.000000
    vertex 15.000000 0.000001 0.000000
  endloop
endfacet
facet normal 0.000000 0.000000 2.833984
  outer loop
    vertex 0.000000 25.500000 0.000000
    vertex 6.335650 18.584200 0.000000
    vertex 6.250000 19.125000 0.000000
  endloop
endfacet
facet normal 0.000000 45.000000 -0.000000
  outer loop
    vertex 15.000000 25.500000 -3.000000
    vertex 0.000000 25.500000 0.000000
    vertex 15.000000 25.500000 0.000000
  endloop
endfacet
facet normal 0.000000 45.000000 0.000000
  outer loop
    vertex 0.000000 25.500000 0.000000
    vertex 15.000000 25.500000 -3.000000
    vertex 0.000000 25.500000 -3.000000
  endloop
endfacet
facet normal 0.000000 0.000000 -136.059082
  outer loop
    vertex 9.664350 18.584200 -3.000000
    vertex 15.000000 25.500000 -3.000000
    vertex 15.000000 0.000000 -3.000000
  endloop
endfacet
facet normal 0.000000 0.000000 -2.293179
  outer loop
    vertex 15.000000 25.500000 -3.000000
    vertex 9.664350 18.584200 -3.000000
    vertex 9.750000 19.125000 -3.000000
  endloop
endfacet
facet normal 0.000000 0.000000 -7.222198
  outer loop
    vertex 15.000000 0.000000 -3.000000
    vertex 9.415780 18.096399 -3.000000
    vertex 9.664350 18.584200 -3.000000
  endloop
endfacet
facet normal 0.000000 0.000000 -9.168411
  outer loop
    vertex 15.000000 0.000000 -3.000000
    vertex 9.028620 17.709200 -3.000000
    vertex 9.415780 18.096399 -3.000000
  endloop
endfacet
facet normal 0.000000 0.000000 -10.123146
  outer loop
    vertex 15.000000 0.000000 -3.000000
    vertex 8.540780 17.460699 -3.000000
    vertex 9.028620 17.709200 -3.000000
  endloop
endfacet
facet normal 0.000000 0.000000 -9.995949
  outer loop
    vertex 15.000000 0.000000 -3.000000
    vertex 8.000000 17.375000 -3.000000
    vertex 8.540780 17.460699 -3.000000
  endloop
endfacet
facet normal 0.000000 0.000000 -260.625000
  outer loop
    vertex 0.000000 0.000000 -3.000000
    vertex 8.000000 17.375000 -3.000000
    vertex 15.000000 0.000000 -3.000000
  endloop
endfacet
facet normal -0.000000 0.000000 -10.081646
  outer loop
    vertex 8.000000 17.375000 -3.000000
    vertex 0.000000 0.000000 -3.000000
    vertex 7.459220 17.460699 -3.000000
  endloop
endfacet
facet normal -0.000000 0.000000 -10.371645
  outer loop
    vertex 7.459220 17.460699 -3.000000
    vertex 0.000000 0.000000 -3.000000
    vertex 6.971380 17.709200 -3.000000
  endloop
endfacet
facet normal -0.000000 0.000000 -9.555614
  outer loop
    vertex 6.971380 17.709200 -3.000000
    vertex 0.000000 0.000000 -3.000000
    vertex 6.584220 18.096399 -3.000000
  endloop
endfacet
facet normal 0.000000 0.000000 -2.833982
  outer loop
    vertex 6.335650 18.584200 -3.000000
    vertex 0.000000 25.500000 -3.000000
    vertex 6.250000 19.125000 -3.000000
  endloop
endfacet
facet normal -0.000000 0.000000 -7.710008
  outer loop
    vertex 6.584220 18.096399 -3.000000
    vertex 0.000000 0.000000 -3.000000
    vertex 6.335650 18.584200 -3.000000
  endloop
endfacet
facet normal -0.000000 0.000000 -161.559082
  outer loop
    vertex 6.335650 18.584200 -3.000000
    vertex 0.000000 0.000000 -3.000000
    vertex 0.000000 25.500000 -3.000000
  endloop
endfacet
facet normal 0.000000 0.000000 -3.385222
  outer loop
    vertex 9.664350 19.665800 -3.000000
    vertex 15.000000 25.500000 -3.000000
    vertex 9.750000 19.125000 -3.000000
  endloop
endfacet
facet normal 0.000000 0.000000 -4.052938
  outer loop
    vertex 9.415780 20.153601 -3.000000
    vertex 15.000000 25.500000 -3.000000
    vertex 9.664350 19.665800 -3.000000
  endloop
endfacet
facet normal 0.000000 0.000000 -4.232121
  outer loop
    vertex 9.028620 20.540800 -3.000000
    vertex 15.000000 25.500000 -3.000000
    vertex 9.415780 20.153601 -3.000000
  endloop
endfacet
facet normal 0.000000 0.000000 -3.903188
  outer loop
    vertex 8.540780 20.789301 -3.000000
    vertex 15.000000 25.500000 -3.000000
    vertex 9.028620 20.540800 -3.000000
  endloop
endfacet
facet normal 0.000000 0.000000 -3.101001
  outer loop
    vertex 8.000000 20.875000 -3.000000
    vertex 15.000000 25.500000 -3.000000
    vertex 8.540780 20.789301 -3.000000
  endloop
endfacet
facet normal 0.000000 0.000000 -3.186699
  outer loop
    vertex 0.000000 25.500000 -3.000000
    vertex 8.000000 20.875000 -3.000000
    vertex 7.459220 20.789301 -3.000000
  endloop
endfacet
facet normal 0.000000 0.000000 -4.151691
  outer loop
    vertex 0.000000 25.500000 -3.000000
    vertex 7.459220 20.789301 -3.000000
    vertex 6.971380 20.540800 -3.000000
  endloop
endfacet
facet normal 0.000000 0.000000 -69.375000
  outer loop
    vertex 8.000000 20.875000 -3.000000
    vertex 0.000000 25.500000 -3.000000
    vertex 15.000000 25.500000 -3.000000
  endloop
endfacet
facet normal 0.000000 0.000000 -4.619320
  outer loop
    vertex 6.584220 20.153601 -3.000000
    vertex 0.000000 25.500000 -3.000000
    vertex 6.971380 20.540800 -3.000000
  endloop
endfacet
facet normal 0.000000 0.000000 -4.540740
  outer loop
    vertex 6.335650 19.665800 -3.000000
    vertex 0.000000 25.500000 -3.000000
    vertex 6.584220 20.153601 -3.000000
  endloop
endfacet
facet normal 0.000000 0.000000 -3.926018
  outer loop
    vertex 0.000000 25.500000 -3.000000
    vertex 6.335650 19.665800 -3.000000
    vertex 6.250000 19.125000 -3.000000
  endloop
endfacet
facet normal 0.000000 0.000000 67.561203
  outer loop
    vertex 15.000000 25.500000 9.000000
    vertex 9.750000 19.125000 9.000000
    vertex 15.000000 12.631200 9.000000
  endloop
endfacet
facet normal 0.000000 0.000000 3.385221
  outer loop
    vertex 15.000000 25.500000 9.000000
    vertex 9.664350 19.665800 9.000000
    vertex 9.750000 19.125000 9.000000
  endloop
endfacet
facet normal 0.000000 0.000000 4.052938
  outer loop
    vertex 15.000000 25.500000 9.000000
    vertex 9.415780 20.153601 9.000000
    vertex 9.664350 19.665800 9.000000
  endloop
endfacet
facet normal 0.000000 0.000000 4.232121
  outer loop
    vertex 15.000000 25.500000 9.000000
    vertex 9.028620 20.540800 9.000000
    vertex 9.415780 20.153601 9.000000
  endloop
endfacet
facet normal 0.000000 0.000000 3.903187
  outer loop
    vertex 15.000000 25.500000 9.000000
    vertex 8.540780 20.789301 9.000000
    vertex 9.028620 20.540800 9.000000
  endloop
endfacet
facet normal 0.000000 0.000000 3.101000
  outer loop
    vertex 15.000000 25.500000 9.000000
    vertex 8.000000 20.875000 9.000000
    vertex 8.540780 20.789301 9.000000
  endloop
endfacet
facet normal -0.000000 0.000000 69.375000
  outer loop
    vertex 0.000000 25.500000 9.000000
    vertex 8.000000 20.875000 9.000000
    vertex 15.000000 25.500000 9.000000
  endloop
endfacet
facet normal 0.000000 0.000000 3.186700
  outer loop
    vertex 8.000000 20.875000 9.000000
    vertex 0.000000 25.500000 9.000000
    vertex 7.459220 20.789301 9.000000
  endloop
endfacet
facet normal 0.000000 0.000000 3.926019
  outer loop
    vertex 6.335650 19.665800 9.000000
    vertex 0.000000 25.500000 9.000000
    vertex 6.250000 19.125000 9.000000
  endloop
endfacet
facet normal 0.000000 0.000000 4.540741
  outer loop
    vertex 6.584220 20.153601 9.000000
    vertex 0.000000 25.500000 9.000000
    vertex 6.335650 19.665800 9.000000
  endloop
endfacet
facet normal 0.000000 0.000000 4.619320
  outer loop
    vertex 6.971380 20.540800 9.000000
    vertex 0.000000 25.500000 9.000000
    vertex 6.584220 20.153601 9.000000
  endloop
endfacet
facet normal 0.000000 0.000000 4.151689
  outer loop
    vertex 7.459220 20.789301 9.000000
    vertex 0.000000 25.500000 9.000000
    vertex 6.971380 20.540800 9.000000
  endloop
endfacet
facet normal -0.000000 0.000000 3.395397
  outer loop
    vertex 9.664350 18.584200 9.000000
    vertex 15.000000 12.631200 9.000000
    vertex 9.750000 19.125000 9.000000
  endloop
endfacet
facet normal -0.000000 0.000000 4.082468
  outer loop
    vertex 9.415780 18.096399 9.000000
    vertex 15.000000 12.631200 9.000000
    vertex 9.664350 18.584200 9.000000
  endloop
endfacet
facet normal -0.000000 0.000000 4.278115
  outer loop
    vertex 9.028620 17.709200 9.000000
    vertex 15.000000 12.631200 9.000000
    vertex 9.415780 18.096399 9.000000
  endloop
endfacet
facet normal -0.000000 0.000000 3.961143
  outer loop
    vertex 8.540780 17.460699 9.000000
    vertex 15.000000 12.631200 9.000000
    vertex 9.028620 17.709200 9.000000
  endloop
endfacet
facet normal -0.000000 0.000000 3.165246
  outer loop
    vertex 8.000000 17.375000 9.000000
    vertex 15.000000 12.631200 9.000000
    vertex 8.540780 17.460699 9.000000
  endloop
endfacet
facet normal 0.000000 0.000000 3.250946
  outer loop
    vertex 0.000000 12.631200 9.000000
    vertex 8.000000 17.375000 9.000000
    vertex 7.459220 17.460699 9.000000
  endloop
endfacet
facet normal 0.000000 0.000000 4.209644
  outer loop
    vertex 0.000000 12.631200 9.000000
    vertex 7.459220 17.460699 9.000000
    vertex 6.971380 17.709200 9.000000
  endloop
endfacet
facet normal 0.000000 0.000000 80.430000
  outer loop
    vertex 0.000000 12.631200 9.000000
    vertex 6.250000 19.125000 9.000000
    vertex 0.000000 25.500000 9.000000
  endloop
endfacet
facet normal 0.000000 0.000000 3.936194
  outer loop
    vertex 6.250000 19.125000 9.000000
    vertex 0.000000 12.631200 9.000000
    vertex 6.335650 18.584200 9.000000
  endloop
endfacet
facet normal 0.000000 0.000000 71.156998
  outer loop
    vertex 8.000000 17.375000 9.000000
    vertex 0.000000 12.631200 9.000000
    vertex 15.000000 12.631200 9.000000
  endloop
endfacet
facet normal 0.000000 0.000000 4.665315
  outer loop
    vertex 6.584220 18.096399 9.000000
    vertex 0.000000 12.631200 9.000000
    vertex 6.971380 17.709200 9.000000
  endloop
endfacet
facet normal 0.000000 0.000000 4.570271
  outer loop
    vertex 6.335650 18.584200 9.000000
    vertex 0.000000 12.631200 9.000000
    vertex 6.584220 18.096399 9.000000
  endloop
endfacet
facet normal 0.000000 39.000000 -0.000000
  outer loop
    vertex 15.000000 25.500000 6.400000
    vertex 0.000000 25.500000 9.000000
    vertex 15.000000 25.500000 9.000000
  endloop
endfacet
facet normal 0.000000 39.000000 0.000000
  outer loop
    vertex 0.000000 25.500000 9.000000
    vertex 15.000000 25.500000 6.400000
    vertex 0.000000 25.500000 6.400000
  endloop
endfacet
facet normal 0.000000 73.599998 -0.000000
  outer loop
    vertex 3.500000 0.000000 0.000000
    vertex 3.500000 0.000000 6.400000
    vertex 15.000000 0.000000 6.400000
  endloop
endfacet
facet normal 0.000000 73.599998 0.000000
  outer loop
    vertex 3.500000 0.000000 0.000000
    vertex 15.000000 0.000000 6.400000
    vertex 15.000000 0.000000 0.000000
  endloop
endfacet
facet normal 0.000000 22.400000 0.000000
  outer loop
    vertex 3.500000 0.000000 6.400000
    vertex 3.500000 0.000000 0.000000
    vertex 0.000000 0.000000 6.400000
  endloop
endfacet
facet normal 0.000000 22.400000 0.000000
  outer loop
    vertex 0.000000 0.000000 6.400000
    vertex 3.500000 0.000000 0.000000
    vertex 0.000000 0.000000 0.000000
  endloop
endfacet
facet normal 0.000000 0.000000 -31.853676
  outer loop
    vertex 0.000000 0.000000 6.400000
    vertex 3.500000 9.101050 6.400000
    vertex 3.500000 0.000000 6.400000
  endloop
endfacet
facet normal -0.000000 0.000000 -89.250000
  outer loop
    vertex 3.500000 9.101050 6.400000
    vertex 0.000000 0.000000 6.400000
    vertex 0.000000 25.500000 6.400000
  endloop
endfacet
facet normal 0.000000 0.000000 -87.499062
  outer loop
    vertex 9.664350 18.584200 6.400000
    vertex 15.000000 25.500000 6.400000
    vertex 15.000000 9.101050 6.400000
  endloop
endfacet
facet normal 0.000000 0.000000 -2.293179
  outer loop
    vertex 15.000000 25.500000 6.400000
    vertex 9.664350 18.584200 6.400000
    vertex 9.750000 19.125000 6.400000
  endloop
endfacet
facet normal 0.000000 0.000000 -4.959957
  outer loop
    vertex 15.000000 9.101050 6.400000
    vertex 9.415780 18.096399 6.400000
    vertex 9.664350 18.584200 6.400000
  endloop
endfacet
facet normal 0.000000 0.000000 -5.644848
  outer loop
    vertex 15.000000 9.101050 6.400000
    vertex 9.028620 17.709200 6.400000
    vertex 9.415780 18.096399 6.400000
  endloop
endfacet
facet normal 0.000000 0.000000 -5.683292
  outer loop
    vertex 15.000000 9.101050 6.400000
    vertex 8.540780 17.460699 6.400000
    vertex 9.028620 17.709200 6.400000
  endloop
endfacet
facet normal 0.000000 0.000000 -5.074280
  outer loop
    vertex 15.000000 9.101050 6.400000
    vertex 8.000000 17.375000 6.400000
    vertex 8.540780 17.460699 6.400000
  endloop
endfacet
facet normal 0.000000 0.000000 -95.150421
  outer loop
    vertex 3.500000 9.101050 6.400000
    vertex 8.000000 17.375000 6.400000
    vertex 15.000000 9.101050 6.400000
  endloop
endfacet
facet normal -0.000000 0.000000 -4.860033
  outer loop
    vertex 8.000000 17.375000 6.400000
    vertex 3.500000 9.101050 6.400000
    vertex 7.459220 17.460699 6.400000
  endloop
endfacet
facet normal -0.000000 0.000000 -5.062038
  outer loop
    vertex 7.459220 17.460699 6.400000
    vertex 3.500000 9.101050 6.400000
    vertex 6.971380 17.709200 6.400000
  endloop
endfacet
facet normal 0.000000 0.000000 -79.692696
  outer loop
    vertex 0.000000 25.500000 6.400000
    vertex 6.335650 18.584200 6.400000
    vertex 3.500000 9.101050 6.400000
  endloop
endfacet
facet normal -0.000000 0.000000 -3.740458
  outer loop
    vertex 6.584220 18.096399 6.400000
    vertex 3.500000 9.101050 6.400000
    vertex 6.335650 18.584200 6.400000
  endloop
endfacet
facet normal -0.000000 0.000000 -4.676850
  outer loop
    vertex 6.971380 17.709200 6.400000
    vertex 3.500000 9.101050 6.400000
    vertex 6.584220 18.096399 6.400000
  endloop
endfacet
facet normal 0.000000 0.000000 -3.385222
  outer loop
    vertex 9.664350 19.665800 6.400000
    vertex 15.000000 25.500000 6.400000
    vertex 9.750000 19.125000 6.400000
  endloop
endfacet
facet normal 0.000000 0.000000 -4.052938
  outer loop
    vertex 9.415780 20.153601 6.400000
    vertex 15.000000 25.500000 6.400000
    vertex 9.664350 19.665800 6.400000
  endloop
endfacet
facet normal 0.000000 0.000000 -4.232121
  outer loop
    vertex 9.028620 20.540800 6.400000
    vertex 15.000000 25.500000 6.400000
    vertex 9.415780 20.153601 6.400000
  endloop
endfacet
facet normal 0.000000 0.000000 -3.903188
  outer loop
    vertex 8.540780 20.789301 6.400000
    vertex 15.000000 25.500000 6.400000
    vertex 9.028620 20.540800 6.400000
  endloop
endfacet
facet normal 0.000000 0.000000 -3.101001
  outer loop
    vertex 8.000000 20.875000 6.400000
    vertex 15.000000 25.500000 6.400000
    vertex 8.540780 20.789301 6.400000
  endloop
endfacet
facet normal 0.000000 0.000000 -3.186699
  outer loop
    vertex 0.000000 25.500000 6.400000
    vertex 8.000000 20.875000 6.400000
    vertex 7.459220 20.789301 6.400000
  endloop
endfacet
facet normal 0.000000 0.000000 -4.151691
  outer loop
    vertex 0.000000 25.500000 6.400000
    vertex 7.459220 20.789301 6.400000
    vertex 6.971380 20.540800 6.400000
  endloop
endfacet
facet normal 0.000000 0.000000 -2.833982
  outer loop
    vertex 6.335650 18.584200 6.400000
    vertex 0.000000 25.500000 6.400000
    vertex 6.250000 19.125000 6.400000
  endloop
endfacet
facet normal 0.000000 0.000000 -69.375000
  outer loop
    vertex 8.000000 20.875000 6.400000
    vertex 0.000000 25.500000 6.400000
    vertex 15.000000 25.500000 6.400000
  endloop
endfacet
facet normal 0.000000 0.000000 -4.619320
  outer loop
    vertex 6.584220 20.153601 6.400000
    vertex 0.000000 25.500000 6.400000
    vertex 6.971380 20.540800 6.400000
  endloop
endfacet
facet normal 0.000000 0.000000 -4.540740
  outer loop
    vertex 6.335650 19.665800 6.400000
    vertex 0.000000 25.500000 6.400000
    vertex 6.584220 20.153601 6.400000
  endloop
endfacet
facet normal 0.000000 0.000000 -3.926019
  outer loop
    vertex 6.250000 19.125000 6.400000
    vertex 0.000000 25.500000 6.400000
    vertex 6.335650 19.665800 6.400000
  endloop
endfacet
facet normal 0.000000 -0.441699 -0.069930
  outer loop
    vertex 0.000000 1.684330 10.164600
    vertex 3.500000 1.664350 10.290800
    vertex 0.000000 1.664350 10.290800
  endloop
endfacet
facet normal 0.000001 -0.662552 -0.104930
  outer loop
    vertex 3.500000 1.664350 10.290800
    vertex 0.000000 1.684330 10.164600
    vertex 3.500000 1.694330 10.101500
  endloop
endfacet
facet normal 0.000002 -1.451101 -0.229845
  outer loop
    vertex 0.000000 1.750000 9.750000
    vertex 3.500000 1.694330 10.101500
    vertex 0.000000 1.684330 10.164600
  endloop
endfacet
facet normal 0.000000 -1.230248 -0.194845
  outer loop
    vertex 3.500000 1.694330 10.101500
    vertex 0.000000 1.750000 9.750000
    vertex 3.500000 1.750000 9.750000
  endloop
endfacet
facet normal -0.000000 -0.194951 -1.230271
  outer loop
    vertex 0.000000 0.000000 11.500000
    vertex 3.500000 0.351506 11.444300
    vertex 3.500000 0.000000 11.500000
  endloop
endfacet
facet normal 0.000001 -0.229949 -1.451090
  outer loop
    vertex 3.500000 0.351506 11.444300
    vertex 0.000000 0.000000 11.500000
    vertex 0.000000 0.414597 11.434300
  endloop
endfacet
facet normal 0.000000 0.069932 0.441637
  outer loop
    vertex -0.000000 -0.126182 8.019980
    vertex 3.500000 0.000000 8.000000
    vertex 0.000000 0.000000 8.000000
  endloop
endfacet
facet normal -0.000001 0.104929 0.662455
  outer loop
    vertex 3.500000 0.000000 8.000000
    vertex -0.000000 -0.126182 8.019980
    vertex 3.500000 -0.189273 8.029980
  endloop
endfacet
facet normal 0.000000 -0.441629 0.069965
  outer loop
    vertex 0.000000 1.730010 9.623820
    vertex 3.500000 1.750000 9.750000
    vertex 0.000000 1.750000 9.750000
  endloop
endfacet
facet normal 0.000001 -0.662445 0.104930
  outer loop
    vertex 3.500000 1.750000 9.750000
    vertex 0.000000 1.730010 9.623820
    vertex 3.500000 1.720020 9.560730
  endloop
endfacet
facet normal 0.000000 -1.707299 -0.869995
  outer loop
    vertex 0.000000 1.664350 10.290800
    vertex 3.500000 1.415780 10.778600
    vertex 0.000000 1.415780 10.778600
  endloop
endfacet
facet normal 0.000000 -1.707299 -0.869995
  outer loop
    vertex 3.500000 1.415780 10.778600
    vertex 0.000000 1.664350 10.290800
    vertex 3.500000 1.664350 10.290800
  endloop
endfacet
facet normal 0.000000 -1.355061 1.355060
  outer loop
    vertex 0.000000 1.028620 8.334220
    vertex 3.500000 1.415780 8.721380
    vertex 0.000000 1.415780 8.721380
  endloop
endfacet
facet normal 0.000000 -1.355061 1.355060
  outer loop
    vertex 3.500000 1.415780 8.721380
    vertex 0.000000 1.028620 8.334220
    vertex 3.500000 1.028620 8.334220
  endloop
endfacet
facet normal 0.000000 1.707299 -0.869995
  outer loop
    vertex 3.500000 -1.664350 10.290800
    vertex -0.000000 -1.415780 10.778600
    vertex 3.500000 -1.415780 10.778600
  endloop
endfacet
facet normal 0.000000 1.707299 -0.869995
  outer loop
    vertex -0.000000 -1.415780 10.778600
    vertex 3.500000 -1.664350 10.290800
    vertex -0.000000 -1.664350 10.290800
  endloop
endfacet
facet normal 0.000000 0.869750 -1.707443
  outer loop
    vertex 3.500000 -1.028620 11.165800
    vertex -0.000000 -0.540779 11.414300
    vertex 3.500000 -0.540779 11.414300
  endloop
endfacet
facet normal 0.000000 0.869750 -1.707443
  outer loop
    vertex -0.000000 -0.540779 11.414300
    vertex 3.500000 -1.028620 11.165800
    vertex -0.000000 -1.028620 11.165800
  endloop
endfacet
facet normal 0.000000 1.355061 1.355060
  outer loop
    vertex 3.500000 -1.028620 8.334220
    vertex -0.000000 -1.415780 8.721380
    vertex 3.500000 -1.415780 8.721380
  endloop
endfacet
facet normal 0.000000 1.355061 1.355060
  outer loop
    vertex -0.000000 -1.415780 8.721380
    vertex 3.500000 -1.028620 8.334220
    vertex -0.000000 -1.028620 8.334220
  endloop
endfacet
facet normal 0.000000 1.707439 0.869995
  outer loop
    vertex 3.500000 -1.415780 8.721380
    vertex -0.000000 -1.664350 9.209220
    vertex 3.500000 -1.664350 9.209220
  endloop
endfacet
facet normal 0.000000 1.707439 0.869995
  outer loop
    vertex -0.000000 -1.664350 9.209220
    vertex 3.500000 -1.415780 8.721380
    vertex -0.000000 -1.415780 8.721380
  endloop
endfacet
facet normal -0.000000 0.869993 1.707443
  outer loop
    vertex -0.000000 -0.540779 8.085650
    vertex 3.500000 -1.028620 8.334220
    vertex 3.500000 -0.540779 8.085650
  endloop
endfacet
facet normal 0.000000 0.869993 1.707443
  outer loop
    vertex 3.500000 -1.028620 8.334220
    vertex -0.000000 -0.540779 8.085650
    vertex -0.000000 -1.028620 8.334220
  endloop
endfacet
facet normal 0.000000 -0.869993 1.707443
  outer loop
    vertex 0.000000 1.028620 8.334220
    vertex 3.500000 0.540779 8.085650
    vertex 3.500000 1.028620 8.334220
  endloop
endfacet
facet normal 0.000000 -0.869993 1.707443
  outer loop
    vertex 3.500000 0.540779 8.085650
    vertex 0.000000 1.028620 8.334220
    vertex 0.000000 0.540779 8.085650
  endloop
endfacet
facet normal 0.000000 0.194951 -1.230271
  outer loop
    vertex 3.500000 -0.351506 11.444300
    vertex 0.000000 0.000000 11.500000
    vertex 3.500000 0.000000 11.500000
  endloop
endfacet
facet normal 0.000001 0.229949 -1.451090
  outer loop
    vertex 0.000000 0.000000 11.500000
    vertex 3.500000 -0.351506 11.444300
    vertex -0.000000 -0.414597 11.434300
  endloop
endfacet
facet normal 0.000000 -0.869750 -1.707443
  outer loop
    vertex 3.500000 0.540779 11.414300
    vertex 0.000000 1.028620 11.165800
    vertex 3.500000 1.028620 11.165800
  endloop
endfacet
facet normal 0.000000 -0.869750 -1.707443
  outer loop
    vertex 0.000000 1.028620 11.165800
    vertex 3.500000 0.540779 11.414300
    vertex 0.000000 0.540779 11.414300
  endloop
endfacet
facet normal -0.000000 -0.104999 -0.662455
  outer loop
    vertex 0.000000 0.414597 11.434300
    vertex 3.500000 0.540779 11.414300
    vertex 3.500000 0.351506 11.444300
  endloop
endfacet
facet normal -0.000000 -0.070002 -0.441637
  outer loop
    vertex 3.500000 0.540779 11.414300
    vertex 0.000000 0.414597 11.434300
    vertex 0.000000 0.540779 11.414300
  endloop
endfacet
facet normal 0.000000 1.230248 -0.194845
  outer loop
    vertex -0.000000 -1.750000 9.750000
    vertex 3.500000 -1.694330 10.101500
    vertex 3.500000 -1.750000 9.750000
  endloop
endfacet
facet normal 0.000002 1.451101 -0.229845
  outer loop
    vertex 3.500000 -1.694330 10.101500
    vertex -0.000000 -1.750000 9.750000
    vertex -0.000000 -1.684330 10.164600
  endloop
endfacet
facet normal 0.000000 0.441699 -0.069930
  outer loop
    vertex 3.500000 -1.664350 10.290800
    vertex -0.000000 -1.684330 10.164600
    vertex -0.000000 -1.664350 10.290800
  endloop
endfacet
facet normal 0.000001 0.662552 -0.104930
  outer loop
    vertex -0.000000 -1.684330 10.164600
    vertex 3.500000 -1.664350 10.290800
    vertex 3.500000 -1.694330 10.101500
  endloop
endfacet
facet normal -0.000002 0.229845 1.451089
  outer loop
    vertex -0.000000 -0.540779 8.085650
    vertex 3.500000 -0.189273 8.029980
    vertex -0.000000 -0.126182 8.019980
  endloop
endfacet
facet normal 0.000000 0.194848 1.230271
  outer loop
    vertex 3.500000 -0.189273 8.029980
    vertex -0.000000 -0.540779 8.085650
    vertex 3.500000 -0.540779 8.085650
  endloop
endfacet
facet normal -0.000001 -0.104929 0.662455
  outer loop
    vertex 0.000000 0.126182 8.019980
    vertex 3.500000 0.000000 8.000000
    vertex 3.500000 0.189273 8.029980
  endloop
endfacet
facet normal -0.000000 -0.069932 0.441637
  outer loop
    vertex 3.500000 0.000000 8.000000
    vertex 0.000000 0.126182 8.019980
    vertex 0.000000 0.000000 8.000000
  endloop
endfacet
facet normal 0.000000 -0.194848 1.230271
  outer loop
    vertex 0.000000 0.540779 8.085650
    vertex 3.500000 0.189273 8.029980
    vertex 3.500000 0.540779 8.085650
  endloop
endfacet
facet normal -0.000002 -0.229845 1.451090
  outer loop
    vertex 3.500000 0.189273 8.029980
    vertex 0.000000 0.540779 8.085650
    vertex 0.000000 0.126182 8.019980
  endloop
endfacet
facet normal 0.000000 -1.707439 0.869995
  outer loop
    vertex 0.000000 1.415780 8.721380
    vertex 3.500000 1.664350 9.209220
    vertex 0.000000 1.664350 9.209220
  endloop
endfacet
facet normal 0.000000 -1.707439 0.869995
  outer loop
    vertex 3.500000 1.664350 9.209220
    vertex 0.000000 1.415780 8.721380
    vertex 3.500000 1.415780 8.721380
  endloop
endfacet
facet normal 0.000001 -1.451101 0.229810
  outer loop
    vertex 0.000000 1.664350 9.209220
    vertex 3.500000 1.720020 9.560730
    vertex 0.000000 1.730010 9.623820
  endloop
endfacet
facet normal 0.000000 -1.230285 0.194845
  outer loop
    vertex 3.500000 1.720020 9.560730
    vertex 0.000000 1.664350 9.209220
    vertex 3.500000 1.664350 9.209220
  endloop
endfacet
facet normal 0.000000 -1.355201 -1.355060
  outer loop
    vertex 0.000000 1.415780 10.778600
    vertex 3.500000 1.028620 11.165800
    vertex 0.000000 1.028620 11.165800
  endloop
endfacet
facet normal 0.000000 -1.355201 -1.355060
  outer loop
    vertex 3.500000 1.028620 11.165800
    vertex 0.000000 1.415780 10.778600
    vertex 3.500000 1.415780 10.778600
  endloop
endfacet
facet normal 0.000000 0.441629 0.069965
  outer loop
    vertex 3.500000 -1.750000 9.750000
    vertex -0.000000 -1.730010 9.623820
    vertex -0.000000 -1.750000 9.750000
  endloop
endfacet
facet normal 0.000001 0.662445 0.104930
  outer loop
    vertex -0.000000 -1.730010 9.623820
    vertex 3.500000 -1.750000 9.750000
    vertex 3.500000 -1.720020 9.560730
  endloop
endfacet
facet normal -0.000000 1.230285 0.194845
  outer loop
    vertex -0.000000 -1.664350 9.209220
    vertex 3.500000 -1.720020 9.560730
    vertex 3.500000 -1.664350 9.209220
  endloop
endfacet
facet normal 0.000001 1.451101 0.229810
  outer loop
    vertex 3.500000 -1.720020 9.560730
    vertex -0.000000 -1.664350 9.209220
    vertex -0.000000 -1.730010 9.623820
  endloop
endfacet
facet normal -0.000000 0.104999 -0.662455
  outer loop
    vertex 3.500000 -0.540779 11.414300
    vertex -0.000000 -0.414597 11.434300
    vertex 3.500000 -0.351506 11.444300
  endloop
endfacet
facet normal 0.000000 0.070002 -0.441637
  outer loop
    vertex -0.000000 -0.414597 11.434300
    vertex 3.500000 -0.540779 11.414300
    vertex -0.000000 -0.540779 11.414300
  endloop
endfacet
facet normal 0.000000 1.355201 -1.355060
  outer loop
    vertex 3.500000 -1.415780 10.778600
    vertex -0.000000 -1.028620 11.165800
    vertex 3.500000 -1.028620 11.165800
  endloop
endfacet
facet normal 0.000000 1.355201 -1.355060
  outer loop
    vertex -0.000000 -1.028620 11.165800
    vertex 3.500000 -1.415780 10.778600
    vertex -0.000000 -1.415780 10.778600
  endloop
endfacet
facet normal 0.000000 -26.563854 -4.207269
  outer loop
    vertex 3.500000 9.272800 12.762900
    vertex 15.000000 9.638650 10.453000
    vertex 15.000000 9.272800 12.762900
  endloop
endfacet
facet normal 0.000000 -31.256994 -15.926126
  outer loop
    vertex 3.500000 9.272800 12.762900
    vertex 15.000000 7.887920 15.480900
    vertex 3.500000 7.887920 15.480900
  endloop
endfacet
facet normal 0.000000 -31.256994 -15.926126
  outer loop
    vertex 15.000000 7.887920 15.480900
    vertex 3.500000 9.272800 12.762900
    vertex 15.000000 9.272800 12.762900
  endloop
endfacet
facet normal -0.000015 -34.648354 -5.487795
  outer loop
    vertex 3.500000 9.750000 9.750000
    vertex 15.000000 9.638650 10.453000
    vertex 3.500000 9.272800 12.762900
  endloop
endfacet
facet normal 0.000000 -8.084501 -1.280526
  outer loop
    vertex 15.000000 9.638650 10.453000
    vertex 3.500000 9.750000 9.750000
    vertex 15.000000 9.750000 9.750000
  endloop
endfacet
facet normal 0.000000 5.487795 -34.648579
  outer loop
    vertex 3.500000 -3.012920 19.022800
    vertex 15.000000 0.000000 19.500000
    vertex 15.000000 -3.012920 19.022800
  endloop
endfacet
facet normal 0.000000 5.487795 -34.648579
  outer loop
    vertex 15.000000 0.000000 19.500000
    vertex 3.500000 -3.012920 19.022800
    vertex 3.500000 0.000000 19.500000
  endloop
endfacet
facet normal 0.000000 31.256884 15.926126
  outer loop
    vertex 15.000000 -7.887920 4.019090
    vertex 3.500000 -9.272800 6.737080
    vertex 15.000000 -9.272800 6.737080
  endloop
endfacet
facet normal 0.000000 31.256884 15.926126
  outer loop
    vertex 3.500000 -9.272800 6.737080
    vertex 15.000000 -7.887920 4.019090
    vertex 3.500000 -7.887920 4.019090
  endloop
endfacet
facet normal 0.000000 -24.805496 -24.805616
  outer loop
    vertex 3.500000 7.887920 15.480900
    vertex 15.000000 5.730910 17.637899
    vertex 3.500000 5.730910 17.637899
  endloop
endfacet
facet normal 0.000000 -24.805496 -24.805616
  outer loop
    vertex 15.000000 5.730910 17.637899
    vertex 3.500000 7.887920 15.480900
    vertex 15.000000 7.887920 15.480900
  endloop
endfacet
facet normal 0.000000 -0.000000 0.000000
  outer loop
    vertex 3.500030 0.000006 0.000000
    vertex 3.500000 0.000006 0.000000
    vertex 3.500000 0.000000 -0.000001
  endloop
endfacet
facet normal 0.974657 0.000000 -0.000000
  outer loop
    vertex 3.500000 -6.000000 2.131180
    vertex 3.500000 -6.000000 2.647440
    vertex 3.500000 -7.887920 4.019090
  endloop
endfacet
facet normal -0.000000 -5.487795 -34.648579
  outer loop
    vertex 3.500000 0.000000 19.500000
    vertex 15.000000 3.012920 19.022800
    vertex 15.000000 0.000000 19.500000
  endloop
endfacet
facet normal -0.000000 -5.487795 -34.648579
  outer loop
    vertex 15.000000 3.012920 19.022800
    vertex 3.500000 0.000000 19.500000
    vertex 3.500000 3.012920 19.022800
  endloop
endfacet
facet normal 0.000000 24.805496 -24.805616
  outer loop
    vertex 15.000000 -7.887920 15.480900
    vertex 3.500000 -5.730910 17.637899
    vertex 15.000000 -5.730910 17.637899
  endloop
endfacet
facet normal 0.000000 24.805496 -24.805616
  outer loop
    vertex 3.500000 -5.730910 17.637899
    vertex 15.000000 -7.887920 15.480900
    vertex 3.500000 -7.887920 15.480900
  endloop
endfacet
facet normal 2.811996 0.000000 0.000000
  outer loop
    vertex 3.500000 9.750000 9.750000
    vertex 3.500000 1.694330 10.101500
    vertex 3.500000 1.750000 9.750000
  endloop
endfacet
facet normal 0.990067 0.000000 0.000000
  outer loop
    vertex 3.500000 5.730910 17.637899
    vertex 3.500000 1.664350 10.290800
    vertex 3.500000 1.694330 10.101500
  endloop
endfacet
facet normal 3.809935 0.000000 0.000000
  outer loop
    vertex 3.500000 5.730910 17.637899
    vertex 3.500000 1.415780 10.778600
    vertex 3.500000 1.664350 10.290800
  endloop
endfacet
facet normal 4.326466 0.000000 0.000000
  outer loop
    vertex 3.500000 5.730910 17.637899
    vertex 3.500000 1.028620 11.165800
    vertex 3.500000 1.415780 10.778600
  endloop
endfacet
facet normal 4.326064 0.000000 0.000000
  outer loop
    vertex 3.500000 3.012920 19.022800
    vertex 3.500000 0.540779 11.414300
    vertex 3.500000 1.028620 11.165800
  endloop
endfacet
facet normal 1.514248 0.000000 0.000000
  outer loop
    vertex 3.500000 3.012920 19.022800
    vertex 3.500000 0.351506 11.444300
    vertex 3.500000 0.540779 11.414300
  endloop
endfacet
facet normal 24.103441 0.000000 0.000000
  outer loop
    vertex 3.500000 0.000000 19.500000
    vertex 3.500000 0.351506 11.444300
    vertex 3.500000 3.012920 19.022800
  endloop
endfacet
facet normal 2.812048 0.000000 0.000000
  outer loop
    vertex 3.500000 0.000000 19.500000
    vertex 3.500000 0.000000 11.500000
    vertex 3.500000 0.351506 11.444300
  endloop
endfacet
facet normal 2.812048 0.000000 0.000000
  outer loop
    vertex 3.500000 0.000000 19.500000
    vertex 3.500000 -0.351506 11.444300
    vertex 3.500000 0.000000 11.500000
  endloop
endfacet
facet normal 24.103441 -0.000000 0.000000
  outer loop
    vertex 3.500000 -3.012920 19.022800
    vertex 3.500000 -0.351506 11.444300
    vertex 3.500000 0.000000 19.500000
  endloop
endfacet
facet normal 1.514247 0.000000 0.000000
  outer loop
    vertex 3.500000 -0.351506 11.444300
    vertex 3.500000 -3.012920 19.022800
    vertex 3.500000 -0.540779 11.414300
  endloop
endfacet
facet normal 4.326065 0.000000 0.000000
  outer loop
    vertex 3.500000 -0.540779 11.414300
    vertex 3.500000 -3.012920 19.022800
    vertex 3.500000 -1.028620 11.165800
  endloop
endfacet
facet normal 24.103306 -0.000000 0.000000
  outer loop
    vertex 3.500000 -5.730910 17.637899
    vertex 3.500000 -1.028620 11.165800
    vertex 3.500000 -3.012920 19.022800
  endloop
endfacet
facet normal 4.325959 0.000000 0.000000
  outer loop
    vertex 3.500000 -1.415780 10.778600
    vertex 3.500000 -7.887920 15.480900
    vertex 3.500000 -1.664350 10.290800
  endloop
endfacet
facet normal 24.103312 -0.000000 0.000000
  outer loop
    vertex 3.500000 -7.887920 15.480900
    vertex 3.500000 -1.415780 10.778600
    vertex 3.500000 -5.730910 17.637899
  endloop
endfacet
facet normal 4.326466 0.000000 0.000000
  outer loop
    vertex 3.500000 -1.028620 11.165800
    vertex 3.500000 -5.730910 17.637899
    vertex 3.500000 -1.415780 10.778600
  endloop
endfacet
facet normal 24.103195 -0.000000 0.000000
  outer loop
    vertex 3.500000 1.694330 10.101500
    vertex 3.500000 9.750000 9.750000
    vertex 3.500000 9.272800 12.762900
  endloop
endfacet
facet normal 1.514160 0.000000 0.000000
  outer loop
    vertex 3.500000 1.720020 9.560730
    vertex 3.500000 9.750000 9.750000
    vertex 3.500000 1.750000 9.750000
  endloop
endfacet
facet normal 24.283998 0.000000 0.000000
  outer loop
    vertex 3.500000 1.694330 10.101500
    vertex 3.500000 9.272800 12.762900
    vertex 3.500000 7.887920 15.480900
  endloop
endfacet
facet normal 24.962992 0.000000 0.000000
  outer loop
    vertex 3.500000 1.694330 10.101500
    vertex 3.500000 7.887920 15.480900
    vertex 3.500000 5.730910 17.637899
  endloop
endfacet
facet normal 24.103306 0.000000 0.000000
  outer loop
    vertex 3.500000 1.028620 11.165800
    vertex 3.500000 5.730910 17.637899
    vertex 3.500000 3.012920 19.022800
  endloop
endfacet
facet normal 24.103367 0.000000 0.000000
  outer loop
    vertex 3.500000 9.750000 9.750000
    vertex 3.500000 1.720020 9.560730
    vertex 3.500000 9.272800 6.737080
  endloop
endfacet
facet normal 2.812071 -0.000000 0.000000
  outer loop
    vertex 3.500000 1.664350 9.209220
    vertex 3.500000 9.272800 6.737080
    vertex 3.500000 1.720020 9.560730
  endloop
endfacet
facet normal 2.989247 0.000000 0.000000
  outer loop
    vertex 3.500000 9.272800 6.737080
    vertex 3.500000 1.664350 9.209220
    vertex 3.500000 9.101050 6.400000
  endloop
endfacet
facet normal 4.326205 -0.000000 0.000000
  outer loop
    vertex 3.500000 1.415780 8.721380
    vertex 3.500000 9.101050 6.400000
    vertex 3.500000 1.664350 9.209220
  endloop
endfacet
facet normal 3.874177 -0.000000 0.000000
  outer loop
    vertex 3.500000 1.028620 8.334220
    vertex 3.500000 9.101050 6.400000
    vertex 3.500000 1.415780 8.721380
  endloop
endfacet
facet normal 0.687908 0.000000 0.000000
  outer loop
    vertex 3.500000 0.000000 6.400000
    vertex 3.500000 1.028620 8.334220
    vertex 3.500000 0.540779 8.085650
  endloop
endfacet
facet normal 0.562411 0.000000 0.000000
  outer loop
    vertex 3.500000 0.000000 6.400000
    vertex 3.500000 0.540779 8.085650
    vertex 3.500000 0.189273 8.029980
  endloop
endfacet
facet normal 0.302837 0.000000 0.000000
  outer loop
    vertex 3.500000 0.000000 6.400000
    vertex 3.500000 0.189273 8.029980
    vertex 3.500000 0.000000 8.000000
  endloop
endfacet
facet normal 17.603432 0.000000 0.000000
  outer loop
    vertex 3.500000 1.028620 8.334220
    vertex 3.500000 0.000000 6.400000
    vertex 3.500000 9.101050 6.400000
  endloop
endfacet
facet normal 0.302837 0.000000 0.000000
  outer loop
    vertex 3.500000 -0.189273 8.029980
    vertex 3.500000 0.000000 6.400000
    vertex 3.500000 0.000000 8.000000
  endloop
endfacet
facet normal 0.562411 0.000000 0.000000
  outer loop
    vertex 3.500000 -0.540779 8.085650
    vertex 3.500000 0.000000 6.400000
    vertex 3.500000 -0.189273 8.029980
  endloop
endfacet
facet normal 0.687908 0.000000 0.000000
  outer loop
    vertex 3.500000 -1.028620 8.334220
    vertex 3.500000 0.000000 6.400000
    vertex 3.500000 -0.540779 8.085650
  endloop
endfacet
facet normal 2.673574 0.000000 0.000000
  outer loop
    vertex 3.500000 -6.000000 6.400000
    vertex 3.500000 -1.028620 8.334220
    vertex 3.500000 -1.415780 8.721380
  endloop
endfacet
facet normal 0.904830 0.000000 0.000000
  outer loop
    vertex 3.500000 -6.000000 6.400000
    vertex 3.500000 -1.720020 9.560730
    vertex 3.500000 -1.750000 9.750000
  endloop
endfacet
facet normal 24.103327 -0.000000 0.000000
  outer loop
    vertex 3.500000 -9.272800 12.762900
    vertex 3.500000 -1.664350 10.290800
    vertex 3.500000 -7.887920 15.480900
  endloop
endfacet
facet normal 1.514397 0.000000 0.000000
  outer loop
    vertex 3.500000 -1.664350 10.290800
    vertex 3.500000 -9.272800 12.762900
    vertex 3.500000 -1.694330 10.101500
  endloop
endfacet
facet normal 11.605320 0.000000 0.000000
  outer loop
    vertex 3.500000 -1.028620 8.334220
    vertex 3.500000 -6.000000 6.400000
    vertex 3.500000 0.000000 6.400000
  endloop
endfacet
facet normal 2.813390 0.000000 0.000000
  outer loop
    vertex 3.500000 -1.664350 9.209220
    vertex 3.500000 -6.000000 6.400000
    vertex 3.500000 -1.415780 8.721380
  endloop
endfacet
facet normal 24.103195 0.000000 0.000000
  outer loop
    vertex 3.500000 -9.750000 9.750000
    vertex 3.500000 -1.694330 10.101500
    vertex 3.500000 -9.272800 12.762900
  endloop
endfacet
facet normal 2.811996 0.000000 0.000000
  outer loop
    vertex 3.500000 -1.694330 10.101500
    vertex 3.500000 -9.750000 9.750000
    vertex 3.500000 -1.750000 9.750000
  endloop
endfacet
facet normal 26.799999 0.000000 -0.000000
  outer loop
    vertex 3.500000 -6.000000 6.400000
    vertex 3.500000 -1.750000 9.750000
    vertex 3.500000 -9.750000 9.750000
  endloop
endfacet
facet normal 1.680414 0.000000 0.000000
  outer loop
    vertex 3.500000 -1.720020 9.560730
    vertex 3.500000 -6.000000 6.400000
    vertex 3.500000 -1.664350 9.209220
  endloop
endfacet
facet normal 9.699831 -0.000000 -0.000000
  outer loop
    vertex 3.500000 -9.272800 6.737080
    vertex 3.500000 -6.000000 6.400000
    vertex 3.500000 -9.750000 9.750000
  endloop
endfacet
facet normal 4.494967 0.000000 0.000000
  outer loop
    vertex 3.500000 -6.000000 6.400000
    vertex 3.500000 -7.887920 4.019090
    vertex 3.500000 -6.000000 4.019090
  endloop
endfacet
facet normal 8.428623 0.000000 -0.000000
  outer loop
    vertex 3.500000 -7.887920 4.019090
    vertex 3.500000 -6.000000 6.400000
    vertex 3.500000 -9.272800 6.737080
  endloop
endfacet
facet normal 0.773500 0.000000 -0.000000
  outer loop
    vertex 3.500000 -6.000000 2.647440
    vertex 3.500000 -6.000000 3.057150
    vertex 3.500000 -7.887920 4.019090
  endloop
endfacet
facet normal 0.000000 0.000000 0.000000
  outer loop
    vertex 3.500000 0.000000 -0.000001
    vertex 3.500000 -0.000002 0.000000
    vertex 3.500000 -0.000006 0.000000
  endloop
endfacet
facet normal 0.000000 15.926362 -31.256884
  outer loop
    vertex 3.500000 -5.730910 17.637899
    vertex 15.000000 -3.012920 19.022800
    vertex 15.000000 -5.730910 17.637899
  endloop
endfacet
facet normal 0.000000 15.926362 -31.256884
  outer loop
    vertex 15.000000 -3.012920 19.022800
    vertex 3.500000 -5.730910 17.637899
    vertex 3.500000 -3.012920 19.022800
  endloop
endfacet
facet normal 0.000000 34.648354 -5.487795
  outer loop
    vertex 15.000000 -9.750000 9.750000
    vertex 3.500000 -9.272800 12.762900
    vertex 15.000000 -9.272800 12.762900
  endloop
endfacet
facet normal 0.000000 34.648354 -5.487795
  outer loop
    vertex 3.500000 -9.272800 12.762900
    vertex 15.000000 -9.750000 9.750000
    vertex 3.500000 -9.750000 9.750000
  endloop
endfacet
facet normal 0.000000 -15.926362 -31.256884
  outer loop
    vertex 3.500000 3.012920 19.022800
    vertex 15.000000 5.730910 17.637899
    vertex 15.000000 3.012920 19.022800
  endloop
endfacet
facet normal -0.000000 -15.926362 -31.256884
  outer loop
    vertex 15.000000 5.730910 17.637899
    vertex 3.500000 3.012920 19.022800
    vertex 3.500000 5.730910 17.637899
  endloop
endfacet
facet normal 0.000000 34.648579 5.487795
  outer loop
    vertex 15.000000 -9.272800 6.737080
    vertex 3.500000 -9.750000 9.750000
    vertex 15.000000 -9.750000 9.750000
  endloop
endfacet
facet normal 0.000000 34.648579 5.487795
  outer loop
    vertex 3.500000 -9.750000 9.750000
    vertex 15.000000 -9.272800 6.737080
    vertex 3.500000 -9.272800 6.737080
  endloop
endfacet
facet normal 0.000000 31.256994 -15.926126
  outer loop
    vertex 15.000000 -9.272800 12.762900
    vertex 3.500000 -7.887920 15.480900
    vertex 15.000000 -7.887920 15.480900
  endloop
endfacet
facet normal 0.000000 31.256994 -15.926126
  outer loop
    vertex 3.500000 -7.887920 15.480900
    vertex 15.000000 -9.272800 12.762900
    vertex 3.500000 -9.272800 12.762900
  endloop
endfacet
facet normal 0.000000 -3.876420 1.975126
  outer loop
    vertex 3.500000 9.101050 6.400000
    vertex 15.000000 9.272800 6.737080
    vertex 3.500000 9.272800 6.737080
  endloop
endfacet
facet normal 0.000000 -3.876420 1.975126
  outer loop
    vertex 15.000000 9.272800 6.737080
    vertex 3.500000 9.101050 6.400000
    vertex 15.000000 9.101050 6.400000
  endloop
endfacet
facet normal 1.816066 0.000000 -0.000000
  outer loop
    vertex 3.500000 -6.000000 3.057150
    vertex 3.500000 -6.000000 4.019090
    vertex 3.500000 -7.887920 4.019090
  endloop
endfacet
facet normal 0.000000 -0.000000 0.000000
  outer loop
    vertex 3.500000 0.000000 0.000000
    vertex 3.500000 0.000000 -0.000001
    vertex 3.500000 0.000002 0.000000
  endloop
endfacet
facet normal 0.000000 0.000000 -0.000000
  outer loop
    vertex 3.500000 0.000000 -0.000001
    vertex 3.500000 0.000000 0.000000
    vertex 3.500000 -0.000002 0.000000
  endloop
endfacet
facet normal 0.000000 0.000000 0.000000
  outer loop
    vertex 3.500000 0.000006 0.000000
    vertex 3.500000 0.000002 0.000000
    vertex 3.500000 0.000000 -0.000001
  endloop
endfacet
facet normal 0.000005 -34.648579 5.487795
  outer loop
    vertex 3.500000 9.272800 6.737080
    vertex 15.000000 9.384150 7.440100
    vertex 3.500000 9.750000 9.750000
  endloop
endfacet
facet normal 0.000000 -8.084731 1.280515
  outer loop
    vertex 15.000000 9.384150 7.440100
    vertex 3.500000 9.272800 6.737080
    vertex 15.000000 9.272800 6.737080
  endloop
endfacet
facet normal 0.000000 -26.563848 4.207280
  outer loop
    vertex 15.000000 9.750000 9.750000
    vertex 3.500000 9.750000 9.750000
    vertex 15.000000 9.384150 7.440100
  endloop
endfacet
facet normal -0.000000 0.000003 0.000016
  outer loop
    vertex 15.000000 0.000000 -0.000000
    vertex 3.500030 -0.000006 0.000000
    vertex 15.000000 -0.000001 0.000000
  endloop
endfacet
facet normal -0.000000 0.000011 0.000069
  outer loop
    vertex 3.500030 -0.000006 0.000000
    vertex 15.000000 0.000000 -0.000000
    vertex 3.500000 0.000000 -0.000001
  endloop
endfacet
facet normal -0.000000 -0.000003 0.000016
  outer loop
    vertex 3.500030 0.000006 0.000000
    vertex 15.000000 0.000000 -0.000000
    vertex 15.000000 0.000001 0.000000
  endloop
endfacet
facet normal -0.000000 -0.000011 0.000069
  outer loop
    vertex 15.000000 0.000000 -0.000000
    vertex 3.500030 0.000006 0.000000
    vertex 3.500000 0.000000 -0.000001
  endloop
endfacet
facet normal 0.000000 0.000000 0.000000
  outer loop
    vertex 3.500000 0.000000 -0.000001
    vertex 3.500000 -0.000006 0.000000
    vertex 3.500030 -0.000006 0.000000
  endloop
endfacet
facet normal 0.000000 21.710966 21.711079
  outer loop
    vertex 15.000000 -6.000000 2.131180
    vertex 3.500000 -7.887920 4.019090
    vertex 15.000000 -7.887920 4.019090
  endloop
endfacet
facet normal 0.000000 21.710966 21.711079
  outer loop
    vertex 3.500000 -7.887920 4.019090
    vertex 15.000000 -6.000000 2.131180
    vertex 3.500000 -6.000000 2.131180
  endloop
endfacet
facet normal 0.257097 -1.622340 0.000000
  outer loop
    vertex 7.459220 20.789301 -3.000000
    vertex 8.000000 20.875000 0.000000
    vertex 7.459220 20.789301 0.000000
  endloop
endfacet
facet normal 0.257097 -1.622340 0.000000
  outer loop
    vertex 8.000000 20.875000 0.000000
    vertex 7.459220 20.789301 -3.000000
    vertex 8.000000 20.875000 -3.000000
  endloop
endfacet
facet normal 0.222818 -1.406028 0.000000
  outer loop
    vertex 7.459220 20.789301 6.400000
    vertex 8.000000 20.875000 9.000000
    vertex 7.459220 20.789301 9.000000
  endloop
endfacet
facet normal 0.222818 -1.406028 0.000000
  outer loop
    vertex 8.000000 20.875000 9.000000
    vertex 7.459220 20.789301 6.400000
    vertex 8.000000 20.875000 6.400000
  endloop
endfacet
facet normal 1.622400 0.256950 0.000000
  outer loop
    vertex 6.335650 18.584200 0.000000
    vertex 6.250000 19.125000 -3.000000
    vertex 6.250000 19.125000 0.000000
  endloop
endfacet
facet normal 1.622400 0.256950 0.000000
  outer loop
    vertex 6.250000 19.125000 -3.000000
    vertex 6.335650 18.584200 0.000000
    vertex 6.335650 18.584200 -3.000000
  endloop
endfacet
facet normal 1.406080 0.222690 0.000000
  outer loop
    vertex 6.335650 18.584200 9.000000
    vertex 6.250000 19.125000 6.400000
    vertex 6.250000 19.125000 9.000000
  endloop
endfacet
facet normal 1.406080 0.222690 0.000000
  outer loop
    vertex 6.250000 19.125000 6.400000
    vertex 6.335650 18.584200 9.000000
    vertex 6.335650 18.584200 6.400000
  endloop
endfacet
facet normal -1.622400 -0.256951 0.000000
  outer loop
    vertex 9.750000 19.125000 -3.000000
    vertex 9.664350 19.665800 0.000000
    vertex 9.664350 19.665800 -3.000000
  endloop
endfacet
facet normal -1.622400 -0.256951 0.000000
  outer loop
    vertex 9.664350 19.665800 0.000000
    vertex 9.750000 19.125000 -3.000000
    vertex 9.750000 19.125000 0.000000
  endloop
endfacet
facet normal -1.406080 -0.222691 0.000000
  outer loop
    vertex 9.750000 19.125000 6.400000
    vertex 9.664350 19.665800 9.000000
    vertex 9.664350 19.665800 6.400000
  endloop
endfacet
facet normal -1.406080 -0.222691 0.000000
  outer loop
    vertex 9.664350 19.665800 9.000000
    vertex 9.750000 19.125000 6.400000
    vertex 9.750000 19.125000 9.000000
  endloop
endfacet
facet normal 1.463402 -0.745710 0.000000
  outer loop
    vertex 6.335650 19.665800 0.000000
    vertex 6.584220 20.153601 -3.000000
    vertex 6.584220 20.153601 0.000000
  endloop
endfacet
facet normal 1.463402 -0.745710 0.000000
  outer loop
    vertex 6.584220 20.153601 -3.000000
    vertex 6.335650 19.665800 0.000000
    vertex 6.335650 19.665800 -3.000000
  endloop
endfacet
facet normal 1.268281 -0.646282 0.000000
  outer loop
    vertex 6.335650 19.665800 9.000000
    vertex 6.584220 20.153601 6.400000
    vertex 6.584220 20.153601 9.000000
  endloop
endfacet
facet normal 1.268281 -0.646282 0.000000
  outer loop
    vertex 6.584220 20.153601 6.400000
    vertex 6.335650 19.665800 9.000000
    vertex 6.335650 19.665800 6.400000
  endloop
endfacet
facet normal 0.745502 -1.463519 0.000000
  outer loop
    vertex 6.971380 20.540800 -3.000000
    vertex 7.459220 20.789301 0.000000
    vertex 6.971380 20.540800 0.000000
  endloop
endfacet
facet normal 0.745502 -1.463519 0.000000
  outer loop
    vertex 7.459220 20.789301 0.000000
    vertex 6.971380 20.540800 -3.000000
    vertex 7.459220 20.789301 -3.000000
  endloop
endfacet
facet normal 0.646102 -1.268383 0.000000
  outer loop
    vertex 6.971380 20.540800 6.400000
    vertex 7.459220 20.789301 9.000000
    vertex 6.971380 20.540800 9.000000
  endloop
endfacet
facet normal 0.646102 -1.268383 0.000000
  outer loop
    vertex 7.459220 20.789301 9.000000
    vertex 6.971380 20.540800 6.400000
    vertex 7.459220 20.789301 6.400000
  endloop
endfacet
facet normal 1.622400 -0.256950 0.000000
  outer loop
    vertex 6.250000 19.125000 0.000000
    vertex 6.335650 19.665800 -3.000000
    vertex 6.335650 19.665800 0.000000
  endloop
endfacet
facet normal 1.622400 -0.256950 0.000000
  outer loop
    vertex 6.335650 19.665800 -3.000000
    vertex 6.250000 19.125000 0.000000
    vertex 6.250000 19.125000 -3.000000
  endloop
endfacet
facet normal 1.406080 -0.222690 0.000000
  outer loop
    vertex 6.250000 19.125000 9.000000
    vertex 6.335650 19.665800 6.400000
    vertex 6.335650 19.665800 9.000000
  endloop
endfacet
facet normal 1.406080 -0.222690 0.000000
  outer loop
    vertex 6.335650 19.665800 6.400000
    vertex 6.250000 19.125000 9.000000
    vertex 6.250000 19.125000 6.400000
  endloop
endfacet
facet normal 0.745502 1.463519 -0.000000
  outer loop
    vertex 7.459220 17.460699 -3.000000
    vertex 6.971380 17.709200 0.000000
    vertex 7.459220 17.460699 0.000000
  endloop
endfacet
facet normal 0.745502 1.463519 0.000000
  outer loop
    vertex 6.971380 17.709200 0.000000
    vertex 7.459220 17.460699 -3.000000
    vertex 6.971380 17.709200 -3.000000
  endloop
endfacet
facet normal 0.646102 1.268383 -0.000000
  outer loop
    vertex 7.459220 17.460699 6.400000
    vertex 6.971380 17.709200 9.000000
    vertex 7.459220 17.460699 9.000000
  endloop
endfacet
facet normal 0.646102 1.268383 0.000000
  outer loop
    vertex 6.971380 17.709200 9.000000
    vertex 7.459220 17.460699 6.400000
    vertex 6.971380 17.709200 6.400000
  endloop
endfacet
facet normal 0.257097 1.622340 -0.000000
  outer loop
    vertex 8.000000 17.375000 -3.000000
    vertex 7.459220 17.460699 0.000000
    vertex 8.000000 17.375000 0.000000
  endloop
endfacet
facet normal 0.257097 1.622340 0.000000
  outer loop
    vertex 7.459220 17.460699 0.000000
    vertex 8.000000 17.375000 -3.000000
    vertex 7.459220 17.460699 -3.000000
  endloop
endfacet
facet normal 0.222818 1.406028 -0.000000
  outer loop
    vertex 8.000000 17.375000 6.400000
    vertex 7.459220 17.460699 9.000000
    vertex 8.000000 17.375000 9.000000
  endloop
endfacet
facet normal 0.222818 1.406028 0.000000
  outer loop
    vertex 7.459220 17.460699 9.000000
    vertex 8.000000 17.375000 6.400000
    vertex 7.459220 17.460699 6.400000
  endloop
endfacet
facet normal 1.463402 0.745710 0.000000
  outer loop
    vertex 6.584220 18.096399 0.000000
    vertex 6.335650 18.584200 -3.000000
    vertex 6.335650 18.584200 0.000000
  endloop
endfacet
facet normal 1.463402 0.745710 0.000000
  outer loop
    vertex 6.335650 18.584200 -3.000000
    vertex 6.584220 18.096399 0.000000
    vertex 6.584220 18.096399 -3.000000
  endloop
endfacet
facet normal 1.268281 0.646282 0.000000
  outer loop
    vertex 6.584220 18.096399 9.000000
    vertex 6.335650 18.584200 6.400000
    vertex 6.335650 18.584200 9.000000
  endloop
endfacet
facet normal 1.268281 0.646282 0.000000
  outer loop
    vertex 6.335650 18.584200 6.400000
    vertex 6.584220 18.096399 9.000000
    vertex 6.584220 18.096399 6.400000
  endloop
endfacet
facet normal -0.257097 -1.622340 0.000000
  outer loop
    vertex 8.000000 20.875000 -3.000000
    vertex 8.540780 20.789301 0.000000
    vertex 8.000000 20.875000 0.000000
  endloop
endfacet
facet normal -0.257097 -1.622340 -0.000000
  outer loop
    vertex 8.540780 20.789301 0.000000
    vertex 8.000000 20.875000 -3.000000
    vertex 8.540780 20.789301 -3.000000
  endloop
endfacet
facet normal -0.222818 -1.406028 0.000000
  outer loop
    vertex 8.000000 20.875000 6.400000
    vertex 8.540780 20.789301 9.000000
    vertex 8.000000 20.875000 9.000000
  endloop
endfacet
facet normal -0.222818 -1.406028 -0.000000
  outer loop
    vertex 8.540780 20.789301 9.000000
    vertex 8.000000 20.875000 6.400000
    vertex 8.540780 20.789301 6.400000
  endloop
endfacet
facet normal -1.622400 0.256951 0.000000
  outer loop
    vertex 9.664350 18.584200 -3.000000
    vertex 9.750000 19.125000 0.000000
    vertex 9.750000 19.125000 -3.000000
  endloop
endfacet
facet normal -1.622400 0.256951 0.000000
  outer loop
    vertex 9.750000 19.125000 0.000000
    vertex 9.664350 18.584200 -3.000000
    vertex 9.664350 18.584200 0.000000
  endloop
endfacet
facet normal -1.406080 0.222691 0.000000
  outer loop
    vertex 9.664350 18.584200 6.400000
    vertex 9.750000 19.125000 9.000000
    vertex 9.750000 19.125000 6.400000
  endloop
endfacet
facet normal -1.406080 0.222691 0.000000
  outer loop
    vertex 9.750000 19.125000 9.000000
    vertex 9.664350 18.584200 6.400000
    vertex 9.664350 18.584200 9.000000
  endloop
endfacet
facet normal -0.745502 1.463519 0.000000
  outer loop
    vertex 9.028620 17.709200 -3.000000
    vertex 8.540780 17.460699 0.000000
    vertex 9.028620 17.709200 0.000000
  endloop
endfacet
facet normal -0.745502 1.463519 0.000000
  outer loop
    vertex 8.540780 17.460699 0.000000
    vertex 9.028620 17.709200 -3.000000
    vertex 8.540780 17.460699 -3.000000
  endloop
endfacet
facet normal -0.646102 1.268383 0.000000
  outer loop
    vertex 9.028620 17.709200 6.400000
    vertex 8.540780 17.460699 9.000000
    vertex 9.028620 17.709200 9.000000
  endloop
endfacet
facet normal -0.646102 1.268383 0.000000
  outer loop
    vertex 8.540780 17.460699 9.000000
    vertex 9.028620 17.709200 6.400000
    vertex 8.540780 17.460699 6.400000
  endloop
endfacet
facet normal 1.161598 -1.161481 0.000000
  outer loop
    vertex 6.584220 20.153601 0.000000
    vertex 6.971380 20.540800 -3.000000
    vertex 6.971380 20.540800 0.000000
  endloop
endfacet
facet normal 1.161598 -1.161481 0.000000
  outer loop
    vertex 6.971380 20.540800 -3.000000
    vertex 6.584220 20.153601 0.000000
    vertex 6.584220 20.153601 -3.000000
  endloop
endfacet
facet normal 1.006718 -1.006617 0.000000
  outer loop
    vertex 6.584220 20.153601 9.000000
    vertex 6.971380 20.540800 6.400000
    vertex 6.971380 20.540800 9.000000
  endloop
endfacet
facet normal 1.006718 -1.006617 0.000000
  outer loop
    vertex 6.971380 20.540800 6.400000
    vertex 6.584220 20.153601 9.000000
    vertex 6.584220 20.153601 6.400000
  endloop
endfacet
facet normal -0.257097 1.622340 0.000000
  outer loop
    vertex 8.540780 17.460699 -3.000000
    vertex 8.000000 17.375000 0.000000
    vertex 8.540780 17.460699 0.000000
  endloop
endfacet
facet normal -0.257097 1.622340 0.000000
  outer loop
    vertex 8.000000 17.375000 0.000000
    vertex 8.540780 17.460699 -3.000000
    vertex 8.000000 17.375000 -3.000000
  endloop
endfacet
facet normal -0.222818 1.406028 0.000000
  outer loop
    vertex 8.540780 17.460699 6.400000
    vertex 8.000000 17.375000 9.000000
    vertex 8.540780 17.460699 9.000000
  endloop
endfacet
facet normal -0.222818 1.406028 0.000000
  outer loop
    vertex 8.000000 17.375000 9.000000
    vertex 8.540780 17.460699 6.400000
    vertex 8.000000 17.375000 6.400000
  endloop
endfacet
facet normal 1.161598 1.161481 -0.000000
  outer loop
    vertex 6.971380 17.709200 -3.000000
    vertex 6.584220 18.096399 0.000000
    vertex 6.971380 17.709200 0.000000
  endloop
endfacet
facet normal 1.161598 1.161481 0.000000
  outer loop
    vertex 6.584220 18.096399 0.000000
    vertex 6.971380 17.709200 -3.000000
    vertex 6.584220 18.096399 -3.000000
  endloop
endfacet
facet normal 1.006718 1.006617 -0.000000
  outer loop
    vertex 6.971380 17.709200 6.400000
    vertex 6.584220 18.096399 9.000000
    vertex 6.971380 17.709200 9.000000
  endloop
endfacet
facet normal 1.006718 1.006617 0.000000
  outer loop
    vertex 6.584220 18.096399 9.000000
    vertex 6.971380 17.709200 6.400000
    vertex 6.584220 18.096399 6.400000
  endloop
endfacet
facet normal -1.463402 -0.745708 0.000000
  outer loop
    vertex 9.664350 19.665800 -3.000000
    vertex 9.415780 20.153601 0.000000
    vertex 9.415780 20.153601 -3.000000
  endloop
endfacet
facet normal -1.463402 -0.745708 0.000000
  outer loop
    vertex 9.415780 20.153601 0.000000
    vertex 9.664350 19.665800 -3.000000
    vertex 9.664350 19.665800 0.000000
  endloop
endfacet
facet normal -1.268281 -0.646281 0.000000
  outer loop
    vertex 9.664350 19.665800 6.400000
    vertex 9.415780 20.153601 9.000000
    vertex 9.415780 20.153601 6.400000
  endloop
endfacet
facet normal -1.268281 -0.646281 0.000000
  outer loop
    vertex 9.415780 20.153601 9.000000
    vertex 9.664350 19.665800 6.400000
    vertex 9.664350 19.665800 9.000000
  endloop
endfacet
facet normal -1.161598 1.161481 0.000000
  outer loop
    vertex 9.415780 18.096399 -3.000000
    vertex 9.028620 17.709200 0.000000
    vertex 9.415780 18.096399 0.000000
  endloop
endfacet
facet normal -1.161598 1.161481 0.000000
  outer loop
    vertex 9.028620 17.709200 0.000000
    vertex 9.415780 18.096399 -3.000000
    vertex 9.028620 17.709200 -3.000000
  endloop
endfacet
facet normal -1.006718 1.006617 0.000000
  outer loop
    vertex 9.415780 18.096399 6.400000
    vertex 9.028620 17.709200 9.000000
    vertex 9.415780 18.096399 9.000000
  endloop
endfacet
facet normal -1.006718 1.006617 0.000000
  outer loop
    vertex 9.028620 17.709200 9.000000
    vertex 9.415780 18.096399 6.400000
    vertex 9.028620 17.709200 6.400000
  endloop
endfacet
facet normal -1.161598 -1.161481 0.000000
  outer loop
    vertex 9.415780 20.153601 -3.000000
    vertex 9.028620 20.540800 0.000000
    vertex 9.028620 20.540800 -3.000000
  endloop
endfacet
facet normal -1.161598 -1.161481 0.000000
  outer loop
    vertex 9.028620 20.540800 0.000000
    vertex 9.415780 20.153601 -3.000000
    vertex 9.415780 20.153601 0.000000
  endloop
endfacet
facet normal -1.006718 -1.006617 0.000000
  outer loop
    vertex 9.415780 20.153601 6.400000
    vertex 9.028620 20.540800 9.000000
    vertex 9.028620 20.540800 6.400000
  endloop
endfacet
facet normal -1.006718 -1.006617 0.000000
  outer loop
    vertex 9.028620 20.540800 9.000000
    vertex 9.415780 20.153601 6.400000
    vertex 9.415780 20.153601 9.000000
  endloop
endfacet
facet normal -1.463402 0.745708 0.000000
  outer loop
    vertex 9.415780 18.096399 -3.000000
    vertex 9.664350 18.584200 0.000000
    vertex 9.664350 18.584200 -3.000000
  endloop
endfacet
facet normal -1.463402 0.745708 0.000000
  outer loop
    vertex 9.664350 18.584200 0.000000
    vertex 9.415780 18.096399 -3.000000
    vertex 9.415780 18.096399 0.000000
  endloop
endfacet
facet normal -1.268281 0.646281 0.000000
  outer loop
    vertex 9.415780 18.096399 6.400000
    vertex 9.664350 18.584200 9.000000
    vertex 9.664350 18.584200 6.400000
  endloop
endfacet
facet normal -1.268281 0.646281 0.000000
  outer loop
    vertex 9.664350 18.584200 9.000000
    vertex 9.415780 18.096399 6.400000
    vertex 9.415780 18.096399 9.000000
  endloop
endfacet
facet normal -0.745502 -1.463519 0.000000
  outer loop
    vertex 8.540780 20.789301 -3.000000
    vertex 9.028620 20.540800 0.000000
    vertex 8.540780 20.789301 0.000000
  endloop
endfacet
facet normal -0.745502 -1.463519 -0.000000
  outer loop
    vertex 9.028620 20.540800 0.000000
    vertex 8.540780 20.789301 -3.000000
    vertex 9.028620 20.540800 -3.000000
  endloop
endfacet
facet normal -0.646102 -1.268383 0.000000
  outer loop
    vertex 8.540780 20.789301 6.400000
    vertex 9.028620 20.540800 9.000000
    vertex 8.540780 20.789301 9.000000
  endloop
endfacet
facet normal -0.646102 -1.268383 -0.000000
  outer loop
    vertex 9.028620 20.540800 9.000000
    vertex 8.540780 20.789301 6.400000
    vertex 9.028620 20.540800 6.400000
  endloop
endfacet
facet normal 0.000000 -27.380465 0.000000
  outer loop
    vertex 3.500000 -6.000000 4.019090
    vertex 15.000000 -6.000000 6.400000
    vertex 3.500000 -6.000000 6.400000
  endloop
endfacet
facet normal 0.000000 -11.062313 0.000000
  outer loop
    vertex 15.000000 -6.000000 2.131180
    vertex 3.500000 -6.000000 4.019090
    vertex 3.500000 -6.000000 3.057150
  endloop
endfacet
facet normal 0.000000 -4.711664 0.000000
  outer loop
    vertex 15.000000 -6.000000 2.131180
    vertex 3.500000 -6.000000 3.057150
    vertex 3.500000 -6.000000 2.647440
  endloop
endfacet
facet normal 0.000000 -5.936989 0.000000
  outer loop
    vertex 15.000000 -6.000000 2.131180
    vertex 3.500000 -6.000000 2.647440
    vertex 3.500000 -6.000000 2.131180
  endloop
endfacet
facet normal 0.000000 -49.091431 0.000000
  outer loop
    vertex 3.500000 -6.000000 4.019090
    vertex 15.000000 -6.000000 2.131180
    vertex 15.000000 -6.000000 6.400000
  endloop
endfacet
facet normal 0.000000 0.000000 69.000000
  outer loop
    vertex 3.500000 0.000000 6.400000
    vertex 15.000000 -6.000000 6.400000
    vertex 15.000000 0.000000 6.400000
  endloop
endfacet
facet normal 0.000000 0.000000 69.000000
  outer loop
    vertex 15.000000 -6.000000 6.400000
    vertex 3.500000 0.000000 6.400000
    vertex 3.500000 -6.000000 6.400000
  endloop
endfacet
facet normal 0.000000 0.000000 -0.000016
  outer loop
    vertex 3.500030 -0.000006 0.000000
    vertex 15.000000 0.000000 0.000000
    vertex 15.000000 -0.000001 0.000000
  endloop
endfacet
facet normal 0.000000 0.000000 -0.000000
  outer loop
    vertex 3.500000 -0.000002 0.000000
    vertex 3.500030 -0.000006 0.000000
    vertex 3.500000 -0.000006 0.000000
  endloop
endfacet
facet normal 0.000000 0.000000 -0.000000
  outer loop
    vertex 3.500000 0.000000 0.000000
    vertex 3.500030 -0.000006 0.000000
    vertex 3.500000 -0.000002 0.000000
  endloop
endfacet
facet normal 0.000000 0.000000 -0.000069
  outer loop
    vertex 3.500030 -0.000006 0.000000
    vertex 3.500000 0.000000 0.000000
    vertex 15.000000 0.000000 0.000000
  endloop
endfacet
endsolid joint469R.stl
