solid joint415L.stl
facet normal 11.250000 0.000000 -1.782002
  outer loop
    vertex 12.750000 0.000000 9.750000
    vertex 12.631200 15.000000 9.000000
    vertex 12.750000 15.000000 9.750000
  endloop
endfacet
facet normal 11.250000 0.000000 -1.782002
  outer loop
    vertex 12.631200 15.000000 9.000000
    vertex 12.750000 0.000000 9.750000
    vertex 12.631200 0.000000 9.000000
  endloop
endfacet
facet normal -9.360452 0.000000 -59.099548
  outer loop
    vertex -3.939970 0.000000 -2.375970
    vertex 0.000000 15.000000 -3.000000
    vertex 0.000000 0.000000 -3.000000
  endloop
endfacet
facet normal -9.360452 0.000000 -59.099548
  outer loop
    vertex 0.000000 15.000000 -3.000000
    vertex -3.939970 0.000000 -2.375970
    vertex -3.939970 15.000000 -2.375970
  endloop
endfacet
facet normal -59.099995 0.000000 9.359994
  outer loop
    vertex -12.750000 15.000000 9.750000
    vertex -12.750000 0.000000 9.750000
    vertex -12.126000 0.000000 13.690000
  endloop
endfacet
facet normal 0.000000 213.660141 0.000000
  outer loop
    vertex 12.126000 15.000000 13.690000
    vertex -12.126000 15.000000 13.690000
    vertex 0.000000 15.000000 22.500000
  endloop
endfacet
facet normal 0.000000 -11.819910 0.000000
  outer loop
    vertex 0.000000 0.000000 19.500000
    vertex 0.000000 0.000000 22.500000
    vertex -3.939970 0.000000 21.875999
  endloop
endfacet
facet normal 0.000000 -11.819983 0.000000
  outer loop
    vertex -3.012920 0.000000 19.022800
    vertex -3.939970 0.000000 21.875999
    vertex -7.494260 0.000000 20.065001
  endloop
endfacet
facet normal 0.000000 -11.819910 0.000000
  outer loop
    vertex 0.000000 0.000000 22.500000
    vertex 0.000000 0.000000 19.500000
    vertex 3.939970 0.000000 21.875999
  endloop
endfacet
facet normal 0.000000 -9.038848 0.000000
  outer loop
    vertex 3.012920 0.000000 19.022800
    vertex 3.939970 0.000000 21.875999
    vertex 0.000000 0.000000 19.500000
  endloop
endfacet
facet normal 0.000000 -9.038849 0.000000
  outer loop
    vertex -3.939970 0.000000 21.875999
    vertex -3.012920 0.000000 19.022800
    vertex 0.000000 0.000000 19.500000
  endloop
endfacet
facet normal 0.000000 -9.038901 0.000000
  outer loop
    vertex -7.494260 0.000000 20.065001
    vertex -5.730910 0.000000 17.637899
    vertex -3.012920 0.000000 19.022800
  endloop
endfacet
facet normal 0.000000 -11.820102 0.000000
  outer loop
    vertex -10.315000 0.000000 17.244301
    vertex -5.730910 0.000000 17.637899
    vertex -7.494260 0.000000 20.065001
  endloop
endfacet
facet normal 0.000000 -9.038883 0.000000
  outer loop
    vertex -10.315000 0.000000 17.244301
    vertex -7.887920 0.000000 15.480900
    vertex -5.730910 0.000000 17.637899
  endloop
endfacet
facet normal 0.000000 -11.820093 0.000000
  outer loop
    vertex -12.126000 0.000000 13.690000
    vertex -7.887920 0.000000 15.480900
    vertex -10.315000 0.000000 17.244301
  endloop
endfacet
facet normal 0.000000 -9.038918 0.000000
  outer loop
    vertex -12.126000 0.000000 13.690000
    vertex -9.272800 0.000000 12.762900
    vertex -7.887920 0.000000 15.480900
  endloop
endfacet
facet normal 0.000000 -9.038818 0.000000
  outer loop
    vertex -12.126000 0.000000 13.690000
    vertex -9.750000 0.000000 9.750000
    vertex -9.272800 0.000000 12.762900
  endloop
endfacet
facet normal 0.000000 -11.819999 0.000000
  outer loop
    vertex -12.750000 0.000000 9.750000
    vertex -9.750000 0.000000 9.750000
    vertex -12.126000 0.000000 13.690000
  endloop
endfacet
facet normal 0.000000 -9.038759 0.000000
  outer loop
    vertex -12.750000 0.000000 9.750000
    vertex -9.272800 0.000000 6.737080
    vertex -9.750000 0.000000 9.750000
  endloop
endfacet
facet normal 0.000000 -11.820001 0.000000
  outer loop
    vertex -12.126000 0.000000 5.810030
    vertex -9.272800 0.000000 6.737080
    vertex -12.750000 0.000000 9.750000
  endloop
endfacet
facet normal 0.000000 -9.038822 0.000000
  outer loop
    vertex -12.126000 0.000000 5.810030
    vertex -7.887920 0.000000 4.019090
    vertex -9.272800 0.000000 6.737080
  endloop
endfacet
facet normal 0.000000 -11.819974 0.000000
  outer loop
    vertex -10.315000 0.000000 2.255740
    vertex -7.887920 0.000000 4.019090
    vertex -12.126000 0.000000 5.810030
  endloop
endfacet
facet normal 0.000000 -7.911172 0.000000
  outer loop
    vertex -10.315000 0.000000 2.255740
    vertex -6.000000 0.000000 2.131180
    vertex -7.887920 0.000000 4.019090
  endloop
endfacet
facet normal 0.000000 -11.819998 0.000000
  outer loop
    vertex -7.494260 0.000000 -0.564967
    vertex -6.000000 0.000000 2.131180
    vertex -10.315000 0.000000 2.255740
  endloop
endfacet
facet normal 0.000000 -22.652597 0.000000
  outer loop
    vertex -6.000000 0.000000 2.131180
    vertex -3.939970 0.000000 -2.375970
    vertex -0.000001 0.000000 0.000000
  endloop
endfacet
facet normal 0.000000 -12.288996 0.000000
  outer loop
    vertex -3.939970 0.000000 -2.375970
    vertex -6.000000 0.000000 2.131180
    vertex -7.494260 0.000000 -0.564967
  endloop
endfacet
facet normal 0.000000 -11.819983 -0.000000
  outer loop
    vertex 3.939970 0.000000 21.875999
    vertex 3.012920 0.000000 19.022800
    vertex 7.494260 0.000000 20.065001
  endloop
endfacet
facet normal 0.000000 -9.038902 0.000000
  outer loop
    vertex 5.730910 0.000000 17.637899
    vertex 7.494260 0.000000 20.065001
    vertex 3.012920 0.000000 19.022800
  endloop
endfacet
facet normal 0.000000 -11.820101 0.000000
  outer loop
    vertex 5.730910 0.000000 17.637899
    vertex 10.315000 0.000000 17.244301
    vertex 7.494260 0.000000 20.065001
  endloop
endfacet
facet normal 0.000000 -9.038883 0.000000
  outer loop
    vertex 7.887920 0.000000 15.480900
    vertex 10.315000 0.000000 17.244301
    vertex 5.730910 0.000000 17.637899
  endloop
endfacet
facet normal 0.000000 -11.820093 0.000000
  outer loop
    vertex 7.887920 0.000000 15.480900
    vertex 12.126000 0.000000 13.690000
    vertex 10.315000 0.000000 17.244301
  endloop
endfacet
facet normal 0.000000 -9.038918 0.000000
  outer loop
    vertex 9.272800 0.000000 12.762900
    vertex 12.126000 0.000000 13.690000
    vertex 7.887920 0.000000 15.480900
  endloop
endfacet
facet normal 0.000000 -6.929786 0.000000
  outer loop
    vertex 9.638650 0.000000 10.453000
    vertex 12.126000 0.000000 13.690000
    vertex 9.272800 0.000000 12.762900
  endloop
endfacet
facet normal 0.000000 -2.109000 0.000000
  outer loop
    vertex 12.750000 0.000000 9.750000
    vertex 9.638650 0.000000 10.453000
    vertex 9.750000 0.000000 9.750000
  endloop
endfacet
facet normal 0.000000 -11.820046 0.000000
  outer loop
    vertex 9.638650 0.000000 10.453000
    vertex 12.750000 0.000000 9.750000
    vertex 12.126000 0.000000 13.690000
  endloop
endfacet
facet normal 0.000000 -2.250000 0.000000
  outer loop
    vertex 9.750000 0.000000 9.750000
    vertex 12.631200 0.000000 9.000000
    vertex 12.750000 0.000000 9.750000
  endloop
endfacet
facet normal 0.000000 -6.929671 0.000000
  outer loop
    vertex 9.384150 0.000000 7.440100
    vertex 12.631200 0.000000 9.000000
    vertex 9.750000 0.000000 9.750000
  endloop
endfacet
facet normal 0.000000 -2.109048 0.000000
  outer loop
    vertex 9.272800 0.000000 6.737080
    vertex 12.631200 0.000000 9.000000
    vertex 9.384150 0.000000 7.440100
  endloop
endfacet
facet normal 0.000000 -0.743393 0.000000
  outer loop
    vertex 9.101050 0.000000 6.400000
    vertex 12.631200 0.000000 9.000000
    vertex 9.272800 0.000000 6.737080
  endloop
endfacet
facet normal 0.000000 -42.637268 -0.000000
  outer loop
    vertex 12.631200 0.000000 9.000000
    vertex 9.101050 0.000000 6.400000
    vertex 25.500000 0.000000 6.400000
  endloop
endfacet
facet normal 0.000000 -33.458878 0.000000
  outer loop
    vertex 12.631200 0.000000 9.000000
    vertex 25.500000 0.000000 6.400000
    vertex 25.500000 0.000000 9.000000
  endloop
endfacet
facet normal 0.000000 -25.612919 0.000000
  outer loop
    vertex -6.000000 0.000000 2.131180
    vertex 0.000000 0.000000 6.400000
    vertex -6.000000 0.000000 6.400000
  endloop
endfacet
facet normal 0.000000 -38.399994 0.000000
  outer loop
    vertex -0.000001 0.000000 0.000000
    vertex 0.000000 0.000000 6.400000
    vertex -6.000000 0.000000 2.131180
  endloop
endfacet
facet normal 0.000000 -0.000009 -0.000000
  outer loop
    vertex 0.000000 0.000000 6.400000
    vertex -0.000001 0.000000 0.000000
    vertex 0.000000 0.000000 0.000000
  endloop
endfacet
facet normal 0.000000 -0.000004 0.000000
  outer loop
    vertex 0.000000 0.000000 -3.000000
    vertex 0.000001 0.000000 0.000000
    vertex 0.000000 0.000000 -0.000000
  endloop
endfacet
facet normal 0.000000 -11.819909 0.000000
  outer loop
    vertex 0.000000 0.000000 -3.000000
    vertex -0.000001 0.000000 0.000000
    vertex -3.939970 0.000000 -2.375970
  endloop
endfacet
facet normal 0.000000 -0.000004 0.000000
  outer loop
    vertex -0.000001 0.000000 0.000000
    vertex 0.000000 0.000000 -3.000000
    vertex 0.000000 0.000000 -0.000000
  endloop
endfacet
facet normal 0.000000 -76.499992 -0.000000
  outer loop
    vertex 0.000001 0.000000 0.000000
    vertex 0.000000 0.000000 -3.000000
    vertex 25.500000 0.000000 0.000000
  endloop
endfacet
facet normal 0.000000 -76.500000 -0.000000
  outer loop
    vertex 25.500000 0.000000 0.000000
    vertex 0.000000 0.000000 -3.000000
    vertex 25.500000 0.000000 -3.000000
  endloop
endfacet
facet normal 53.314518 -0.000000 27.165012
  outer loop
    vertex 10.315000 0.000000 17.244301
    vertex 12.126000 15.000000 13.690000
    vertex 10.315000 15.000000 17.244301
  endloop
endfacet
facet normal 53.314518 0.000000 27.165012
  outer loop
    vertex 12.126000 15.000000 13.690000
    vertex 10.315000 0.000000 17.244301
    vertex 12.126000 0.000000 13.690000
  endloop
endfacet
facet normal -59.099548 0.000000 -9.359994
  outer loop
    vertex -12.126000 0.000000 5.810030
    vertex -12.750000 0.000000 9.750000
    vertex -12.126000 15.000000 5.810030
  endloop
endfacet
facet normal 0.000000 76.500000 0.000000
  outer loop
    vertex 0.000000 15.000000 -3.000000
    vertex 0.000000 15.000000 0.000000
    vertex 25.500000 15.000000 0.000000
  endloop
endfacet
facet normal -0.000000 11.819910 0.000000
  outer loop
    vertex -3.939970 15.000000 -2.375970
    vertex 0.000000 15.000000 0.000000
    vertex 0.000000 15.000000 -3.000000
  endloop
endfacet
facet normal 0.000000 76.500000 0.000000
  outer loop
    vertex 0.000000 15.000000 -3.000000
    vertex 25.500000 15.000000 0.000000
    vertex 25.500000 15.000000 -3.000000
  endloop
endfacet
facet normal 0.000000 15.580182 0.000000
  outer loop
    vertex 0.000000 15.000000 0.000000
    vertex -3.939970 15.000000 -2.375970
    vertex -7.494260 15.000000 -0.564967
  endloop
endfacet
facet normal 0.000000 33.458878 -0.000000
  outer loop
    vertex 25.500000 15.000000 6.400000
    vertex 12.631200 15.000000 9.000000
    vertex 25.500000 15.000000 9.000000
  endloop
endfacet
facet normal 0.000000 66.299995 0.000000
  outer loop
    vertex 0.000000 15.000000 6.400000
    vertex 12.631200 15.000000 9.000000
    vertex 25.500000 15.000000 6.400000
  endloop
endfacet
facet normal 0.000000 25.640787 0.000000
  outer loop
    vertex 12.631200 15.000000 9.000000
    vertex 0.000000 15.000000 6.400000
    vertex 1.415780 15.000000 8.721380
  endloop
endfacet
facet normal 0.000000 0.350612 0.000000
  outer loop
    vertex 1.415780 15.000000 8.721380
    vertex 0.000000 15.000000 6.400000
    vertex 1.028620 15.000000 8.334220
  endloop
endfacet
facet normal 0.000000 0.687908 0.000000
  outer loop
    vertex 1.028620 15.000000 8.334220
    vertex 0.000000 15.000000 6.400000
    vertex 0.540779 15.000000 8.085650
  endloop
endfacet
facet normal 0.000000 0.663353 0.000000
  outer loop
    vertex 0.540779 15.000000 8.085650
    vertex 0.000000 15.000000 6.400000
    vertex 0.126182 15.000000 8.019980
  endloop
endfacet
facet normal 0.000000 53.111870 0.000000
  outer loop
    vertex 12.126000 15.000000 13.690000
    vertex 0.000000 15.000000 11.500000
    vertex -12.126000 15.000000 13.690000
  endloop
endfacet
facet normal 0.000000 1.704639 0.000000
  outer loop
    vertex 12.126000 15.000000 13.690000
    vertex 0.414597 15.000000 11.434300
    vertex 0.000000 15.000000 11.500000
  endloop
endfacet
facet normal 0.000000 0.518864 0.000000
  outer loop
    vertex 12.126000 15.000000 13.690000
    vertex 0.540779 15.000000 11.414300
    vertex 0.414597 15.000000 11.434300
  endloop
endfacet
facet normal 0.000000 3.989105 0.000000
  outer loop
    vertex 12.126000 15.000000 13.690000
    vertex 1.028620 15.000000 11.165800
    vertex 0.540779 15.000000 11.414300
  endloop
endfacet
facet normal 0.000000 5.274178 0.000000
  outer loop
    vertex 12.126000 15.000000 13.690000
    vertex 1.415780 15.000000 10.778600
    vertex 1.028620 15.000000 11.165800
  endloop
endfacet
facet normal 0.000000 5.948126 0.000000
  outer loop
    vertex 12.126000 15.000000 13.690000
    vertex 1.664350 15.000000 10.290800
    vertex 1.415780 15.000000 10.778600
  endloop
endfacet
facet normal 0.000000 1.388176 0.000000
  outer loop
    vertex 12.126000 15.000000 13.690000
    vertex 1.684330 15.000000 10.164600
    vertex 1.664350 15.000000 10.290800
  endloop
endfacet
facet normal 0.000000 43.340027 0.000000
  outer loop
    vertex 12.750000 15.000000 9.750000
    vertex 1.684330 15.000000 10.164600
    vertex 12.126000 15.000000 13.690000
  endloop
endfacet
facet normal 0.000000 4.560604 0.000000
  outer loop
    vertex 12.750000 15.000000 9.750000
    vertex 1.750000 15.000000 9.750000
    vertex 1.684330 15.000000 10.164600
  endloop
endfacet
facet normal 0.000000 8.250000 -0.000000
  outer loop
    vertex 12.631200 15.000000 9.000000
    vertex 1.750000 15.000000 9.750000
    vertex 12.750000 15.000000 9.750000
  endloop
endfacet
facet normal 0.000000 1.387979 0.000000
  outer loop
    vertex 1.750000 15.000000 9.750000
    vertex 12.631200 15.000000 9.000000
    vertex 1.730010 15.000000 9.623820
  endloop
endfacet
facet normal 0.000000 4.560597 0.000000
  outer loop
    vertex 1.730010 15.000000 9.623820
    vertex 12.631200 15.000000 9.000000
    vertex 1.664350 15.000000 9.209220
  endloop
endfacet
facet normal 0.000000 5.402071 0.000000
  outer loop
    vertex 1.664350 15.000000 9.209220
    vertex 12.631200 15.000000 9.000000
    vertex 1.415780 15.000000 8.721380
  endloop
endfacet
facet normal 0.000000 1.704640 -0.000000
  outer loop
    vertex -0.414597 15.000000 11.434300
    vertex -12.126000 15.000000 13.690000
    vertex 0.000000 15.000000 11.500000
  endloop
endfacet
facet normal 0.000000 0.518862 -0.000000
  outer loop
    vertex -0.540779 15.000000 11.414300
    vertex -12.126000 15.000000 13.690000
    vertex -0.414597 15.000000 11.434300
  endloop
endfacet
facet normal 0.000000 3.989106 -0.000000
  outer loop
    vertex -1.028620 15.000000 11.165800
    vertex -12.126000 15.000000 13.690000
    vertex -0.540779 15.000000 11.414300
  endloop
endfacet
facet normal 0.000000 5.274179 -0.000000
  outer loop
    vertex -1.415780 15.000000 10.778600
    vertex -12.126000 15.000000 13.690000
    vertex -1.028620 15.000000 11.165800
  endloop
endfacet
facet normal 0.000000 5.948129 -0.000000
  outer loop
    vertex -1.664350 15.000000 10.290800
    vertex -12.126000 15.000000 13.690000
    vertex -1.415780 15.000000 10.778600
  endloop
endfacet
facet normal 0.000000 1.388173 -0.000000
  outer loop
    vertex -1.684330 15.000000 10.164600
    vertex -12.126000 15.000000 13.690000
    vertex -1.664350 15.000000 10.290800
  endloop
endfacet
facet normal 0.000000 43.340023 0.000000
  outer loop
    vertex -1.684330 15.000000 10.164600
    vertex -12.750000 15.000000 9.750000
    vertex -12.126000 15.000000 13.690000
  endloop
endfacet
facet normal 0.000000 4.560604 -0.000000
  outer loop
    vertex -1.750000 15.000000 9.750000
    vertex -12.750000 15.000000 9.750000
    vertex -1.684330 15.000000 10.164600
  endloop
endfacet
facet normal 0.000000 1.387977 0.000000
  outer loop
    vertex -1.730010 15.000000 9.623820
    vertex -12.750000 15.000000 9.750000
    vertex -1.750000 15.000000 9.750000
  endloop
endfacet
facet normal 0.000000 4.560596 0.000000
  outer loop
    vertex -12.126000 15.000000 5.810030
    vertex -1.730010 15.000000 9.623820
    vertex -1.664350 15.000000 9.209220
  endloop
endfacet
facet normal 0.000000 5.948545 0.000000
  outer loop
    vertex -12.126000 15.000000 5.810030
    vertex -1.664350 15.000000 9.209220
    vertex -1.415780 15.000000 8.721380
  endloop
endfacet
facet normal 0.000000 0.350611 0.000000
  outer loop
    vertex 0.000000 15.000000 6.400000
    vertex -1.415780 15.000000 8.721380
    vertex -1.028620 15.000000 8.334220
  endloop
endfacet
facet normal 0.000000 0.687908 0.000000
  outer loop
    vertex 0.000000 15.000000 6.400000
    vertex -1.028620 15.000000 8.334220
    vertex -0.540779 15.000000 8.085650
  endloop
endfacet
facet normal 0.000000 0.663353 0.000000
  outer loop
    vertex 0.000000 15.000000 6.400000
    vertex -0.540779 15.000000 8.085650
    vertex -0.126182 15.000000 8.019980
  endloop
endfacet
facet normal 0.000000 0.201891 -0.000000
  outer loop
    vertex 0.000000 15.000000 6.400000
    vertex -0.126182 15.000000 8.019980
    vertex 0.000000 15.000000 8.000000
  endloop
endfacet
facet normal 0.000000 0.201891 0.000000
  outer loop
    vertex 0.126182 15.000000 8.019980
    vertex 0.000000 15.000000 6.400000
    vertex 0.000000 15.000000 8.000000
  endloop
endfacet
facet normal 0.000000 29.812397 0.000000
  outer loop
    vertex -1.415780 15.000000 8.721380
    vertex 0.000000 15.000000 6.400000
    vertex -10.315000 15.000000 2.255740
  endloop
endfacet
facet normal 0.000000 43.339695 0.000000
  outer loop
    vertex -1.730010 15.000000 9.623820
    vertex -12.126000 15.000000 5.810030
    vertex -12.750000 15.000000 9.750000
  endloop
endfacet
facet normal 0.000000 43.339684 0.000000
  outer loop
    vertex -1.415780 15.000000 8.721380
    vertex -10.315000 15.000000 2.255740
    vertex -12.126000 15.000000 5.810030
  endloop
endfacet
facet normal 0.000000 47.963264 0.000000
  outer loop
    vertex -7.494260 15.000000 -0.564967
    vertex 0.000000 15.000000 6.400000
    vertex 0.000000 15.000000 0.000000
  endloop
endfacet
facet normal 0.000000 40.785469 0.000000
  outer loop
    vertex 0.000000 15.000000 6.400000
    vertex -7.494260 15.000000 -0.564967
    vertex -10.315000 15.000000 2.255740
  endloop
endfacet
facet normal 59.099995 -0.000000 9.359994
  outer loop
    vertex 12.126000 0.000000 13.690000
    vertex 12.750000 15.000000 9.750000
    vertex 12.126000 15.000000 13.690000
  endloop
endfacet
facet normal 59.099995 0.000000 9.359994
  outer loop
    vertex 12.750000 15.000000 9.750000
    vertex 12.126000 0.000000 13.690000
    vertex 12.750000 0.000000 9.750000
  endloop
endfacet
facet normal 0.000000 27.144505 0.000000
  outer loop
    vertex 0.000000 15.000000 22.500000
    vertex -12.126000 15.000000 13.690000
    vertex -3.939970 15.000000 21.875999
  endloop
endfacet
facet normal -59.099995 0.000000 9.359994
  outer loop
    vertex -12.126000 15.000000 13.690000
    vertex -12.750000 15.000000 9.750000
    vertex -12.126000 0.000000 13.690000
  endloop
endfacet
facet normal -9.360008 0.000000 59.099548
  outer loop
    vertex -3.939970 15.000000 21.875999
    vertex 0.000000 0.000000 22.500000
    vertex 0.000000 15.000000 22.500000
  endloop
endfacet
facet normal -9.360008 0.000000 59.099548
  outer loop
    vertex 0.000000 0.000000 22.500000
    vertex -3.939970 15.000000 21.875999
    vertex -3.939970 0.000000 21.875999
  endloop
endfacet
facet normal 9.360008 0.000000 59.099548
  outer loop
    vertex 0.000000 15.000000 22.500000
    vertex 3.939970 0.000000 21.875999
    vertex 3.939970 15.000000 21.875999
  endloop
endfacet
facet normal 9.360008 0.000000 59.099548
  outer loop
    vertex 3.939970 0.000000 21.875999
    vertex 0.000000 15.000000 22.500000
    vertex 0.000000 0.000000 22.500000
  endloop
endfacet
facet normal -27.165045 0.000000 -53.314346
  outer loop
    vertex -7.494260 0.000000 -0.564967
    vertex -3.939970 15.000000 -2.375970
    vertex -3.939970 0.000000 -2.375970
  endloop
endfacet
facet normal -27.165045 0.000000 -53.314346
  outer loop
    vertex -3.939970 15.000000 -2.375970
    vertex -7.494260 0.000000 -0.564967
    vertex -7.494260 15.000000 -0.564967
  endloop
endfacet
facet normal -59.099548 0.000000 -9.359994
  outer loop
    vertex -12.126000 15.000000 5.810030
    vertex -12.750000 0.000000 9.750000
    vertex -12.750000 15.000000 9.750000
  endloop
endfacet
facet normal 0.000000 4.917469 0.000000
  outer loop
    vertex -7.494260 15.000000 20.065001
    vertex -12.126000 15.000000 13.690000
    vertex -10.315000 15.000000 17.244301
  endloop
endfacet
facet normal 27.164984 0.000000 53.314346
  outer loop
    vertex 3.939970 15.000000 21.875999
    vertex 7.494260 0.000000 20.065001
    vertex 7.494260 15.000000 20.065001
  endloop
endfacet
facet normal 27.164984 0.000000 53.314346
  outer loop
    vertex 7.494260 0.000000 20.065001
    vertex 3.939970 15.000000 21.875999
    vertex 3.939970 0.000000 21.875999
  endloop
endfacet
facet normal 42.310493 0.000000 42.311096
  outer loop
    vertex 7.494260 15.000000 20.065001
    vertex 10.315000 0.000000 17.244301
    vertex 10.315000 15.000000 17.244301
  endloop
endfacet
facet normal 42.310493 0.000000 42.311096
  outer loop
    vertex 10.315000 0.000000 17.244301
    vertex 7.494260 15.000000 20.065001
    vertex 7.494260 0.000000 20.065001
  endloop
endfacet
facet normal -42.310604 0.000000 -42.311096
  outer loop
    vertex -7.494260 0.000000 -0.564967
    vertex -10.315000 15.000000 2.255740
    vertex -7.494260 15.000000 -0.564967
  endloop
endfacet
facet normal -42.310604 -0.000000 -42.311096
  outer loop
    vertex -10.315000 15.000000 2.255740
    vertex -7.494260 0.000000 -0.564967
    vertex -10.315000 0.000000 2.255740
  endloop
endfacet
facet normal 0.000000 4.917469 0.000000
  outer loop
    vertex 12.126000 15.000000 13.690000
    vertex 7.494260 15.000000 20.065001
    vertex 10.315000 15.000000 17.244301
  endloop
endfacet
facet normal 0.000000 14.270523 0.000000
  outer loop
    vertex 12.126000 15.000000 13.690000
    vertex 3.939970 15.000000 21.875999
    vertex 7.494260 15.000000 20.065001
  endloop
endfacet
facet normal 0.000000 27.144501 0.000000
  outer loop
    vertex 12.126000 15.000000 13.690000
    vertex 0.000000 15.000000 22.500000
    vertex 3.939970 15.000000 21.875999
  endloop
endfacet
facet normal -53.314350 0.000000 -27.165012
  outer loop
    vertex -10.315000 0.000000 2.255740
    vertex -12.126000 15.000000 5.810030
    vertex -10.315000 15.000000 2.255740
  endloop
endfacet
facet normal -53.314350 -0.000000 -27.165012
  outer loop
    vertex -12.126000 15.000000 5.810030
    vertex -10.315000 0.000000 2.255740
    vertex -12.126000 0.000000 5.810030
  endloop
endfacet
facet normal -27.164984 0.000000 53.314346
  outer loop
    vertex -7.494260 15.000000 20.065001
    vertex -3.939970 0.000000 21.875999
    vertex -3.939970 15.000000 21.875999
  endloop
endfacet
facet normal -27.164984 0.000000 53.314346
  outer loop
    vertex -3.939970 0.000000 21.875999
    vertex -7.494260 15.000000 20.065001
    vertex -7.494260 0.000000 20.065001
  endloop
endfacet
facet normal 0.000000 14.270523 0.000000
  outer loop
    vertex -3.939970 15.000000 21.875999
    vertex -12.126000 15.000000 13.690000
    vertex -7.494260 15.000000 20.065001
  endloop
endfacet
facet normal -42.310493 0.000000 42.311096
  outer loop
    vertex -10.315000 15.000000 17.244301
    vertex -7.494260 0.000000 20.065001
    vertex -7.494260 15.000000 20.065001
  endloop
endfacet
facet normal -42.310493 0.000000 42.311096
  outer loop
    vertex -7.494260 0.000000 20.065001
    vertex -10.315000 15.000000 17.244301
    vertex -10.315000 0.000000 17.244301
  endloop
endfacet
facet normal -53.314518 0.000000 27.165012
  outer loop
    vertex -12.126000 0.000000 13.690000
    vertex -10.315000 15.000000 17.244301
    vertex -12.126000 15.000000 13.690000
  endloop
endfacet
facet normal -53.314518 0.000000 27.165012
  outer loop
    vertex -10.315000 15.000000 17.244301
    vertex -12.126000 0.000000 13.690000
    vertex -10.315000 0.000000 17.244301
  endloop
endfacet
facet normal 0.000000 0.000000 69.375000
  outer loop
    vertex 25.500000 15.000000 0.000000
    vertex 20.875000 7.000000 0.000000
    vertex 25.500000 0.000000 0.000000
  endloop
endfacet
facet normal 0.000000 0.000000 3.186699
  outer loop
    vertex 25.500000 15.000000 0.000000
    vertex 20.789301 7.540780 0.000000
    vertex 20.875000 7.000000 0.000000
  endloop
endfacet
facet normal 0.000000 0.000000 4.151691
  outer loop
    vertex 25.500000 15.000000 0.000000
    vertex 20.540800 8.028620 0.000000
    vertex 20.789301 7.540780 0.000000
  endloop
endfacet
facet normal 0.000000 0.000000 4.619320
  outer loop
    vertex 25.500000 15.000000 0.000000
    vertex 20.153601 8.415780 0.000000
    vertex 20.540800 8.028620 0.000000
  endloop
endfacet
facet normal 0.000000 0.000000 4.540737
  outer loop
    vertex 25.500000 15.000000 0.000000
    vertex 19.665800 8.664350 0.000000
    vertex 20.153601 8.415780 0.000000
  endloop
endfacet
facet normal 0.000000 0.000000 3.926022
  outer loop
    vertex 25.500000 15.000000 0.000000
    vertex 19.125000 8.750000 0.000000
    vertex 19.665800 8.664350 0.000000
  endloop
endfacet
facet normal 0.000000 0.000000 2.833981
  outer loop
    vertex 25.500000 15.000000 0.000000
    vertex 18.584200 8.664350 0.000000
    vertex 19.125000 8.750000 0.000000
  endloop
endfacet
facet normal -0.000000 0.000000 161.559082
  outer loop
    vertex 0.000000 15.000000 0.000000
    vertex 18.584200 8.664350 0.000000
    vertex 25.500000 15.000000 0.000000
  endloop
endfacet
facet normal 0.000000 0.000000 9.501888
  outer loop
    vertex 17.709200 8.028620 0.000000
    vertex 0.000006 11.500000 0.000000
    vertex 17.460699 7.540780 0.000000
  endloop
endfacet
facet normal 0.000000 0.000000 9.555618
  outer loop
    vertex 0.000000 15.000000 0.000000
    vertex 17.709200 8.028620 0.000000
    vertex 18.096399 8.415780 0.000000
  endloop
endfacet
facet normal 0.000000 0.000000 7.709999
  outer loop
    vertex 18.584200 8.664350 0.000000
    vertex 0.000000 15.000000 0.000000
    vertex 18.096399 8.415780 0.000000
  endloop
endfacet
facet normal 0.000000 0.000000 61.982162
  outer loop
    vertex 17.709200 8.028620 0.000000
    vertex 0.000000 15.000000 0.000000
    vertex 0.000006 11.500000 0.000000
  endloop
endfacet
facet normal 0.000000 0.000000 0.000015
  outer loop
    vertex 0.000006 11.500000 0.000000
    vertex 0.000000 15.000000 0.000000
    vertex 0.000002 11.500000 0.000000
  endloop
endfacet
facet normal 0.000000 0.000000 0.000007
  outer loop
    vertex 0.000002 11.500000 0.000000
    vertex 0.000000 15.000000 0.000000
    vertex 0.000000 11.500000 0.000000
  endloop
endfacet
facet normal -0.000000 0.000000 3.101002
  outer loop
    vertex 20.789301 6.459220 0.000000
    vertex 25.500000 0.000000 0.000000
    vertex 20.875000 7.000000 0.000000
  endloop
endfacet
facet normal -0.000000 0.000000 3.903188
  outer loop
    vertex 20.540800 5.971380 0.000000
    vertex 25.500000 0.000000 0.000000
    vertex 20.789301 6.459220 0.000000
  endloop
endfacet
facet normal -0.000000 0.000000 4.232121
  outer loop
    vertex 20.153601 5.584220 0.000000
    vertex 25.500000 0.000000 0.000000
    vertex 20.540800 5.971380 0.000000
  endloop
endfacet
facet normal -0.000000 0.000000 4.052940
  outer loop
    vertex 19.665800 5.335650 0.000000
    vertex 25.500000 0.000000 0.000000
    vertex 20.153601 5.584220 0.000000
  endloop
endfacet
facet normal -0.000000 0.000000 3.385219
  outer loop
    vertex 19.125000 5.250000 0.000000
    vertex 25.500000 0.000000 0.000000
    vertex 19.665800 5.335650 0.000000
  endloop
endfacet
facet normal 0.000000 0.000000 2.293182
  outer loop
    vertex 18.584200 5.335650 0.000000
    vertex 25.500000 0.000000 0.000000
    vertex 19.125000 5.250000 0.000000
  endloop
endfacet
facet normal 0.000000 0.000000 7.222206
  outer loop
    vertex 0.000001 0.000000 0.000000
    vertex 18.584200 5.335650 0.000000
    vertex 18.096399 5.584220 0.000000
  endloop
endfacet
facet normal 0.000000 0.000000 9.781696
  outer loop
    vertex 17.460699 7.540780 0.000000
    vertex 0.000006 11.500000 0.000000
    vertex 17.375000 7.000000 0.000000
  endloop
endfacet
facet normal 0.000000 0.000000 199.812454
  outer loop
    vertex 0.000001 0.000000 0.000000
    vertex 17.375000 7.000000 0.000000
    vertex 0.000006 11.500000 0.000000
  endloop
endfacet
facet normal 0.000000 0.000000 9.995946
  outer loop
    vertex 17.375000 7.000000 0.000000
    vertex 0.000001 0.000000 0.000000
    vertex 17.460699 6.459220 0.000000
  endloop
endfacet
facet normal 0.000000 0.000000 10.123143
  outer loop
    vertex 17.460699 6.459220 0.000000
    vertex 0.000001 0.000000 0.000000
    vertex 17.709200 5.971380 0.000000
  endloop
endfacet
facet normal 0.000000 0.000000 9.168413
  outer loop
    vertex 17.709200 5.971380 0.000000
    vertex 0.000001 0.000000 0.000000
    vertex 18.096399 5.584220 0.000000
  endloop
endfacet
facet normal 0.000000 0.000000 136.059067
  outer loop
    vertex 18.584200 5.335650 0.000000
    vertex 0.000001 0.000000 0.000000
    vertex 25.500000 0.000000 0.000000
  endloop
endfacet
facet normal 45.000000 -0.000000 0.000000
  outer loop
    vertex 25.500000 0.000000 0.000000
    vertex 25.500000 15.000000 -3.000000
    vertex 25.500000 15.000000 0.000000
  endloop
endfacet
facet normal 45.000000 0.000000 0.000000
  outer loop
    vertex 25.500000 15.000000 -3.000000
    vertex 25.500000 0.000000 0.000000
    vertex 25.500000 0.000000 -3.000000
  endloop
endfacet
facet normal 0.000000 0.000000 -69.375000
  outer loop
    vertex 25.500000 0.000000 -3.000000
    vertex 20.875000 7.000000 -3.000000
    vertex 25.500000 15.000000 -3.000000
  endloop
endfacet
facet normal 0.000000 0.000000 -3.101000
  outer loop
    vertex 25.500000 0.000000 -3.000000
    vertex 20.789301 6.459220 -3.000000
    vertex 20.875000 7.000000 -3.000000
  endloop
endfacet
facet normal 0.000000 0.000000 -3.903187
  outer loop
    vertex 25.500000 0.000000 -3.000000
    vertex 20.540800 5.971380 -3.000000
    vertex 20.789301 6.459220 -3.000000
  endloop
endfacet
facet normal 0.000000 0.000000 -4.232121
  outer loop
    vertex 25.500000 0.000000 -3.000000
    vertex 20.153601 5.584220 -3.000000
    vertex 20.540800 5.971380 -3.000000
  endloop
endfacet
facet normal 0.000000 0.000000 -4.052940
  outer loop
    vertex 25.500000 0.000000 -3.000000
    vertex 19.665800 5.335650 -3.000000
    vertex 20.153601 5.584220 -3.000000
  endloop
endfacet
facet normal 0.000000 0.000000 -3.385218
  outer loop
    vertex 25.500000 0.000000 -3.000000
    vertex 19.125000 5.250000 -3.000000
    vertex 19.665800 5.335650 -3.000000
  endloop
endfacet
facet normal 0.000000 0.000000 -2.293182
  outer loop
    vertex 25.500000 0.000000 -3.000000
    vertex 18.584200 5.335650 -3.000000
    vertex 19.125000 5.250000 -3.000000
  endloop
endfacet
facet normal 0.000000 0.000000 -136.059067
  outer loop
    vertex 0.000000 0.000000 -3.000000
    vertex 18.584200 5.335650 -3.000000
    vertex 25.500000 0.000000 -3.000000
  endloop
endfacet
facet normal -0.000000 0.000000 -9.995947
  outer loop
    vertex 17.460699 6.459220 -3.000000
    vertex 0.000000 0.000000 -3.000000
    vertex 17.375000 7.000000 -3.000000
  endloop
endfacet
facet normal -0.000000 0.000000 -10.123144
  outer loop
    vertex 17.709200 5.971380 -3.000000
    vertex 0.000000 0.000000 -3.000000
    vertex 17.460699 6.459220 -3.000000
  endloop
endfacet
facet normal -0.000000 0.000000 -9.168414
  outer loop
    vertex 18.096399 5.584220 -3.000000
    vertex 0.000000 0.000000 -3.000000
    vertex 17.709200 5.971380 -3.000000
  endloop
endfacet
facet normal -0.000000 0.000000 -7.222207
  outer loop
    vertex 18.584200 5.335650 -3.000000
    vertex 0.000000 0.000000 -3.000000
    vertex 18.096399 5.584220 -3.000000
  endloop
endfacet
facet normal 0.000000 0.000000 -3.186701
  outer loop
    vertex 20.789301 7.540780 -3.000000
    vertex 25.500000 15.000000 -3.000000
    vertex 20.875000 7.000000 -3.000000
  endloop
endfacet
facet normal 0.000000 0.000000 -4.151689
  outer loop
    vertex 20.540800 8.028620 -3.000000
    vertex 25.500000 15.000000 -3.000000
    vertex 20.789301 7.540780 -3.000000
  endloop
endfacet
facet normal 0.000000 0.000000 -4.619320
  outer loop
    vertex 20.153601 8.415780 -3.000000
    vertex 25.500000 15.000000 -3.000000
    vertex 20.540800 8.028620 -3.000000
  endloop
endfacet
facet normal 0.000000 0.000000 -4.540738
  outer loop
    vertex 19.665800 8.664350 -3.000000
    vertex 25.500000 15.000000 -3.000000
    vertex 20.153601 8.415780 -3.000000
  endloop
endfacet
facet normal 0.000000 0.000000 -3.926022
  outer loop
    vertex 19.125000 8.750000 -3.000000
    vertex 25.500000 15.000000 -3.000000
    vertex 19.665800 8.664350 -3.000000
  endloop
endfacet
facet normal 0.000000 0.000000 -2.833979
  outer loop
    vertex 18.584200 8.664350 -3.000000
    vertex 25.500000 15.000000 -3.000000
    vertex 19.125000 8.750000 -3.000000
  endloop
endfacet
facet normal 0.000000 0.000000 -7.709999
  outer loop
    vertex 0.000000 15.000000 -3.000000
    vertex 18.584200 8.664350 -3.000000
    vertex 18.096399 8.415780 -3.000000
  endloop
endfacet
facet normal 0.000000 0.000000 -260.625000
  outer loop
    vertex 0.000000 15.000000 -3.000000
    vertex 17.375000 7.000000 -3.000000
    vertex 0.000000 0.000000 -3.000000
  endloop
endfacet
facet normal 0.000000 0.000000 -10.081646
  outer loop
    vertex 17.375000 7.000000 -3.000000
    vertex 0.000000 15.000000 -3.000000
    vertex 17.460699 7.540780 -3.000000
  endloop
endfacet
facet normal 0.000000 0.000000 -10.371645
  outer loop
    vertex 17.460699 7.540780 -3.000000
    vertex 0.000000 15.000000 -3.000000
    vertex 17.709200 8.028620 -3.000000
  endloop
endfacet
facet normal 0.000000 0.000000 -9.555614
  outer loop
    vertex 17.709200 8.028620 -3.000000
    vertex 0.000000 15.000000 -3.000000
    vertex 18.096399 8.415780 -3.000000
  endloop
endfacet
facet normal 0.000000 0.000000 -161.559082
  outer loop
    vertex 18.584200 8.664350 -3.000000
    vertex 0.000000 15.000000 -3.000000
    vertex 25.500000 15.000000 -3.000000
  endloop
endfacet
facet normal 0.000000 0.000000 69.375000
  outer loop
    vertex 25.500000 15.000000 9.000000
    vertex 20.875000 7.000000 9.000000
    vertex 25.500000 0.000000 9.000000
  endloop
endfacet
facet normal 0.000000 0.000000 3.186699
  outer loop
    vertex 25.500000 15.000000 9.000000
    vertex 20.789301 7.540780 9.000000
    vertex 20.875000 7.000000 9.000000
  endloop
endfacet
facet normal 0.000000 0.000000 4.151691
  outer loop
    vertex 25.500000 15.000000 9.000000
    vertex 20.540800 8.028620 9.000000
    vertex 20.789301 7.540780 9.000000
  endloop
endfacet
facet normal 0.000000 0.000000 4.619320
  outer loop
    vertex 25.500000 15.000000 9.000000
    vertex 20.153601 8.415780 9.000000
    vertex 20.540800 8.028620 9.000000
  endloop
endfacet
facet normal 0.000000 0.000000 4.540737
  outer loop
    vertex 25.500000 15.000000 9.000000
    vertex 19.665800 8.664350 9.000000
    vertex 20.153601 8.415780 9.000000
  endloop
endfacet
facet normal 0.000000 0.000000 3.926022
  outer loop
    vertex 25.500000 15.000000 9.000000
    vertex 19.125000 8.750000 9.000000
    vertex 19.665800 8.664350 9.000000
  endloop
endfacet
facet normal -0.000000 0.000000 80.430000
  outer loop
    vertex 12.631200 15.000000 9.000000
    vertex 19.125000 8.750000 9.000000
    vertex 25.500000 15.000000 9.000000
  endloop
endfacet
facet normal 0.000000 0.000000 3.936198
  outer loop
    vertex 19.125000 8.750000 9.000000
    vertex 12.631200 15.000000 9.000000
    vertex 18.584200 8.664350 9.000000
  endloop
endfacet
facet normal 0.000000 0.000000 3.250945
  outer loop
    vertex 17.460699 7.540780 9.000000
    vertex 12.631200 15.000000 9.000000
    vertex 17.375000 7.000000 9.000000
  endloop
endfacet
facet normal 0.000000 0.000000 4.209644
  outer loop
    vertex 17.709200 8.028620 9.000000
    vertex 12.631200 15.000000 9.000000
    vertex 17.460699 7.540780 9.000000
  endloop
endfacet
facet normal 0.000000 0.000000 4.665315
  outer loop
    vertex 18.096399 8.415780 9.000000
    vertex 12.631200 15.000000 9.000000
    vertex 17.709200 8.028620 9.000000
  endloop
endfacet
facet normal 0.000000 0.000000 4.570268
  outer loop
    vertex 18.584200 8.664350 9.000000
    vertex 12.631200 15.000000 9.000000
    vertex 18.096399 8.415780 9.000000
  endloop
endfacet
facet normal -0.000000 0.000000 3.101002
  outer loop
    vertex 20.789301 6.459220 9.000000
    vertex 25.500000 0.000000 9.000000
    vertex 20.875000 7.000000 9.000000
  endloop
endfacet
facet normal -0.000000 0.000000 3.903188
  outer loop
    vertex 20.540800 5.971380 9.000000
    vertex 25.500000 0.000000 9.000000
    vertex 20.789301 6.459220 9.000000
  endloop
endfacet
facet normal -0.000000 0.000000 4.232121
  outer loop
    vertex 20.153601 5.584220 9.000000
    vertex 25.500000 0.000000 9.000000
    vertex 20.540800 5.971380 9.000000
  endloop
endfacet
facet normal -0.000000 0.000000 4.052940
  outer loop
    vertex 19.665800 5.335650 9.000000
    vertex 25.500000 0.000000 9.000000
    vertex 20.153601 5.584220 9.000000
  endloop
endfacet
facet normal -0.000000 0.000000 3.385219
  outer loop
    vertex 19.125000 5.250000 9.000000
    vertex 25.500000 0.000000 9.000000
    vertex 19.665800 5.335650 9.000000
  endloop
endfacet
facet normal 0.000000 0.000000 3.395393
  outer loop
    vertex 12.631200 0.000000 9.000000
    vertex 19.125000 5.250000 9.000000
    vertex 18.584200 5.335650 9.000000
  endloop
endfacet
facet normal 0.000000 0.000000 4.082472
  outer loop
    vertex 12.631200 0.000000 9.000000
    vertex 18.584200 5.335650 9.000000
    vertex 18.096399 5.584220 9.000000
  endloop
endfacet
facet normal 0.000000 0.000000 71.157005
  outer loop
    vertex 12.631200 0.000000 9.000000
    vertex 17.375000 7.000000 9.000000
    vertex 12.631200 15.000000 9.000000
  endloop
endfacet
facet normal 0.000000 0.000000 3.165246
  outer loop
    vertex 17.375000 7.000000 9.000000
    vertex 12.631200 0.000000 9.000000
    vertex 17.460699 6.459220 9.000000
  endloop
endfacet
facet normal 0.000000 0.000000 67.561203
  outer loop
    vertex 19.125000 5.250000 9.000000
    vertex 12.631200 0.000000 9.000000
    vertex 25.500000 0.000000 9.000000
  endloop
endfacet
facet normal 0.000000 0.000000 4.278115
  outer loop
    vertex 17.709200 5.971380 9.000000
    vertex 12.631200 0.000000 9.000000
    vertex 18.096399 5.584220 9.000000
  endloop
endfacet
facet normal 0.000000 0.000000 3.961143
  outer loop
    vertex 17.460699 6.459220 9.000000
    vertex 12.631200 0.000000 9.000000
    vertex 17.709200 5.971380 9.000000
  endloop
endfacet
facet normal 39.000000 -0.000000 0.000000
  outer loop
    vertex 25.500000 0.000000 9.000000
    vertex 25.500000 15.000000 6.400000
    vertex 25.500000 15.000000 9.000000
  endloop
endfacet
facet normal 39.000000 0.000000 0.000000
  outer loop
    vertex 25.500000 15.000000 6.400000
    vertex 25.500000 0.000000 9.000000
    vertex 25.500000 0.000000 6.400000
  endloop
endfacet
facet normal 22.400000 -0.000000 0.000000
  outer loop
    vertex 0.000000 11.500000 6.400000
    vertex 0.000000 15.000000 0.000000
    vertex 0.000000 15.000000 6.400000
  endloop
endfacet
facet normal 22.400000 0.000000 0.000000
  outer loop
    vertex 0.000000 11.500000 6.400000
    vertex 0.000000 11.500000 0.000000
    vertex 0.000000 15.000000 0.000000
  endloop
endfacet
facet normal 73.599998 -0.000000 0.000000
  outer loop
    vertex 0.000000 0.000000 6.400000
    vertex 0.000000 11.500000 0.000000
    vertex 0.000000 11.500000 6.400000
  endloop
endfacet
facet normal 73.599998 0.000000 0.000000
  outer loop
    vertex 0.000000 11.500000 0.000000
    vertex 0.000000 0.000000 6.400000
    vertex 0.000000 0.000000 0.000000
  endloop
endfacet
facet normal 0.000000 0.000000 -69.375000
  outer loop
    vertex 25.500000 0.000000 6.400000
    vertex 20.875000 7.000000 6.400000
    vertex 25.500000 15.000000 6.400000
  endloop
endfacet
facet normal 0.000000 0.000000 -3.101000
  outer loop
    vertex 25.500000 0.000000 6.400000
    vertex 20.789301 6.459220 6.400000
    vertex 20.875000 7.000000 6.400000
  endloop
endfacet
facet normal 0.000000 0.000000 -3.903187
  outer loop
    vertex 25.500000 0.000000 6.400000
    vertex 20.540800 5.971380 6.400000
    vertex 20.789301 6.459220 6.400000
  endloop
endfacet
facet normal 0.000000 0.000000 -4.232121
  outer loop
    vertex 25.500000 0.000000 6.400000
    vertex 20.153601 5.584220 6.400000
    vertex 20.540800 5.971380 6.400000
  endloop
endfacet
facet normal 0.000000 0.000000 -4.052940
  outer loop
    vertex 25.500000 0.000000 6.400000
    vertex 19.665800 5.335650 6.400000
    vertex 20.153601 5.584220 6.400000
  endloop
endfacet
facet normal 0.000000 0.000000 -3.385218
  outer loop
    vertex 25.500000 0.000000 6.400000
    vertex 19.125000 5.250000 6.400000
    vertex 19.665800 5.335650 6.400000
  endloop
endfacet
facet normal 0.000000 0.000000 -2.293182
  outer loop
    vertex 25.500000 0.000000 6.400000
    vertex 18.584200 5.335650 6.400000
    vertex 19.125000 5.250000 6.400000
  endloop
endfacet
facet normal 0.000000 0.000000 -87.499046
  outer loop
    vertex 9.101050 0.000000 6.400000
    vertex 18.584200 5.335650 6.400000
    vertex 25.500000 0.000000 6.400000
  endloop
endfacet
facet normal -0.000000 0.000000 -5.074281
  outer loop
    vertex 17.460699 6.459220 6.400000
    vertex 9.101050 0.000000 6.400000
    vertex 17.375000 7.000000 6.400000
  endloop
endfacet
facet normal -0.000000 0.000000 -5.683290
  outer loop
    vertex 17.709200 5.971380 6.400000
    vertex 9.101050 0.000000 6.400000
    vertex 17.460699 6.459220 6.400000
  endloop
endfacet
facet normal -0.000000 0.000000 -5.644849
  outer loop
    vertex 18.096399 5.584220 6.400000
    vertex 9.101050 0.000000 6.400000
    vertex 17.709200 5.971380 6.400000
  endloop
endfacet
facet normal -0.000000 0.000000 -4.959959
  outer loop
    vertex 18.584200 5.335650 6.400000
    vertex 9.101050 0.000000 6.400000
    vertex 18.096399 5.584220 6.400000
  endloop
endfacet
facet normal 0.000000 0.000000 -3.186701
  outer loop
    vertex 20.789301 7.540780 6.400000
    vertex 25.500000 15.000000 6.400000
    vertex 20.875000 7.000000 6.400000
  endloop
endfacet
facet normal 0.000000 0.000000 -4.151689
  outer loop
    vertex 20.540800 8.028620 6.400000
    vertex 25.500000 15.000000 6.400000
    vertex 20.789301 7.540780 6.400000
  endloop
endfacet
facet normal 0.000000 0.000000 -4.619320
  outer loop
    vertex 20.153601 8.415780 6.400000
    vertex 25.500000 15.000000 6.400000
    vertex 20.540800 8.028620 6.400000
  endloop
endfacet
facet normal 0.000000 0.000000 -4.540738
  outer loop
    vertex 19.665800 8.664350 6.400000
    vertex 25.500000 15.000000 6.400000
    vertex 20.153601 8.415780 6.400000
  endloop
endfacet
facet normal 0.000000 0.000000 -3.926022
  outer loop
    vertex 19.125000 8.750000 6.400000
    vertex 25.500000 15.000000 6.400000
    vertex 19.665800 8.664350 6.400000
  endloop
endfacet
facet normal 0.000000 0.000000 -2.833979
  outer loop
    vertex 18.584200 8.664350 6.400000
    vertex 25.500000 15.000000 6.400000
    vertex 19.125000 8.750000 6.400000
  endloop
endfacet
facet normal 0.000000 0.000000 -3.740454
  outer loop
    vertex 9.101050 11.500000 6.400000
    vertex 18.584200 8.664350 6.400000
    vertex 18.096399 8.415780 6.400000
  endloop
endfacet
facet normal 0.000000 0.000000 -95.150421
  outer loop
    vertex 9.101050 11.500000 6.400000
    vertex 17.375000 7.000000 6.400000
    vertex 9.101050 0.000000 6.400000
  endloop
endfacet
facet normal 0.000000 0.000000 -4.860033
  outer loop
    vertex 17.375000 7.000000 6.400000
    vertex 9.101050 11.500000 6.400000
    vertex 17.460699 7.540780 6.400000
  endloop
endfacet
facet normal 0.000000 0.000000 -5.062038
  outer loop
    vertex 17.460699 7.540780 6.400000
    vertex 9.101050 11.500000 6.400000
    vertex 17.709200 8.028620 6.400000
  endloop
endfacet
facet normal 0.000000 0.000000 -4.676850
  outer loop
    vertex 17.709200 8.028620 6.400000
    vertex 9.101050 11.500000 6.400000
    vertex 18.096399 8.415780 6.400000
  endloop
endfacet
facet normal 0.000000 0.000000 -79.692711
  outer loop
    vertex 18.584200 8.664350 6.400000
    vertex 9.101050 11.500000 6.400000
    vertex 25.500000 15.000000 6.400000
  endloop
endfacet
facet normal 0.000000 0.000000 -31.853676
  outer loop
    vertex 0.000000 15.000000 6.400000
    vertex 9.101050 11.500000 6.400000
    vertex 0.000000 11.500000 6.400000
  endloop
endfacet
facet normal 0.000000 0.000000 -89.250000
  outer loop
    vertex 9.101050 11.500000 6.400000
    vertex 0.000000 15.000000 6.400000
    vertex 25.500000 15.000000 6.400000
  endloop
endfacet
facet normal -0.662552 -0.000001 -0.104930
  outer loop
    vertex 1.664350 11.500000 10.290800
    vertex 1.684330 15.000000 10.164600
    vertex 1.694330 11.500000 10.101500
  endloop
endfacet
facet normal -0.441699 0.000000 -0.069930
  outer loop
    vertex 1.684330 15.000000 10.164600
    vertex 1.664350 11.500000 10.290800
    vertex 1.664350 15.000000 10.290800
  endloop
endfacet
facet normal -1.230248 0.000000 -0.194845
  outer loop
    vertex 1.694330 11.500000 10.101500
    vertex 1.750000 15.000000 9.750000
    vertex 1.750000 11.500000 9.750000
  endloop
endfacet
facet normal -1.451101 -0.000002 -0.229845
  outer loop
    vertex 1.750000 15.000000 9.750000
    vertex 1.694330 11.500000 10.101500
    vertex 1.684330 15.000000 10.164600
  endloop
endfacet
facet normal -0.194951 -0.000000 -1.230271
  outer loop
    vertex 0.000000 15.000000 11.500000
    vertex 0.351506 11.500000 11.444300
    vertex 0.000000 11.500000 11.500000
  endloop
endfacet
facet normal -0.229949 -0.000001 -1.451090
  outer loop
    vertex 0.351506 11.500000 11.444300
    vertex 0.000000 15.000000 11.500000
    vertex 0.414597 15.000000 11.434300
  endloop
endfacet
facet normal 0.069932 0.000000 0.441637
  outer loop
    vertex -0.126182 15.000000 8.019980
    vertex 0.000000 11.500000 8.000000
    vertex 0.000000 15.000000 8.000000
  endloop
endfacet
facet normal 0.104929 0.000001 0.662455
  outer loop
    vertex 0.000000 11.500000 8.000000
    vertex -0.126182 15.000000 8.019980
    vertex -0.189273 11.500000 8.029980
  endloop
endfacet
facet normal -0.662445 -0.000001 0.104930
  outer loop
    vertex 1.750000 11.500000 9.750000
    vertex 1.730010 15.000000 9.623820
    vertex 1.720020 11.500000 9.560730
  endloop
endfacet
facet normal -0.441629 0.000000 0.069965
  outer loop
    vertex 1.730010 15.000000 9.623820
    vertex 1.750000 11.500000 9.750000
    vertex 1.750000 15.000000 9.750000
  endloop
endfacet
facet normal -1.707299 0.000000 -0.869995
  outer loop
    vertex 1.664350 11.500000 10.290800
    vertex 1.415780 15.000000 10.778600
    vertex 1.664350 15.000000 10.290800
  endloop
endfacet
facet normal -1.707299 -0.000000 -0.869995
  outer loop
    vertex 1.415780 15.000000 10.778600
    vertex 1.664350 11.500000 10.290800
    vertex 1.415780 11.500000 10.778600
  endloop
endfacet
facet normal -1.355061 0.000000 1.355060
  outer loop
    vertex 1.028620 11.500000 8.334220
    vertex 1.415780 15.000000 8.721380
    vertex 1.028620 15.000000 8.334220
  endloop
endfacet
facet normal -1.355061 0.000000 1.355060
  outer loop
    vertex 1.415780 15.000000 8.721380
    vertex 1.028620 11.500000 8.334220
    vertex 1.415780 11.500000 8.721380
  endloop
endfacet
facet normal 0.869750 0.000000 -1.707443
  outer loop
    vertex -1.028620 11.500000 11.165800
    vertex -0.540779 15.000000 11.414300
    vertex -0.540779 11.500000 11.414300
  endloop
endfacet
facet normal 0.869750 0.000000 -1.707443
  outer loop
    vertex -0.540779 15.000000 11.414300
    vertex -1.028620 11.500000 11.165800
    vertex -1.028620 15.000000 11.165800
  endloop
endfacet
facet normal 1.355061 -0.000000 1.355060
  outer loop
    vertex -1.415780 11.500000 8.721380
    vertex -1.028620 15.000000 8.334220
    vertex -1.415780 15.000000 8.721380
  endloop
endfacet
facet normal 1.355061 0.000000 1.355060
  outer loop
    vertex -1.028620 15.000000 8.334220
    vertex -1.415780 11.500000 8.721380
    vertex -1.028620 11.500000 8.334220
  endloop
endfacet
facet normal 1.707439 -0.000000 0.869995
  outer loop
    vertex -1.664350 11.500000 9.209220
    vertex -1.415780 15.000000 8.721380
    vertex -1.664350 15.000000 9.209220
  endloop
endfacet
facet normal 1.707439 0.000000 0.869995
  outer loop
    vertex -1.415780 15.000000 8.721380
    vertex -1.664350 11.500000 9.209220
    vertex -1.415780 11.500000 8.721380
  endloop
endfacet
facet normal 0.869993 0.000000 1.707443
  outer loop
    vertex -1.028620 15.000000 8.334220
    vertex -0.540779 11.500000 8.085650
    vertex -0.540779 15.000000 8.085650
  endloop
endfacet
facet normal 0.869993 0.000000 1.707443
  outer loop
    vertex -0.540779 11.500000 8.085650
    vertex -1.028620 15.000000 8.334220
    vertex -1.028620 11.500000 8.334220
  endloop
endfacet
facet normal 0.194951 0.000000 -1.230271
  outer loop
    vertex -0.351506 11.500000 11.444300
    vertex 0.000000 15.000000 11.500000
    vertex 0.000000 11.500000 11.500000
  endloop
endfacet
facet normal 0.229949 -0.000001 -1.451090
  outer loop
    vertex 0.000000 15.000000 11.500000
    vertex -0.351506 11.500000 11.444300
    vertex -0.414597 15.000000 11.434300
  endloop
endfacet
facet normal -0.869750 0.000000 -1.707443
  outer loop
    vertex 0.540779 11.500000 11.414300
    vertex 1.028620 15.000000 11.165800
    vertex 1.028620 11.500000 11.165800
  endloop
endfacet
facet normal -0.869750 0.000000 -1.707443
  outer loop
    vertex 1.028620 15.000000 11.165800
    vertex 0.540779 11.500000 11.414300
    vertex 0.540779 15.000000 11.414300
  endloop
endfacet
facet normal -0.070002 0.000000 -0.441637
  outer loop
    vertex 0.540779 11.500000 11.414300
    vertex 0.414597 15.000000 11.434300
    vertex 0.540779 15.000000 11.414300
  endloop
endfacet
facet normal -0.104999 0.000000 -0.662455
  outer loop
    vertex 0.414597 15.000000 11.434300
    vertex 0.540779 11.500000 11.414300
    vertex 0.351506 11.500000 11.444300
  endloop
endfacet
facet normal -1.355201 0.000000 -1.355060
  outer loop
    vertex 1.415780 11.500000 10.778600
    vertex 1.028620 15.000000 11.165800
    vertex 1.415780 15.000000 10.778600
  endloop
endfacet
facet normal -1.355201 -0.000000 -1.355060
  outer loop
    vertex 1.028620 15.000000 11.165800
    vertex 1.415780 11.500000 10.778600
    vertex 1.028620 11.500000 11.165800
  endloop
endfacet
facet normal 1.451101 -0.000002 -0.229845
  outer loop
    vertex -1.694330 11.500000 10.101500
    vertex -1.750000 15.000000 9.750000
    vertex -1.684330 15.000000 10.164600
  endloop
endfacet
facet normal 1.230248 0.000000 -0.194845
  outer loop
    vertex -1.750000 15.000000 9.750000
    vertex -1.694330 11.500000 10.101500
    vertex -1.750000 11.500000 9.750000
  endloop
endfacet
facet normal 0.441699 0.000000 -0.069930
  outer loop
    vertex -1.664350 11.500000 10.290800
    vertex -1.684330 15.000000 10.164600
    vertex -1.664350 15.000000 10.290800
  endloop
endfacet
facet normal 0.662552 -0.000001 -0.104930
  outer loop
    vertex -1.684330 15.000000 10.164600
    vertex -1.664350 11.500000 10.290800
    vertex -1.694330 11.500000 10.101500
  endloop
endfacet
facet normal 0.229845 0.000002 1.451089
  outer loop
    vertex -0.540779 15.000000 8.085650
    vertex -0.189273 11.500000 8.029980
    vertex -0.126182 15.000000 8.019980
  endloop
endfacet
facet normal 0.194848 0.000000 1.230271
  outer loop
    vertex -0.189273 11.500000 8.029980
    vertex -0.540779 15.000000 8.085650
    vertex -0.540779 11.500000 8.085650
  endloop
endfacet
facet normal -0.069932 0.000000 0.441637
  outer loop
    vertex 0.000000 11.500000 8.000000
    vertex 0.126182 15.000000 8.019980
    vertex 0.000000 15.000000 8.000000
  endloop
endfacet
facet normal -0.104929 0.000001 0.662455
  outer loop
    vertex 0.126182 15.000000 8.019980
    vertex 0.000000 11.500000 8.000000
    vertex 0.189273 11.500000 8.029980
  endloop
endfacet
facet normal -0.194848 0.000000 1.230271
  outer loop
    vertex 0.540779 15.000000 8.085650
    vertex 0.189273 11.500000 8.029980
    vertex 0.540779 11.500000 8.085650
  endloop
endfacet
facet normal -0.229845 0.000002 1.451090
  outer loop
    vertex 0.189273 11.500000 8.029980
    vertex 0.540779 15.000000 8.085650
    vertex 0.126182 15.000000 8.019980
  endloop
endfacet
facet normal -1.707439 0.000000 0.869995
  outer loop
    vertex 1.415780 11.500000 8.721380
    vertex 1.664350 15.000000 9.209220
    vertex 1.415780 15.000000 8.721380
  endloop
endfacet
facet normal -1.707439 0.000000 0.869995
  outer loop
    vertex 1.664350 15.000000 9.209220
    vertex 1.415780 11.500000 8.721380
    vertex 1.664350 11.500000 9.209220
  endloop
endfacet
facet normal -1.230285 0.000000 0.194845
  outer loop
    vertex 1.720020 11.500000 9.560730
    vertex 1.664350 15.000000 9.209220
    vertex 1.664350 11.500000 9.209220
  endloop
endfacet
facet normal -1.451101 -0.000001 0.229810
  outer loop
    vertex 1.664350 15.000000 9.209220
    vertex 1.720020 11.500000 9.560730
    vertex 1.730010 15.000000 9.623820
  endloop
endfacet
facet normal -0.869993 0.000000 1.707443
  outer loop
    vertex 0.540779 15.000000 8.085650
    vertex 1.028620 11.500000 8.334220
    vertex 1.028620 15.000000 8.334220
  endloop
endfacet
facet normal -0.869993 0.000000 1.707443
  outer loop
    vertex 1.028620 11.500000 8.334220
    vertex 0.540779 15.000000 8.085650
    vertex 0.540779 11.500000 8.085650
  endloop
endfacet
facet normal 0.441629 -0.000000 0.069965
  outer loop
    vertex -1.750000 11.500000 9.750000
    vertex -1.730010 15.000000 9.623820
    vertex -1.750000 15.000000 9.750000
  endloop
endfacet
facet normal 0.662445 -0.000001 0.104930
  outer loop
    vertex -1.730010 15.000000 9.623820
    vertex -1.750000 11.500000 9.750000
    vertex -1.720020 11.500000 9.560730
  endloop
endfacet
facet normal 1.451101 -0.000001 0.229810
  outer loop
    vertex -1.720020 11.500000 9.560730
    vertex -1.664350 15.000000 9.209220
    vertex -1.730010 15.000000 9.623820
  endloop
endfacet
facet normal 1.230285 0.000000 0.194845
  outer loop
    vertex -1.664350 15.000000 9.209220
    vertex -1.720020 11.500000 9.560730
    vertex -1.664350 11.500000 9.209220
  endloop
endfacet
facet normal 0.104999 0.000000 -0.662455
  outer loop
    vertex -0.540779 11.500000 11.414300
    vertex -0.414597 15.000000 11.434300
    vertex -0.351506 11.500000 11.444300
  endloop
endfacet
facet normal 0.070002 0.000000 -0.441637
  outer loop
    vertex -0.414597 15.000000 11.434300
    vertex -0.540779 11.500000 11.414300
    vertex -0.540779 15.000000 11.414300
  endloop
endfacet
facet normal 1.355201 0.000000 -1.355060
  outer loop
    vertex -1.028620 11.500000 11.165800
    vertex -1.415780 15.000000 10.778600
    vertex -1.028620 15.000000 11.165800
  endloop
endfacet
facet normal 1.355201 0.000000 -1.355060
  outer loop
    vertex -1.415780 15.000000 10.778600
    vertex -1.028620 11.500000 11.165800
    vertex -1.415780 11.500000 10.778600
  endloop
endfacet
facet normal 1.707299 0.000000 -0.869995
  outer loop
    vertex -1.415780 11.500000 10.778600
    vertex -1.664350 15.000000 10.290800
    vertex -1.415780 15.000000 10.778600
  endloop
endfacet
facet normal 1.707299 0.000000 -0.869995
  outer loop
    vertex -1.664350 15.000000 10.290800
    vertex -1.415780 11.500000 10.778600
    vertex -1.664350 11.500000 10.290800
  endloop
endfacet
facet normal -26.563854 -0.000000 -4.207269
  outer loop
    vertex 9.272800 11.500000 12.762900
    vertex 9.638650 0.000000 10.453000
    vertex 9.272800 0.000000 12.762900
  endloop
endfacet
facet normal -8.084501 0.000000 -1.280526
  outer loop
    vertex 9.638650 0.000000 10.453000
    vertex 9.750000 11.500000 9.750000
    vertex 9.750000 0.000000 9.750000
  endloop
endfacet
facet normal -34.648354 0.000015 -5.487795
  outer loop
    vertex 9.750000 11.500000 9.750000
    vertex 9.638650 0.000000 10.453000
    vertex 9.272800 11.500000 12.762900
  endloop
endfacet
facet normal 34.648579 -0.000000 5.487795
  outer loop
    vertex -9.750000 0.000000 9.750000
    vertex -9.272800 11.500000 6.737080
    vertex -9.750000 11.500000 9.750000
  endloop
endfacet
facet normal 34.648579 0.000000 5.487795
  outer loop
    vertex -9.272800 11.500000 6.737080
    vertex -9.750000 0.000000 9.750000
    vertex -9.272800 0.000000 6.737080
  endloop
endfacet
facet normal -24.805496 0.000000 -24.805616
  outer loop
    vertex 7.887920 0.000000 15.480900
    vertex 5.730910 11.500000 17.637899
    vertex 7.887920 11.500000 15.480900
  endloop
endfacet
facet normal -24.805496 -0.000000 -24.805616
  outer loop
    vertex 5.730910 11.500000 17.637899
    vertex 7.887920 0.000000 15.480900
    vertex 5.730910 0.000000 17.637899
  endloop
endfacet
facet normal 0.000000 -1.816066 0.000000
  outer loop
    vertex -6.000000 11.500000 3.057150
    vertex -6.000000 11.500000 4.019090
    vertex -7.887920 11.500000 4.019090
  endloop
endfacet
facet normal 0.000000 -0.000000 0.000000
  outer loop
    vertex 0.000000 11.500000 -0.000001
    vertex 0.000000 11.500000 0.000000
    vertex -0.000002 11.500000 0.000000
  endloop
endfacet
facet normal 0.000000 -0.000000 0.000000
  outer loop
    vertex 0.000000 11.500000 0.000000
    vertex 0.000000 11.500000 -0.000001
    vertex 0.000002 11.500000 0.000000
  endloop
endfacet
facet normal -0.000000 -0.000000 0.000000
  outer loop
    vertex 0.000006 11.500000 0.000000
    vertex 0.000002 11.500000 0.000000
    vertex 0.000000 11.500000 -0.000001
  endloop
endfacet
facet normal 5.487795 0.000000 -34.648579
  outer loop
    vertex -3.012920 0.000000 19.022800
    vertex 0.000000 11.500000 19.500000
    vertex 0.000000 0.000000 19.500000
  endloop
endfacet
facet normal 5.487795 0.000000 -34.648579
  outer loop
    vertex 0.000000 11.500000 19.500000
    vertex -3.012920 0.000000 19.022800
    vertex -3.012920 11.500000 19.022800
  endloop
endfacet
facet normal -15.926362 0.000000 -31.256884
  outer loop
    vertex 3.012920 0.000000 19.022800
    vertex 5.730910 11.500000 17.637899
    vertex 5.730910 0.000000 17.637899
  endloop
endfacet
facet normal -15.926362 0.000000 -31.256884
  outer loop
    vertex 5.730910 11.500000 17.637899
    vertex 3.012920 0.000000 19.022800
    vertex 3.012920 11.500000 19.022800
  endloop
endfacet
facet normal 34.648354 0.000000 -5.487795
  outer loop
    vertex -9.272800 0.000000 12.762900
    vertex -9.750000 11.500000 9.750000
    vertex -9.272800 11.500000 12.762900
  endloop
endfacet
facet normal 34.648354 0.000000 -5.487795
  outer loop
    vertex -9.750000 11.500000 9.750000
    vertex -9.272800 0.000000 12.762900
    vertex -9.750000 0.000000 9.750000
  endloop
endfacet
facet normal 24.805496 0.000000 -24.805616
  outer loop
    vertex -5.730910 0.000000 17.637899
    vertex -7.887920 11.500000 15.480900
    vertex -5.730910 11.500000 17.637899
  endloop
endfacet
facet normal 24.805496 0.000000 -24.805616
  outer loop
    vertex -7.887920 11.500000 15.480900
    vertex -5.730910 0.000000 17.637899
    vertex -7.887920 0.000000 15.480900
  endloop
endfacet
facet normal 0.000011 0.000000 0.000069
  outer loop
    vertex -0.000006 11.500000 0.000000
    vertex 0.000000 0.000000 -0.000000
    vertex 0.000000 11.500000 -0.000001
  endloop
endfacet
facet normal 0.000003 0.000000 0.000016
  outer loop
    vertex 0.000000 0.000000 -0.000000
    vertex -0.000006 11.500000 0.000000
    vertex -0.000001 0.000000 0.000000
  endloop
endfacet
facet normal -31.256994 0.000000 -15.926126
  outer loop
    vertex 9.272800 0.000000 12.762900
    vertex 7.887920 11.500000 15.480900
    vertex 9.272800 11.500000 12.762900
  endloop
endfacet
facet normal -31.256994 -0.000000 -15.926126
  outer loop
    vertex 7.887920 11.500000 15.480900
    vertex 9.272800 0.000000 12.762900
    vertex 7.887920 0.000000 15.480900
  endloop
endfacet
facet normal -5.487795 0.000000 -34.648579
  outer loop
    vertex 0.000000 0.000000 19.500000
    vertex 3.012920 11.500000 19.022800
    vertex 3.012920 0.000000 19.022800
  endloop
endfacet
facet normal -5.487795 0.000000 -34.648579
  outer loop
    vertex 3.012920 11.500000 19.022800
    vertex 0.000000 0.000000 19.500000
    vertex 0.000000 11.500000 19.500000
  endloop
endfacet
facet normal 31.256994 0.000000 -15.926126
  outer loop
    vertex -7.887920 0.000000 15.480900
    vertex -9.272800 11.500000 12.762900
    vertex -7.887920 11.500000 15.480900
  endloop
endfacet
facet normal 31.256994 0.000000 -15.926126
  outer loop
    vertex -9.272800 11.500000 12.762900
    vertex -7.887920 0.000000 15.480900
    vertex -9.272800 0.000000 12.762900
  endloop
endfacet
facet normal 0.000000 -21.126997 0.000000
  outer loop
    vertex 9.101050 11.500000 6.400000
    vertex 1.415780 11.500000 8.721380
    vertex 0.000000 11.500000 6.400000
  endloop
endfacet
facet normal 0.000000 -2.989249 0.000000
  outer loop
    vertex 1.415780 11.500000 8.721380
    vertex 9.101050 11.500000 6.400000
    vertex 9.272800 11.500000 6.737080
  endloop
endfacet
facet normal 0.000000 -24.103441 0.000000
  outer loop
    vertex -0.351506 11.500000 11.444300
    vertex 0.000000 11.500000 19.500000
    vertex -3.012920 11.500000 19.022800
  endloop
endfacet
facet normal 0.000000 -24.103498 0.000000
  outer loop
    vertex -0.540779 11.500000 11.414300
    vertex -3.012920 11.500000 19.022800
    vertex -5.730910 11.500000 17.637899
  endloop
endfacet
facet normal 0.000000 -2.812048 -0.000000
  outer loop
    vertex 0.000000 11.500000 19.500000
    vertex -0.351506 11.500000 11.444300
    vertex 0.000000 11.500000 11.500000
  endloop
endfacet
facet normal 0.000000 -24.103222 0.000000
  outer loop
    vertex -1.028620 11.500000 11.165800
    vertex -5.730910 11.500000 17.637899
    vertex -7.887920 11.500000 15.480900
  endloop
endfacet
facet normal 0.000000 -2.812048 0.000000
  outer loop
    vertex 0.351506 11.500000 11.444300
    vertex 0.000000 11.500000 19.500000
    vertex 0.000000 11.500000 11.500000
  endloop
endfacet
facet normal 0.000000 -24.103397 0.000000
  outer loop
    vertex -1.415780 11.500000 10.778600
    vertex -7.887920 11.500000 15.480900
    vertex -9.272800 11.500000 12.762900
  endloop
endfacet
facet normal 0.000000 -1.514247 0.000000
  outer loop
    vertex 0.540779 11.500000 11.414300
    vertex 3.012920 11.500000 19.022800
    vertex 0.351506 11.500000 11.444300
  endloop
endfacet
facet normal 0.000000 -24.103497 -0.000000
  outer loop
    vertex 3.012920 11.500000 19.022800
    vertex 0.540779 11.500000 11.414300
    vertex 5.730910 11.500000 17.637899
  endloop
endfacet
facet normal 0.000000 -24.103441 0.000000
  outer loop
    vertex 0.000000 11.500000 19.500000
    vertex 0.351506 11.500000 11.444300
    vertex 3.012920 11.500000 19.022800
  endloop
endfacet
facet normal 0.000000 -1.514248 0.000000
  outer loop
    vertex -3.012920 11.500000 19.022800
    vertex -0.540779 11.500000 11.414300
    vertex -0.351506 11.500000 11.444300
  endloop
endfacet
facet normal 0.000000 -4.325874 0.000000
  outer loop
    vertex -5.730910 11.500000 17.637899
    vertex -1.028620 11.500000 11.165800
    vertex -0.540779 11.500000 11.414300
  endloop
endfacet
facet normal 0.000000 -4.326557 0.000000
  outer loop
    vertex -7.887920 11.500000 15.480900
    vertex -1.415780 11.500000 10.778600
    vertex -1.028620 11.500000 11.165800
  endloop
endfacet
facet normal 0.000000 -4.325889 0.000000
  outer loop
    vertex -9.272800 11.500000 12.762900
    vertex -1.664350 11.500000 10.290800
    vertex -1.415780 11.500000 10.778600
  endloop
endfacet
facet normal 0.000000 -1.514399 0.000000
  outer loop
    vertex -9.272800 11.500000 12.762900
    vertex -1.694330 11.500000 10.101500
    vertex -1.664350 11.500000 10.290800
  endloop
endfacet
facet normal 0.000000 -24.103195 0.000000
  outer loop
    vertex -9.750000 11.500000 9.750000
    vertex -1.694330 11.500000 10.101500
    vertex -9.272800 11.500000 12.762900
  endloop
endfacet
facet normal 0.000000 -2.811996 0.000000
  outer loop
    vertex -9.750000 11.500000 9.750000
    vertex -1.750000 11.500000 9.750000
    vertex -1.694330 11.500000 10.101500
  endloop
endfacet
facet normal 0.000000 -26.799999 0.000000
  outer loop
    vertex -6.000000 11.500000 6.400000
    vertex -1.750000 11.500000 9.750000
    vertex -9.750000 11.500000 9.750000
  endloop
endfacet
facet normal 0.000000 -0.904830 -0.000000
  outer loop
    vertex -1.750000 11.500000 9.750000
    vertex -6.000000 11.500000 6.400000
    vertex -1.720020 11.500000 9.560730
  endloop
endfacet
facet normal 0.000000 -1.680414 -0.000000
  outer loop
    vertex -1.720020 11.500000 9.560730
    vertex -6.000000 11.500000 6.400000
    vertex -1.664350 11.500000 9.209220
  endloop
endfacet
facet normal 0.000000 -2.813390 -0.000000
  outer loop
    vertex -1.664350 11.500000 9.209220
    vertex -6.000000 11.500000 6.400000
    vertex -1.415780 11.500000 8.721380
  endloop
endfacet
facet normal 0.000000 -2.673573 -0.000000
  outer loop
    vertex -1.415780 11.500000 8.721380
    vertex -6.000000 11.500000 6.400000
    vertex -1.028620 11.500000 8.334220
  endloop
endfacet
facet normal 0.000000 -0.687908 0.000000
  outer loop
    vertex -1.028620 11.500000 8.334220
    vertex 0.000000 11.500000 6.400000
    vertex -0.540779 11.500000 8.085650
  endloop
endfacet
facet normal 0.000000 -11.605319 0.000000
  outer loop
    vertex 0.000000 11.500000 6.400000
    vertex -1.028620 11.500000 8.334220
    vertex -6.000000 11.500000 6.400000
  endloop
endfacet
facet normal 0.000000 -9.699831 0.000000
  outer loop
    vertex -6.000000 11.500000 6.400000
    vertex -9.750000 11.500000 9.750000
    vertex -9.272800 11.500000 6.737080
  endloop
endfacet
facet normal 0.000000 -4.325874 0.000000
  outer loop
    vertex 1.028620 11.500000 11.165800
    vertex 5.730910 11.500000 17.637899
    vertex 0.540779 11.500000 11.414300
  endloop
endfacet
facet normal 0.000000 -24.103220 -0.000000
  outer loop
    vertex 5.730910 11.500000 17.637899
    vertex 1.028620 11.500000 11.165800
    vertex 7.887920 11.500000 15.480900
  endloop
endfacet
facet normal 0.000000 -4.326557 0.000000
  outer loop
    vertex 1.415780 11.500000 10.778600
    vertex 7.887920 11.500000 15.480900
    vertex 1.028620 11.500000 11.165800
  endloop
endfacet
facet normal 0.000000 -24.103397 -0.000000
  outer loop
    vertex 7.887920 11.500000 15.480900
    vertex 1.415780 11.500000 10.778600
    vertex 9.272800 11.500000 12.762900
  endloop
endfacet
facet normal 0.000000 -4.325890 0.000000
  outer loop
    vertex 1.664350 11.500000 10.290800
    vertex 9.272800 11.500000 12.762900
    vertex 1.415780 11.500000 10.778600
  endloop
endfacet
facet normal 0.000000 -1.514397 0.000000
  outer loop
    vertex 1.694330 11.500000 10.101500
    vertex 9.272800 11.500000 12.762900
    vertex 1.664350 11.500000 10.290800
  endloop
endfacet
facet normal 0.000000 -2.811996 0.000000
  outer loop
    vertex 9.750000 11.500000 9.750000
    vertex 1.694330 11.500000 10.101500
    vertex 1.750000 11.500000 9.750000
  endloop
endfacet
facet normal 0.000000 -24.103195 0.000000
  outer loop
    vertex 1.694330 11.500000 10.101500
    vertex 9.750000 11.500000 9.750000
    vertex 9.272800 11.500000 12.762900
  endloop
endfacet
facet normal 0.000000 -1.514160 0.000000
  outer loop
    vertex 1.720020 11.500000 9.560730
    vertex 9.750000 11.500000 9.750000
    vertex 1.750000 11.500000 9.750000
  endloop
endfacet
facet normal 0.000000 -2.812073 0.000000
  outer loop
    vertex 9.272800 11.500000 6.737080
    vertex 1.720020 11.500000 9.560730
    vertex 1.664350 11.500000 9.209220
  endloop
endfacet
facet normal 0.000000 -4.326203 0.000000
  outer loop
    vertex 9.272800 11.500000 6.737080
    vertex 1.664350 11.500000 9.209220
    vertex 1.415780 11.500000 8.721380
  endloop
endfacet
facet normal 0.000000 -0.350611 0.000000
  outer loop
    vertex 0.000000 11.500000 6.400000
    vertex 1.415780 11.500000 8.721380
    vertex 1.028620 11.500000 8.334220
  endloop
endfacet
facet normal 0.000000 -0.687908 0.000000
  outer loop
    vertex 0.000000 11.500000 6.400000
    vertex 1.028620 11.500000 8.334220
    vertex 0.540779 11.500000 8.085650
  endloop
endfacet
facet normal 0.000000 -24.103367 0.000000
  outer loop
    vertex 1.720020 11.500000 9.560730
    vertex 9.272800 11.500000 6.737080
    vertex 9.750000 11.500000 9.750000
  endloop
endfacet
facet normal 0.000000 -0.562411 0.000000
  outer loop
    vertex 0.000000 11.500000 6.400000
    vertex 0.540779 11.500000 8.085650
    vertex 0.189273 11.500000 8.029980
  endloop
endfacet
facet normal 0.000000 -0.302837 0.000000
  outer loop
    vertex 0.000000 11.500000 6.400000
    vertex 0.189273 11.500000 8.029980
    vertex 0.000000 11.500000 8.000000
  endloop
endfacet
facet normal 0.000000 -0.562411 0.000000
  outer loop
    vertex -0.540779 11.500000 8.085650
    vertex 0.000000 11.500000 6.400000
    vertex -0.189273 11.500000 8.029980
  endloop
endfacet
facet normal 0.000000 -0.302837 0.000000
  outer loop
    vertex -0.189273 11.500000 8.029980
    vertex 0.000000 11.500000 6.400000
    vertex 0.000000 11.500000 8.000000
  endloop
endfacet
facet normal 0.000000 -8.428623 0.000000
  outer loop
    vertex -7.887920 11.500000 4.019090
    vertex -6.000000 11.500000 6.400000
    vertex -9.272800 11.500000 6.737080
  endloop
endfacet
facet normal 0.000000 -4.494967 -0.000000
  outer loop
    vertex -6.000000 11.500000 6.400000
    vertex -7.887920 11.500000 4.019090
    vertex -6.000000 11.500000 4.019090
  endloop
endfacet
facet normal -26.563848 0.000000 4.207280
  outer loop
    vertex 9.750000 0.000000 9.750000
    vertex 9.750000 11.500000 9.750000
    vertex 9.384150 0.000000 7.440100
  endloop
endfacet
facet normal 0.000000 -0.773500 0.000000
  outer loop
    vertex -6.000000 11.500000 2.647440
    vertex -6.000000 11.500000 3.057150
    vertex -7.887920 11.500000 4.019090
  endloop
endfacet
facet normal 0.000000 -0.000000 0.000000
  outer loop
    vertex 0.000000 11.500000 -0.000001
    vertex -0.000002 11.500000 0.000000
    vertex -0.000006 11.500000 0.000000
  endloop
endfacet
facet normal 31.256884 -0.000000 15.926126
  outer loop
    vertex -9.272800 0.000000 6.737080
    vertex -7.887920 11.500000 4.019090
    vertex -9.272800 11.500000 6.737080
  endloop
endfacet
facet normal 31.256884 0.000000 15.926126
  outer loop
    vertex -7.887920 11.500000 4.019090
    vertex -9.272800 0.000000 6.737080
    vertex -7.887920 0.000000 4.019090
  endloop
endfacet
facet normal 15.926362 0.000000 -31.256884
  outer loop
    vertex -5.730910 0.000000 17.637899
    vertex -3.012920 11.500000 19.022800
    vertex -3.012920 0.000000 19.022800
  endloop
endfacet
facet normal 15.926362 0.000000 -31.256884
  outer loop
    vertex -3.012920 11.500000 19.022800
    vertex -5.730910 0.000000 17.637899
    vertex -5.730910 11.500000 17.637899
  endloop
endfacet
facet normal -3.876420 0.000000 1.975126
  outer loop
    vertex 9.101050 0.000000 6.400000
    vertex 9.272800 11.500000 6.737080
    vertex 9.101050 11.500000 6.400000
  endloop
endfacet
facet normal -3.876420 0.000000 1.975126
  outer loop
    vertex 9.272800 11.500000 6.737080
    vertex 9.101050 0.000000 6.400000
    vertex 9.272800 0.000000 6.737080
  endloop
endfacet
facet normal -8.084731 0.000000 1.280515
  outer loop
    vertex 9.384150 0.000000 7.440100
    vertex 9.272800 11.500000 6.737080
    vertex 9.272800 0.000000 6.737080
  endloop
endfacet
facet normal -34.648579 -0.000005 5.487795
  outer loop
    vertex 9.272800 11.500000 6.737080
    vertex 9.384150 0.000000 7.440100
    vertex 9.750000 11.500000 9.750000
  endloop
endfacet
facet normal -0.000011 0.000000 0.000069
  outer loop
    vertex 0.000000 0.000000 -0.000000
    vertex 0.000006 11.500000 0.000000
    vertex 0.000000 11.500000 -0.000001
  endloop
endfacet
facet normal -0.000003 0.000000 0.000016
  outer loop
    vertex 0.000006 11.500000 0.000000
    vertex 0.000000 0.000000 -0.000000
    vertex 0.000001 0.000000 0.000000
  endloop
endfacet
facet normal 0.000000 -0.974657 0.000000
  outer loop
    vertex -6.000000 11.500000 2.131180
    vertex -6.000000 11.500000 2.647440
    vertex -7.887920 11.500000 4.019090
  endloop
endfacet
facet normal 21.710966 -0.000000 21.711079
  outer loop
    vertex -7.887920 0.000000 4.019090
    vertex -6.000000 11.500000 2.131180
    vertex -7.887920 11.500000 4.019090
  endloop
endfacet
facet normal 21.710966 0.000000 21.711079
  outer loop
    vertex -6.000000 11.500000 2.131180
    vertex -7.887920 0.000000 4.019090
    vertex -6.000000 0.000000 2.131180
  endloop
endfacet
facet normal -1.622340 -0.257097 0.000000
  outer loop
    vertex 20.875000 7.000000 -3.000000
    vertex 20.789301 7.540780 0.000000
    vertex 20.789301 7.540780 -3.000000
  endloop
endfacet
facet normal -1.622340 -0.257097 0.000000
  outer loop
    vertex 20.789301 7.540780 0.000000
    vertex 20.875000 7.000000 -3.000000
    vertex 20.875000 7.000000 0.000000
  endloop
endfacet
facet normal -1.406028 -0.222818 0.000000
  outer loop
    vertex 20.875000 7.000000 6.400000
    vertex 20.789301 7.540780 9.000000
    vertex 20.789301 7.540780 6.400000
  endloop
endfacet
facet normal -1.406028 -0.222818 0.000000
  outer loop
    vertex 20.789301 7.540780 9.000000
    vertex 20.875000 7.000000 6.400000
    vertex 20.875000 7.000000 9.000000
  endloop
endfacet
facet normal -0.256951 -1.622400 0.000000
  outer loop
    vertex 19.125000 8.750000 -3.000000
    vertex 19.665800 8.664350 0.000000
    vertex 19.125000 8.750000 0.000000
  endloop
endfacet
facet normal -0.256951 -1.622400 -0.000000
  outer loop
    vertex 19.665800 8.664350 0.000000
    vertex 19.125000 8.750000 -3.000000
    vertex 19.665800 8.664350 -3.000000
  endloop
endfacet
facet normal -0.222691 -1.406080 0.000000
  outer loop
    vertex 19.125000 8.750000 6.400000
    vertex 19.665800 8.664350 9.000000
    vertex 19.125000 8.750000 9.000000
  endloop
endfacet
facet normal -0.222691 -1.406080 -0.000000
  outer loop
    vertex 19.665800 8.664350 9.000000
    vertex 19.125000 8.750000 6.400000
    vertex 19.665800 8.664350 6.400000
  endloop
endfacet
facet normal 1.622340 0.257097 0.000000
  outer loop
    vertex 17.460699 6.459220 0.000000
    vertex 17.375000 7.000000 -3.000000
    vertex 17.375000 7.000000 0.000000
  endloop
endfacet
facet normal 1.622340 0.257097 0.000000
  outer loop
    vertex 17.375000 7.000000 -3.000000
    vertex 17.460699 6.459220 0.000000
    vertex 17.460699 6.459220 -3.000000
  endloop
endfacet
facet normal 1.406028 0.222818 0.000000
  outer loop
    vertex 17.460699 6.459220 9.000000
    vertex 17.375000 7.000000 6.400000
    vertex 17.375000 7.000000 9.000000
  endloop
endfacet
facet normal 1.406028 0.222818 0.000000
  outer loop
    vertex 17.375000 7.000000 6.400000
    vertex 17.460699 6.459220 9.000000
    vertex 17.460699 6.459220 6.400000
  endloop
endfacet
facet normal -0.745710 1.463402 0.000000
  outer loop
    vertex 20.153601 5.584220 -3.000000
    vertex 19.665800 5.335650 0.000000
    vertex 20.153601 5.584220 0.000000
  endloop
endfacet
facet normal -0.745710 1.463402 0.000000
  outer loop
    vertex 19.665800 5.335650 0.000000
    vertex 20.153601 5.584220 -3.000000
    vertex 19.665800 5.335650 -3.000000
  endloop
endfacet
facet normal -0.646282 1.268281 0.000000
  outer loop
    vertex 20.153601 5.584220 6.400000
    vertex 19.665800 5.335650 9.000000
    vertex 20.153601 5.584220 9.000000
  endloop
endfacet
facet normal -0.646282 1.268281 0.000000
  outer loop
    vertex 19.665800 5.335650 9.000000
    vertex 20.153601 5.584220 6.400000
    vertex 19.665800 5.335650 6.400000
  endloop
endfacet
facet normal -0.256950 1.622400 0.000000
  outer loop
    vertex 19.665800 5.335650 -3.000000
    vertex 19.125000 5.250000 0.000000
    vertex 19.665800 5.335650 0.000000
  endloop
endfacet
facet normal -0.256950 1.622400 0.000000
  outer loop
    vertex 19.125000 5.250000 0.000000
    vertex 19.665800 5.335650 -3.000000
    vertex 19.125000 5.250000 -3.000000
  endloop
endfacet
facet normal -0.222690 1.406080 0.000000
  outer loop
    vertex 19.665800 5.335650 6.400000
    vertex 19.125000 5.250000 9.000000
    vertex 19.665800 5.335650 9.000000
  endloop
endfacet
facet normal -0.222690 1.406080 0.000000
  outer loop
    vertex 19.125000 5.250000 9.000000
    vertex 19.665800 5.335650 6.400000
    vertex 19.125000 5.250000 6.400000
  endloop
endfacet
facet normal -1.463519 -0.745502 0.000000
  outer loop
    vertex 20.789301 7.540780 -3.000000
    vertex 20.540800 8.028620 0.000000
    vertex 20.540800 8.028620 -3.000000
  endloop
endfacet
facet normal -1.463519 -0.745502 0.000000
  outer loop
    vertex 20.540800 8.028620 0.000000
    vertex 20.789301 7.540780 -3.000000
    vertex 20.789301 7.540780 0.000000
  endloop
endfacet
facet normal -1.268383 -0.646102 0.000000
  outer loop
    vertex 20.789301 7.540780 6.400000
    vertex 20.540800 8.028620 9.000000
    vertex 20.540800 8.028620 6.400000
  endloop
endfacet
facet normal -1.268383 -0.646102 0.000000
  outer loop
    vertex 20.540800 8.028620 9.000000
    vertex 20.789301 7.540780 6.400000
    vertex 20.789301 7.540780 9.000000
  endloop
endfacet
facet normal 0.256951 -1.622400 0.000000
  outer loop
    vertex 18.584200 8.664350 -3.000000
    vertex 19.125000 8.750000 0.000000
    vertex 18.584200 8.664350 0.000000
  endloop
endfacet
facet normal 0.256951 -1.622400 0.000000
  outer loop
    vertex 19.125000 8.750000 0.000000
    vertex 18.584200 8.664350 -3.000000
    vertex 19.125000 8.750000 -3.000000
  endloop
endfacet
facet normal 0.222691 -1.406080 0.000000
  outer loop
    vertex 18.584200 8.664350 6.400000
    vertex 19.125000 8.750000 9.000000
    vertex 18.584200 8.664350 9.000000
  endloop
endfacet
facet normal 0.222691 -1.406080 0.000000
  outer loop
    vertex 19.125000 8.750000 9.000000
    vertex 18.584200 8.664350 6.400000
    vertex 19.125000 8.750000 6.400000
  endloop
endfacet
facet normal 0.745708 -1.463402 0.000000
  outer loop
    vertex 18.096399 8.415780 -3.000000
    vertex 18.584200 8.664350 0.000000
    vertex 18.096399 8.415780 0.000000
  endloop
endfacet
facet normal 0.745708 -1.463402 0.000000
  outer loop
    vertex 18.584200 8.664350 0.000000
    vertex 18.096399 8.415780 -3.000000
    vertex 18.584200 8.664350 -3.000000
  endloop
endfacet
facet normal 0.646281 -1.268281 0.000000
  outer loop
    vertex 18.096399 8.415780 6.400000
    vertex 18.584200 8.664350 9.000000
    vertex 18.096399 8.415780 9.000000
  endloop
endfacet
facet normal 0.646281 -1.268281 0.000000
  outer loop
    vertex 18.584200 8.664350 9.000000
    vertex 18.096399 8.415780 6.400000
    vertex 18.584200 8.664350 6.400000
  endloop
endfacet
facet normal 1.622340 -0.257097 0.000000
  outer loop
    vertex 17.375000 7.000000 0.000000
    vertex 17.460699 7.540780 -3.000000
    vertex 17.460699 7.540780 0.000000
  endloop
endfacet
facet normal 1.622340 -0.257097 0.000000
  outer loop
    vertex 17.460699 7.540780 -3.000000
    vertex 17.375000 7.000000 0.000000
    vertex 17.375000 7.000000 -3.000000
  endloop
endfacet
facet normal 1.406028 -0.222818 0.000000
  outer loop
    vertex 17.375000 7.000000 9.000000
    vertex 17.460699 7.540780 6.400000
    vertex 17.460699 7.540780 9.000000
  endloop
endfacet
facet normal 1.406028 -0.222818 0.000000
  outer loop
    vertex 17.460699 7.540780 6.400000
    vertex 17.375000 7.000000 9.000000
    vertex 17.375000 7.000000 6.400000
  endloop
endfacet
facet normal 1.463519 0.745502 0.000000
  outer loop
    vertex 17.709200 5.971380 0.000000
    vertex 17.460699 6.459220 -3.000000
    vertex 17.460699 6.459220 0.000000
  endloop
endfacet
facet normal 1.463519 0.745502 0.000000
  outer loop
    vertex 17.460699 6.459220 -3.000000
    vertex 17.709200 5.971380 0.000000
    vertex 17.709200 5.971380 -3.000000
  endloop
endfacet
facet normal 1.268383 0.646102 0.000000
  outer loop
    vertex 17.709200 5.971380 9.000000
    vertex 17.460699 6.459220 6.400000
    vertex 17.460699 6.459220 9.000000
  endloop
endfacet
facet normal 1.268383 0.646102 0.000000
  outer loop
    vertex 17.460699 6.459220 6.400000
    vertex 17.709200 5.971380 9.000000
    vertex 17.709200 5.971380 6.400000
  endloop
endfacet
facet normal 0.256950 1.622400 -0.000000
  outer loop
    vertex 19.125000 5.250000 -3.000000
    vertex 18.584200 5.335650 0.000000
    vertex 19.125000 5.250000 0.000000
  endloop
endfacet
facet normal 0.256950 1.622400 0.000000
  outer loop
    vertex 18.584200 5.335650 0.000000
    vertex 19.125000 5.250000 -3.000000
    vertex 18.584200 5.335650 -3.000000
  endloop
endfacet
facet normal 0.222690 1.406080 -0.000000
  outer loop
    vertex 19.125000 5.250000 6.400000
    vertex 18.584200 5.335650 9.000000
    vertex 19.125000 5.250000 9.000000
  endloop
endfacet
facet normal 0.222690 1.406080 0.000000
  outer loop
    vertex 18.584200 5.335650 9.000000
    vertex 19.125000 5.250000 6.400000
    vertex 18.584200 5.335650 6.400000
  endloop
endfacet
facet normal -1.161481 -1.161598 0.000000
  outer loop
    vertex 20.540800 8.028620 -3.000000
    vertex 20.153601 8.415780 0.000000
    vertex 20.153601 8.415780 -3.000000
  endloop
endfacet
facet normal -1.161481 -1.161598 0.000000
  outer loop
    vertex 20.153601 8.415780 0.000000
    vertex 20.540800 8.028620 -3.000000
    vertex 20.540800 8.028620 0.000000
  endloop
endfacet
facet normal -1.006617 -1.006718 0.000000
  outer loop
    vertex 20.540800 8.028620 6.400000
    vertex 20.153601 8.415780 9.000000
    vertex 20.153601 8.415780 6.400000
  endloop
endfacet
facet normal -1.006617 -1.006718 0.000000
  outer loop
    vertex 20.153601 8.415780 9.000000
    vertex 20.540800 8.028620 6.400000
    vertex 20.540800 8.028620 9.000000
  endloop
endfacet
facet normal -0.745708 -1.463402 0.000000
  outer loop
    vertex 19.665800 8.664350 -3.000000
    vertex 20.153601 8.415780 0.000000
    vertex 19.665800 8.664350 0.000000
  endloop
endfacet
facet normal -0.745708 -1.463402 -0.000000
  outer loop
    vertex 20.153601 8.415780 0.000000
    vertex 19.665800 8.664350 -3.000000
    vertex 20.153601 8.415780 -3.000000
  endloop
endfacet
facet normal -0.646281 -1.268281 0.000000
  outer loop
    vertex 19.665800 8.664350 6.400000
    vertex 20.153601 8.415780 9.000000
    vertex 19.665800 8.664350 9.000000
  endloop
endfacet
facet normal -0.646281 -1.268281 -0.000000
  outer loop
    vertex 20.153601 8.415780 9.000000
    vertex 19.665800 8.664350 6.400000
    vertex 20.153601 8.415780 6.400000
  endloop
endfacet
facet normal 1.161481 -1.161598 0.000000
  outer loop
    vertex 17.709200 8.028620 0.000000
    vertex 18.096399 8.415780 -3.000000
    vertex 18.096399 8.415780 0.000000
  endloop
endfacet
facet normal 1.161481 -1.161598 0.000000
  outer loop
    vertex 18.096399 8.415780 -3.000000
    vertex 17.709200 8.028620 0.000000
    vertex 17.709200 8.028620 -3.000000
  endloop
endfacet
facet normal 1.006617 -1.006718 0.000000
  outer loop
    vertex 17.709200 8.028620 9.000000
    vertex 18.096399 8.415780 6.400000
    vertex 18.096399 8.415780 9.000000
  endloop
endfacet
facet normal 1.006617 -1.006718 0.000000
  outer loop
    vertex 18.096399 8.415780 6.400000
    vertex 17.709200 8.028620 9.000000
    vertex 17.709200 8.028620 6.400000
  endloop
endfacet
facet normal 1.463519 -0.745502 0.000000
  outer loop
    vertex 17.460699 7.540780 0.000000
    vertex 17.709200 8.028620 -3.000000
    vertex 17.709200 8.028620 0.000000
  endloop
endfacet
facet normal 1.463519 -0.745502 0.000000
  outer loop
    vertex 17.709200 8.028620 -3.000000
    vertex 17.460699 7.540780 0.000000
    vertex 17.460699 7.540780 -3.000000
  endloop
endfacet
facet normal 1.268383 -0.646102 0.000000
  outer loop
    vertex 17.460699 7.540780 9.000000
    vertex 17.709200 8.028620 6.400000
    vertex 17.709200 8.028620 9.000000
  endloop
endfacet
facet normal 1.268383 -0.646102 0.000000
  outer loop
    vertex 17.709200 8.028620 6.400000
    vertex 17.460699 7.540780 9.000000
    vertex 17.460699 7.540780 6.400000
  endloop
endfacet
facet normal -1.161481 1.161598 0.000000
  outer loop
    vertex 20.153601 5.584220 -3.000000
    vertex 20.540800 5.971380 0.000000
    vertex 20.540800 5.971380 -3.000000
  endloop
endfacet
facet normal -1.161481 1.161598 0.000000
  outer loop
    vertex 20.540800 5.971380 0.000000
    vertex 20.153601 5.584220 -3.000000
    vertex 20.153601 5.584220 0.000000
  endloop
endfacet
facet normal -1.006617 1.006718 0.000000
  outer loop
    vertex 20.153601 5.584220 6.400000
    vertex 20.540800 5.971380 9.000000
    vertex 20.540800 5.971380 6.400000
  endloop
endfacet
facet normal -1.006617 1.006718 0.000000
  outer loop
    vertex 20.540800 5.971380 9.000000
    vertex 20.153601 5.584220 6.400000
    vertex 20.153601 5.584220 9.000000
  endloop
endfacet
facet normal -1.622340 0.257097 0.000000
  outer loop
    vertex 20.789301 6.459220 -3.000000
    vertex 20.875000 7.000000 0.000000
    vertex 20.875000 7.000000 -3.000000
  endloop
endfacet
facet normal -1.622340 0.257097 0.000000
  outer loop
    vertex 20.875000 7.000000 0.000000
    vertex 20.789301 6.459220 -3.000000
    vertex 20.789301 6.459220 0.000000
  endloop
endfacet
facet normal -1.406028 0.222818 0.000000
  outer loop
    vertex 20.789301 6.459220 6.400000
    vertex 20.875000 7.000000 9.000000
    vertex 20.875000 7.000000 6.400000
  endloop
endfacet
facet normal -1.406028 0.222818 0.000000
  outer loop
    vertex 20.875000 7.000000 9.000000
    vertex 20.789301 6.459220 6.400000
    vertex 20.789301 6.459220 9.000000
  endloop
endfacet
facet normal 1.161481 1.161598 0.000000
  outer loop
    vertex 18.096399 5.584220 0.000000
    vertex 17.709200 5.971380 -3.000000
    vertex 17.709200 5.971380 0.000000
  endloop
endfacet
facet normal 1.161481 1.161598 0.000000
  outer loop
    vertex 17.709200 5.971380 -3.000000
    vertex 18.096399 5.584220 0.000000
    vertex 18.096399 5.584220 -3.000000
  endloop
endfacet
facet normal 1.006617 1.006718 0.000000
  outer loop
    vertex 18.096399 5.584220 9.000000
    vertex 17.709200 5.971380 6.400000
    vertex 17.709200 5.971380 9.000000
  endloop
endfacet
facet normal 1.006617 1.006718 0.000000
  outer loop
    vertex 17.709200 5.971380 6.400000
    vertex 18.096399 5.584220 9.000000
    vertex 18.096399 5.584220 6.400000
  endloop
endfacet
facet normal 0.745710 1.463402 -0.000000
  outer loop
    vertex 18.584200 5.335650 -3.000000
    vertex 18.096399 5.584220 0.000000
    vertex 18.584200 5.335650 0.000000
  endloop
endfacet
facet normal 0.745710 1.463402 0.000000
  outer loop
    vertex 18.096399 5.584220 0.000000
    vertex 18.584200 5.335650 -3.000000
    vertex 18.096399 5.584220 -3.000000
  endloop
endfacet
facet normal 0.646282 1.268281 -0.000000
  outer loop
    vertex 18.584200 5.335650 6.400000
    vertex 18.096399 5.584220 9.000000
    vertex 18.584200 5.335650 9.000000
  endloop
endfacet
facet normal 0.646282 1.268281 0.000000
  outer loop
    vertex 18.096399 5.584220 9.000000
    vertex 18.584200 5.335650 6.400000
    vertex 18.096399 5.584220 6.400000
  endloop
endfacet
facet normal -1.463519 0.745502 0.000000
  outer loop
    vertex 20.540800 5.971380 -3.000000
    vertex 20.789301 6.459220 0.000000
    vertex 20.789301 6.459220 -3.000000
  endloop
endfacet
facet normal -1.463519 0.745502 0.000000
  outer loop
    vertex 20.789301 6.459220 0.000000
    vertex 20.540800 5.971380 -3.000000
    vertex 20.540800 5.971380 0.000000
  endloop
endfacet
facet normal -1.268383 0.646102 0.000000
  outer loop
    vertex 20.540800 5.971380 6.400000
    vertex 20.789301 6.459220 9.000000
    vertex 20.789301 6.459220 6.400000
  endloop
endfacet
facet normal -1.268383 0.646102 0.000000
  outer loop
    vertex 20.789301 6.459220 9.000000
    vertex 20.540800 5.971380 6.400000
    vertex 20.540800 5.971380 9.000000
  endloop
endfacet
facet normal -4.711664 0.000000 0.000000
  outer loop
    vertex -6.000000 0.000000 2.131180
    vertex -6.000000 11.500000 3.057150
    vertex -6.000000 11.500000 2.647440
  endloop
endfacet
facet normal -11.062313 -0.000000 0.000000
  outer loop
    vertex -6.000000 11.500000 3.057150
    vertex -6.000000 0.000000 2.131180
    vertex -6.000000 11.500000 4.019090
  endloop
endfacet
facet normal -5.936989 0.000000 0.000000
  outer loop
    vertex -6.000000 0.000000 2.131180
    vertex -6.000000 11.500000 2.647440
    vertex -6.000000 11.500000 2.131180
  endloop
endfacet
facet normal -49.091431 -0.000000 0.000000
  outer loop
    vertex -6.000000 11.500000 4.019090
    vertex -6.000000 0.000000 2.131180
    vertex -6.000000 0.000000 6.400000
  endloop
endfacet
facet normal -27.380465 0.000000 0.000000
  outer loop
    vertex -6.000000 11.500000 4.019090
    vertex -6.000000 0.000000 6.400000
    vertex -6.000000 11.500000 6.400000
  endloop
endfacet
facet normal -0.000000 0.000000 69.000000
  outer loop
    vertex -6.000000 11.500000 6.400000
    vertex 0.000000 0.000000 6.400000
    vertex 0.000000 11.500000 6.400000
  endloop
endfacet
facet normal 0.000000 0.000000 69.000000
  outer loop
    vertex 0.000000 0.000000 6.400000
    vertex -6.000000 11.500000 6.400000
    vertex -6.000000 0.000000 6.400000
  endloop
endfacet
facet normal 0.000000 0.000000 -0.000016
  outer loop
    vertex -0.000006 11.500000 0.000000
    vertex 0.000000 0.000000 0.000000
    vertex -0.000001 0.000000 0.000000
  endloop
endfacet
facet normal 0.000000 0.000000 -0.000069
  outer loop
    vertex 0.000000 0.000000 0.000000
    vertex -0.000006 11.500000 0.000000
    vertex 0.000000 11.500000 0.000000
  endloop
endfacet
facet normal 0.000000 0.000000 0.000000
  outer loop
    vertex 0.000000 11.500000 0.000000
    vertex -0.000006 11.500000 0.000000
    vertex -0.000002 11.500000 0.000000
  endloop
endfacet
endsolid joint415L.stl
