solid spacer0.stl
facet normal 224.578293 0.000000 -35.567978
  outer loop
    vertex 12.750000 415.000000 0.000000
    vertex 12.126000 472.000000 -3.939970
    vertex 12.750000 472.000000 0.000000
  endloop
endfacet
facet normal 224.578293 0.000000 -35.567978
  outer loop
    vertex 12.126000 472.000000 -3.939970
    vertex 12.750000 415.000000 0.000000
    vertex 12.126000 415.000000 -3.939970
  endloop
endfacet
facet normal 160.782166 0.000000 -160.782166
  outer loop
    vertex 10.315000 415.000000 -7.494260
    vertex 7.494260 472.000000 -10.315000
    vertex 10.315000 472.000000 -7.494260
  endloop
endfacet
facet normal 160.782166 0.000000 -160.782166
  outer loop
    vertex 7.494260 472.000000 -10.315000
    vertex 10.315000 415.000000 -7.494260
    vertex 7.494260 415.000000 -10.315000
  endloop
endfacet
facet normal -224.578293 0.000000 -35.567978
  outer loop
    vertex -12.126000 415.000000 -3.939970
    vertex -12.750000 472.000000 0.000000
    vertex -12.126000 472.000000 -3.939970
  endloop
endfacet
facet normal -224.578293 -0.000000 -35.567978
  outer loop
    vertex -12.750000 472.000000 0.000000
    vertex -12.126000 415.000000 -3.939970
    vertex -12.750000 415.000000 0.000000
  endloop
endfacet
facet normal -35.567978 0.000000 224.578293
  outer loop
    vertex -3.939970 472.000000 12.126000
    vertex 0.000000 415.000000 12.750000
    vertex 0.000000 472.000000 12.750000
  endloop
endfacet
facet normal -35.567978 0.000000 224.578293
  outer loop
    vertex 0.000000 415.000000 12.750000
    vertex -3.939970 472.000000 12.126000
    vertex -3.939970 415.000000 12.126000
  endloop
endfacet
facet normal 0.000000 -43.339691 0.000000
  outer loop
    vertex -0.270390 415.000000 1.707170
    vertex 0.000000 415.000000 12.750000
    vertex -3.939970 415.000000 12.126000
  endloop
endfacet
facet normal 0.000000 -43.339676 0.000000
  outer loop
    vertex -0.540779 415.000000 1.664350
    vertex -3.939970 415.000000 12.126000
    vertex -7.494260 415.000000 10.315000
  endloop
endfacet
facet normal 0.000000 -2.974290 -0.000000
  outer loop
    vertex 0.000000 415.000000 12.750000
    vertex -0.270390 415.000000 1.707170
    vertex 0.000000 415.000000 1.750000
  endloop
endfacet
facet normal 0.000000 -43.340271 0.000000
  outer loop
    vertex -1.028620 415.000000 1.415780
    vertex -7.494260 415.000000 10.315000
    vertex -10.315000 415.000000 7.494260
  endloop
endfacet
facet normal 0.000000 -2.974290 0.000000
  outer loop
    vertex 0.270390 415.000000 1.707170
    vertex 0.000000 415.000000 12.750000
    vertex 0.000000 415.000000 1.750000
  endloop
endfacet
facet normal 0.000000 -43.339684 0.000000
  outer loop
    vertex -1.415780 415.000000 1.028620
    vertex -10.315000 415.000000 7.494260
    vertex -12.126000 415.000000 3.939970
  endloop
endfacet
facet normal 0.000000 -2.974269 0.000000
  outer loop
    vertex 0.540779 415.000000 1.664350
    vertex 3.939970 415.000000 12.126000
    vertex 0.270390 415.000000 1.707170
  endloop
endfacet
facet normal 0.000000 -43.339676 -0.000000
  outer loop
    vertex 3.939970 415.000000 12.126000
    vertex 0.540779 415.000000 1.664350
    vertex 7.494260 415.000000 10.315000
  endloop
endfacet
facet normal 0.000000 -43.339695 0.000000
  outer loop
    vertex 0.000000 415.000000 12.750000
    vertex 0.270390 415.000000 1.707170
    vertex 3.939970 415.000000 12.126000
  endloop
endfacet
facet normal 0.000000 -2.974270 0.000000
  outer loop
    vertex -3.939970 415.000000 12.126000
    vertex -0.540779 415.000000 1.664350
    vertex -0.270390 415.000000 1.707170
  endloop
endfacet
facet normal 0.000000 -5.948563 0.000000
  outer loop
    vertex -7.494260 415.000000 10.315000
    vertex -1.028620 415.000000 1.415780
    vertex -0.540779 415.000000 1.664350
  endloop
endfacet
facet normal 0.000000 -5.948662 0.000000
  outer loop
    vertex -10.315000 415.000000 7.494260
    vertex -1.415780 415.000000 1.028620
    vertex -1.028620 415.000000 1.415780
  endloop
endfacet
facet normal 0.000000 -5.948555 0.000000
  outer loop
    vertex -12.126000 415.000000 3.939970
    vertex -1.664350 415.000000 0.540779
    vertex -1.415780 415.000000 1.028620
  endloop
endfacet
facet normal 0.000000 -43.339684 0.000000
  outer loop
    vertex -12.750000 415.000000 0.000000
    vertex -1.664350 415.000000 0.540779
    vertex -12.126000 415.000000 3.939970
  endloop
endfacet
facet normal 0.000000 -5.948569 0.000000
  outer loop
    vertex -12.750000 415.000000 0.000000
    vertex -1.750000 415.000000 0.000000
    vertex -1.664350 415.000000 0.540779
  endloop
endfacet
facet normal 0.000000 -5.948569 0.000000
  outer loop
    vertex -12.750000 415.000000 0.000000
    vertex -1.664350 415.000000 -0.540779
    vertex -1.750000 415.000000 0.000000
  endloop
endfacet
facet normal 0.000000 -43.339684 0.000000
  outer loop
    vertex -12.126000 415.000000 -3.939970
    vertex -1.664350 415.000000 -0.540779
    vertex -12.750000 415.000000 0.000000
  endloop
endfacet
facet normal 0.000000 -5.948560 -0.000000
  outer loop
    vertex -1.664350 415.000000 -0.540779
    vertex -12.126000 415.000000 -3.939970
    vertex -1.415780 415.000000 -1.028620
  endloop
endfacet
facet normal 0.000000 -43.339684 0.000000
  outer loop
    vertex -10.315000 415.000000 -7.494260
    vertex -1.415780 415.000000 -1.028620
    vertex -12.126000 415.000000 -3.939970
  endloop
endfacet
facet normal 0.000000 -5.948658 -0.000000
  outer loop
    vertex -1.415780 415.000000 -1.028620
    vertex -10.315000 415.000000 -7.494260
    vertex -1.028620 415.000000 -1.415780
  endloop
endfacet
facet normal 0.000000 -43.340271 0.000000
  outer loop
    vertex -7.494260 415.000000 -10.315000
    vertex -1.028620 415.000000 -1.415780
    vertex -10.315000 415.000000 -7.494260
  endloop
endfacet
facet normal 0.000000 -5.948569 -0.000000
  outer loop
    vertex -1.028620 415.000000 -1.415780
    vertex -7.494260 415.000000 -10.315000
    vertex -0.540779 415.000000 -1.664350
  endloop
endfacet
facet normal 0.000000 -5.948569 0.000000
  outer loop
    vertex 1.028620 415.000000 1.415780
    vertex 7.494260 415.000000 10.315000
    vertex 0.540779 415.000000 1.664350
  endloop
endfacet
facet normal 0.000000 -43.340271 -0.000000
  outer loop
    vertex 7.494260 415.000000 10.315000
    vertex 1.028620 415.000000 1.415780
    vertex 10.315000 415.000000 7.494260
  endloop
endfacet
facet normal 0.000000 -5.948658 0.000000
  outer loop
    vertex 1.415780 415.000000 1.028620
    vertex 10.315000 415.000000 7.494260
    vertex 1.028620 415.000000 1.415780
  endloop
endfacet
facet normal 0.000000 -43.339684 -0.000000
  outer loop
    vertex 10.315000 415.000000 7.494260
    vertex 1.415780 415.000000 1.028620
    vertex 12.126000 415.000000 3.939970
  endloop
endfacet
facet normal 0.000000 -5.948560 0.000000
  outer loop
    vertex 1.664350 415.000000 0.540779
    vertex 12.126000 415.000000 3.939970
    vertex 1.415780 415.000000 1.028620
  endloop
endfacet
facet normal 0.000000 -5.948581 0.000000
  outer loop
    vertex 1.750000 415.000000 0.000000
    vertex 12.126000 415.000000 3.939970
    vertex 1.664350 415.000000 0.540779
  endloop
endfacet
facet normal 0.000000 -43.339668 0.000000
  outer loop
    vertex 1.750000 415.000000 0.000000
    vertex 12.750000 415.000000 0.000000
    vertex 12.126000 415.000000 3.939970
  endloop
endfacet
facet normal 0.000000 -5.948569 0.000000
  outer loop
    vertex 1.664350 415.000000 -0.540779
    vertex 12.750000 415.000000 0.000000
    vertex 1.750000 415.000000 0.000000
  endloop
endfacet
facet normal 0.000000 -5.948555 0.000000
  outer loop
    vertex 12.126000 415.000000 -3.939970
    vertex 1.664350 415.000000 -0.540779
    vertex 1.415780 415.000000 -1.028620
  endloop
endfacet
facet normal 0.000000 -5.948662 0.000000
  outer loop
    vertex 10.315000 415.000000 -7.494260
    vertex 1.415780 415.000000 -1.028620
    vertex 1.028620 415.000000 -1.415780
  endloop
endfacet
facet normal 0.000000 -5.948563 0.000000
  outer loop
    vertex 7.494260 415.000000 -10.315000
    vertex 1.028620 415.000000 -1.415780
    vertex 0.540779 415.000000 -1.664350
  endloop
endfacet
facet normal 0.000000 -2.974270 0.000000
  outer loop
    vertex 3.939970 415.000000 -12.126000
    vertex 0.540779 415.000000 -1.664350
    vertex 0.270390 415.000000 -1.707170
  endloop
endfacet
facet normal 0.000000 -2.974290 0.000000
  outer loop
    vertex 0.000000 415.000000 -12.750000
    vertex 0.270390 415.000000 -1.707170
    vertex 0.000000 415.000000 -1.750000
  endloop
endfacet
facet normal 0.000000 -43.339676 0.000000
  outer loop
    vertex -3.939970 415.000000 -12.126000
    vertex -0.540779 415.000000 -1.664350
    vertex -7.494260 415.000000 -10.315000
  endloop
endfacet
facet normal 0.000000 -43.339680 0.000000
  outer loop
    vertex 1.664350 415.000000 -0.540779
    vertex 12.126000 415.000000 -3.939970
    vertex 12.750000 415.000000 0.000000
  endloop
endfacet
facet normal 0.000000 -2.974269 -0.000000
  outer loop
    vertex -0.540779 415.000000 -1.664350
    vertex -3.939970 415.000000 -12.126000
    vertex -0.270390 415.000000 -1.707170
  endloop
endfacet
facet normal 0.000000 -43.339684 0.000000
  outer loop
    vertex 1.415780 415.000000 -1.028620
    vertex 10.315000 415.000000 -7.494260
    vertex 12.126000 415.000000 -3.939970
  endloop
endfacet
facet normal 0.000000 -43.339695 0.000000
  outer loop
    vertex 0.000000 415.000000 -12.750000
    vertex -0.270390 415.000000 -1.707170
    vertex -3.939970 415.000000 -12.126000
  endloop
endfacet
facet normal 0.000000 -43.340271 0.000000
  outer loop
    vertex 1.028620 415.000000 -1.415780
    vertex 7.494260 415.000000 -10.315000
    vertex 10.315000 415.000000 -7.494260
  endloop
endfacet
facet normal 0.000000 -2.974290 0.000000
  outer loop
    vertex -0.270390 415.000000 -1.707170
    vertex 0.000000 415.000000 -12.750000
    vertex 0.000000 415.000000 -1.750000
  endloop
endfacet
facet normal 0.000000 -43.339676 0.000000
  outer loop
    vertex 0.540779 415.000000 -1.664350
    vertex 3.939970 415.000000 -12.126000
    vertex 7.494260 415.000000 -10.315000
  endloop
endfacet
facet normal 0.000000 -43.339691 -0.000000
  outer loop
    vertex 0.270390 415.000000 -1.707170
    vertex 0.000000 415.000000 -12.750000
    vertex 3.939970 415.000000 -12.126000
  endloop
endfacet
facet normal -35.567978 0.000000 -224.578293
  outer loop
    vertex 0.000000 415.000000 -12.750000
    vertex -3.939970 472.000000 -12.126000
    vertex 0.000000 472.000000 -12.750000
  endloop
endfacet
facet normal 202.594513 0.000000 -103.227051
  outer loop
    vertex 12.126000 415.000000 -3.939970
    vertex 10.315000 472.000000 -7.494260
    vertex 12.126000 472.000000 -3.939970
  endloop
endfacet
facet normal 202.594513 0.000000 -103.227051
  outer loop
    vertex 10.315000 472.000000 -7.494260
    vertex 12.126000 415.000000 -3.939970
    vertex 10.315000 415.000000 -7.494260
  endloop
endfacet
facet normal 202.594513 -0.000000 103.227051
  outer loop
    vertex 10.315000 415.000000 7.494260
    vertex 12.126000 472.000000 3.939970
    vertex 10.315000 472.000000 7.494260
  endloop
endfacet
facet normal 202.594513 0.000000 103.227051
  outer loop
    vertex 12.126000 472.000000 3.939970
    vertex 10.315000 415.000000 7.494260
    vertex 12.126000 415.000000 3.939970
  endloop
endfacet
facet normal -160.782166 0.000000 160.782166
  outer loop
    vertex -10.315000 415.000000 7.494260
    vertex -7.494260 472.000000 10.315000
    vertex -10.315000 472.000000 7.494260
  endloop
endfacet
facet normal -160.782166 0.000000 160.782166
  outer loop
    vertex -7.494260 472.000000 10.315000
    vertex -10.315000 415.000000 7.494260
    vertex -7.494260 415.000000 10.315000
  endloop
endfacet
facet normal -224.578293 0.000000 35.567978
  outer loop
    vertex -12.750000 415.000000 0.000000
    vertex -12.126000 472.000000 3.939970
    vertex -12.750000 472.000000 0.000000
  endloop
endfacet
facet normal -224.578293 0.000000 35.567978
  outer loop
    vertex -12.126000 472.000000 3.939970
    vertex -12.750000 415.000000 0.000000
    vertex -12.126000 415.000000 3.939970
  endloop
endfacet
facet normal 35.567978 0.000000 -224.578293
  outer loop
    vertex 3.939970 415.000000 -12.126000
    vertex 0.000000 415.000000 -12.750000
    vertex 3.939970 472.000000 -12.126000
  endloop
endfacet
facet normal 0.000000 43.339668 0.000000
  outer loop
    vertex 0.000000 472.000000 1.750000
    vertex 0.000000 472.000000 12.750000
    vertex 3.939970 472.000000 12.126000
  endloop
endfacet
facet normal 0.000000 43.339676 0.000000
  outer loop
    vertex 0.540779 472.000000 1.664350
    vertex 3.939970 472.000000 12.126000
    vertex 7.494260 472.000000 10.315000
  endloop
endfacet
facet normal 0.000000 43.339668 0.000000
  outer loop
    vertex 0.000000 472.000000 12.750000
    vertex 0.000000 472.000000 1.750000
    vertex -3.939970 472.000000 12.126000
  endloop
endfacet
facet normal 0.000000 43.340271 0.000000
  outer loop
    vertex 1.028620 472.000000 1.415780
    vertex 7.494260 472.000000 10.315000
    vertex 10.315000 472.000000 7.494260
  endloop
endfacet
facet normal 0.000000 4.957169 -0.000000
  outer loop
    vertex -0.450649 472.000000 1.678620
    vertex -3.939970 472.000000 12.126000
    vertex 0.000000 472.000000 1.750000
  endloop
endfacet
facet normal 0.000000 43.339684 0.000000
  outer loop
    vertex 1.415780 472.000000 1.028620
    vertex 10.315000 472.000000 7.494260
    vertex 12.126000 472.000000 3.939970
  endloop
endfacet
facet normal 0.000000 0.991415 -0.000000
  outer loop
    vertex -0.540779 472.000000 1.664350
    vertex -3.939970 472.000000 12.126000
    vertex -0.450649 472.000000 1.678620
  endloop
endfacet
facet normal 0.000000 43.339676 0.000000
  outer loop
    vertex -3.939970 472.000000 12.126000
    vertex -0.540779 472.000000 1.664350
    vertex -7.494260 472.000000 10.315000
  endloop
endfacet
facet normal 0.000000 4.957169 0.000000
  outer loop
    vertex 3.939970 472.000000 12.126000
    vertex 0.450649 472.000000 1.678620
    vertex 0.000000 472.000000 1.750000
  endloop
endfacet
facet normal 0.000000 0.991421 0.000000
  outer loop
    vertex 3.939970 472.000000 12.126000
    vertex 0.540779 472.000000 1.664350
    vertex 0.450649 472.000000 1.678620
  endloop
endfacet
facet normal 0.000000 5.948563 0.000000
  outer loop
    vertex 7.494260 472.000000 10.315000
    vertex 1.028620 472.000000 1.415780
    vertex 0.540779 472.000000 1.664350
  endloop
endfacet
facet normal 0.000000 5.948662 0.000000
  outer loop
    vertex 10.315000 472.000000 7.494260
    vertex 1.415780 472.000000 1.028620
    vertex 1.028620 472.000000 1.415780
  endloop
endfacet
facet normal 0.000000 5.948555 0.000000
  outer loop
    vertex 12.126000 472.000000 3.939970
    vertex 1.664350 472.000000 0.540779
    vertex 1.415780 472.000000 1.028620
  endloop
endfacet
facet normal 0.000000 43.339684 0.000000
  outer loop
    vertex 12.750000 472.000000 0.000000
    vertex 1.664350 472.000000 0.540779
    vertex 12.126000 472.000000 3.939970
  endloop
endfacet
facet normal 0.000000 5.948569 0.000000
  outer loop
    vertex 12.750000 472.000000 0.000000
    vertex 1.750000 472.000000 0.000000
    vertex 1.664350 472.000000 0.540779
  endloop
endfacet
facet normal 0.000000 5.948569 0.000000
  outer loop
    vertex 12.750000 472.000000 0.000000
    vertex 1.664350 472.000000 -0.540779
    vertex 1.750000 472.000000 0.000000
  endloop
endfacet
facet normal 0.000000 43.339684 -0.000000
  outer loop
    vertex 12.126000 472.000000 -3.939970
    vertex 1.664350 472.000000 -0.540779
    vertex 12.750000 472.000000 0.000000
  endloop
endfacet
facet normal 0.000000 5.948560 0.000000
  outer loop
    vertex 1.664350 472.000000 -0.540779
    vertex 12.126000 472.000000 -3.939970
    vertex 1.415780 472.000000 -1.028620
  endloop
endfacet
facet normal 0.000000 43.339684 -0.000000
  outer loop
    vertex 10.315000 472.000000 -7.494260
    vertex 1.415780 472.000000 -1.028620
    vertex 12.126000 472.000000 -3.939970
  endloop
endfacet
facet normal 0.000000 5.948658 0.000000
  outer loop
    vertex 1.415780 472.000000 -1.028620
    vertex 10.315000 472.000000 -7.494260
    vertex 1.028620 472.000000 -1.415780
  endloop
endfacet
facet normal 0.000000 43.340271 -0.000000
  outer loop
    vertex 7.494260 472.000000 -10.315000
    vertex 1.028620 472.000000 -1.415780
    vertex 10.315000 472.000000 -7.494260
  endloop
endfacet
facet normal 0.000000 5.948569 0.000000
  outer loop
    vertex 1.028620 472.000000 -1.415780
    vertex 7.494260 472.000000 -10.315000
    vertex 0.540779 472.000000 -1.664350
  endloop
endfacet
facet normal 0.000000 5.948569 -0.000000
  outer loop
    vertex -1.028620 472.000000 1.415780
    vertex -7.494260 472.000000 10.315000
    vertex -0.540779 472.000000 1.664350
  endloop
endfacet
facet normal 0.000000 43.340271 0.000000
  outer loop
    vertex -7.494260 472.000000 10.315000
    vertex -1.028620 472.000000 1.415780
    vertex -10.315000 472.000000 7.494260
  endloop
endfacet
facet normal 0.000000 5.948658 -0.000000
  outer loop
    vertex -1.415780 472.000000 1.028620
    vertex -10.315000 472.000000 7.494260
    vertex -1.028620 472.000000 1.415780
  endloop
endfacet
facet normal 0.000000 43.339684 0.000000
  outer loop
    vertex -10.315000 472.000000 7.494260
    vertex -1.415780 472.000000 1.028620
    vertex -12.126000 472.000000 3.939970
  endloop
endfacet
facet normal 0.000000 5.948560 -0.000000
  outer loop
    vertex -1.664350 472.000000 0.540779
    vertex -12.126000 472.000000 3.939970
    vertex -1.415780 472.000000 1.028620
  endloop
endfacet
facet normal 0.000000 5.948581 -0.000000
  outer loop
    vertex -1.750000 472.000000 0.000000
    vertex -12.126000 472.000000 3.939970
    vertex -1.664350 472.000000 0.540779
  endloop
endfacet
facet normal 0.000000 43.339668 0.000000
  outer loop
    vertex -1.750000 472.000000 0.000000
    vertex -12.750000 472.000000 0.000000
    vertex -12.126000 472.000000 3.939970
  endloop
endfacet
facet normal 0.000000 5.948569 0.000000
  outer loop
    vertex -1.664350 472.000000 -0.540779
    vertex -12.750000 472.000000 0.000000
    vertex -1.750000 472.000000 0.000000
  endloop
endfacet
facet normal 0.000000 5.948555 0.000000
  outer loop
    vertex -12.126000 472.000000 -3.939970
    vertex -1.664350 472.000000 -0.540779
    vertex -1.415780 472.000000 -1.028620
  endloop
endfacet
facet normal 0.000000 5.948662 0.000000
  outer loop
    vertex -10.315000 472.000000 -7.494260
    vertex -1.415780 472.000000 -1.028620
    vertex -1.028620 472.000000 -1.415780
  endloop
endfacet
facet normal 0.000000 5.948563 0.000000
  outer loop
    vertex -7.494260 472.000000 -10.315000
    vertex -1.028620 472.000000 -1.415780
    vertex -0.540779 472.000000 -1.664350
  endloop
endfacet
facet normal 0.000000 4.957138 0.000000
  outer loop
    vertex -3.939970 472.000000 -12.126000
    vertex -0.540779 472.000000 -1.664350
    vertex -0.090130 472.000000 -1.735720
  endloop
endfacet
facet normal 0.000000 0.991429 -0.000000
  outer loop
    vertex 0.000000 472.000000 -12.750000
    vertex -0.090130 472.000000 -1.735720
    vertex 0.000000 472.000000 -1.750000
  endloop
endfacet
facet normal 0.000000 43.339676 -0.000000
  outer loop
    vertex 3.939970 472.000000 -12.126000
    vertex 0.540779 472.000000 -1.664350
    vertex 7.494260 472.000000 -10.315000
  endloop
endfacet
facet normal 0.000000 43.339680 0.000000
  outer loop
    vertex -1.664350 472.000000 -0.540779
    vertex -12.126000 472.000000 -3.939970
    vertex -12.750000 472.000000 0.000000
  endloop
endfacet
facet normal 0.000000 4.957134 0.000000
  outer loop
    vertex 0.540779 472.000000 -1.664350
    vertex 3.939970 472.000000 -12.126000
    vertex 0.090130 472.000000 -1.735720
  endloop
endfacet
facet normal 0.000000 43.339684 0.000000
  outer loop
    vertex -1.415780 472.000000 -1.028620
    vertex -10.315000 472.000000 -7.494260
    vertex -12.126000 472.000000 -3.939970
  endloop
endfacet
facet normal 0.000000 43.339695 0.000000
  outer loop
    vertex 0.000000 472.000000 -12.750000
    vertex 0.090130 472.000000 -1.735720
    vertex 3.939970 472.000000 -12.126000
  endloop
endfacet
facet normal 0.000000 43.340271 0.000000
  outer loop
    vertex -1.028620 472.000000 -1.415780
    vertex -7.494260 472.000000 -10.315000
    vertex -10.315000 472.000000 -7.494260
  endloop
endfacet
facet normal 0.000000 0.991429 0.000000
  outer loop
    vertex 0.090130 472.000000 -1.735720
    vertex 0.000000 472.000000 -12.750000
    vertex 0.000000 472.000000 -1.750000
  endloop
endfacet
facet normal 0.000000 43.339676 0.000000
  outer loop
    vertex -0.540779 472.000000 -1.664350
    vertex -3.939970 472.000000 -12.126000
    vertex -7.494260 472.000000 -10.315000
  endloop
endfacet
facet normal 0.000000 43.339691 0.000000
  outer loop
    vertex -0.090130 472.000000 -1.735720
    vertex 0.000000 472.000000 -12.750000
    vertex -3.939970 472.000000 -12.126000
  endloop
endfacet
facet normal -103.227051 0.000000 -202.594513
  outer loop
    vertex -7.494260 415.000000 -10.315000
    vertex -3.939970 472.000000 -12.126000
    vertex -3.939970 415.000000 -12.126000
  endloop
endfacet
facet normal -103.227051 0.000000 -202.594513
  outer loop
    vertex -3.939970 472.000000 -12.126000
    vertex -7.494260 415.000000 -10.315000
    vertex -7.494260 472.000000 -10.315000
  endloop
endfacet
facet normal -35.567978 0.000000 -224.578293
  outer loop
    vertex 0.000000 415.000000 -12.750000
    vertex -3.939970 415.000000 -12.126000
    vertex -3.939970 472.000000 -12.126000
  endloop
endfacet
facet normal 224.578293 -0.000000 35.567978
  outer loop
    vertex 12.126000 415.000000 3.939970
    vertex 12.750000 472.000000 0.000000
    vertex 12.126000 472.000000 3.939970
  endloop
endfacet
facet normal 224.578293 0.000000 35.567978
  outer loop
    vertex 12.750000 472.000000 0.000000
    vertex 12.126000 415.000000 3.939970
    vertex 12.750000 415.000000 0.000000
  endloop
endfacet
facet normal 35.567978 0.000000 224.578293
  outer loop
    vertex 0.000000 472.000000 12.750000
    vertex 3.939970 415.000000 12.126000
    vertex 3.939970 472.000000 12.126000
  endloop
endfacet
facet normal 35.567978 0.000000 224.578293
  outer loop
    vertex 3.939970 415.000000 12.126000
    vertex 0.000000 472.000000 12.750000
    vertex 0.000000 415.000000 12.750000
  endloop
endfacet
facet normal 160.782166 -0.000000 160.782166
  outer loop
    vertex 7.494260 415.000000 10.315000
    vertex 10.315000 472.000000 7.494260
    vertex 7.494260 472.000000 10.315000
  endloop
endfacet
facet normal 160.782166 0.000000 160.782166
  outer loop
    vertex 10.315000 472.000000 7.494260
    vertex 7.494260 415.000000 10.315000
    vertex 10.315000 415.000000 7.494260
  endloop
endfacet
facet normal -103.227051 0.000000 202.594513
  outer loop
    vertex -7.494260 472.000000 10.315000
    vertex -3.939970 415.000000 12.126000
    vertex -3.939970 472.000000 12.126000
  endloop
endfacet
facet normal -103.227051 0.000000 202.594513
  outer loop
    vertex -3.939970 415.000000 12.126000
    vertex -7.494260 472.000000 10.315000
    vertex -7.494260 415.000000 10.315000
  endloop
endfacet
facet normal -202.594513 0.000000 103.227051
  outer loop
    vertex -12.126000 415.000000 3.939970
    vertex -10.315000 472.000000 7.494260
    vertex -12.126000 472.000000 3.939970
  endloop
endfacet
facet normal -202.594513 0.000000 103.227051
  outer loop
    vertex -10.315000 472.000000 7.494260
    vertex -12.126000 415.000000 3.939970
    vertex -10.315000 415.000000 7.494260
  endloop
endfacet
facet normal 35.567978 0.000000 -224.578293
  outer loop
    vertex 3.939970 472.000000 -12.126000
    vertex 0.000000 415.000000 -12.750000
    vertex 0.000000 472.000000 -12.750000
  endloop
endfacet
facet normal 103.227051 0.000000 -202.594513
  outer loop
    vertex 3.939970 415.000000 -12.126000
    vertex 7.494260 472.000000 -10.315000
    vertex 7.494260 415.000000 -10.315000
  endloop
endfacet
facet normal 103.227051 0.000000 -202.594513
  outer loop
    vertex 7.494260 472.000000 -10.315000
    vertex 3.939970 415.000000 -12.126000
    vertex 3.939970 472.000000 -12.126000
  endloop
endfacet
facet normal 103.227051 0.000000 202.594513
  outer loop
    vertex 3.939970 472.000000 12.126000
    vertex 7.494260 415.000000 10.315000
    vertex 7.494260 472.000000 10.315000
  endloop
endfacet
facet normal 103.227051 0.000000 202.594513
  outer loop
    vertex 7.494260 415.000000 10.315000
    vertex 3.939970 472.000000 12.126000
    vertex 3.939970 415.000000 12.126000
  endloop
endfacet
facet normal -202.594513 0.000000 -103.227051
  outer loop
    vertex -10.315000 415.000000 -7.494260
    vertex -12.126000 472.000000 -3.939970
    vertex -10.315000 472.000000 -7.494260
  endloop
endfacet
facet normal -202.594513 -0.000000 -103.227051
  outer loop
    vertex -12.126000 472.000000 -3.939970
    vertex -10.315000 415.000000 -7.494260
    vertex -12.126000 415.000000 -3.939970
  endloop
endfacet
facet normal -160.782166 0.000000 -160.782166
  outer loop
    vertex -7.494260 415.000000 -10.315000
    vertex -10.315000 472.000000 -7.494260
    vertex -7.494260 472.000000 -10.315000
  endloop
endfacet
facet normal -160.782166 -0.000000 -160.782166
  outer loop
    vertex -10.315000 472.000000 -7.494260
    vertex -7.494260 415.000000 -10.315000
    vertex -10.315000 415.000000 -7.494260
  endloop
endfacet
facet normal -30.824402 0.000000 -4.882048
  outer loop
    vertex 1.750000 415.000000 0.000000
    vertex 1.664350 472.000000 0.540779
    vertex 1.750000 472.000000 0.000000
  endloop
endfacet
facet normal -30.824402 -0.000000 -4.882048
  outer loop
    vertex 1.664350 472.000000 0.540779
    vertex 1.750000 415.000000 0.000000
    vertex 1.664350 415.000000 0.540779
  endloop
endfacet
facet normal 30.824402 0.000000 -4.882048
  outer loop
    vertex -1.664350 415.000000 0.540779
    vertex -1.750000 472.000000 0.000000
    vertex -1.664350 472.000000 0.540779
  endloop
endfacet
facet normal 30.824402 0.000000 -4.882048
  outer loop
    vertex -1.750000 472.000000 0.000000
    vertex -1.664350 415.000000 0.540779
    vertex -1.750000 415.000000 0.000000
  endloop
endfacet
facet normal -2.441309 0.000001 -15.412230
  outer loop
    vertex 0.000000 415.000000 1.750000
    vertex 0.450649 472.000000 1.678620
    vertex 0.270390 415.000000 1.707170
  endloop
endfacet
facet normal -4.068661 0.000000 -25.686993
  outer loop
    vertex 0.450649 472.000000 1.678620
    vertex 0.000000 415.000000 1.750000
    vertex 0.000000 472.000000 1.750000
  endloop
endfacet
facet normal 0.813958 0.000000 5.137404
  outer loop
    vertex -0.090130 472.000000 -1.735720
    vertex 0.000000 415.000000 -1.750000
    vertex 0.000000 472.000000 -1.750000
  endloop
endfacet
facet normal 2.441309 -0.000001 15.412230
  outer loop
    vertex 0.000000 415.000000 -1.750000
    vertex -0.090130 472.000000 -1.735720
    vertex -0.270390 415.000000 -1.707170
  endloop
endfacet
facet normal -27.806938 0.000000 -14.168495
  outer loop
    vertex 1.664350 415.000000 0.540779
    vertex 1.415780 472.000000 1.028620
    vertex 1.664350 472.000000 0.540779
  endloop
endfacet
facet normal -27.806938 -0.000000 -14.168495
  outer loop
    vertex 1.415780 472.000000 1.028620
    vertex 1.664350 415.000000 0.540779
    vertex 1.415780 415.000000 1.028620
  endloop
endfacet
facet normal 27.806938 0.000000 -14.168495
  outer loop
    vertex -1.415780 415.000000 1.028620
    vertex -1.664350 472.000000 0.540779
    vertex -1.415780 472.000000 1.028620
  endloop
endfacet
facet normal 27.806938 0.000000 -14.168495
  outer loop
    vertex -1.664350 472.000000 0.540779
    vertex -1.415780 415.000000 1.028620
    vertex -1.664350 415.000000 0.540779
  endloop
endfacet
facet normal 14.168495 0.000000 -27.806938
  outer loop
    vertex -1.028620 415.000000 1.415780
    vertex -0.540779 472.000000 1.664350
    vertex -0.540779 415.000000 1.664350
  endloop
endfacet
facet normal 14.168495 0.000000 -27.806938
  outer loop
    vertex -0.540779 472.000000 1.664350
    vertex -1.028620 415.000000 1.415780
    vertex -1.028620 472.000000 1.415780
  endloop
endfacet
facet normal 14.168495 0.000000 27.806938
  outer loop
    vertex -1.028620 472.000000 -1.415780
    vertex -0.540779 415.000000 -1.664350
    vertex -0.540779 472.000000 -1.664350
  endloop
endfacet
facet normal 14.168495 0.000000 27.806938
  outer loop
    vertex -0.540779 415.000000 -1.664350
    vertex -1.028620 472.000000 -1.415780
    vertex -1.028620 415.000000 -1.415780
  endloop
endfacet
facet normal -27.806938 0.000000 14.168495
  outer loop
    vertex 1.415780 415.000000 -1.028620
    vertex 1.664350 472.000000 -0.540779
    vertex 1.415780 472.000000 -1.028620
  endloop
endfacet
facet normal -27.806938 0.000000 14.168495
  outer loop
    vertex 1.664350 472.000000 -0.540779
    vertex 1.415780 415.000000 -1.028620
    vertex 1.664350 415.000000 -0.540779
  endloop
endfacet
facet normal -22.068117 0.000000 22.068117
  outer loop
    vertex 1.028620 415.000000 -1.415780
    vertex 1.415780 472.000000 -1.028620
    vertex 1.028620 472.000000 -1.415780
  endloop
endfacet
facet normal -22.068117 0.000000 22.068117
  outer loop
    vertex 1.415780 472.000000 -1.028620
    vertex 1.028620 415.000000 -1.415780
    vertex 1.415780 415.000000 -1.028620
  endloop
endfacet
facet normal 2.441309 0.000000 -15.412230
  outer loop
    vertex -0.270390 415.000000 1.707170
    vertex 0.000000 472.000000 1.750000
    vertex 0.000000 415.000000 1.750000
  endloop
endfacet
facet normal 4.068661 0.000001 -25.686993
  outer loop
    vertex 0.000000 472.000000 1.750000
    vertex -0.270390 415.000000 1.707170
    vertex -0.450649 472.000000 1.678620
  endloop
endfacet
facet normal -14.168495 0.000000 -27.806938
  outer loop
    vertex 0.540779 415.000000 1.664350
    vertex 1.028620 472.000000 1.415780
    vertex 1.028620 415.000000 1.415780
  endloop
endfacet
facet normal -14.168495 0.000000 -27.806938
  outer loop
    vertex 1.028620 472.000000 1.415780
    vertex 0.540779 415.000000 1.664350
    vertex 0.540779 472.000000 1.664350
  endloop
endfacet
facet normal -0.813387 0.000000 -5.137410
  outer loop
    vertex 0.540779 415.000000 1.664350
    vertex 0.450649 472.000000 1.678620
    vertex 0.540779 472.000000 1.664350
  endloop
endfacet
facet normal -2.440739 -0.000001 -15.412172
  outer loop
    vertex 0.450649 472.000000 1.678620
    vertex 0.540779 415.000000 1.664350
    vertex 0.270390 415.000000 1.707170
  endloop
endfacet
facet normal 27.806938 -0.000000 14.168495
  outer loop
    vertex -1.664350 415.000000 -0.540779
    vertex -1.415780 472.000000 -1.028620
    vertex -1.664350 472.000000 -0.540779
  endloop
endfacet
facet normal 27.806938 0.000000 14.168495
  outer loop
    vertex -1.415780 472.000000 -1.028620
    vertex -1.664350 415.000000 -0.540779
    vertex -1.415780 415.000000 -1.028620
  endloop
endfacet
facet normal 4.068090 0.000001 25.686998
  outer loop
    vertex -0.540779 472.000000 -1.664350
    vertex -0.270390 415.000000 -1.707170
    vertex -0.090130 472.000000 -1.735720
  endloop
endfacet
facet normal 2.440739 0.000000 15.412172
  outer loop
    vertex -0.270390 415.000000 -1.707170
    vertex -0.540779 472.000000 -1.664350
    vertex -0.540779 415.000000 -1.664350
  endloop
endfacet
facet normal -0.813958 -0.000001 5.137404
  outer loop
    vertex 0.000000 472.000000 -1.750000
    vertex 0.270390 415.000000 -1.707170
    vertex 0.090130 472.000000 -1.735720
  endloop
endfacet
facet normal -2.441309 0.000000 15.412230
  outer loop
    vertex 0.270390 415.000000 -1.707170
    vertex 0.000000 472.000000 -1.750000
    vertex 0.000000 415.000000 -1.750000
  endloop
endfacet
facet normal 22.068117 -0.000000 22.068117
  outer loop
    vertex -1.415780 415.000000 -1.028620
    vertex -1.028620 472.000000 -1.415780
    vertex -1.415780 472.000000 -1.028620
  endloop
endfacet
facet normal 22.068117 0.000000 22.068117
  outer loop
    vertex -1.028620 472.000000 -1.415780
    vertex -1.415780 415.000000 -1.028620
    vertex -1.028620 415.000000 -1.415780
  endloop
endfacet
facet normal -2.440739 0.000000 15.412172
  outer loop
    vertex 0.540779 472.000000 -1.664350
    vertex 0.270390 415.000000 -1.707170
    vertex 0.540779 415.000000 -1.664350
  endloop
endfacet
facet normal -4.068090 0.000001 25.686998
  outer loop
    vertex 0.270390 415.000000 -1.707170
    vertex 0.540779 472.000000 -1.664350
    vertex 0.090130 472.000000 -1.735720
  endloop
endfacet
facet normal -14.168495 0.000000 27.806938
  outer loop
    vertex 0.540779 472.000000 -1.664350
    vertex 1.028620 415.000000 -1.415780
    vertex 1.028620 472.000000 -1.415780
  endloop
endfacet
facet normal -14.168495 0.000000 27.806938
  outer loop
    vertex 1.028620 415.000000 -1.415780
    vertex 0.540779 472.000000 -1.664350
    vertex 0.540779 415.000000 -1.664350
  endloop
endfacet
facet normal -22.068117 0.000000 -22.068117
  outer loop
    vertex 1.415780 415.000000 1.028620
    vertex 1.028620 472.000000 1.415780
    vertex 1.415780 472.000000 1.028620
  endloop
endfacet
facet normal -22.068117 -0.000000 -22.068117
  outer loop
    vertex 1.028620 472.000000 1.415780
    vertex 1.415780 415.000000 1.028620
    vertex 1.028620 415.000000 1.415780
  endloop
endfacet
facet normal -30.824402 0.000000 4.882048
  outer loop
    vertex 1.664350 415.000000 -0.540779
    vertex 1.750000 472.000000 0.000000
    vertex 1.664350 472.000000 -0.540779
  endloop
endfacet
facet normal -30.824402 0.000000 4.882048
  outer loop
    vertex 1.750000 472.000000 0.000000
    vertex 1.664350 415.000000 -0.540779
    vertex 1.750000 415.000000 0.000000
  endloop
endfacet
facet normal 30.824402 -0.000000 4.882048
  outer loop
    vertex -1.750000 415.000000 0.000000
    vertex -1.664350 472.000000 -0.540779
    vertex -1.750000 472.000000 0.000000
  endloop
endfacet
facet normal 30.824402 0.000000 4.882048
  outer loop
    vertex -1.664350 472.000000 -0.540779
    vertex -1.750000 415.000000 0.000000
    vertex -1.664350 415.000000 -0.540779
  endloop
endfacet
facet normal 2.440739 -0.000001 -15.412172
  outer loop
    vertex -0.540779 415.000000 1.664350
    vertex -0.450649 472.000000 1.678620
    vertex -0.270390 415.000000 1.707170
  endloop
endfacet
facet normal 0.813387 0.000000 -5.137410
  outer loop
    vertex -0.450649 472.000000 1.678620
    vertex -0.540779 415.000000 1.664350
    vertex -0.540779 472.000000 1.664350
  endloop
endfacet
facet normal 22.068117 0.000000 -22.068117
  outer loop
    vertex -1.028620 415.000000 1.415780
    vertex -1.415780 472.000000 1.028620
    vertex -1.028620 472.000000 1.415780
  endloop
endfacet
facet normal 22.068117 0.000000 -22.068117
  outer loop
    vertex -1.415780 472.000000 1.028620
    vertex -1.028620 415.000000 1.415780
    vertex -1.415780 415.000000 1.028620
  endloop
endfacet
endsolid spacer0.stl
