  0
SECTION
  2
BLOCKS
  0
ENDSEC
  0
SECTION
  2
ENTITIES
  0
LINE
  8
0
 10
-12.4005
 20
11.4151
 11
-12.2803
 21
10.2716
  0
LINE
  8
0
 10
-12.2803
 20
10.2716
 11
-11.925
 21
9.17802
  0
LINE
  8
0
 10
-11.925
 20
9.17802
 11
-11.3501
 21
8.18225
  0
LINE
  8
0
 10
-11.3501
 20
8.18225
 11
-4.44959
 21
-3.23282
  0
LINE
  8
0
 10
-4.44959
 20
-3.23282
 11
-3.68022
 21
-4.0873
  0
LINE
  8
0
 10
-3.68022
 20
-4.0873
 11
-2.75
 21
-4.76314
  0
LINE
  8
0
 10
-2.75
 20
-4.76314
 11
-1.69959
 21
-5.23081
  0
LINE
  8
0
 10
-1.69959
 20
-5.23081
 11
-0.574907
 21
-5.46987
  0
LINE
  8
0
 10
-0.574907
 20
-5.46987
 11
0.574907
 21
-5.46987
  0
LINE
  8
0
 10
0.574907
 20
-5.46987
 11
1.69959
 21
-5.23081
  0
LINE
  8
0
 10
1.69959
 20
-5.23081
 11
2.75
 21
-4.76314
  0
LINE
  8
0
 10
2.75
 20
-4.76314
 11
3.68022
 21
-4.0873
  0
LINE
  8
0
 10
3.68022
 20
-4.0873
 11
4.44959
 21
-3.23282
  0
LINE
  8
0
 10
4.44959
 20
-3.23282
 11
5.0245
 21
-2.23705
  0
LINE
  8
0
 10
5.0245
 20
-2.23705
 11
5.37981
 21
-1.14351
  0
LINE
  8
0
 10
5.37981
 20
-1.14351
 11
5.5
 21
0
  0
LINE
  8
0
 10
5.5
 20
0
 11
5.37981
 21
1.14351
  0
LINE
  8
0
 10
5.37981
 20
1.14351
 11
5.0245
 21
2.23705
  0
LINE
  8
0
 10
5.0245
 20
2.23705
 11
4.44959
 21
3.23282
  0
LINE
  8
0
 10
4.44959
 20
3.23282
 11
-2.45094
 21
14.6479
  0
LINE
  8
0
 10
-2.45094
 20
14.6479
 11
-3.22031
 21
15.5024
  0
LINE
  8
0
 10
-3.22031
 20
15.5024
 11
-4.15053
 21
16.1782
  0
LINE
  8
0
 10
-4.15053
 20
16.1782
 11
-5.20094
 21
16.6459
  0
LINE
  8
0
 10
-5.20094
 20
16.6459
 11
-6.32562
 21
16.8849
  0
LINE
  8
0
 10
-6.32562
 20
16.8849
 11
-7.47544
 21
16.8849
  0
LINE
  8
0
 10
-7.47544
 20
16.8849
 11
-8.60012
 21
16.6459
  0
LINE
  8
0
 10
-8.60012
 20
16.6459
 11
-9.65053
 21
16.1782
  0
LINE
  8
0
 10
-9.65053
 20
16.1782
 11
-10.5807
 21
15.5024
  0
LINE
  8
0
 10
-10.5807
 20
15.5024
 11
-11.3501
 21
14.6479
  0
LINE
  8
0
 10
-11.3501
 20
14.6479
 11
-11.925
 21
13.6521
  0
LINE
  8
0
 10
-11.925
 20
13.6521
 11
-12.2803
 21
12.5586
  0
LINE
  8
0
 10
-12.2803
 20
12.5586
 11
-12.4005
 21
11.4151
  0
ENDSEC
  0
SECTION
  2
OBJECTS
  0
DICTIONARY
  0
ENDSEC
  0
EOF
