  0
SECTION
  2
BLOCKS
  0
ENDSEC
  0
SECTION
  2
ENTITIES
  0
LINE
  8
0
 10
0.682816
 20
-3.43274
 11
1.33939
 21
-3.23357
  0
LINE
  8
0
 10
1.33939
 20
-3.23357
 11
1.94449
 21
-2.91014
  0
LINE
  8
0
 10
1.94449
 20
-2.91014
 11
2.47487
 21
-2.47487
  0
LINE
  8
0
 10
2.47487
 20
-2.47487
 11
2.91014
 21
-1.94449
  0
LINE
  8
0
 10
2.91014
 20
-1.94449
 11
3.23357
 21
-1.33939
  0
LINE
  8
0
 10
3.23357
 20
-1.33939
 11
3.43274
 21
-0.682816
  0
LINE
  8
0
 10
3.43274
 20
-0.682816
 11
3.5
 21
0
  0
LINE
  8
0
 10
3.5
 20
0
 11
3.43274
 21
0.682816
  0
LINE
  8
0
 10
3.43274
 20
0.682816
 11
3.23357
 21
1.33939
  0
LINE
  8
0
 10
3.23357
 20
1.33939
 11
2.91014
 21
1.94449
  0
LINE
  8
0
 10
2.91014
 20
1.94449
 11
2.72476
 21
2.17038
  0
LINE
  8
0
 10
2.72476
 20
2.17038
 11
2.81178
 21
2.19678
  0
LINE
  8
0
 10
2.81178
 20
2.19678
 11
3.41689
 21
2.5202
  0
LINE
  8
0
 10
3.41689
 20
2.5202
 11
3.94727
 21
2.95547
  0
LINE
  8
0
 10
3.94727
 20
2.95547
 11
4.38254
 21
3.48586
  0
LINE
  8
0
 10
4.38254
 20
3.48586
 11
4.70596
 21
4.09096
  0
LINE
  8
0
 10
4.70596
 20
4.09096
 11
4.90514
 21
4.74753
  0
LINE
  8
0
 10
4.90514
 20
4.74753
 11
4.97238
 21
5.43036
  0
LINE
  8
0
 10
4.97238
 20
5.43036
 11
4.90514
 21
6.11317
  0
LINE
  8
0
 10
4.90514
 20
6.11317
 11
4.70596
 21
6.76974
  0
LINE
  8
0
 10
4.70596
 20
6.76974
 11
4.38254
 21
7.37485
  0
LINE
  8
0
 10
4.38254
 20
7.37485
 11
3.94727
 21
7.90523
  0
LINE
  8
0
 10
3.94727
 20
7.90523
 11
3.41689
 21
8.3405
  0
LINE
  8
0
 10
3.41689
 20
8.3405
 11
2.81178
 21
8.66393
  0
LINE
  8
0
 10
2.81178
 20
8.66393
 11
2.1552
 21
8.8631
  0
LINE
  8
0
 10
2.1552
 20
8.8631
 11
1.47238
 21
8.93036
  0
LINE
  8
0
 10
1.47238
 20
8.93036
 11
0.789566
 21
8.8631
  0
LINE
  8
0
 10
0.789566
 20
8.8631
 11
0.132996
 21
8.66393
  0
LINE
  8
0
 10
0.132996
 20
8.66393
 11
-0.472092
 21
8.3405
  0
LINE
  8
0
 10
-0.472092
 20
8.3405
 11
-1.00247
 21
7.90523
  0
LINE
  8
0
 10
-1.00247
 20
7.90523
 11
-1.43774
 21
7.37485
  0
LINE
  8
0
 10
-1.43774
 20
7.37485
 11
-1.76117
 21
6.76974
  0
LINE
  8
0
 10
-1.76117
 20
6.76974
 11
-1.96034
 21
6.11317
  0
LINE
  8
0
 10
-1.96034
 20
6.11317
 11
-2.0276
 21
5.43036
  0
LINE
  8
0
 10
-2.0276
 20
5.43036
 11
-1.96034
 21
4.74753
  0
LINE
  8
0
 10
-1.96034
 20
4.74753
 11
-1.76117
 21
4.09096
  0
LINE
  8
0
 10
-1.76117
 20
4.09096
 11
-1.43774
 21
3.48586
  0
LINE
  8
0
 10
-1.43774
 20
3.48586
 11
-1.25237
 21
3.25996
  0
LINE
  8
0
 10
-1.25237
 20
3.25996
 11
-1.33939
 21
3.23357
  0
LINE
  8
0
 10
-1.33939
 20
3.23357
 11
-1.94449
 21
2.91014
  0
LINE
  8
0
 10
-1.94449
 20
2.91014
 11
-2.47487
 21
2.47487
  0
LINE
  8
0
 10
-2.47487
 20
2.47487
 11
-2.91014
 21
1.94449
  0
LINE
  8
0
 10
-2.91014
 20
1.94449
 11
-3.23357
 21
1.33939
  0
LINE
  8
0
 10
-3.23357
 20
1.33939
 11
-3.43274
 21
0.682816
  0
LINE
  8
0
 10
-3.43274
 20
0.682816
 11
-3.5
 21
0
  0
LINE
  8
0
 10
-3.5
 20
0
 11
-3.43274
 21
-0.682816
  0
LINE
  8
0
 10
-3.43274
 20
-0.682816
 11
-3.23357
 21
-1.33939
  0
LINE
  8
0
 10
-3.23357
 20
-1.33939
 11
-2.91014
 21
-1.94449
  0
LINE
  8
0
 10
-2.91014
 20
-1.94449
 11
-2.47487
 21
-2.47487
  0
LINE
  8
0
 10
-2.47487
 20
-2.47487
 11
-1.94449
 21
-2.91014
  0
LINE
  8
0
 10
-1.94449
 20
-2.91014
 11
-1.33939
 21
-3.23357
  0
LINE
  8
0
 10
-1.33939
 20
-3.23357
 11
-0.682816
 21
-3.43274
  0
LINE
  8
0
 10
-0.682816
 20
-3.43274
 11
0
 21
-3.5
  0
LINE
  8
0
 10
0
 20
-3.5
 11
0.682816
 21
-3.43274
  0
ENDSEC
  0
SECTION
  2
OBJECTS
  0
DICTIONARY
  0
ENDSEC
  0
EOF
