  0
SECTION
  2
BLOCKS
  0
ENDSEC
  0
SECTION
  2
ENTITIES
  0
LINE
  8
0
 10
-5.5
 20
3.11605e-15
 11
-5.37981
 21
-1.14351
  0
LINE
  8
0
 10
-5.37981
 20
-1.14351
 11
-5.0245
 21
-2.23705
  0
LINE
  8
0
 10
-5.0245
 20
-2.23705
 11
-4.44959
 21
-3.23282
  0
LINE
  8
0
 10
-4.44959
 20
-3.23282
 11
-3.68022
 21
-4.0873
  0
LINE
  8
0
 10
-3.68022
 20
-4.0873
 11
-2.75
 21
-4.76314
  0
LINE
  8
0
 10
-2.75
 20
-4.76314
 11
-1.69959
 21
-5.23081
  0
LINE
  8
0
 10
-1.69959
 20
-5.23081
 11
-0.574907
 21
-5.46987
  0
LINE
  8
0
 10
-0.574907
 20
-5.46987
 11
0.574907
 21
-5.46987
  0
LINE
  8
0
 10
0.574907
 20
-5.46987
 11
1.69959
 21
-5.23081
  0
LINE
  8
0
 10
1.69959
 20
-5.23081
 11
2.75
 21
-4.76314
  0
LINE
  8
0
 10
2.75
 20
-4.76314
 11
3.68022
 21
-4.0873
  0
LINE
  8
0
 10
3.68022
 20
-4.0873
 11
4.44959
 21
-3.23282
  0
LINE
  8
0
 10
4.44959
 20
-3.23282
 11
5.0245
 21
-2.23705
  0
LINE
  8
0
 10
5.0245
 20
-2.23705
 11
5.37981
 21
-1.14351
  0
LINE
  8
0
 10
5.37981
 20
-1.14351
 11
6.85221
 21
4.28684
  0
LINE
  8
0
 10
6.85221
 20
4.28684
 11
6.9724
 21
5.43036
  0
LINE
  8
0
 10
6.9724
 20
5.43036
 11
6.85221
 21
6.57387
  0
LINE
  8
0
 10
6.85221
 20
6.57387
 11
6.4969
 21
7.66741
  0
LINE
  8
0
 10
6.4969
 20
7.66741
 11
5.92199
 21
8.66318
  0
LINE
  8
0
 10
5.92199
 20
8.66318
 11
5.15261
 21
9.51766
  0
LINE
  8
0
 10
5.15261
 20
9.51766
 11
4.2224
 21
10.1935
  0
LINE
  8
0
 10
4.2224
 20
10.1935
 11
3.17199
 21
10.6612
  0
LINE
  8
0
 10
3.17199
 20
10.6612
 11
2.0473
 21
10.9002
  0
LINE
  8
0
 10
2.0473
 20
10.9002
 11
0.897489
 21
10.9002
  0
LINE
  8
0
 10
0.897489
 20
10.9002
 11
-0.227198
 21
10.6612
  0
LINE
  8
0
 10
-0.227198
 20
10.6612
 11
-1.2776
 21
10.1935
  0
LINE
  8
0
 10
-1.2776
 20
10.1935
 11
-2.20782
 21
9.51766
  0
LINE
  8
0
 10
-2.20782
 20
9.51766
 11
-2.9772
 21
8.66318
  0
LINE
  8
0
 10
-2.9772
 20
8.66318
 11
-3.5521
 21
7.66741
  0
LINE
  8
0
 10
-3.5521
 20
7.66741
 11
-3.90742
 21
6.57387
  0
LINE
  8
0
 10
-3.90742
 20
6.57387
 11
-5.37981
 21
1.14351
  0
LINE
  8
0
 10
-5.37981
 20
1.14351
 11
-5.5
 21
3.11605e-15
  0
ENDSEC
  0
SECTION
  2
OBJECTS
  0
DICTIONARY
  0
ENDSEC
  0
EOF
