  0
SECTION
  2
BLOCKS
  0
ENDSEC
  0
SECTION
  2
ENTITIES
  0
LINE
  8
0
 10
0.682816
 20
-3.43274
 11
1.33939
 21
-3.23357
  0
LINE
  8
0
 10
1.33939
 20
-3.23357
 11
1.94449
 21
-2.91014
  0
LINE
  8
0
 10
1.94449
 20
-2.91014
 11
2.47487
 21
-2.47487
  0
LINE
  8
0
 10
2.47487
 20
-2.47487
 11
2.91014
 21
-1.94449
  0
LINE
  8
0
 10
2.91014
 20
-1.94449
 11
3.23357
 21
-1.33939
  0
LINE
  8
0
 10
3.23357
 20
-1.33939
 11
3.43274
 21
-0.682816
  0
LINE
  8
0
 10
3.43274
 20
-0.682816
 11
3.5
 21
0
  0
LINE
  8
0
 10
3.5
 20
0
 11
3.43274
 21
0.682816
  0
LINE
  8
0
 10
3.43274
 20
0.682816
 11
3.23357
 21
1.33939
  0
LINE
  8
0
 10
3.23357
 20
1.33939
 11
2.91014
 21
1.94449
  0
LINE
  8
0
 10
2.91014
 20
1.94449
 11
2.47487
 21
2.47487
  0
LINE
  8
0
 10
2.47487
 20
2.47487
 11
1.94449
 21
2.91014
  0
LINE
  8
0
 10
1.94449
 20
2.91014
 11
1.33939
 21
3.23357
  0
LINE
  8
0
 10
1.33939
 20
3.23357
 11
0.682816
 21
3.43274
  0
LINE
  8
0
 10
0.682816
 20
3.43274
 11
0
 21
3.5
  0
LINE
  8
0
 10
0
 20
3.5
 11
-0.682816
 21
3.43274
  0
LINE
  8
0
 10
-0.682816
 20
3.43274
 11
-1.33939
 21
3.23357
  0
LINE
  8
0
 10
-1.33939
 20
3.23357
 11
-1.94449
 21
2.91014
  0
LINE
  8
0
 10
-1.94449
 20
2.91014
 11
-2.47487
 21
2.47487
  0
LINE
  8
0
 10
-2.47487
 20
2.47487
 11
-2.91014
 21
1.94449
  0
LINE
  8
0
 10
-2.91014
 20
1.94449
 11
-3.23357
 21
1.33939
  0
LINE
  8
0
 10
-3.23357
 20
1.33939
 11
-3.43274
 21
0.682816
  0
LINE
  8
0
 10
-3.43274
 20
0.682816
 11
-3.5
 21
0
  0
LINE
  8
0
 10
-3.5
 20
0
 11
-3.43274
 21
-0.682816
  0
LINE
  8
0
 10
-3.43274
 20
-0.682816
 11
-3.23357
 21
-1.33939
  0
LINE
  8
0
 10
-3.23357
 20
-1.33939
 11
-2.91014
 21
-1.94449
  0
LINE
  8
0
 10
-2.91014
 20
-1.94449
 11
-2.47487
 21
-2.47487
  0
LINE
  8
0
 10
-2.47487
 20
-2.47487
 11
-1.94449
 21
-2.91014
  0
LINE
  8
0
 10
-1.94449
 20
-2.91014
 11
-1.33939
 21
-3.23357
  0
LINE
  8
0
 10
-1.33939
 20
-3.23357
 11
-0.682816
 21
-3.43274
  0
LINE
  8
0
 10
-0.682816
 20
-3.43274
 11
0
 21
-3.5
  0
LINE
  8
0
 10
0
 20
-3.5
 11
0.682816
 21
-3.43274
  0
LINE
  8
0
 10
0.682816
 20
-63.4327
 11
1.33939
 21
-63.2336
  0
LINE
  8
0
 10
1.33939
 20
-63.2336
 11
1.94449
 21
-62.9101
  0
LINE
  8
0
 10
1.94449
 20
-62.9101
 11
2.47487
 21
-62.4749
  0
LINE
  8
0
 10
2.47487
 20
-62.4749
 11
2.91014
 21
-61.9445
  0
LINE
  8
0
 10
2.91014
 20
-61.9445
 11
3.23357
 21
-61.3394
  0
LINE
  8
0
 10
3.23357
 20
-61.3394
 11
3.43274
 21
-60.6828
  0
LINE
  8
0
 10
3.43274
 20
-60.6828
 11
3.5
 21
-60
  0
LINE
  8
0
 10
3.5
 20
-60
 11
3.43274
 21
-59.3172
  0
LINE
  8
0
 10
3.43274
 20
-59.3172
 11
3.23357
 21
-58.6606
  0
LINE
  8
0
 10
3.23357
 20
-58.6606
 11
2.91014
 21
-58.0555
  0
LINE
  8
0
 10
2.91014
 20
-58.0555
 11
2.47487
 21
-57.5251
  0
LINE
  8
0
 10
2.47487
 20
-57.5251
 11
1.94449
 21
-57.0898
  0
LINE
  8
0
 10
1.94449
 20
-57.0898
 11
1.33939
 21
-56.7664
  0
LINE
  8
0
 10
1.33939
 20
-56.7664
 11
0.682816
 21
-56.5672
  0
LINE
  8
0
 10
0.682816
 20
-56.5672
 11
0
 21
-56.5
  0
LINE
  8
0
 10
0
 20
-56.5
 11
-0.682816
 21
-56.5672
  0
LINE
  8
0
 10
-0.682816
 20
-56.5672
 11
-1.33939
 21
-56.7664
  0
LINE
  8
0
 10
-1.33939
 20
-56.7664
 11
-1.94449
 21
-57.0898
  0
LINE
  8
0
 10
-1.94449
 20
-57.0898
 11
-2.47487
 21
-57.5251
  0
LINE
  8
0
 10
-2.47487
 20
-57.5251
 11
-2.91014
 21
-58.0555
  0
LINE
  8
0
 10
-2.91014
 20
-58.0555
 11
-3.23357
 21
-58.6606
  0
LINE
  8
0
 10
-3.23357
 20
-58.6606
 11
-3.43274
 21
-59.3172
  0
LINE
  8
0
 10
-3.43274
 20
-59.3172
 11
-3.5
 21
-60
  0
LINE
  8
0
 10
-3.5
 20
-60
 11
-3.43274
 21
-60.6828
  0
LINE
  8
0
 10
-3.43274
 20
-60.6828
 11
-3.23357
 21
-61.3394
  0
LINE
  8
0
 10
-3.23357
 20
-61.3394
 11
-2.91014
 21
-61.9445
  0
LINE
  8
0
 10
-2.91014
 20
-61.9445
 11
-2.47487
 21
-62.4749
  0
LINE
  8
0
 10
-2.47487
 20
-62.4749
 11
-1.94449
 21
-62.9101
  0
LINE
  8
0
 10
-1.94449
 20
-62.9101
 11
-1.33939
 21
-63.2336
  0
LINE
  8
0
 10
-1.33939
 20
-63.2336
 11
-0.682816
 21
-63.4327
  0
LINE
  8
0
 10
-0.682816
 20
-63.4327
 11
0
 21
-63.5
  0
LINE
  8
0
 10
0
 20
-63.5
 11
0.682816
 21
-63.4327
  0
ENDSEC
  0
SECTION
  2
OBJECTS
  0
DICTIONARY
  0
ENDSEC
  0
EOF
