  0
SECTION
  2
BLOCKS
  0
ENDSEC
  0
SECTION
  2
ENTITIES
  0
LINE
  8
0
 10
-2.905
 20
89.6588
 11
-2.24843
 21
89.858
  0
LINE
  8
0
 10
-2.24843
 20
89.858
 11
-1.64333
 21
90.1814
  0
LINE
  8
0
 10
-1.64333
 20
90.1814
 11
-1.11295
 21
90.6167
  0
LINE
  8
0
 10
-1.11295
 20
90.6167
 11
-0.677673
 21
91.1471
  0
LINE
  8
0
 10
-0.677673
 20
91.1471
 11
-0.354248
 21
91.7522
  0
LINE
  8
0
 10
-0.354248
 20
91.7522
 11
-0.155075
 21
92.4087
  0
LINE
  8
0
 10
-0.155075
 20
92.4087
 11
-0.0878143
 21
93.0916
  0
LINE
  8
0
 10
-0.0878143
 20
93.0916
 11
-0.155075
 21
93.7744
  0
LINE
  8
0
 10
-0.155075
 20
93.7744
 11
-0.354248
 21
94.431
  0
LINE
  8
0
 10
-0.354248
 20
94.431
 11
-0.677673
 21
95.0361
  0
LINE
  8
0
 10
-0.677673
 20
95.0361
 11
-1.11295
 21
95.5664
  0
LINE
  8
0
 10
-1.11295
 20
95.5664
 11
-1.64333
 21
96.0017
  0
LINE
  8
0
 10
-1.64333
 20
96.0017
 11
-2.24843
 21
96.3251
  0
LINE
  8
0
 10
-2.24843
 20
96.3251
 11
-2.905
 21
96.5243
  0
LINE
  8
0
 10
-2.905
 20
96.5243
 11
-3.58781
 21
96.5916
  0
LINE
  8
0
 10
-3.58781
 20
96.5916
 11
-4.27063
 21
96.5243
  0
LINE
  8
0
 10
-4.27063
 20
96.5243
 11
-4.92722
 21
96.3251
  0
LINE
  8
0
 10
-4.92722
 20
96.3251
 11
-5.53232
 21
96.0017
  0
LINE
  8
0
 10
-5.53232
 20
96.0017
 11
-6.0627
 21
95.5664
  0
LINE
  8
0
 10
-6.0627
 20
95.5664
 11
-6.49796
 21
95.0361
  0
LINE
  8
0
 10
-6.49796
 20
95.0361
 11
-6.8214
 21
94.431
  0
LINE
  8
0
 10
-6.8214
 20
94.431
 11
-7.02057
 21
93.7744
  0
LINE
  8
0
 10
-7.02057
 20
93.7744
 11
-7.08781
 21
93.0916
  0
LINE
  8
0
 10
-7.08781
 20
93.0916
 11
-7.02057
 21
92.4087
  0
LINE
  8
0
 10
-7.02057
 20
92.4087
 11
-6.8214
 21
91.7522
  0
LINE
  8
0
 10
-6.8214
 20
91.7522
 11
-6.49796
 21
91.1471
  0
LINE
  8
0
 10
-6.49796
 20
91.1471
 11
-6.0627
 21
90.6167
  0
LINE
  8
0
 10
-6.0627
 20
90.6167
 11
-5.53232
 21
90.1814
  0
LINE
  8
0
 10
-5.53232
 20
90.1814
 11
-4.92722
 21
89.858
  0
LINE
  8
0
 10
-4.92722
 20
89.858
 11
-4.27063
 21
89.6588
  0
LINE
  8
0
 10
-4.27063
 20
89.6588
 11
-3.58781
 21
89.5916
  0
LINE
  8
0
 10
-3.58781
 20
89.5916
 11
-2.905
 21
89.6588
  0
LINE
  8
0
 10
0.682816
 20
-3.43274
 11
1.33939
 21
-3.23357
  0
LINE
  8
0
 10
1.33939
 20
-3.23357
 11
1.94449
 21
-2.91014
  0
LINE
  8
0
 10
1.94449
 20
-2.91014
 11
2.47487
 21
-2.47487
  0
LINE
  8
0
 10
2.47487
 20
-2.47487
 11
2.91014
 21
-1.94449
  0
LINE
  8
0
 10
2.91014
 20
-1.94449
 11
3.23357
 21
-1.33939
  0
LINE
  8
0
 10
3.23357
 20
-1.33939
 11
3.43274
 21
-0.682816
  0
LINE
  8
0
 10
3.43274
 20
-0.682816
 11
3.5
 21
0
  0
LINE
  8
0
 10
3.5
 20
0
 11
3.43274
 21
0.682816
  0
LINE
  8
0
 10
3.43274
 20
0.682816
 11
3.23357
 21
1.33939
  0
LINE
  8
0
 10
3.23357
 20
1.33939
 11
2.91014
 21
1.94449
  0
LINE
  8
0
 10
2.91014
 20
1.94449
 11
2.47487
 21
2.47487
  0
LINE
  8
0
 10
2.47487
 20
2.47487
 11
1.94449
 21
2.91014
  0
LINE
  8
0
 10
1.94449
 20
2.91014
 11
1.33939
 21
3.23357
  0
LINE
  8
0
 10
1.33939
 20
3.23357
 11
0.682816
 21
3.43274
  0
LINE
  8
0
 10
0.682816
 20
3.43274
 11
0
 21
3.5
  0
LINE
  8
0
 10
0
 20
3.5
 11
-0.682816
 21
3.43274
  0
LINE
  8
0
 10
-0.682816
 20
3.43274
 11
-1.33939
 21
3.23357
  0
LINE
  8
0
 10
-1.33939
 20
3.23357
 11
-1.94449
 21
2.91014
  0
LINE
  8
0
 10
-1.94449
 20
2.91014
 11
-2.47487
 21
2.47487
  0
LINE
  8
0
 10
-2.47487
 20
2.47487
 11
-2.91014
 21
1.94449
  0
LINE
  8
0
 10
-2.91014
 20
1.94449
 11
-3.23357
 21
1.33939
  0
LINE
  8
0
 10
-3.23357
 20
1.33939
 11
-3.43274
 21
0.682816
  0
LINE
  8
0
 10
-3.43274
 20
0.682816
 11
-3.5
 21
0
  0
LINE
  8
0
 10
-3.5
 20
0
 11
-3.43274
 21
-0.682816
  0
LINE
  8
0
 10
-3.43274
 20
-0.682816
 11
-3.23357
 21
-1.33939
  0
LINE
  8
0
 10
-3.23357
 20
-1.33939
 11
-2.91014
 21
-1.94449
  0
LINE
  8
0
 10
-2.91014
 20
-1.94449
 11
-2.47487
 21
-2.47487
  0
LINE
  8
0
 10
-2.47487
 20
-2.47487
 11
-1.94449
 21
-2.91014
  0
LINE
  8
0
 10
-1.94449
 20
-2.91014
 11
-1.33939
 21
-3.23357
  0
LINE
  8
0
 10
-1.33939
 20
-3.23357
 11
-0.682816
 21
-3.43274
  0
LINE
  8
0
 10
-0.682816
 20
-3.43274
 11
0
 21
-3.5
  0
LINE
  8
0
 10
0
 20
-3.5
 11
0.682816
 21
-3.43274
  0
ENDSEC
  0
SECTION
  2
OBJECTS
  0
DICTIONARY
  0
ENDSEC
  0
EOF
