  0
SECTION
  2
BLOCKS
  0
ENDSEC
  0
SECTION
  2
ENTITIES
  0
LINE
  8
0
 10
-20.5
 20
-20
 11
-20.3798
 21
-21.1435
  0
LINE
  8
0
 10
-20.3798
 20
-21.1435
 11
-20.0245
 21
-22.2371
  0
LINE
  8
0
 10
-20.0245
 20
-22.2371
 11
-19.4496
 21
-23.2328
  0
LINE
  8
0
 10
-19.4496
 20
-23.2328
 11
-18.6802
 21
-24.0873
  0
LINE
  8
0
 10
-18.6802
 20
-24.0873
 11
-17.75
 21
-24.7631
  0
LINE
  8
0
 10
-17.75
 20
-24.7631
 11
-16.6996
 21
-25.2308
  0
LINE
  8
0
 10
-16.6996
 20
-25.2308
 11
-5.76491
 21
-28.9836
  0
LINE
  8
0
 10
-5.76491
 20
-28.9836
 11
-4.64022
 21
-29.2226
  0
LINE
  8
0
 10
-4.64022
 20
-29.2226
 11
-3.49041
 21
-29.2226
  0
LINE
  8
0
 10
-3.49041
 20
-29.2226
 11
-2.36572
 21
-28.9836
  0
LINE
  8
0
 10
-2.36572
 20
-28.9836
 11
-1.31532
 21
-28.5159
  0
LINE
  8
0
 10
-1.31532
 20
-28.5159
 11
-0.3851
 21
-27.8401
  0
LINE
  8
0
 10
-0.3851
 20
-27.8401
 11
0.384275
 21
-26.9856
  0
LINE
  8
0
 10
0.384275
 20
-26.9856
 11
0.959182
 21
-25.9898
  0
LINE
  8
0
 10
0.959182
 20
-25.9898
 11
1.31449
 21
-24.8963
  0
LINE
  8
0
 10
1.31449
 20
-24.8963
 11
5.37981
 21
-1.14351
  0
LINE
  8
0
 10
5.37981
 20
-1.14351
 11
5.5
 21
0
  0
LINE
  8
0
 10
5.5
 20
0
 11
5.37981
 21
1.14351
  0
LINE
  8
0
 10
5.37981
 20
1.14351
 11
5.0245
 21
2.23705
  0
LINE
  8
0
 10
5.0245
 20
2.23705
 11
4.44959
 21
3.23282
  0
LINE
  8
0
 10
4.44959
 20
3.23282
 11
3.68022
 21
4.0873
  0
LINE
  8
0
 10
3.68022
 20
4.0873
 11
2.75
 21
4.76314
  0
LINE
  8
0
 10
2.75
 20
4.76314
 11
1.69959
 21
5.23081
  0
LINE
  8
0
 10
1.69959
 20
5.23081
 11
0.574907
 21
5.46987
  0
LINE
  8
0
 10
0.574907
 20
5.46987
 11
-0.574907
 21
5.46987
  0
LINE
  8
0
 10
-0.574907
 20
5.46987
 11
-1.69959
 21
5.23081
  0
LINE
  8
0
 10
-1.69959
 20
5.23081
 11
-2.75
 21
4.76314
  0
LINE
  8
0
 10
-2.75
 20
4.76314
 11
-3.68022
 21
4.0873
  0
LINE
  8
0
 10
-3.68022
 20
4.0873
 11
-4.44959
 21
3.23282
  0
LINE
  8
0
 10
-4.44959
 20
3.23282
 11
-19.4496
 21
-16.7672
  0
LINE
  8
0
 10
-19.4496
 20
-16.7672
 11
-20.0245
 21
-17.7629
  0
LINE
  8
0
 10
-20.0245
 20
-17.7629
 11
-20.3798
 21
-18.8565
  0
LINE
  8
0
 10
-20.3798
 20
-18.8565
 11
-20.5
 21
-20
  0
ENDSEC
  0
SECTION
  2
OBJECTS
  0
DICTIONARY
  0
ENDSEC
  0
EOF
