  0
SECTION
  2
BLOCKS
  0
ENDSEC
  0
SECTION
  2
ENTITIES
  0
LINE
  8
0
 10
-20.5
 20
-20
 11
-20.3798
 21
-21.1435
  0
LINE
  8
0
 10
-20.3798
 20
-21.1435
 11
-20.0245
 21
-22.2371
  0
LINE
  8
0
 10
-20.0245
 20
-22.2371
 11
-19.4496
 21
-23.2328
  0
LINE
  8
0
 10
-19.4496
 20
-23.2328
 11
-18.6802
 21
-24.0873
  0
LINE
  8
0
 10
-18.6802
 20
-24.0873
 11
-17.75
 21
-24.7631
  0
LINE
  8
0
 10
-17.75
 20
-24.7631
 11
-16.6996
 21
-25.2308
  0
LINE
  8
0
 10
-16.6996
 20
-25.2308
 11
-15.5749
 21
-25.4699
  0
LINE
  8
0
 10
-15.5749
 20
-25.4699
 11
-14.4251
 21
-25.4699
  0
LINE
  8
0
 10
-14.4251
 20
-25.4699
 11
-13.3004
 21
-25.2308
  0
LINE
  8
0
 10
-13.3004
 20
-25.2308
 11
33.2678
 21
-10.3153
  0
LINE
  8
0
 10
33.2678
 20
-10.3153
 11
34.3182
 21
-9.84761
  0
LINE
  8
0
 10
34.3182
 20
-9.84761
 11
35.2485
 21
-9.17177
  0
LINE
  8
0
 10
35.2485
 20
-9.17177
 11
36.0178
 21
-8.31729
  0
LINE
  8
0
 10
36.0178
 20
-8.31729
 11
36.5927
 21
-7.32153
  0
LINE
  8
0
 10
36.5927
 20
-7.32153
 11
36.948
 21
-6.22799
  0
LINE
  8
0
 10
36.948
 20
-6.22799
 11
37.0682
 21
-5.08447
  0
LINE
  8
0
 10
37.0682
 20
-5.08447
 11
36.948
 21
-3.94096
  0
LINE
  8
0
 10
36.948
 20
-3.94096
 11
36.5927
 21
-2.84742
  0
LINE
  8
0
 10
36.5927
 20
-2.84742
 11
36.0178
 21
-1.85166
  0
LINE
  8
0
 10
36.0178
 20
-1.85166
 11
35.2485
 21
-0.997178
  0
LINE
  8
0
 10
35.2485
 20
-0.997178
 11
34.3182
 21
-0.321335
  0
LINE
  8
0
 10
34.3182
 20
-0.321335
 11
33.2678
 21
0.146336
  0
LINE
  8
0
 10
33.2678
 20
0.146336
 11
32.1431
 21
0.385396
  0
LINE
  8
0
 10
32.1431
 20
0.385396
 11
0.574907
 21
5.46987
  0
LINE
  8
0
 10
0.574907
 20
5.46987
 11
-0.574907
 21
5.46987
  0
LINE
  8
0
 10
-0.574907
 20
5.46987
 11
-1.69959
 21
5.23081
  0
LINE
  8
0
 10
-1.69959
 20
5.23081
 11
-2.75
 21
4.76314
  0
LINE
  8
0
 10
-2.75
 20
4.76314
 11
-3.68022
 21
4.0873
  0
LINE
  8
0
 10
-3.68022
 20
4.0873
 11
-4.44959
 21
3.23282
  0
LINE
  8
0
 10
-4.44959
 20
3.23282
 11
-19.4496
 21
-16.7672
  0
LINE
  8
0
 10
-19.4496
 20
-16.7672
 11
-20.0245
 21
-17.7629
  0
LINE
  8
0
 10
-20.0245
 20
-17.7629
 11
-20.3798
 21
-18.8565
  0
LINE
  8
0
 10
-20.3798
 20
-18.8565
 11
-20.5
 21
-20
  0
ENDSEC
  0
SECTION
  2
OBJECTS
  0
DICTIONARY
  0
ENDSEC
  0
EOF
