  0
SECTION
  2
BLOCKS
  0
ENDSEC
  0
SECTION
  2
ENTITIES
  0
LINE
  8
0
 10
-8.61734
 20
96.7113
 11
-7.96077
 21
96.9105
  0
LINE
  8
0
 10
-7.96077
 20
96.9105
 11
-7.35567
 21
97.2339
  0
LINE
  8
0
 10
-7.35567
 20
97.2339
 11
-6.82529
 21
97.6692
  0
LINE
  8
0
 10
-6.82529
 20
97.6692
 11
-6.39001
 21
98.1995
  0
LINE
  8
0
 10
-6.39001
 20
98.1995
 11
-6.06659
 21
98.8046
  0
LINE
  8
0
 10
-6.06659
 20
98.8046
 11
-5.86742
 21
99.4612
  0
LINE
  8
0
 10
-5.86742
 20
99.4612
 11
-5.80016
 21
100.144
  0
LINE
  8
0
 10
-5.80016
 20
100.144
 11
-5.86742
 21
100.827
  0
LINE
  8
0
 10
-5.86742
 20
100.827
 11
-6.06659
 21
101.483
  0
LINE
  8
0
 10
-6.06659
 20
101.483
 11
-6.39001
 21
102.089
  0
LINE
  8
0
 10
-6.39001
 20
102.089
 11
-6.82529
 21
102.619
  0
LINE
  8
0
 10
-6.82529
 20
102.619
 11
-7.35567
 21
103.054
  0
LINE
  8
0
 10
-7.35567
 20
103.054
 11
-7.96077
 21
103.378
  0
LINE
  8
0
 10
-7.96077
 20
103.378
 11
-8.61734
 21
103.577
  0
LINE
  8
0
 10
-8.61734
 20
103.577
 11
-9.30016
 21
103.644
  0
LINE
  8
0
 10
-9.30016
 20
103.644
 11
-9.98299
 21
103.577
  0
LINE
  8
0
 10
-9.98299
 20
103.577
 11
-10.6396
 21
103.378
  0
LINE
  8
0
 10
-10.6396
 20
103.378
 11
-11.2447
 21
103.054
  0
LINE
  8
0
 10
-11.2447
 20
103.054
 11
-11.775
 21
102.619
  0
LINE
  8
0
 10
-11.775
 20
102.619
 11
-12.2103
 21
102.089
  0
LINE
  8
0
 10
-12.2103
 20
102.089
 11
-12.5337
 21
101.483
  0
LINE
  8
0
 10
-12.5337
 20
101.483
 11
-12.7329
 21
100.827
  0
LINE
  8
0
 10
-12.7329
 20
100.827
 11
-12.8002
 21
100.144
  0
LINE
  8
0
 10
-12.8002
 20
100.144
 11
-12.7329
 21
99.4612
  0
LINE
  8
0
 10
-12.7329
 20
99.4612
 11
-12.5337
 21
98.8046
  0
LINE
  8
0
 10
-12.5337
 20
98.8046
 11
-12.2103
 21
98.1995
  0
LINE
  8
0
 10
-12.2103
 20
98.1995
 11
-11.775
 21
97.6692
  0
LINE
  8
0
 10
-11.775
 20
97.6692
 11
-11.2447
 21
97.2339
  0
LINE
  8
0
 10
-11.2447
 20
97.2339
 11
-10.6396
 21
96.9105
  0
LINE
  8
0
 10
-10.6396
 20
96.9105
 11
-9.98299
 21
96.7113
  0
LINE
  8
0
 10
-9.98299
 20
96.7113
 11
-9.30016
 21
96.644
  0
LINE
  8
0
 10
-9.30016
 20
96.644
 11
-8.61734
 21
96.7113
  0
LINE
  8
0
 10
0.682816
 20
-3.43274
 11
1.33939
 21
-3.23357
  0
LINE
  8
0
 10
1.33939
 20
-3.23357
 11
1.94449
 21
-2.91014
  0
LINE
  8
0
 10
1.94449
 20
-2.91014
 11
2.47487
 21
-2.47487
  0
LINE
  8
0
 10
2.47487
 20
-2.47487
 11
2.91014
 21
-1.94449
  0
LINE
  8
0
 10
2.91014
 20
-1.94449
 11
3.23357
 21
-1.33939
  0
LINE
  8
0
 10
3.23357
 20
-1.33939
 11
3.43274
 21
-0.682816
  0
LINE
  8
0
 10
3.43274
 20
-0.682816
 11
3.5
 21
0
  0
LINE
  8
0
 10
3.5
 20
0
 11
3.43274
 21
0.682816
  0
LINE
  8
0
 10
3.43274
 20
0.682816
 11
3.23357
 21
1.33939
  0
LINE
  8
0
 10
3.23357
 20
1.33939
 11
2.91014
 21
1.94449
  0
LINE
  8
0
 10
2.91014
 20
1.94449
 11
2.47487
 21
2.47487
  0
LINE
  8
0
 10
2.47487
 20
2.47487
 11
1.94449
 21
2.91014
  0
LINE
  8
0
 10
1.94449
 20
2.91014
 11
1.33939
 21
3.23357
  0
LINE
  8
0
 10
1.33939
 20
3.23357
 11
0.682816
 21
3.43274
  0
LINE
  8
0
 10
0.682816
 20
3.43274
 11
0
 21
3.5
  0
LINE
  8
0
 10
0
 20
3.5
 11
-0.682816
 21
3.43274
  0
LINE
  8
0
 10
-0.682816
 20
3.43274
 11
-1.33939
 21
3.23357
  0
LINE
  8
0
 10
-1.33939
 20
3.23357
 11
-1.94449
 21
2.91014
  0
LINE
  8
0
 10
-1.94449
 20
2.91014
 11
-2.47487
 21
2.47487
  0
LINE
  8
0
 10
-2.47487
 20
2.47487
 11
-2.91014
 21
1.94449
  0
LINE
  8
0
 10
-2.91014
 20
1.94449
 11
-3.23357
 21
1.33939
  0
LINE
  8
0
 10
-3.23357
 20
1.33939
 11
-3.43274
 21
0.682816
  0
LINE
  8
0
 10
-3.43274
 20
0.682816
 11
-3.5
 21
0
  0
LINE
  8
0
 10
-3.5
 20
0
 11
-3.43274
 21
-0.682816
  0
LINE
  8
0
 10
-3.43274
 20
-0.682816
 11
-3.23357
 21
-1.33939
  0
LINE
  8
0
 10
-3.23357
 20
-1.33939
 11
-2.91014
 21
-1.94449
  0
LINE
  8
0
 10
-2.91014
 20
-1.94449
 11
-2.47487
 21
-2.47487
  0
LINE
  8
0
 10
-2.47487
 20
-2.47487
 11
-1.94449
 21
-2.91014
  0
LINE
  8
0
 10
-1.94449
 20
-2.91014
 11
-1.33939
 21
-3.23357
  0
LINE
  8
0
 10
-1.33939
 20
-3.23357
 11
-0.682816
 21
-3.43274
  0
LINE
  8
0
 10
-0.682816
 20
-3.43274
 11
0
 21
-3.5
  0
LINE
  8
0
 10
0
 20
-3.5
 11
0.682816
 21
-3.43274
  0
ENDSEC
  0
SECTION
  2
OBJECTS
  0
DICTIONARY
  0
ENDSEC
  0
EOF
