  0
SECTION
  2
BLOCKS
  0
ENDSEC
  0
SECTION
  2
ENTITIES
  0
LINE
  8
0
 10
-5.5
 20
3.11605e-15
 11
-5.37981
 21
-1.14351
  0
LINE
  8
0
 10
-5.37981
 20
-1.14351
 11
-5.0245
 21
-2.23705
  0
LINE
  8
0
 10
-5.0245
 20
-2.23705
 11
-4.44959
 21
-3.23282
  0
LINE
  8
0
 10
-4.44959
 20
-3.23282
 11
8.9159
 21
-19.6241
  0
LINE
  8
0
 10
8.9159
 20
-19.6241
 11
9.68527
 21
-20.4786
  0
LINE
  8
0
 10
9.68527
 20
-20.4786
 11
10.6155
 21
-21.1544
  0
LINE
  8
0
 10
10.6155
 20
-21.1544
 11
11.6659
 21
-21.6221
  0
LINE
  8
0
 10
11.6659
 20
-21.6221
 11
12.7906
 21
-21.8611
  0
LINE
  8
0
 10
12.7906
 20
-21.8611
 11
13.9404
 21
-21.8611
  0
LINE
  8
0
 10
13.9404
 20
-21.8611
 11
15.0651
 21
-21.6221
  0
LINE
  8
0
 10
15.0651
 20
-21.6221
 11
16.1155
 21
-21.1544
  0
LINE
  8
0
 10
16.1155
 20
-21.1544
 11
17.0457
 21
-20.4786
  0
LINE
  8
0
 10
17.0457
 20
-20.4786
 11
17.8151
 21
-19.6241
  0
LINE
  8
0
 10
17.8151
 20
-19.6241
 11
18.39
 21
-18.6283
  0
LINE
  8
0
 10
18.39
 20
-18.6283
 11
18.7453
 21
-17.5348
  0
LINE
  8
0
 10
18.7453
 20
-17.5348
 11
18.8655
 21
-16.3913
  0
LINE
  8
0
 10
18.8655
 20
-16.3913
 11
18.7453
 21
-15.2478
  0
LINE
  8
0
 10
18.7453
 20
-15.2478
 11
18.39
 21
-14.1542
  0
LINE
  8
0
 10
18.39
 20
-14.1542
 11
17.8151
 21
-13.1585
  0
LINE
  8
0
 10
17.8151
 20
-13.1585
 11
4.44959
 21
3.23282
  0
LINE
  8
0
 10
4.44959
 20
3.23282
 11
3.68022
 21
4.0873
  0
LINE
  8
0
 10
3.68022
 20
4.0873
 11
2.75
 21
4.76314
  0
LINE
  8
0
 10
2.75
 20
4.76314
 11
1.69959
 21
5.23081
  0
LINE
  8
0
 10
1.69959
 20
5.23081
 11
0.574907
 21
5.46987
  0
LINE
  8
0
 10
0.574907
 20
5.46987
 11
-0.574907
 21
5.46987
  0
LINE
  8
0
 10
-0.574907
 20
5.46987
 11
-1.69959
 21
5.23081
  0
LINE
  8
0
 10
-1.69959
 20
5.23081
 11
-2.75
 21
4.76314
  0
LINE
  8
0
 10
-2.75
 20
4.76314
 11
-3.68022
 21
4.0873
  0
LINE
  8
0
 10
-3.68022
 20
4.0873
 11
-4.44959
 21
3.23282
  0
LINE
  8
0
 10
-4.44959
 20
3.23282
 11
-5.0245
 21
2.23705
  0
LINE
  8
0
 10
-5.0245
 20
2.23705
 11
-5.37981
 21
1.14351
  0
LINE
  8
0
 10
-5.37981
 20
1.14351
 11
-5.5
 21
3.11605e-15
  0
ENDSEC
  0
SECTION
  2
OBJECTS
  0
DICTIONARY
  0
ENDSEC
  0
EOF
