  0
SECTION
  2
BLOCKS
  0
ENDSEC
  0
SECTION
  2
ENTITIES
  0
LINE
  8
0
 10
-20.5
 20
-20
 11
-20.3798
 21
-21.1435
  0
LINE
  8
0
 10
-20.3798
 20
-21.1435
 11
-20.0245
 21
-22.2371
  0
LINE
  8
0
 10
-20.0245
 20
-22.2371
 11
-19.4496
 21
-23.2328
  0
LINE
  8
0
 10
-19.4496
 20
-23.2328
 11
-18.6802
 21
-24.0873
  0
LINE
  8
0
 10
-18.6802
 20
-24.0873
 11
-17.75
 21
-24.7631
  0
LINE
  8
0
 10
-17.75
 20
-24.7631
 11
-11.3514
 21
-28.1974
  0
LINE
  8
0
 10
-11.3514
 20
-28.1974
 11
-10.301
 21
-28.6651
  0
LINE
  8
0
 10
-10.301
 20
-28.6651
 11
-9.17632
 21
-28.9042
  0
LINE
  8
0
 10
-9.17632
 20
-28.9042
 11
-8.0265
 21
-28.9042
  0
LINE
  8
0
 10
-8.0265
 20
-28.9042
 11
-6.90182
 21
-28.6651
  0
LINE
  8
0
 10
-6.90182
 20
-28.6651
 11
-5.85141
 21
-28.1974
  0
LINE
  8
0
 10
-5.85141
 20
-28.1974
 11
-4.92119
 21
-27.5216
  0
LINE
  8
0
 10
-4.92119
 20
-27.5216
 11
-4.15182
 21
-26.6671
  0
LINE
  8
0
 10
-4.15182
 20
-26.6671
 11
-3.57691
 21
-25.6713
  0
LINE
  8
0
 10
-3.57691
 20
-25.6713
 11
5.0245
 21
-2.23705
  0
LINE
  8
0
 10
5.0245
 20
-2.23705
 11
5.37981
 21
-1.14351
  0
LINE
  8
0
 10
5.37981
 20
-1.14351
 11
5.5
 21
0
  0
LINE
  8
0
 10
5.5
 20
0
 11
5.37981
 21
1.14351
  0
LINE
  8
0
 10
5.37981
 20
1.14351
 11
5.0245
 21
2.23705
  0
LINE
  8
0
 10
5.0245
 20
2.23705
 11
4.44959
 21
3.23282
  0
LINE
  8
0
 10
4.44959
 20
3.23282
 11
3.68022
 21
4.0873
  0
LINE
  8
0
 10
3.68022
 20
4.0873
 11
2.75
 21
4.76314
  0
LINE
  8
0
 10
2.75
 20
4.76314
 11
1.69959
 21
5.23081
  0
LINE
  8
0
 10
1.69959
 20
5.23081
 11
0.574907
 21
5.46987
  0
LINE
  8
0
 10
0.574907
 20
5.46987
 11
-0.574907
 21
5.46987
  0
LINE
  8
0
 10
-0.574907
 20
5.46987
 11
-1.69959
 21
5.23081
  0
LINE
  8
0
 10
-1.69959
 20
5.23081
 11
-2.75
 21
4.76314
  0
LINE
  8
0
 10
-2.75
 20
4.76314
 11
-3.68022
 21
4.0873
  0
LINE
  8
0
 10
-3.68022
 20
4.0873
 11
-4.44959
 21
3.23282
  0
LINE
  8
0
 10
-4.44959
 20
3.23282
 11
-19.4496
 21
-16.7672
  0
LINE
  8
0
 10
-19.4496
 20
-16.7672
 11
-20.0245
 21
-17.7629
  0
LINE
  8
0
 10
-20.0245
 20
-17.7629
 11
-20.3798
 21
-18.8565
  0
LINE
  8
0
 10
-20.3798
 20
-18.8565
 11
-20.5
 21
-20
  0
ENDSEC
  0
SECTION
  2
OBJECTS
  0
DICTIONARY
  0
ENDSEC
  0
EOF
