  0
SECTION
  2
BLOCKS
  0
ENDSEC
  0
SECTION
  2
ENTITIES
  0
LINE
  8
0
 10
-21.81
 20
184.17
 11
-5.5
 21
3.11605e-15
  0
LINE
  8
0
 10
-5.5
 20
3.11605e-15
 11
-5.37981
 21
-1.14351
  0
LINE
  8
0
 10
-5.37981
 20
-1.14351
 11
-5.0245
 21
-2.23705
  0
LINE
  8
0
 10
-5.0245
 20
-2.23705
 11
-4.44959
 21
-3.23282
  0
LINE
  8
0
 10
-4.44959
 20
-3.23282
 11
-3.68022
 21
-4.0873
  0
LINE
  8
0
 10
-3.68022
 20
-4.0873
 11
-2.75
 21
-4.76314
  0
LINE
  8
0
 10
-2.75
 20
-4.76314
 11
108.265
 21
-58.0889
  0
LINE
  8
0
 10
108.265
 20
-58.0889
 11
109.315
 21
-58.5566
  0
LINE
  8
0
 10
109.315
 20
-58.5566
 11
110.44
 21
-58.7957
  0
LINE
  8
0
 10
110.44
 20
-58.7957
 11
111.59
 21
-58.7957
  0
LINE
  8
0
 10
111.59
 20
-58.7957
 11
112.715
 21
-58.5566
  0
LINE
  8
0
 10
112.715
 20
-58.5566
 11
113.765
 21
-58.0889
  0
LINE
  8
0
 10
113.765
 20
-58.0889
 11
114.695
 21
-57.4131
  0
LINE
  8
0
 10
114.695
 20
-57.4131
 11
115.465
 21
-56.5586
  0
LINE
  8
0
 10
115.465
 20
-56.5586
 11
116.04
 21
-55.5629
  0
LINE
  8
0
 10
116.04
 20
-55.5629
 11
116.395
 21
-54.4693
  0
LINE
  8
0
 10
116.395
 20
-54.4693
 11
116.515
 21
-53.3258
  0
LINE
  8
0
 10
116.515
 20
-53.3258
 11
116.395
 21
-52.1823
  0
LINE
  8
0
 10
116.395
 20
-52.1823
 11
116.04
 21
-51.0888
  0
LINE
  8
0
 10
116.04
 20
-51.0888
 11
-11.2855
 21
186.407
  0
LINE
  8
0
 10
-11.2855
 20
186.407
 11
-11.8604
 21
187.403
  0
LINE
  8
0
 10
-11.8604
 20
187.403
 11
-12.6298
 21
188.257
  0
LINE
  8
0
 10
-12.6298
 20
188.257
 11
-13.56
 21
188.933
  0
LINE
  8
0
 10
-13.56
 20
188.933
 11
-14.6104
 21
189.401
  0
LINE
  8
0
 10
-14.6104
 20
189.401
 11
-15.7351
 21
189.64
  0
LINE
  8
0
 10
-15.7351
 20
189.64
 11
-16.8849
 21
189.64
  0
LINE
  8
0
 10
-16.8849
 20
189.64
 11
-18.0096
 21
189.401
  0
LINE
  8
0
 10
-18.0096
 20
189.401
 11
-19.06
 21
188.933
  0
LINE
  8
0
 10
-19.06
 20
188.933
 11
-19.9902
 21
188.257
  0
LINE
  8
0
 10
-19.9902
 20
188.257
 11
-20.7596
 21
187.403
  0
LINE
  8
0
 10
-20.7596
 20
187.403
 11
-21.3345
 21
186.407
  0
LINE
  8
0
 10
-21.3345
 20
186.407
 11
-21.6898
 21
185.314
  0
LINE
  8
0
 10
-21.6898
 20
185.314
 11
-21.81
 21
184.17
  0
ENDSEC
  0
SECTION
  2
OBJECTS
  0
DICTIONARY
  0
ENDSEC
  0
EOF
