  0
SECTION
  2
BLOCKS
  0
ENDSEC
  0
SECTION
  2
ENTITIES
  0
LINE
  8
0
 10
-21.81
 20
184.17
 11
-5.5
 21
3.11605e-15
  0
LINE
  8
0
 10
-5.5
 20
3.11605e-15
 11
-5.37981
 21
-1.14351
  0
LINE
  8
0
 10
-5.37981
 20
-1.14351
 11
-5.0245
 21
-2.23705
  0
LINE
  8
0
 10
-5.0245
 20
-2.23705
 11
-4.44959
 21
-3.23282
  0
LINE
  8
0
 10
-4.44959
 20
-3.23282
 11
46.0031
 21
-87.1178
  0
LINE
  8
0
 10
46.0031
 20
-87.1178
 11
46.7725
 21
-87.9723
  0
LINE
  8
0
 10
46.7725
 20
-87.9723
 11
47.7027
 21
-88.6482
  0
LINE
  8
0
 10
47.7027
 20
-88.6482
 11
48.7531
 21
-89.1158
  0
LINE
  8
0
 10
48.7531
 20
-89.1158
 11
49.8778
 21
-89.3549
  0
LINE
  8
0
 10
49.8778
 20
-89.3549
 11
51.0276
 21
-89.3549
  0
LINE
  8
0
 10
51.0276
 20
-89.3549
 11
52.1523
 21
-89.1158
  0
LINE
  8
0
 10
52.1523
 20
-89.1158
 11
53.2027
 21
-88.6482
  0
LINE
  8
0
 10
53.2027
 20
-88.6482
 11
54.1329
 21
-87.9723
  0
LINE
  8
0
 10
54.1329
 20
-87.9723
 11
54.9023
 21
-87.1178
  0
LINE
  8
0
 10
54.9023
 20
-87.1178
 11
55.4772
 21
-86.1221
  0
LINE
  8
0
 10
55.4772
 20
-86.1221
 11
55.8325
 21
-85.0285
  0
LINE
  8
0
 10
55.8325
 20
-85.0285
 11
55.9527
 21
-83.885
  0
LINE
  8
0
 10
55.9527
 20
-83.885
 11
55.8325
 21
-82.7415
  0
LINE
  8
0
 10
55.8325
 20
-82.7415
 11
-10.9302
 21
185.314
  0
LINE
  8
0
 10
-10.9302
 20
185.314
 11
-11.2855
 21
186.407
  0
LINE
  8
0
 10
-11.2855
 20
186.407
 11
-11.8604
 21
187.403
  0
LINE
  8
0
 10
-11.8604
 20
187.403
 11
-12.6298
 21
188.257
  0
LINE
  8
0
 10
-12.6298
 20
188.257
 11
-13.56
 21
188.933
  0
LINE
  8
0
 10
-13.56
 20
188.933
 11
-14.6104
 21
189.401
  0
LINE
  8
0
 10
-14.6104
 20
189.401
 11
-15.7351
 21
189.64
  0
LINE
  8
0
 10
-15.7351
 20
189.64
 11
-16.8849
 21
189.64
  0
LINE
  8
0
 10
-16.8849
 20
189.64
 11
-18.0096
 21
189.401
  0
LINE
  8
0
 10
-18.0096
 20
189.401
 11
-19.06
 21
188.933
  0
LINE
  8
0
 10
-19.06
 20
188.933
 11
-19.9902
 21
188.257
  0
LINE
  8
0
 10
-19.9902
 20
188.257
 11
-20.7596
 21
187.403
  0
LINE
  8
0
 10
-20.7596
 20
187.403
 11
-21.3345
 21
186.407
  0
LINE
  8
0
 10
-21.3345
 20
186.407
 11
-21.6898
 21
185.314
  0
LINE
  8
0
 10
-21.6898
 20
185.314
 11
-21.81
 21
184.17
  0
ENDSEC
  0
SECTION
  2
OBJECTS
  0
DICTIONARY
  0
ENDSEC
  0
EOF
