  0
SECTION
  2
BLOCKS
  0
ENDSEC
  0
SECTION
  2
ENTITIES
  0
LINE
  8
0
 10
-40.7918
 20
58.3504
 11
-40.1352
 21
58.5496
  0
LINE
  8
0
 10
-40.1352
 20
58.5496
 11
-39.5301
 21
58.8731
  0
LINE
  8
0
 10
-39.5301
 20
58.8731
 11
-38.9997
 21
59.3083
  0
LINE
  8
0
 10
-38.9997
 20
59.3083
 11
-38.5645
 21
59.8387
  0
LINE
  8
0
 10
-38.5645
 20
59.8387
 11
-38.241
 21
60.4438
  0
LINE
  8
0
 10
-38.241
 20
60.4438
 11
-38.0419
 21
61.1004
  0
LINE
  8
0
 10
-38.0419
 20
61.1004
 11
-37.9746
 21
61.7832
  0
LINE
  8
0
 10
-37.9746
 20
61.7832
 11
-38.0419
 21
62.466
  0
LINE
  8
0
 10
-38.0419
 20
62.466
 11
-38.241
 21
63.1226
  0
LINE
  8
0
 10
-38.241
 20
63.1226
 11
-38.5645
 21
63.7277
  0
LINE
  8
0
 10
-38.5645
 20
63.7277
 11
-38.9997
 21
64.2581
  0
LINE
  8
0
 10
-38.9997
 20
64.2581
 11
-39.5301
 21
64.6933
  0
LINE
  8
0
 10
-39.5301
 20
64.6933
 11
-40.1352
 21
65.0168
  0
LINE
  8
0
 10
-40.1352
 20
65.0168
 11
-40.7918
 21
65.2159
  0
LINE
  8
0
 10
-40.7918
 20
65.2159
 11
-41.4746
 21
65.2832
  0
LINE
  8
0
 10
-41.4746
 20
65.2832
 11
-42.1574
 21
65.2159
  0
LINE
  8
0
 10
-42.1574
 20
65.2159
 11
-42.814
 21
65.0168
  0
LINE
  8
0
 10
-42.814
 20
65.0168
 11
-43.4191
 21
64.6933
  0
LINE
  8
0
 10
-43.4191
 20
64.6933
 11
-43.9495
 21
64.2581
  0
LINE
  8
0
 10
-43.9495
 20
64.2581
 11
-44.3848
 21
63.7277
  0
LINE
  8
0
 10
-44.3848
 20
63.7277
 11
-44.7082
 21
63.1226
  0
LINE
  8
0
 10
-44.7082
 20
63.1226
 11
-44.9074
 21
62.466
  0
LINE
  8
0
 10
-44.9074
 20
62.466
 11
-44.9746
 21
61.7832
  0
LINE
  8
0
 10
-44.9746
 20
61.7832
 11
-44.9074
 21
61.1004
  0
LINE
  8
0
 10
-44.9074
 20
61.1004
 11
-44.7082
 21
60.4438
  0
LINE
  8
0
 10
-44.7082
 20
60.4438
 11
-44.3848
 21
59.8387
  0
LINE
  8
0
 10
-44.3848
 20
59.8387
 11
-43.9495
 21
59.3083
  0
LINE
  8
0
 10
-43.9495
 20
59.3083
 11
-43.4191
 21
58.8731
  0
LINE
  8
0
 10
-43.4191
 20
58.8731
 11
-42.814
 21
58.5496
  0
LINE
  8
0
 10
-42.814
 20
58.5496
 11
-42.1574
 21
58.3504
  0
LINE
  8
0
 10
-42.1574
 20
58.3504
 11
-41.4746
 21
58.2832
  0
LINE
  8
0
 10
-41.4746
 20
58.2832
 11
-40.7918
 21
58.3504
  0
LINE
  8
0
 10
0.682816
 20
-3.43274
 11
1.33939
 21
-3.23357
  0
LINE
  8
0
 10
1.33939
 20
-3.23357
 11
1.94449
 21
-2.91014
  0
LINE
  8
0
 10
1.94449
 20
-2.91014
 11
2.47487
 21
-2.47487
  0
LINE
  8
0
 10
2.47487
 20
-2.47487
 11
2.91014
 21
-1.94449
  0
LINE
  8
0
 10
2.91014
 20
-1.94449
 11
3.23357
 21
-1.33939
  0
LINE
  8
0
 10
3.23357
 20
-1.33939
 11
3.43274
 21
-0.682816
  0
LINE
  8
0
 10
3.43274
 20
-0.682816
 11
3.5
 21
0
  0
LINE
  8
0
 10
3.5
 20
0
 11
3.43274
 21
0.682816
  0
LINE
  8
0
 10
3.43274
 20
0.682816
 11
3.23357
 21
1.33939
  0
LINE
  8
0
 10
3.23357
 20
1.33939
 11
2.91014
 21
1.94449
  0
LINE
  8
0
 10
2.91014
 20
1.94449
 11
2.47487
 21
2.47487
  0
LINE
  8
0
 10
2.47487
 20
2.47487
 11
1.94449
 21
2.91014
  0
LINE
  8
0
 10
1.94449
 20
2.91014
 11
1.33939
 21
3.23357
  0
LINE
  8
0
 10
1.33939
 20
3.23357
 11
0.682816
 21
3.43274
  0
LINE
  8
0
 10
0.682816
 20
3.43274
 11
0
 21
3.5
  0
LINE
  8
0
 10
0
 20
3.5
 11
-0.682816
 21
3.43274
  0
LINE
  8
0
 10
-0.682816
 20
3.43274
 11
-1.33939
 21
3.23357
  0
LINE
  8
0
 10
-1.33939
 20
3.23357
 11
-1.94449
 21
2.91014
  0
LINE
  8
0
 10
-1.94449
 20
2.91014
 11
-2.47487
 21
2.47487
  0
LINE
  8
0
 10
-2.47487
 20
2.47487
 11
-2.91014
 21
1.94449
  0
LINE
  8
0
 10
-2.91014
 20
1.94449
 11
-3.23357
 21
1.33939
  0
LINE
  8
0
 10
-3.23357
 20
1.33939
 11
-3.43274
 21
0.682816
  0
LINE
  8
0
 10
-3.43274
 20
0.682816
 11
-3.5
 21
0
  0
LINE
  8
0
 10
-3.5
 20
0
 11
-3.43274
 21
-0.682816
  0
LINE
  8
0
 10
-3.43274
 20
-0.682816
 11
-3.23357
 21
-1.33939
  0
LINE
  8
0
 10
-3.23357
 20
-1.33939
 11
-2.91014
 21
-1.94449
  0
LINE
  8
0
 10
-2.91014
 20
-1.94449
 11
-2.47487
 21
-2.47487
  0
LINE
  8
0
 10
-2.47487
 20
-2.47487
 11
-1.94449
 21
-2.91014
  0
LINE
  8
0
 10
-1.94449
 20
-2.91014
 11
-1.33939
 21
-3.23357
  0
LINE
  8
0
 10
-1.33939
 20
-3.23357
 11
-0.682816
 21
-3.43274
  0
LINE
  8
0
 10
-0.682816
 20
-3.43274
 11
0
 21
-3.5
  0
LINE
  8
0
 10
0
 20
-3.5
 11
0.682816
 21
-3.43274
  0
ENDSEC
  0
SECTION
  2
OBJECTS
  0
DICTIONARY
  0
ENDSEC
  0
EOF
