  0
SECTION
  2
BLOCKS
  0
ENDSEC
  0
SECTION
  2
ENTITIES
  0
LINE
  8
0
 10
0.682816
 20
-3.43274
 11
1.33939
 21
-3.23357
  0
LINE
  8
0
 10
1.33939
 20
-3.23357
 11
1.94449
 21
-2.91014
  0
LINE
  8
0
 10
1.94449
 20
-2.91014
 11
2.47487
 21
-2.47487
  0
LINE
  8
0
 10
2.47487
 20
-2.47487
 11
2.91014
 21
-1.94449
  0
LINE
  8
0
 10
2.91014
 20
-1.94449
 11
3.23357
 21
-1.33939
  0
LINE
  8
0
 10
3.23357
 20
-1.33939
 11
3.43274
 21
-0.682816
  0
LINE
  8
0
 10
3.43274
 20
-0.682816
 11
3.5
 21
0
  0
LINE
  8
0
 10
3.5
 20
0
 11
3.43274
 21
0.682816
  0
LINE
  8
0
 10
3.43274
 20
0.682816
 11
3.23357
 21
1.33939
  0
LINE
  8
0
 10
3.23357
 20
1.33939
 11
2.91014
 21
1.94449
  0
LINE
  8
0
 10
2.91014
 20
1.94449
 11
2.47487
 21
2.47487
  0
LINE
  8
0
 10
2.47487
 20
2.47487
 11
1.94449
 21
2.91014
  0
LINE
  8
0
 10
1.94449
 20
2.91014
 11
1.33939
 21
3.23357
  0
LINE
  8
0
 10
1.33939
 20
3.23357
 11
0.682816
 21
3.43274
  0
LINE
  8
0
 10
0.682816
 20
3.43274
 11
0
 21
3.5
  0
LINE
  8
0
 10
0
 20
3.5
 11
-0.682816
 21
3.43274
  0
LINE
  8
0
 10
-0.682816
 20
3.43274
 11
-1.33939
 21
3.23357
  0
LINE
  8
0
 10
-1.33939
 20
3.23357
 11
-1.94449
 21
2.91014
  0
LINE
  8
0
 10
-1.94449
 20
2.91014
 11
-2.47487
 21
2.47487
  0
LINE
  8
0
 10
-2.47487
 20
2.47487
 11
-2.91014
 21
1.94449
  0
LINE
  8
0
 10
-2.91014
 20
1.94449
 11
-3.23357
 21
1.33939
  0
LINE
  8
0
 10
-3.23357
 20
1.33939
 11
-3.43274
 21
0.682816
  0
LINE
  8
0
 10
-3.43274
 20
0.682816
 11
-3.5
 21
0
  0
LINE
  8
0
 10
-3.5
 20
0
 11
-3.43274
 21
-0.682816
  0
LINE
  8
0
 10
-3.43274
 20
-0.682816
 11
-3.23357
 21
-1.33939
  0
LINE
  8
0
 10
-3.23357
 20
-1.33939
 11
-2.91014
 21
-1.94449
  0
LINE
  8
0
 10
-2.91014
 20
-1.94449
 11
-2.47487
 21
-2.47487
  0
LINE
  8
0
 10
-2.47487
 20
-2.47487
 11
-1.94449
 21
-2.91014
  0
LINE
  8
0
 10
-1.94449
 20
-2.91014
 11
-1.33939
 21
-3.23357
  0
LINE
  8
0
 10
-1.33939
 20
-3.23357
 11
-0.682816
 21
-3.43274
  0
LINE
  8
0
 10
-0.682816
 20
-3.43274
 11
0
 21
-3.5
  0
LINE
  8
0
 10
0
 20
-3.5
 11
0.682816
 21
-3.43274
  0
LINE
  8
0
 10
14.0483
 20
-19.824
 11
14.7049
 21
-19.6248
  0
LINE
  8
0
 10
14.7049
 20
-19.6248
 11
15.31
 21
-19.3014
  0
LINE
  8
0
 10
15.31
 20
-19.3014
 11
15.8404
 21
-18.8661
  0
LINE
  8
0
 10
15.8404
 20
-18.8661
 11
16.2756
 21
-18.3358
  0
LINE
  8
0
 10
16.2756
 20
-18.3358
 11
16.5991
 21
-17.7307
  0
LINE
  8
0
 10
16.5991
 20
-17.7307
 11
16.7982
 21
-17.0741
  0
LINE
  8
0
 10
16.7982
 20
-17.0741
 11
16.8655
 21
-16.3913
  0
LINE
  8
0
 10
16.8655
 20
-16.3913
 11
16.7982
 21
-15.7085
  0
LINE
  8
0
 10
16.7982
 20
-15.7085
 11
16.5991
 21
-15.0519
  0
LINE
  8
0
 10
16.5991
 20
-15.0519
 11
16.2756
 21
-14.4468
  0
LINE
  8
0
 10
16.2756
 20
-14.4468
 11
15.8404
 21
-13.9164
  0
LINE
  8
0
 10
15.8404
 20
-13.9164
 11
15.31
 21
-13.4811
  0
LINE
  8
0
 10
15.31
 20
-13.4811
 11
14.7049
 21
-13.1577
  0
LINE
  8
0
 10
14.7049
 20
-13.1577
 11
14.0483
 21
-12.9585
  0
LINE
  8
0
 10
14.0483
 20
-12.9585
 11
13.3655
 21
-12.8913
  0
LINE
  8
0
 10
13.3655
 20
-12.8913
 11
12.6827
 21
-12.9585
  0
LINE
  8
0
 10
12.6827
 20
-12.9585
 11
12.0261
 21
-13.1577
  0
LINE
  8
0
 10
12.0261
 20
-13.1577
 11
11.421
 21
-13.4811
  0
LINE
  8
0
 10
11.421
 20
-13.4811
 11
10.8906
 21
-13.9164
  0
LINE
  8
0
 10
10.8906
 20
-13.9164
 11
10.4553
 21
-14.4468
  0
LINE
  8
0
 10
10.4553
 20
-14.4468
 11
10.1319
 21
-15.0519
  0
LINE
  8
0
 10
10.1319
 20
-15.0519
 11
9.93274
 21
-15.7085
  0
LINE
  8
0
 10
9.93274
 20
-15.7085
 11
9.86548
 21
-16.3913
  0
LINE
  8
0
 10
9.86548
 20
-16.3913
 11
9.93274
 21
-17.0741
  0
LINE
  8
0
 10
9.93274
 20
-17.0741
 11
10.1319
 21
-17.7307
  0
LINE
  8
0
 10
10.1319
 20
-17.7307
 11
10.4553
 21
-18.3358
  0
LINE
  8
0
 10
10.4553
 20
-18.3358
 11
10.8906
 21
-18.8661
  0
LINE
  8
0
 10
10.8906
 20
-18.8661
 11
11.421
 21
-19.3014
  0
LINE
  8
0
 10
11.421
 20
-19.3014
 11
12.0261
 21
-19.6248
  0
LINE
  8
0
 10
12.0261
 20
-19.6248
 11
12.6827
 21
-19.824
  0
LINE
  8
0
 10
12.6827
 20
-19.824
 11
13.3655
 21
-19.8913
  0
LINE
  8
0
 10
13.3655
 20
-19.8913
 11
14.0483
 21
-19.824
  0
ENDSEC
  0
SECTION
  2
OBJECTS
  0
DICTIONARY
  0
ENDSEC
  0
EOF
