  0
SECTION
  2
BLOCKS
  0
ENDSEC
  0
SECTION
  2
ENTITIES
  0
LINE
  8
0
 10
0.682816
 20
-3.43274
 11
1.33939
 21
-3.23357
  0
LINE
  8
0
 10
1.33939
 20
-3.23357
 11
1.94449
 21
-2.91014
  0
LINE
  8
0
 10
1.94449
 20
-2.91014
 11
2.47487
 21
-2.47487
  0
LINE
  8
0
 10
2.47487
 20
-2.47487
 11
2.91014
 21
-1.94449
  0
LINE
  8
0
 10
2.91014
 20
-1.94449
 11
3.23357
 21
-1.33939
  0
LINE
  8
0
 10
3.23357
 20
-1.33939
 11
3.43274
 21
-0.682816
  0
LINE
  8
0
 10
3.43274
 20
-0.682816
 11
3.5
 21
0
  0
LINE
  8
0
 10
3.5
 20
0
 11
3.43274
 21
0.682816
  0
LINE
  8
0
 10
3.43274
 20
0.682816
 11
3.23357
 21
1.33939
  0
LINE
  8
0
 10
3.23357
 20
1.33939
 11
2.91014
 21
1.94449
  0
LINE
  8
0
 10
2.91014
 20
1.94449
 11
2.47487
 21
2.47487
  0
LINE
  8
0
 10
2.47487
 20
2.47487
 11
1.94449
 21
2.91014
  0
LINE
  8
0
 10
1.94449
 20
2.91014
 11
1.33939
 21
3.23357
  0
LINE
  8
0
 10
1.33939
 20
3.23357
 11
0.682816
 21
3.43274
  0
LINE
  8
0
 10
0.682816
 20
3.43274
 11
0
 21
3.5
  0
LINE
  8
0
 10
0
 20
3.5
 11
-0.682816
 21
3.43274
  0
LINE
  8
0
 10
-0.682816
 20
3.43274
 11
-1.33939
 21
3.23357
  0
LINE
  8
0
 10
-1.33939
 20
3.23357
 11
-1.94449
 21
2.91014
  0
LINE
  8
0
 10
-1.94449
 20
2.91014
 11
-2.47487
 21
2.47487
  0
LINE
  8
0
 10
-2.47487
 20
2.47487
 11
-2.91014
 21
1.94449
  0
LINE
  8
0
 10
-2.91014
 20
1.94449
 11
-3.23357
 21
1.33939
  0
LINE
  8
0
 10
-3.23357
 20
1.33939
 11
-3.43274
 21
0.682816
  0
LINE
  8
0
 10
-3.43274
 20
0.682816
 11
-3.5
 21
0
  0
LINE
  8
0
 10
-3.5
 20
0
 11
-3.43274
 21
-0.682816
  0
LINE
  8
0
 10
-3.43274
 20
-0.682816
 11
-3.23357
 21
-1.33939
  0
LINE
  8
0
 10
-3.23357
 20
-1.33939
 11
-2.91014
 21
-1.94449
  0
LINE
  8
0
 10
-2.91014
 20
-1.94449
 11
-2.47487
 21
-2.47487
  0
LINE
  8
0
 10
-2.47487
 20
-2.47487
 11
-1.94449
 21
-2.91014
  0
LINE
  8
0
 10
-1.94449
 20
-2.91014
 11
-1.33939
 21
-3.23357
  0
LINE
  8
0
 10
-1.33939
 20
-3.23357
 11
-0.682816
 21
-3.43274
  0
LINE
  8
0
 10
-0.682816
 20
-3.43274
 11
0
 21
-3.5
  0
LINE
  8
0
 10
0
 20
-3.5
 11
0.682816
 21
-3.43274
  0
LINE
  8
0
 10
9.15404
 20
-6.20979
 11
9.81061
 21
-6.01062
  0
LINE
  8
0
 10
9.81061
 20
-6.01062
 11
10.4157
 21
-5.68718
  0
LINE
  8
0
 10
10.4157
 20
-5.68718
 11
10.9461
 21
-5.25192
  0
LINE
  8
0
 10
10.9461
 20
-5.25192
 11
11.3814
 21
-4.72154
  0
LINE
  8
0
 10
11.3814
 20
-4.72154
 11
11.7048
 21
-4.11644
  0
LINE
  8
0
 10
11.7048
 20
-4.11644
 11
11.904
 21
-3.45985
  0
LINE
  8
0
 10
11.904
 20
-3.45985
 11
11.9712
 21
-2.77704
  0
LINE
  8
0
 10
11.9712
 20
-2.77704
 11
11.904
 21
-2.09422
  0
LINE
  8
0
 10
11.904
 20
-2.09422
 11
11.7048
 21
-1.43765
  0
LINE
  8
0
 10
11.7048
 20
-1.43765
 11
11.3814
 21
-0.83255
  0
LINE
  8
0
 10
11.3814
 20
-0.83255
 11
10.9461
 21
-0.30217
  0
LINE
  8
0
 10
10.9461
 20
-0.30217
 11
10.4157
 21
0.133087
  0
LINE
  8
0
 10
10.4157
 20
0.133087
 11
9.81061
 21
0.456512
  0
LINE
  8
0
 10
9.81061
 20
0.456512
 11
9.15404
 21
0.655685
  0
LINE
  8
0
 10
9.15404
 20
0.655685
 11
8.47122
 21
0.722946
  0
LINE
  8
0
 10
8.47122
 20
0.722946
 11
7.78841
 21
0.655685
  0
LINE
  8
0
 10
7.78841
 20
0.655685
 11
7.13182
 21
0.456512
  0
LINE
  8
0
 10
7.13182
 20
0.456512
 11
6.52672
 21
0.133087
  0
LINE
  8
0
 10
6.52672
 20
0.133087
 11
5.99634
 21
-0.30217
  0
LINE
  8
0
 10
5.99634
 20
-0.30217
 11
5.56107
 21
-0.83255
  0
LINE
  8
0
 10
5.56107
 20
-0.83255
 11
5.23764
 21
-1.43765
  0
LINE
  8
0
 10
5.23764
 20
-1.43765
 11
5.03847
 21
-2.09422
  0
LINE
  8
0
 10
5.03847
 20
-2.09422
 11
4.97122
 21
-2.77704
  0
LINE
  8
0
 10
4.97122
 20
-2.77704
 11
5.03847
 21
-3.45985
  0
LINE
  8
0
 10
5.03847
 20
-3.45985
 11
5.23764
 21
-4.11644
  0
LINE
  8
0
 10
5.23764
 20
-4.11644
 11
5.56107
 21
-4.72154
  0
LINE
  8
0
 10
5.56107
 20
-4.72154
 11
5.99634
 21
-5.25192
  0
LINE
  8
0
 10
5.99634
 20
-5.25192
 11
6.52672
 21
-5.68718
  0
LINE
  8
0
 10
6.52672
 20
-5.68718
 11
7.13182
 21
-6.01062
  0
LINE
  8
0
 10
7.13182
 20
-6.01062
 11
7.78841
 21
-6.20979
  0
LINE
  8
0
 10
7.78841
 20
-6.20979
 11
8.47122
 21
-6.27704
  0
LINE
  8
0
 10
8.47122
 20
-6.27704
 11
9.15404
 21
-6.20979
  0
ENDSEC
  0
SECTION
  2
OBJECTS
  0
DICTIONARY
  0
ENDSEC
  0
EOF
