  0
SECTION
  2
BLOCKS
  0
ENDSEC
  0
SECTION
  2
ENTITIES
  0
LINE
  8
0
 10
16.5328
 20
180.737
 11
17.1894
 21
180.936
  0
LINE
  8
0
 10
17.1894
 20
180.936
 11
17.7945
 21
181.26
  0
LINE
  8
0
 10
17.7945
 20
181.26
 11
18.3249
 21
181.695
  0
LINE
  8
0
 10
18.3249
 20
181.695
 11
18.7601
 21
182.225
  0
LINE
  8
0
 10
18.7601
 20
182.225
 11
19.0836
 21
182.831
  0
LINE
  8
0
 10
19.0836
 20
182.831
 11
19.2827
 21
183.487
  0
LINE
  8
0
 10
19.2827
 20
183.487
 11
19.35
 21
184.17
  0
LINE
  8
0
 10
19.35
 20
184.17
 11
19.2827
 21
184.853
  0
LINE
  8
0
 10
19.2827
 20
184.853
 11
19.0836
 21
185.509
  0
LINE
  8
0
 10
19.0836
 20
185.509
 11
18.7601
 21
186.114
  0
LINE
  8
0
 10
18.7601
 20
186.114
 11
18.3249
 21
186.645
  0
LINE
  8
0
 10
18.3249
 20
186.645
 11
17.7945
 21
187.08
  0
LINE
  8
0
 10
17.7945
 20
187.08
 11
17.1894
 21
187.404
  0
LINE
  8
0
 10
17.1894
 20
187.404
 11
16.5328
 21
187.603
  0
LINE
  8
0
 10
16.5328
 20
187.603
 11
15.85
 21
187.67
  0
LINE
  8
0
 10
15.85
 20
187.67
 11
15.1672
 21
187.603
  0
LINE
  8
0
 10
15.1672
 20
187.603
 11
14.5106
 21
187.404
  0
LINE
  8
0
 10
14.5106
 20
187.404
 11
13.9055
 21
187.08
  0
LINE
  8
0
 10
13.9055
 20
187.08
 11
13.3751
 21
186.645
  0
LINE
  8
0
 10
13.3751
 20
186.645
 11
12.9398
 21
186.114
  0
LINE
  8
0
 10
12.9398
 20
186.114
 11
12.6164
 21
185.509
  0
LINE
  8
0
 10
12.6164
 20
185.509
 11
12.4172
 21
184.853
  0
LINE
  8
0
 10
12.4172
 20
184.853
 11
12.35
 21
184.17
  0
LINE
  8
0
 10
12.35
 20
184.17
 11
12.4172
 21
183.487
  0
LINE
  8
0
 10
12.4172
 20
183.487
 11
12.6164
 21
182.831
  0
LINE
  8
0
 10
12.6164
 20
182.831
 11
12.9398
 21
182.225
  0
LINE
  8
0
 10
12.9398
 20
182.225
 11
13.3751
 21
181.695
  0
LINE
  8
0
 10
13.3751
 20
181.695
 11
13.9055
 21
181.26
  0
LINE
  8
0
 10
13.9055
 20
181.26
 11
14.5106
 21
180.936
  0
LINE
  8
0
 10
14.5106
 20
180.936
 11
15.1672
 21
180.737
  0
LINE
  8
0
 10
15.1672
 20
180.737
 11
15.85
 21
180.67
  0
LINE
  8
0
 10
15.85
 20
180.67
 11
16.5328
 21
180.737
  0
LINE
  8
0
 10
0.682816
 20
-3.43274
 11
1.33939
 21
-3.23357
  0
LINE
  8
0
 10
1.33939
 20
-3.23357
 11
1.94449
 21
-2.91014
  0
LINE
  8
0
 10
1.94449
 20
-2.91014
 11
2.47487
 21
-2.47487
  0
LINE
  8
0
 10
2.47487
 20
-2.47487
 11
2.91014
 21
-1.94449
  0
LINE
  8
0
 10
2.91014
 20
-1.94449
 11
3.23357
 21
-1.33939
  0
LINE
  8
0
 10
3.23357
 20
-1.33939
 11
3.43274
 21
-0.682816
  0
LINE
  8
0
 10
3.43274
 20
-0.682816
 11
3.5
 21
0
  0
LINE
  8
0
 10
3.5
 20
0
 11
3.43274
 21
0.682816
  0
LINE
  8
0
 10
3.43274
 20
0.682816
 11
3.23357
 21
1.33939
  0
LINE
  8
0
 10
3.23357
 20
1.33939
 11
2.91014
 21
1.94449
  0
LINE
  8
0
 10
2.91014
 20
1.94449
 11
2.47487
 21
2.47487
  0
LINE
  8
0
 10
2.47487
 20
2.47487
 11
1.94449
 21
2.91014
  0
LINE
  8
0
 10
1.94449
 20
2.91014
 11
1.33939
 21
3.23357
  0
LINE
  8
0
 10
1.33939
 20
3.23357
 11
0.682816
 21
3.43274
  0
LINE
  8
0
 10
0.682816
 20
3.43274
 11
0
 21
3.5
  0
LINE
  8
0
 10
0
 20
3.5
 11
-0.682816
 21
3.43274
  0
LINE
  8
0
 10
-0.682816
 20
3.43274
 11
-1.33939
 21
3.23357
  0
LINE
  8
0
 10
-1.33939
 20
3.23357
 11
-1.94449
 21
2.91014
  0
LINE
  8
0
 10
-1.94449
 20
2.91014
 11
-2.47487
 21
2.47487
  0
LINE
  8
0
 10
-2.47487
 20
2.47487
 11
-2.91014
 21
1.94449
  0
LINE
  8
0
 10
-2.91014
 20
1.94449
 11
-3.23357
 21
1.33939
  0
LINE
  8
0
 10
-3.23357
 20
1.33939
 11
-3.43274
 21
0.682816
  0
LINE
  8
0
 10
-3.43274
 20
0.682816
 11
-3.5
 21
0
  0
LINE
  8
0
 10
-3.5
 20
0
 11
-3.43274
 21
-0.682816
  0
LINE
  8
0
 10
-3.43274
 20
-0.682816
 11
-3.23357
 21
-1.33939
  0
LINE
  8
0
 10
-3.23357
 20
-1.33939
 11
-2.91014
 21
-1.94449
  0
LINE
  8
0
 10
-2.91014
 20
-1.94449
 11
-2.47487
 21
-2.47487
  0
LINE
  8
0
 10
-2.47487
 20
-2.47487
 11
-1.94449
 21
-2.91014
  0
LINE
  8
0
 10
-1.94449
 20
-2.91014
 11
-1.33939
 21
-3.23357
  0
LINE
  8
0
 10
-1.33939
 20
-3.23357
 11
-0.682816
 21
-3.43274
  0
LINE
  8
0
 10
-0.682816
 20
-3.43274
 11
0
 21
-3.5
  0
LINE
  8
0
 10
0
 20
-3.5
 11
0.682816
 21
-3.43274
  0
LINE
  8
0
 10
15.575
 20
-21.7193
 11
16.2316
 21
-21.5202
  0
LINE
  8
0
 10
16.2316
 20
-21.5202
 11
16.8367
 21
-21.1967
  0
LINE
  8
0
 10
16.8367
 20
-21.1967
 11
17.3671
 21
-20.7615
  0
LINE
  8
0
 10
17.3671
 20
-20.7615
 11
17.8024
 21
-20.2311
  0
LINE
  8
0
 10
17.8024
 20
-20.2311
 11
18.1258
 21
-19.626
  0
LINE
  8
0
 10
18.1258
 20
-19.626
 11
18.325
 21
-18.9694
  0
LINE
  8
0
 10
18.325
 20
-18.9694
 11
18.3922
 21
-18.2866
  0
LINE
  8
0
 10
18.3922
 20
-18.2866
 11
18.325
 21
-17.6038
  0
LINE
  8
0
 10
18.325
 20
-17.6038
 11
18.1258
 21
-16.9472
  0
LINE
  8
0
 10
18.1258
 20
-16.9472
 11
17.8024
 21
-16.3421
  0
LINE
  8
0
 10
17.8024
 20
-16.3421
 11
17.3671
 21
-15.8117
  0
LINE
  8
0
 10
17.3671
 20
-15.8117
 11
16.8367
 21
-15.3764
  0
LINE
  8
0
 10
16.8367
 20
-15.3764
 11
16.2316
 21
-15.053
  0
LINE
  8
0
 10
16.2316
 20
-15.053
 11
15.575
 21
-14.8538
  0
LINE
  8
0
 10
15.575
 20
-14.8538
 11
14.8922
 21
-14.7866
  0
LINE
  8
0
 10
14.8922
 20
-14.7866
 11
14.2094
 21
-14.8538
  0
LINE
  8
0
 10
14.2094
 20
-14.8538
 11
13.5528
 21
-15.053
  0
LINE
  8
0
 10
13.5528
 20
-15.053
 11
12.9477
 21
-15.3764
  0
LINE
  8
0
 10
12.9477
 20
-15.3764
 11
12.4173
 21
-15.8117
  0
LINE
  8
0
 10
12.4173
 20
-15.8117
 11
11.9821
 21
-16.3421
  0
LINE
  8
0
 10
11.9821
 20
-16.3421
 11
11.6586
 21
-16.9472
  0
LINE
  8
0
 10
11.6586
 20
-16.9472
 11
11.4595
 21
-17.6038
  0
LINE
  8
0
 10
11.4595
 20
-17.6038
 11
11.3922
 21
-18.2866
  0
LINE
  8
0
 10
11.3922
 20
-18.2866
 11
11.4595
 21
-18.9694
  0
LINE
  8
0
 10
11.4595
 20
-18.9694
 11
11.6586
 21
-19.626
  0
LINE
  8
0
 10
11.6586
 20
-19.626
 11
11.9821
 21
-20.2311
  0
LINE
  8
0
 10
11.9821
 20
-20.2311
 11
12.4173
 21
-20.7615
  0
LINE
  8
0
 10
12.4173
 20
-20.7615
 11
12.9477
 21
-21.1967
  0
LINE
  8
0
 10
12.9477
 20
-21.1967
 11
13.5528
 21
-21.5202
  0
LINE
  8
0
 10
13.5528
 20
-21.5202
 11
14.2094
 21
-21.7193
  0
LINE
  8
0
 10
14.2094
 20
-21.7193
 11
14.8922
 21
-21.7866
  0
LINE
  8
0
 10
14.8922
 20
-21.7866
 11
15.575
 21
-21.7193
  0
ENDSEC
  0
SECTION
  2
OBJECTS
  0
DICTIONARY
  0
ENDSEC
  0
EOF
