  0
SECTION
  2
BLOCKS
  0
ENDSEC
  0
SECTION
  2
ENTITIES
  0
LINE
  8
0
 10
3.85799
 20
0.575989
 11
1.12
 21
0.575989
  0
LINE
  8
0
 10
1.12
 20
0.575989
 11
1.16893
 21
0.680496
  0
LINE
  8
0
 10
1.16893
 20
0.680496
 11
1.22675
 21
0.78299
  0
LINE
  8
0
 10
1.22675
 20
0.78299
 11
1.29343
 21
0.883499
  0
LINE
  8
0
 10
1.29343
 20
0.883499
 11
1.36899
 21
0.981995
  0
LINE
  8
0
 10
1.36899
 20
0.981995
 11
1.45212
 21
1.07912
  0
LINE
  8
0
 10
1.45212
 20
1.07912
 11
1.5405
 21
1.17549
  0
LINE
  8
0
 10
1.5405
 20
1.17549
 11
1.63412
 21
1.27112
  0
LINE
  8
0
 10
1.63412
 20
1.27112
 11
1.73299
 21
1.366
  0
LINE
  8
0
 10
1.73299
 20
1.366
 11
1.83624
 21
1.46037
  0
LINE
  8
0
 10
1.83624
 20
1.46037
 11
1.94299
 21
1.55449
  0
LINE
  8
0
 10
1.94299
 20
1.55449
 11
2.05324
 21
1.64836
  0
LINE
  8
0
 10
2.05324
 20
1.64836
 11
2.625
 21
2.12099
  0
LINE
  8
0
 10
2.625
 20
2.12099
 11
2.7373
 21
2.21706
  0
LINE
  8
0
 10
2.7373
 20
2.21706
 11
2.84724
 21
2.31424
  0
LINE
  8
0
 10
2.84724
 20
2.31424
 11
2.9548
 21
2.41255
  0
LINE
  8
0
 10
2.9548
 20
2.41255
 11
3.06
 21
2.51199
  0
LINE
  8
0
 10
3.06
 20
2.51199
 11
3.1613
 21
2.61293
  0
LINE
  8
0
 10
3.1613
 20
2.61293
 11
3.25624
 21
2.71574
  0
LINE
  8
0
 10
3.25624
 20
2.71574
 11
3.3448
 21
2.82043
  0
LINE
  8
0
 10
3.3448
 20
2.82043
 11
3.42699
 21
2.92699
  0
LINE
  8
0
 10
3.42699
 20
2.92699
 11
3.50249
 21
3.03587
  0
LINE
  8
0
 10
3.50249
 20
3.03587
 11
3.56999
 21
3.14749
  0
LINE
  8
0
 10
3.56999
 20
3.14749
 11
3.62949
 21
3.26187
  0
LINE
  8
0
 10
3.62949
 20
3.26187
 11
3.681
 21
3.379
  0
LINE
  8
0
 10
3.681
 20
3.379
 11
3.72255
 21
3.49956
  0
LINE
  8
0
 10
3.72255
 20
3.49956
 11
3.75224
 21
3.62325
  0
LINE
  8
0
 10
3.75224
 20
3.62325
 11
3.77005
 21
3.75006
  0
LINE
  8
0
 10
3.77005
 20
3.75006
 11
3.77599
 21
3.87999
  0
LINE
  8
0
 10
3.77599
 20
3.87999
 11
3.76894
 21
4.04936
  0
LINE
  8
0
 10
3.76894
 20
4.04936
 11
3.74774
 21
4.2085
  0
LINE
  8
0
 10
3.74774
 20
4.2085
 11
3.71243
 21
4.35736
  0
LINE
  8
0
 10
3.71243
 20
4.35736
 11
3.66299
 21
4.49599
  0
LINE
  8
0
 10
3.66299
 20
4.49599
 11
3.60068
 21
4.62418
  0
LINE
  8
0
 10
3.60068
 20
4.62418
 11
3.52574
 21
4.74174
  0
LINE
  8
0
 10
3.52574
 20
4.74174
 11
3.43819
 21
4.84868
  0
LINE
  8
0
 10
3.43819
 20
4.84868
 11
3.338
 21
4.94499
  0
LINE
  8
0
 10
3.338
 20
4.94499
 11
3.226
 21
5.03036
  0
LINE
  8
0
 10
3.226
 20
5.03036
 11
3.10199
 21
5.10449
  0
LINE
  8
0
 10
3.10199
 20
5.10449
 11
2.96599
 21
5.16737
  0
LINE
  8
0
 10
2.96599
 20
5.16737
 11
2.81799
 21
5.21899
  0
LINE
  8
0
 10
2.81799
 20
5.21899
 11
2.65862
 21
5.25967
  0
LINE
  8
0
 10
2.65862
 20
5.25967
 11
2.48849
 21
5.28874
  0
LINE
  8
0
 10
2.48849
 20
5.28874
 11
2.30762
 21
5.30618
  0
LINE
  8
0
 10
2.30762
 20
5.30618
 11
2.116
 21
5.312
  0
LINE
  8
0
 10
2.116
 20
5.312
 11
1.92093
 21
5.30524
  0
LINE
  8
0
 10
1.92093
 20
5.30524
 11
1.73775
 21
5.28499
  0
LINE
  8
0
 10
1.73775
 20
5.28499
 11
1.56644
 21
5.25124
  0
LINE
  8
0
 10
1.56644
 20
5.25124
 11
1.407
 21
5.20399
  0
LINE
  8
0
 10
1.407
 20
5.20399
 11
1.25949
 21
5.14499
  0
LINE
  8
0
 10
1.25949
 20
5.14499
 11
1.12299
 21
5.07599
  0
LINE
  8
0
 10
1.12299
 20
5.07599
 11
0.997498
 21
4.99699
  0
LINE
  8
0
 10
0.997498
 20
4.99699
 11
0.882996
 21
4.90799
  0
LINE
  8
0
 10
0.882996
 20
4.90799
 11
0.780304
 21
4.81018
  0
LINE
  8
0
 10
0.780304
 20
4.81018
 11
0.68924
 21
4.70474
  0
LINE
  8
0
 10
0.68924
 20
4.70474
 11
0.609802
 21
4.59167
  0
LINE
  8
0
 10
0.609802
 20
4.59167
 11
0.541992
 21
4.47099
  0
LINE
  8
0
 10
0.541992
 20
4.47099
 11
0.485611
 21
4.34436
  0
LINE
  8
0
 10
0.485611
 20
4.34436
 11
0.440491
 21
4.21349
  0
LINE
  8
0
 10
0.440491
 20
4.21349
 11
0.406616
 21
4.07837
  0
LINE
  8
0
 10
0.406616
 20
4.07837
 11
0.383987
 21
3.939
  0
LINE
  8
0
 10
0.383987
 20
3.939
 11
1.088
 21
3.87599
  0
LINE
  8
0
 10
1.088
 20
3.87599
 11
1.1048
 21
3.97925
  0
LINE
  8
0
 10
1.1048
 20
3.97925
 11
1.12924
 21
4.07599
  0
LINE
  8
0
 10
1.12924
 20
4.07599
 11
1.1613
 21
4.16624
  0
LINE
  8
0
 10
1.1613
 20
4.16624
 11
1.20099
 21
4.25
  0
LINE
  8
0
 10
1.20099
 20
4.25
 11
1.24806
 21
4.32718
  0
LINE
  8
0
 10
1.24806
 20
4.32718
 11
1.30124
 21
4.39774
  0
LINE
  8
0
 10
1.30124
 20
4.39774
 11
1.36055
 21
4.46169
  0
LINE
  8
0
 10
1.36055
 20
4.46169
 11
1.42599
 21
4.519
  0
LINE
  8
0
 10
1.42599
 20
4.519
 11
1.49736
 21
4.57005
  0
LINE
  8
0
 10
1.49736
 20
4.57005
 11
1.57349
 21
4.61424
  0
LINE
  8
0
 10
1.57349
 20
4.61424
 11
1.65437
 21
4.65155
  0
LINE
  8
0
 10
1.65437
 20
4.65155
 11
1.73999
 21
4.68199
  0
LINE
  8
0
 10
1.73999
 20
4.68199
 11
1.82993
 21
4.70561
  0
LINE
  8
0
 10
1.82993
 20
4.70561
 11
1.92274
 21
4.72249
  0
LINE
  8
0
 10
1.92274
 20
4.72249
 11
2.01843
 21
4.73262
  0
LINE
  8
0
 10
2.01843
 20
4.73262
 11
2.11699
 21
4.73599
  0
LINE
  8
0
 10
2.11699
 20
4.73599
 11
2.22249
 21
4.7325
  0
LINE
  8
0
 10
2.22249
 20
4.7325
 11
2.323
 21
4.72198
  0
LINE
  8
0
 10
2.323
 20
4.72198
 11
2.41849
 21
4.7045
  0
LINE
  8
0
 10
2.41849
 20
4.7045
 11
2.50899
 21
4.67999
  0
LINE
  8
0
 10
2.50899
 20
4.67999
 11
2.5943
 21
4.6485
  0
LINE
  8
0
 10
2.5943
 20
4.6485
 11
2.67325
 21
4.60999
  0
LINE
  8
0
 10
2.67325
 20
4.60999
 11
2.7458
 21
4.5645
  0
LINE
  8
0
 10
2.7458
 20
4.5645
 11
2.812
 21
4.51199
  0
LINE
  8
0
 10
2.812
 20
4.51199
 11
2.87131
 21
4.45319
  0
LINE
  8
0
 10
2.87131
 20
4.45319
 11
2.92325
 21
4.38774
  0
LINE
  8
0
 10
2.92325
 20
4.38774
 11
2.9678
 21
4.31567
  0
LINE
  8
0
 10
2.9678
 20
4.31567
 11
3.00499
 21
4.237
  0
LINE
  8
0
 10
3.00499
 20
4.237
 11
3.0343
 21
4.15218
  0
LINE
  8
0
 10
3.0343
 20
4.15218
 11
3.05524
 21
4.06075
  0
LINE
  8
0
 10
3.05524
 20
4.06075
 11
3.06781
 21
3.96268
  0
LINE
  8
0
 10
3.06781
 20
3.96268
 11
3.07199
 21
3.85799
  0
LINE
  8
0
 10
3.07199
 20
3.85799
 11
3.06287
 21
3.70262
  0
LINE
  8
0
 10
3.06287
 20
3.70262
 11
3.03549
 21
3.5555
  0
LINE
  8
0
 10
3.03549
 20
3.5555
 11
2.98987
 21
3.41661
  0
LINE
  8
0
 10
2.98987
 20
3.41661
 11
2.92599
 21
3.286
  0
LINE
  8
0
 10
2.92599
 20
3.286
 11
2.84731
 21
3.16136
  0
LINE
  8
0
 10
2.84731
 20
3.16136
 11
2.75725
 21
3.03949
  0
LINE
  8
0
 10
2.75725
 20
3.03949
 11
2.65581
 21
2.92036
  0
LINE
  8
0
 10
2.65581
 20
2.92036
 11
2.543
 21
2.80399
  0
LINE
  8
0
 10
2.543
 20
2.80399
 11
2.42087
 21
2.689
  0
LINE
  8
0
 10
2.42087
 20
2.689
 11
2.29149
 21
2.57399
  0
LINE
  8
0
 10
2.29149
 20
2.57399
 11
2.15486
 21
2.459
  0
LINE
  8
0
 10
2.15486
 20
2.459
 11
1.86362
 21
2.22656
  0
LINE
  8
0
 10
1.86362
 20
2.22656
 11
1.7155
 21
2.10425
  0
LINE
  8
0
 10
1.7155
 20
2.10425
 11
1.56662
 21
1.97705
  0
LINE
  8
0
 10
1.56662
 20
1.97705
 11
1.41699
 21
1.84499
  0
LINE
  8
0
 10
1.41699
 20
1.84499
 11
1.26874
 21
1.70656
  0
LINE
  8
0
 10
1.26874
 20
1.70656
 11
1.12399
 21
1.56024
  0
LINE
  8
0
 10
1.12399
 20
1.56024
 11
0.982742
 21
1.40605
  0
LINE
  8
0
 10
0.982742
 20
1.40605
 11
0.844986
 21
1.24399
  0
LINE
  8
0
 10
0.844986
 20
1.24399
 11
0.714172
 21
1.07162
  0
LINE
  8
0
 10
0.714172
 20
1.07162
 11
0.59375
 21
0.88649
  0
LINE
  8
0
 10
0.59375
 20
0.88649
 11
0.483673
 21
0.688614
  0
LINE
  8
0
 10
0.483673
 20
0.688614
 11
0.383987
 21
0.477997
  0
LINE
  8
0
 10
0.383987
 20
0.477997
 11
0.383987
 21
0
  0
LINE
  8
0
 10
0.383987
 20
0
 11
3.85799
 21
0
  0
LINE
  8
0
 10
3.85799
 20
0
 11
3.85799
 21
0.575989
  0
ENDSEC
  0
SECTION
  2
OBJECTS
  0
DICTIONARY
  0
ENDSEC
  0
EOF
