  0
SECTION
  2
BLOCKS
  0
ENDSEC
  0
SECTION
  2
ENTITIES
  0
LINE
  8
0
 10
-5.5
 20
3.11605e-15
 11
-5.37981
 21
-1.14351
  0
LINE
  8
0
 10
-5.37981
 20
-1.14351
 11
-5.0245
 21
-2.23705
  0
LINE
  8
0
 10
-5.0245
 20
-2.23705
 11
-4.44959
 21
-3.23282
  0
LINE
  8
0
 10
-4.44959
 20
-3.23282
 11
-3.68022
 21
-4.0873
  0
LINE
  8
0
 10
-3.68022
 20
-4.0873
 11
-2.75
 21
-4.76314
  0
LINE
  8
0
 10
-2.75
 20
-4.76314
 11
-1.69959
 21
-5.23081
  0
LINE
  8
0
 10
-1.69959
 20
-5.23081
 11
-0.574907
 21
-5.46987
  0
LINE
  8
0
 10
-0.574907
 20
-5.46987
 11
0.574907
 21
-5.46987
  0
LINE
  8
0
 10
0.574907
 20
-5.46987
 11
1.69959
 21
-5.23081
  0
LINE
  8
0
 10
1.69959
 20
-5.23081
 11
11.606
 21
-1.92954
  0
LINE
  8
0
 10
11.606
 20
-1.92954
 11
12.6564
 21
-1.46187
  0
LINE
  8
0
 10
12.6564
 20
-1.46187
 11
13.5866
 21
-0.786028
  0
LINE
  8
0
 10
13.5866
 20
-0.786028
 11
14.356
 21
0.0684493
  0
LINE
  8
0
 10
14.356
 20
0.0684493
 11
14.9309
 21
1.06422
  0
LINE
  8
0
 10
14.9309
 20
1.06422
 11
15.2862
 21
2.15775
  0
LINE
  8
0
 10
15.2862
 20
2.15775
 11
15.4064
 21
3.30127
  0
LINE
  8
0
 10
15.4064
 20
3.30127
 11
15.2862
 21
4.44478
  0
LINE
  8
0
 10
15.2862
 20
4.44478
 11
14.9309
 21
5.53832
  0
LINE
  8
0
 10
14.9309
 20
5.53832
 11
14.356
 21
6.53409
  0
LINE
  8
0
 10
14.356
 20
6.53409
 11
13.5866
 21
7.38856
  0
LINE
  8
0
 10
13.5866
 20
7.38856
 11
12.6564
 21
8.06441
  0
LINE
  8
0
 10
12.6564
 20
8.06441
 11
11.606
 21
8.53208
  0
LINE
  8
0
 10
11.606
 20
8.53208
 11
10.4813
 21
8.77114
  0
LINE
  8
0
 10
10.4813
 20
8.77114
 11
9.33149
 21
8.77114
  0
LINE
  8
0
 10
9.33149
 20
8.77114
 11
8.2068
 21
8.53208
  0
LINE
  8
0
 10
8.2068
 20
8.53208
 11
-1.69959
 21
5.23081
  0
LINE
  8
0
 10
-1.69959
 20
5.23081
 11
-2.75
 21
4.76314
  0
LINE
  8
0
 10
-2.75
 20
4.76314
 11
-3.68022
 21
4.0873
  0
LINE
  8
0
 10
-3.68022
 20
4.0873
 11
-4.44959
 21
3.23282
  0
LINE
  8
0
 10
-4.44959
 20
3.23282
 11
-5.0245
 21
2.23705
  0
LINE
  8
0
 10
-5.0245
 20
2.23705
 11
-5.37981
 21
1.14351
  0
LINE
  8
0
 10
-5.37981
 20
1.14351
 11
-5.5
 21
3.11605e-15
  0
ENDSEC
  0
SECTION
  2
OBJECTS
  0
DICTIONARY
  0
ENDSEC
  0
EOF
