  0
SECTION
  2
BLOCKS
  0
ENDSEC
  0
SECTION
  2
ENTITIES
  0
LINE
  8
0
 10
0.682816
 20
-3.43274
 11
1.33939
 21
-3.23357
  0
LINE
  8
0
 10
1.33939
 20
-3.23357
 11
1.94449
 21
-2.91014
  0
LINE
  8
0
 10
1.94449
 20
-2.91014
 11
2.47487
 21
-2.47487
  0
LINE
  8
0
 10
2.47487
 20
-2.47487
 11
2.91014
 21
-1.94449
  0
LINE
  8
0
 10
2.91014
 20
-1.94449
 11
3.23357
 21
-1.33939
  0
LINE
  8
0
 10
3.23357
 20
-1.33939
 11
3.43274
 21
-0.682816
  0
LINE
  8
0
 10
3.43274
 20
-0.682816
 11
3.5
 21
0
  0
LINE
  8
0
 10
3.5
 20
0
 11
3.43274
 21
0.682816
  0
LINE
  8
0
 10
3.43274
 20
0.682816
 11
3.23357
 21
1.33939
  0
LINE
  8
0
 10
3.23357
 20
1.33939
 11
2.91014
 21
1.94449
  0
LINE
  8
0
 10
2.91014
 20
1.94449
 11
2.47487
 21
2.47487
  0
LINE
  8
0
 10
2.47487
 20
2.47487
 11
1.94449
 21
2.91014
  0
LINE
  8
0
 10
1.94449
 20
2.91014
 11
1.33939
 21
3.23357
  0
LINE
  8
0
 10
1.33939
 20
3.23357
 11
0.682816
 21
3.43274
  0
LINE
  8
0
 10
0.682816
 20
3.43274
 11
0
 21
3.5
  0
LINE
  8
0
 10
0
 20
3.5
 11
-0.682816
 21
3.43274
  0
LINE
  8
0
 10
-0.682816
 20
3.43274
 11
-1.33939
 21
3.23357
  0
LINE
  8
0
 10
-1.33939
 20
3.23357
 11
-1.94449
 21
2.91014
  0
LINE
  8
0
 10
-1.94449
 20
2.91014
 11
-2.47487
 21
2.47487
  0
LINE
  8
0
 10
-2.47487
 20
2.47487
 11
-2.91014
 21
1.94449
  0
LINE
  8
0
 10
-2.91014
 20
1.94449
 11
-3.23357
 21
1.33939
  0
LINE
  8
0
 10
-3.23357
 20
1.33939
 11
-3.43274
 21
0.682816
  0
LINE
  8
0
 10
-3.43274
 20
0.682816
 11
-3.5
 21
0
  0
LINE
  8
0
 10
-3.5
 20
0
 11
-3.43274
 21
-0.682816
  0
LINE
  8
0
 10
-3.43274
 20
-0.682816
 11
-3.23357
 21
-1.33939
  0
LINE
  8
0
 10
-3.23357
 20
-1.33939
 11
-2.91014
 21
-1.94449
  0
LINE
  8
0
 10
-2.91014
 20
-1.94449
 11
-2.47487
 21
-2.47487
  0
LINE
  8
0
 10
-2.47487
 20
-2.47487
 11
-1.94449
 21
-2.91014
  0
LINE
  8
0
 10
-1.94449
 20
-2.91014
 11
-1.33939
 21
-3.23357
  0
LINE
  8
0
 10
-1.33939
 20
-3.23357
 11
-0.682816
 21
-3.43274
  0
LINE
  8
0
 10
-0.682816
 20
-3.43274
 11
0
 21
-3.5
  0
LINE
  8
0
 10
0
 20
-3.5
 11
0.682816
 21
-3.43274
  0
LINE
  8
0
 10
-14.3172
 20
-23.4327
 11
-13.6606
 21
-23.2336
  0
LINE
  8
0
 10
-13.6606
 20
-23.2336
 11
-13.0555
 21
-22.9101
  0
LINE
  8
0
 10
-13.0555
 20
-22.9101
 11
-12.5251
 21
-22.4749
  0
LINE
  8
0
 10
-12.5251
 20
-22.4749
 11
-12.0898
 21
-21.9445
  0
LINE
  8
0
 10
-12.0898
 20
-21.9445
 11
-11.7664
 21
-21.3394
  0
LINE
  8
0
 10
-11.7664
 20
-21.3394
 11
-11.5672
 21
-20.6828
  0
LINE
  8
0
 10
-11.5672
 20
-20.6828
 11
-11.5
 21
-20
  0
LINE
  8
0
 10
-11.5
 20
-20
 11
-11.5672
 21
-19.3172
  0
LINE
  8
0
 10
-11.5672
 20
-19.3172
 11
-11.7664
 21
-18.6606
  0
LINE
  8
0
 10
-11.7664
 20
-18.6606
 11
-12.0898
 21
-18.0555
  0
LINE
  8
0
 10
-12.0898
 20
-18.0555
 11
-12.5251
 21
-17.5251
  0
LINE
  8
0
 10
-12.5251
 20
-17.5251
 11
-13.0555
 21
-17.0898
  0
LINE
  8
0
 10
-13.0555
 20
-17.0898
 11
-13.6606
 21
-16.7664
  0
LINE
  8
0
 10
-13.6606
 20
-16.7664
 11
-14.3172
 21
-16.5672
  0
LINE
  8
0
 10
-14.3172
 20
-16.5672
 11
-15
 21
-16.5
  0
LINE
  8
0
 10
-15
 20
-16.5
 11
-15.6828
 21
-16.5672
  0
LINE
  8
0
 10
-15.6828
 20
-16.5672
 11
-16.3394
 21
-16.7664
  0
LINE
  8
0
 10
-16.3394
 20
-16.7664
 11
-16.9445
 21
-17.0898
  0
LINE
  8
0
 10
-16.9445
 20
-17.0898
 11
-17.4749
 21
-17.5251
  0
LINE
  8
0
 10
-17.4749
 20
-17.5251
 11
-17.9101
 21
-18.0555
  0
LINE
  8
0
 10
-17.9101
 20
-18.0555
 11
-18.2336
 21
-18.6606
  0
LINE
  8
0
 10
-18.2336
 20
-18.6606
 11
-18.4327
 21
-19.3172
  0
LINE
  8
0
 10
-18.4327
 20
-19.3172
 11
-18.5
 21
-20
  0
LINE
  8
0
 10
-18.5
 20
-20
 11
-18.4327
 21
-20.6828
  0
LINE
  8
0
 10
-18.4327
 20
-20.6828
 11
-18.2336
 21
-21.3394
  0
LINE
  8
0
 10
-18.2336
 20
-21.3394
 11
-17.9101
 21
-21.9445
  0
LINE
  8
0
 10
-17.9101
 20
-21.9445
 11
-17.4749
 21
-22.4749
  0
LINE
  8
0
 10
-17.4749
 20
-22.4749
 11
-16.9445
 21
-22.9101
  0
LINE
  8
0
 10
-16.9445
 20
-22.9101
 11
-16.3394
 21
-23.2336
  0
LINE
  8
0
 10
-16.3394
 20
-23.2336
 11
-15.6828
 21
-23.4327
  0
LINE
  8
0
 10
-15.6828
 20
-23.4327
 11
-15
 21
-23.5
  0
LINE
  8
0
 10
-15
 20
-23.5
 11
-14.3172
 21
-23.4327
  0
LINE
  8
0
 10
-7.91858
 20
-26.867
 11
-7.26201
 21
-26.6679
  0
LINE
  8
0
 10
-7.26201
 20
-26.6679
 11
-6.65691
 21
-26.3444
  0
LINE
  8
0
 10
-6.65691
 20
-26.3444
 11
-6.12653
 21
-25.9091
  0
LINE
  8
0
 10
-6.12653
 20
-25.9091
 11
-5.69125
 21
-25.3788
  0
LINE
  8
0
 10
-5.69125
 20
-25.3788
 11
-5.36783
 21
-24.7737
  0
LINE
  8
0
 10
-5.36783
 20
-24.7737
 11
-5.16866
 21
-24.1171
  0
LINE
  8
0
 10
-5.16866
 20
-24.1171
 11
-5.10141
 21
-23.4343
  0
LINE
  8
0
 10
-5.10141
 20
-23.4343
 11
-5.16866
 21
-22.7515
  0
LINE
  8
0
 10
-5.16866
 20
-22.7515
 11
-5.36783
 21
-22.0949
  0
LINE
  8
0
 10
-5.36783
 20
-22.0949
 11
-5.69125
 21
-21.4898
  0
LINE
  8
0
 10
-5.69125
 20
-21.4898
 11
-6.12653
 21
-20.9594
  0
LINE
  8
0
 10
-6.12653
 20
-20.9594
 11
-6.65691
 21
-20.5241
  0
LINE
  8
0
 10
-6.65691
 20
-20.5241
 11
-7.26201
 21
-20.2007
  0
LINE
  8
0
 10
-7.26201
 20
-20.2007
 11
-7.91858
 21
-20.0015
  0
LINE
  8
0
 10
-7.91858
 20
-20.0015
 11
-8.60141
 21
-19.9343
  0
LINE
  8
0
 10
-8.60141
 20
-19.9343
 11
-9.28423
 21
-20.0015
  0
LINE
  8
0
 10
-9.28423
 20
-20.0015
 11
-9.9408
 21
-20.2007
  0
LINE
  8
0
 10
-9.9408
 20
-20.2007
 11
-10.5459
 21
-20.5241
  0
LINE
  8
0
 10
-10.5459
 20
-20.5241
 11
-11.0763
 21
-20.9594
  0
LINE
  8
0
 10
-11.0763
 20
-20.9594
 11
-11.5116
 21
-21.4898
  0
LINE
  8
0
 10
-11.5116
 20
-21.4898
 11
-11.835
 21
-22.0949
  0
LINE
  8
0
 10
-11.835
 20
-22.0949
 11
-12.0341
 21
-22.7515
  0
LINE
  8
0
 10
-12.0341
 20
-22.7515
 11
-12.1014
 21
-23.4343
  0
LINE
  8
0
 10
-12.1014
 20
-23.4343
 11
-12.0341
 21
-24.1171
  0
LINE
  8
0
 10
-12.0341
 20
-24.1171
 11
-11.835
 21
-24.7737
  0
LINE
  8
0
 10
-11.835
 20
-24.7737
 11
-11.5116
 21
-25.3788
  0
LINE
  8
0
 10
-11.5116
 20
-25.3788
 11
-11.0763
 21
-25.9091
  0
LINE
  8
0
 10
-11.0763
 20
-25.9091
 11
-10.5459
 21
-26.3444
  0
LINE
  8
0
 10
-10.5459
 20
-26.3444
 11
-9.9408
 21
-26.6679
  0
LINE
  8
0
 10
-9.9408
 20
-26.6679
 11
-9.28423
 21
-26.867
  0
LINE
  8
0
 10
-9.28423
 20
-26.867
 11
-8.60141
 21
-26.9343
  0
LINE
  8
0
 10
-8.60141
 20
-26.9343
 11
-7.91858
 21
-26.867
  0
ENDSEC
  0
SECTION
  2
OBJECTS
  0
DICTIONARY
  0
ENDSEC
  0
EOF
