  0
SECTION
  2
BLOCKS
  0
ENDSEC
  0
SECTION
  2
ENTITIES
  0
LINE
  8
0
 10
-15.6272
 20
180.737
 11
-14.9706
 21
180.936
  0
LINE
  8
0
 10
-14.9706
 20
180.936
 11
-14.3655
 21
181.26
  0
LINE
  8
0
 10
-14.3655
 20
181.26
 11
-13.8351
 21
181.695
  0
LINE
  8
0
 10
-13.8351
 20
181.695
 11
-13.3998
 21
182.225
  0
LINE
  8
0
 10
-13.3998
 20
182.225
 11
-13.0764
 21
182.831
  0
LINE
  8
0
 10
-13.0764
 20
182.831
 11
-12.8772
 21
183.487
  0
LINE
  8
0
 10
-12.8772
 20
183.487
 11
-12.81
 21
184.17
  0
LINE
  8
0
 10
-12.81
 20
184.17
 11
-12.8772
 21
184.853
  0
LINE
  8
0
 10
-12.8772
 20
184.853
 11
-13.0764
 21
185.509
  0
LINE
  8
0
 10
-13.0764
 20
185.509
 11
-13.3998
 21
186.114
  0
LINE
  8
0
 10
-13.3998
 20
186.114
 11
-13.8351
 21
186.645
  0
LINE
  8
0
 10
-13.8351
 20
186.645
 11
-14.3655
 21
187.08
  0
LINE
  8
0
 10
-14.3655
 20
187.08
 11
-14.9706
 21
187.404
  0
LINE
  8
0
 10
-14.9706
 20
187.404
 11
-15.6272
 21
187.603
  0
LINE
  8
0
 10
-15.6272
 20
187.603
 11
-16.31
 21
187.67
  0
LINE
  8
0
 10
-16.31
 20
187.67
 11
-16.9928
 21
187.603
  0
LINE
  8
0
 10
-16.9928
 20
187.603
 11
-17.6494
 21
187.404
  0
LINE
  8
0
 10
-17.6494
 20
187.404
 11
-18.2545
 21
187.08
  0
LINE
  8
0
 10
-18.2545
 20
187.08
 11
-18.7849
 21
186.645
  0
LINE
  8
0
 10
-18.7849
 20
186.645
 11
-19.2201
 21
186.114
  0
LINE
  8
0
 10
-19.2201
 20
186.114
 11
-19.5436
 21
185.509
  0
LINE
  8
0
 10
-19.5436
 20
185.509
 11
-19.7427
 21
184.853
  0
LINE
  8
0
 10
-19.7427
 20
184.853
 11
-19.81
 21
184.17
  0
LINE
  8
0
 10
-19.81
 20
184.17
 11
-19.7427
 21
183.487
  0
LINE
  8
0
 10
-19.7427
 20
183.487
 11
-19.5436
 21
182.831
  0
LINE
  8
0
 10
-19.5436
 20
182.831
 11
-19.2201
 21
182.225
  0
LINE
  8
0
 10
-19.2201
 20
182.225
 11
-18.7849
 21
181.695
  0
LINE
  8
0
 10
-18.7849
 20
181.695
 11
-18.2545
 21
181.26
  0
LINE
  8
0
 10
-18.2545
 20
181.26
 11
-17.6494
 21
180.936
  0
LINE
  8
0
 10
-17.6494
 20
180.936
 11
-16.9928
 21
180.737
  0
LINE
  8
0
 10
-16.9928
 20
180.737
 11
-16.31
 21
180.67
  0
LINE
  8
0
 10
-16.31
 20
180.67
 11
-15.6272
 21
180.737
  0
LINE
  8
0
 10
0.682816
 20
-3.43274
 11
1.33939
 21
-3.23357
  0
LINE
  8
0
 10
1.33939
 20
-3.23357
 11
1.94449
 21
-2.91014
  0
LINE
  8
0
 10
1.94449
 20
-2.91014
 11
2.47487
 21
-2.47487
  0
LINE
  8
0
 10
2.47487
 20
-2.47487
 11
2.91014
 21
-1.94449
  0
LINE
  8
0
 10
2.91014
 20
-1.94449
 11
3.23357
 21
-1.33939
  0
LINE
  8
0
 10
3.23357
 20
-1.33939
 11
3.43274
 21
-0.682816
  0
LINE
  8
0
 10
3.43274
 20
-0.682816
 11
3.5
 21
0
  0
LINE
  8
0
 10
3.5
 20
0
 11
3.43274
 21
0.682816
  0
LINE
  8
0
 10
3.43274
 20
0.682816
 11
3.23357
 21
1.33939
  0
LINE
  8
0
 10
3.23357
 20
1.33939
 11
2.91014
 21
1.94449
  0
LINE
  8
0
 10
2.91014
 20
1.94449
 11
2.47487
 21
2.47487
  0
LINE
  8
0
 10
2.47487
 20
2.47487
 11
1.94449
 21
2.91014
  0
LINE
  8
0
 10
1.94449
 20
2.91014
 11
1.33939
 21
3.23357
  0
LINE
  8
0
 10
1.33939
 20
3.23357
 11
0.682816
 21
3.43274
  0
LINE
  8
0
 10
0.682816
 20
3.43274
 11
0
 21
3.5
  0
LINE
  8
0
 10
0
 20
3.5
 11
-0.682816
 21
3.43274
  0
LINE
  8
0
 10
-0.682816
 20
3.43274
 11
-1.33939
 21
3.23357
  0
LINE
  8
0
 10
-1.33939
 20
3.23357
 11
-1.94449
 21
2.91014
  0
LINE
  8
0
 10
-1.94449
 20
2.91014
 11
-2.47487
 21
2.47487
  0
LINE
  8
0
 10
-2.47487
 20
2.47487
 11
-2.91014
 21
1.94449
  0
LINE
  8
0
 10
-2.91014
 20
1.94449
 11
-3.23357
 21
1.33939
  0
LINE
  8
0
 10
-3.23357
 20
1.33939
 11
-3.43274
 21
0.682816
  0
LINE
  8
0
 10
-3.43274
 20
0.682816
 11
-3.5
 21
0
  0
LINE
  8
0
 10
-3.5
 20
0
 11
-3.43274
 21
-0.682816
  0
LINE
  8
0
 10
-3.43274
 20
-0.682816
 11
-3.23357
 21
-1.33939
  0
LINE
  8
0
 10
-3.23357
 20
-1.33939
 11
-2.91014
 21
-1.94449
  0
LINE
  8
0
 10
-2.91014
 20
-1.94449
 11
-2.47487
 21
-2.47487
  0
LINE
  8
0
 10
-2.47487
 20
-2.47487
 11
-1.94449
 21
-2.91014
  0
LINE
  8
0
 10
-1.94449
 20
-2.91014
 11
-1.33939
 21
-3.23357
  0
LINE
  8
0
 10
-1.33939
 20
-3.23357
 11
-0.682816
 21
-3.43274
  0
LINE
  8
0
 10
-0.682816
 20
-3.43274
 11
0
 21
-3.5
  0
LINE
  8
0
 10
0
 20
-3.5
 11
0.682816
 21
-3.43274
  0
LINE
  8
0
 10
111.698
 20
-56.7585
 11
112.354
 21
-56.5594
  0
LINE
  8
0
 10
112.354
 20
-56.5594
 11
112.96
 21
-56.2359
  0
LINE
  8
0
 10
112.96
 20
-56.2359
 11
113.49
 21
-55.8007
  0
LINE
  8
0
 10
113.49
 20
-55.8007
 11
113.925
 21
-55.2703
  0
LINE
  8
0
 10
113.925
 20
-55.2703
 11
114.249
 21
-54.6652
  0
LINE
  8
0
 10
114.249
 20
-54.6652
 11
114.448
 21
-54.0086
  0
LINE
  8
0
 10
114.448
 20
-54.0086
 11
114.515
 21
-53.3258
  0
LINE
  8
0
 10
114.515
 20
-53.3258
 11
114.448
 21
-52.643
  0
LINE
  8
0
 10
114.448
 20
-52.643
 11
114.249
 21
-51.9864
  0
LINE
  8
0
 10
114.249
 20
-51.9864
 11
113.925
 21
-51.3813
  0
LINE
  8
0
 10
113.925
 20
-51.3813
 11
113.49
 21
-50.8509
  0
LINE
  8
0
 10
113.49
 20
-50.8509
 11
112.96
 21
-50.4156
  0
LINE
  8
0
 10
112.96
 20
-50.4156
 11
112.354
 21
-50.0922
  0
LINE
  8
0
 10
112.354
 20
-50.0922
 11
111.698
 21
-49.8931
  0
LINE
  8
0
 10
111.698
 20
-49.8931
 11
111.015
 21
-49.8258
  0
LINE
  8
0
 10
111.015
 20
-49.8258
 11
110.332
 21
-49.8931
  0
LINE
  8
0
 10
110.332
 20
-49.8931
 11
109.676
 21
-50.0922
  0
LINE
  8
0
 10
109.676
 20
-50.0922
 11
109.071
 21
-50.4156
  0
LINE
  8
0
 10
109.071
 20
-50.4156
 11
108.54
 21
-50.8509
  0
LINE
  8
0
 10
108.54
 20
-50.8509
 11
108.105
 21
-51.3813
  0
LINE
  8
0
 10
108.105
 20
-51.3813
 11
107.781
 21
-51.9864
  0
LINE
  8
0
 10
107.781
 20
-51.9864
 11
107.582
 21
-52.643
  0
LINE
  8
0
 10
107.582
 20
-52.643
 11
107.515
 21
-53.3258
  0
LINE
  8
0
 10
107.515
 20
-53.3258
 11
107.582
 21
-54.0086
  0
LINE
  8
0
 10
107.582
 20
-54.0086
 11
107.781
 21
-54.6652
  0
LINE
  8
0
 10
107.781
 20
-54.6652
 11
108.105
 21
-55.2703
  0
LINE
  8
0
 10
108.105
 20
-55.2703
 11
108.54
 21
-55.8007
  0
LINE
  8
0
 10
108.54
 20
-55.8007
 11
109.071
 21
-56.2359
  0
LINE
  8
0
 10
109.071
 20
-56.2359
 11
109.676
 21
-56.5594
  0
LINE
  8
0
 10
109.676
 20
-56.5594
 11
110.332
 21
-56.7585
  0
LINE
  8
0
 10
110.332
 20
-56.7585
 11
111.015
 21
-56.8258
  0
LINE
  8
0
 10
111.015
 20
-56.8258
 11
111.698
 21
-56.7585
  0
ENDSEC
  0
SECTION
  2
OBJECTS
  0
DICTIONARY
  0
ENDSEC
  0
EOF
