  0
SECTION
  2
BLOCKS
  0
ENDSEC
  0
SECTION
  2
ENTITIES
  0
LINE
  8
0
 10
-17.1337
 20
0.961365
 11
-16.4771
 21
1.16054
  0
LINE
  8
0
 10
-16.4771
 20
1.16054
 11
-15.872
 21
1.48396
  0
LINE
  8
0
 10
-15.872
 20
1.48396
 11
-15.3416
 21
1.91924
  0
LINE
  8
0
 10
-15.3416
 20
1.91924
 11
-14.9064
 21
2.44962
  0
LINE
  8
0
 10
-14.9064
 20
2.44962
 11
-14.5829
 21
3.05472
  0
LINE
  8
0
 10
-14.5829
 20
3.05472
 11
-14.3838
 21
3.71129
  0
LINE
  8
0
 10
-14.3838
 20
3.71129
 11
-14.3165
 21
4.3941
  0
LINE
  8
0
 10
-14.3165
 20
4.3941
 11
-14.3838
 21
5.07692
  0
LINE
  8
0
 10
-14.3838
 20
5.07692
 11
-14.5829
 21
5.73351
  0
LINE
  8
0
 10
-14.5829
 20
5.73351
 11
-14.9064
 21
6.33861
  0
LINE
  8
0
 10
-14.9064
 20
6.33861
 11
-15.3416
 21
6.86899
  0
LINE
  8
0
 10
-15.3416
 20
6.86899
 11
-15.872
 21
7.30426
  0
LINE
  8
0
 10
-15.872
 20
7.30426
 11
-16.4771
 21
7.62769
  0
LINE
  8
0
 10
-16.4771
 20
7.62769
 11
-17.1337
 21
7.82686
  0
LINE
  8
0
 10
-17.1337
 20
7.82686
 11
-17.8165
 21
7.8941
  0
LINE
  8
0
 10
-17.8165
 20
7.8941
 11
-18.4993
 21
7.82686
  0
LINE
  8
0
 10
-18.4993
 20
7.82686
 11
-19.1559
 21
7.62769
  0
LINE
  8
0
 10
-19.1559
 20
7.62769
 11
-19.761
 21
7.30426
  0
LINE
  8
0
 10
-19.761
 20
7.30426
 11
-20.2914
 21
6.86899
  0
LINE
  8
0
 10
-20.2914
 20
6.86899
 11
-20.7267
 21
6.33861
  0
LINE
  8
0
 10
-20.7267
 20
6.33861
 11
-21.0501
 21
5.73351
  0
LINE
  8
0
 10
-21.0501
 20
5.73351
 11
-21.2493
 21
5.07692
  0
LINE
  8
0
 10
-21.2493
 20
5.07692
 11
-21.3165
 21
4.3941
  0
LINE
  8
0
 10
-21.3165
 20
4.3941
 11
-21.2493
 21
3.71129
  0
LINE
  8
0
 10
-21.2493
 20
3.71129
 11
-21.0501
 21
3.05472
  0
LINE
  8
0
 10
-21.0501
 20
3.05472
 11
-20.7267
 21
2.44962
  0
LINE
  8
0
 10
-20.7267
 20
2.44962
 11
-20.2914
 21
1.91924
  0
LINE
  8
0
 10
-20.2914
 20
1.91924
 11
-19.761
 21
1.48396
  0
LINE
  8
0
 10
-19.761
 20
1.48396
 11
-19.1559
 21
1.16054
  0
LINE
  8
0
 10
-19.1559
 20
1.16054
 11
-18.4993
 21
0.961365
  0
LINE
  8
0
 10
-18.4993
 20
0.961365
 11
-17.8165
 21
0.894104
  0
LINE
  8
0
 10
-17.8165
 20
0.894104
 11
-17.1337
 21
0.961365
  0
LINE
  8
0
 10
0.682816
 20
-3.43274
 11
1.33939
 21
-3.23357
  0
LINE
  8
0
 10
1.33939
 20
-3.23357
 11
1.94449
 21
-2.91014
  0
LINE
  8
0
 10
1.94449
 20
-2.91014
 11
2.47487
 21
-2.47487
  0
LINE
  8
0
 10
2.47487
 20
-2.47487
 11
2.91014
 21
-1.94449
  0
LINE
  8
0
 10
2.91014
 20
-1.94449
 11
3.23357
 21
-1.33939
  0
LINE
  8
0
 10
3.23357
 20
-1.33939
 11
3.43274
 21
-0.682816
  0
LINE
  8
0
 10
3.43274
 20
-0.682816
 11
3.5
 21
0
  0
LINE
  8
0
 10
3.5
 20
0
 11
3.43274
 21
0.682816
  0
LINE
  8
0
 10
3.43274
 20
0.682816
 11
3.23357
 21
1.33939
  0
LINE
  8
0
 10
3.23357
 20
1.33939
 11
2.91014
 21
1.94449
  0
LINE
  8
0
 10
2.91014
 20
1.94449
 11
2.47487
 21
2.47487
  0
LINE
  8
0
 10
2.47487
 20
2.47487
 11
1.94449
 21
2.91014
  0
LINE
  8
0
 10
1.94449
 20
2.91014
 11
1.33939
 21
3.23357
  0
LINE
  8
0
 10
1.33939
 20
3.23357
 11
0.682816
 21
3.43274
  0
LINE
  8
0
 10
0.682816
 20
3.43274
 11
0
 21
3.5
  0
LINE
  8
0
 10
0
 20
3.5
 11
-0.682816
 21
3.43274
  0
LINE
  8
0
 10
-0.682816
 20
3.43274
 11
-1.33939
 21
3.23357
  0
LINE
  8
0
 10
-1.33939
 20
3.23357
 11
-1.94449
 21
2.91014
  0
LINE
  8
0
 10
-1.94449
 20
2.91014
 11
-2.47487
 21
2.47487
  0
LINE
  8
0
 10
-2.47487
 20
2.47487
 11
-2.91014
 21
1.94449
  0
LINE
  8
0
 10
-2.91014
 20
1.94449
 11
-3.23357
 21
1.33939
  0
LINE
  8
0
 10
-3.23357
 20
1.33939
 11
-3.43274
 21
0.682816
  0
LINE
  8
0
 10
-3.43274
 20
0.682816
 11
-3.5
 21
0
  0
LINE
  8
0
 10
-3.5
 20
0
 11
-3.43274
 21
-0.682816
  0
LINE
  8
0
 10
-3.43274
 20
-0.682816
 11
-3.23357
 21
-1.33939
  0
LINE
  8
0
 10
-3.23357
 20
-1.33939
 11
-2.91014
 21
-1.94449
  0
LINE
  8
0
 10
-2.91014
 20
-1.94449
 11
-2.47487
 21
-2.47487
  0
LINE
  8
0
 10
-2.47487
 20
-2.47487
 11
-1.94449
 21
-2.91014
  0
LINE
  8
0
 10
-1.94449
 20
-2.91014
 11
-1.33939
 21
-3.23357
  0
LINE
  8
0
 10
-1.33939
 20
-3.23357
 11
-0.682816
 21
-3.43274
  0
LINE
  8
0
 10
-0.682816
 20
-3.43274
 11
0
 21
-3.5
  0
LINE
  8
0
 10
0
 20
-3.5
 11
0.682816
 21
-3.43274
  0
ENDSEC
  0
SECTION
  2
OBJECTS
  0
DICTIONARY
  0
ENDSEC
  0
EOF
