  0
SECTION
  2
BLOCKS
  0
ENDSEC
  0
SECTION
  2
ENTITIES
  0
LINE
  8
0
 10
-5.5
 20
3.11605e-15
 11
-5.37981
 21
-1.14351
  0
LINE
  8
0
 10
-5.37981
 20
-1.14351
 11
-5.0245
 21
-2.23705
  0
LINE
  8
0
 10
-5.0245
 20
-2.23705
 11
-4.44959
 21
-3.23282
  0
LINE
  8
0
 10
-4.44959
 20
-3.23282
 11
10.4426
 21
-21.5194
  0
LINE
  8
0
 10
10.4426
 20
-21.5194
 11
11.212
 21
-22.3739
  0
LINE
  8
0
 10
11.212
 20
-22.3739
 11
12.1422
 21
-23.0497
  0
LINE
  8
0
 10
12.1422
 20
-23.0497
 11
13.1926
 21
-23.5174
  0
LINE
  8
0
 10
13.1926
 20
-23.5174
 11
14.3173
 21
-23.7565
  0
LINE
  8
0
 10
14.3173
 20
-23.7565
 11
15.4671
 21
-23.7565
  0
LINE
  8
0
 10
15.4671
 20
-23.7565
 11
16.5918
 21
-23.5174
  0
LINE
  8
0
 10
16.5918
 20
-23.5174
 11
17.6422
 21
-23.0497
  0
LINE
  8
0
 10
17.6422
 20
-23.0497
 11
18.5724
 21
-22.3739
  0
LINE
  8
0
 10
18.5724
 20
-22.3739
 11
19.3418
 21
-21.5194
  0
LINE
  8
0
 10
19.3418
 20
-21.5194
 11
19.9167
 21
-20.5237
  0
LINE
  8
0
 10
19.9167
 20
-20.5237
 11
20.272
 21
-19.4301
  0
LINE
  8
0
 10
20.272
 20
-19.4301
 11
20.3922
 21
-18.2866
  0
LINE
  8
0
 10
20.3922
 20
-18.2866
 11
21.35
 21
184.17
  0
LINE
  8
0
 10
21.35
 20
184.17
 11
21.2298
 21
185.314
  0
LINE
  8
0
 10
21.2298
 20
185.314
 11
20.8745
 21
186.407
  0
LINE
  8
0
 10
20.8745
 20
186.407
 11
20.2996
 21
187.403
  0
LINE
  8
0
 10
20.2996
 20
187.403
 11
19.5302
 21
188.257
  0
LINE
  8
0
 10
19.5302
 20
188.257
 11
18.6
 21
188.933
  0
LINE
  8
0
 10
18.6
 20
188.933
 11
17.5496
 21
189.401
  0
LINE
  8
0
 10
17.5496
 20
189.401
 11
16.4249
 21
189.64
  0
LINE
  8
0
 10
16.4249
 20
189.64
 11
15.2751
 21
189.64
  0
LINE
  8
0
 10
15.2751
 20
189.64
 11
14.1504
 21
189.401
  0
LINE
  8
0
 10
14.1504
 20
189.401
 11
13.1
 21
188.933
  0
LINE
  8
0
 10
13.1
 20
188.933
 11
12.1698
 21
188.257
  0
LINE
  8
0
 10
12.1698
 20
188.257
 11
11.4004
 21
187.403
  0
LINE
  8
0
 10
11.4004
 20
187.403
 11
10.8255
 21
186.407
  0
LINE
  8
0
 10
10.8255
 20
186.407
 11
10.4702
 21
185.314
  0
LINE
  8
0
 10
10.4702
 20
185.314
 11
10.35
 21
184.17
  0
LINE
  8
0
 10
10.35
 20
184.17
 11
-5.5
 21
3.11605e-15
  0
ENDSEC
  0
SECTION
  2
OBJECTS
  0
DICTIONARY
  0
ENDSEC
  0
EOF
