  0
SECTION
  2
BLOCKS
  0
ENDSEC
  0
SECTION
  2
ENTITIES
  0
LINE
  8
0
 10
-48.4672
 20
30.9772
 11
-47.8106
 21
31.1764
  0
LINE
  8
0
 10
-47.8106
 20
31.1764
 11
-47.2055
 21
31.4998
  0
LINE
  8
0
 10
-47.2055
 20
31.4998
 11
-46.6751
 21
31.9351
  0
LINE
  8
0
 10
-46.6751
 20
31.9351
 11
-46.2399
 21
32.4655
  0
LINE
  8
0
 10
-46.2399
 20
32.4655
 11
-45.9164
 21
33.0706
  0
LINE
  8
0
 10
-45.9164
 20
33.0706
 11
-45.7172
 21
33.7272
  0
LINE
  8
0
 10
-45.7172
 20
33.7272
 11
-45.65
 21
34.41
  0
LINE
  8
0
 10
-45.65
 20
34.41
 11
-45.7172
 21
35.0928
  0
LINE
  8
0
 10
-45.7172
 20
35.0928
 11
-45.9164
 21
35.7494
  0
LINE
  8
0
 10
-45.9164
 20
35.7494
 11
-46.2399
 21
36.3545
  0
LINE
  8
0
 10
-46.2399
 20
36.3545
 11
-46.6751
 21
36.8849
  0
LINE
  8
0
 10
-46.6751
 20
36.8849
 11
-47.2055
 21
37.3201
  0
LINE
  8
0
 10
-47.2055
 20
37.3201
 11
-47.8106
 21
37.6436
  0
LINE
  8
0
 10
-47.8106
 20
37.6436
 11
-48.4672
 21
37.8427
  0
LINE
  8
0
 10
-48.4672
 20
37.8427
 11
-49.15
 21
37.91
  0
LINE
  8
0
 10
-49.15
 20
37.91
 11
-49.8328
 21
37.8427
  0
LINE
  8
0
 10
-49.8328
 20
37.8427
 11
-50.4894
 21
37.6436
  0
LINE
  8
0
 10
-50.4894
 20
37.6436
 11
-51.0945
 21
37.3201
  0
LINE
  8
0
 10
-51.0945
 20
37.3201
 11
-51.6249
 21
36.8849
  0
LINE
  8
0
 10
-51.6249
 20
36.8849
 11
-52.0601
 21
36.3545
  0
LINE
  8
0
 10
-52.0601
 20
36.3545
 11
-52.3836
 21
35.7494
  0
LINE
  8
0
 10
-52.3836
 20
35.7494
 11
-52.5827
 21
35.0928
  0
LINE
  8
0
 10
-52.5827
 20
35.0928
 11
-52.65
 21
34.41
  0
LINE
  8
0
 10
-52.65
 20
34.41
 11
-52.5827
 21
33.7272
  0
LINE
  8
0
 10
-52.5827
 20
33.7272
 11
-52.3836
 21
33.0706
  0
LINE
  8
0
 10
-52.3836
 20
33.0706
 11
-52.0601
 21
32.4655
  0
LINE
  8
0
 10
-52.0601
 20
32.4655
 11
-51.6249
 21
31.9351
  0
LINE
  8
0
 10
-51.6249
 20
31.9351
 11
-51.0945
 21
31.4998
  0
LINE
  8
0
 10
-51.0945
 20
31.4998
 11
-50.4894
 21
31.1764
  0
LINE
  8
0
 10
-50.4894
 20
31.1764
 11
-49.8328
 21
30.9772
  0
LINE
  8
0
 10
-49.8328
 20
30.9772
 11
-49.15
 21
30.91
  0
LINE
  8
0
 10
-49.15
 20
30.91
 11
-48.4672
 21
30.9772
  0
LINE
  8
0
 10
0.682816
 20
-3.43274
 11
1.33939
 21
-3.23357
  0
LINE
  8
0
 10
1.33939
 20
-3.23357
 11
1.94449
 21
-2.91014
  0
LINE
  8
0
 10
1.94449
 20
-2.91014
 11
2.47487
 21
-2.47487
  0
LINE
  8
0
 10
2.47487
 20
-2.47487
 11
2.91014
 21
-1.94449
  0
LINE
  8
0
 10
2.91014
 20
-1.94449
 11
3.23357
 21
-1.33939
  0
LINE
  8
0
 10
3.23357
 20
-1.33939
 11
3.43274
 21
-0.682816
  0
LINE
  8
0
 10
3.43274
 20
-0.682816
 11
3.5
 21
0
  0
LINE
  8
0
 10
3.5
 20
0
 11
3.43274
 21
0.682816
  0
LINE
  8
0
 10
3.43274
 20
0.682816
 11
3.23357
 21
1.33939
  0
LINE
  8
0
 10
3.23357
 20
1.33939
 11
2.91014
 21
1.94449
  0
LINE
  8
0
 10
2.91014
 20
1.94449
 11
2.47487
 21
2.47487
  0
LINE
  8
0
 10
2.47487
 20
2.47487
 11
1.94449
 21
2.91014
  0
LINE
  8
0
 10
1.94449
 20
2.91014
 11
1.33939
 21
3.23357
  0
LINE
  8
0
 10
1.33939
 20
3.23357
 11
0.682816
 21
3.43274
  0
LINE
  8
0
 10
0.682816
 20
3.43274
 11
0
 21
3.5
  0
LINE
  8
0
 10
0
 20
3.5
 11
-0.682816
 21
3.43274
  0
LINE
  8
0
 10
-0.682816
 20
3.43274
 11
-1.33939
 21
3.23357
  0
LINE
  8
0
 10
-1.33939
 20
3.23357
 11
-1.94449
 21
2.91014
  0
LINE
  8
0
 10
-1.94449
 20
2.91014
 11
-2.47487
 21
2.47487
  0
LINE
  8
0
 10
-2.47487
 20
2.47487
 11
-2.91014
 21
1.94449
  0
LINE
  8
0
 10
-2.91014
 20
1.94449
 11
-3.23357
 21
1.33939
  0
LINE
  8
0
 10
-3.23357
 20
1.33939
 11
-3.43274
 21
0.682816
  0
LINE
  8
0
 10
-3.43274
 20
0.682816
 11
-3.5
 21
0
  0
LINE
  8
0
 10
-3.5
 20
0
 11
-3.43274
 21
-0.682816
  0
LINE
  8
0
 10
-3.43274
 20
-0.682816
 11
-3.23357
 21
-1.33939
  0
LINE
  8
0
 10
-3.23357
 20
-1.33939
 11
-2.91014
 21
-1.94449
  0
LINE
  8
0
 10
-2.91014
 20
-1.94449
 11
-2.47487
 21
-2.47487
  0
LINE
  8
0
 10
-2.47487
 20
-2.47487
 11
-1.94449
 21
-2.91014
  0
LINE
  8
0
 10
-1.94449
 20
-2.91014
 11
-1.33939
 21
-3.23357
  0
LINE
  8
0
 10
-1.33939
 20
-3.23357
 11
-0.682816
 21
-3.43274
  0
LINE
  8
0
 10
-0.682816
 20
-3.43274
 11
0
 21
-3.5
  0
LINE
  8
0
 10
0
 20
-3.5
 11
0.682816
 21
-3.43274
  0
ENDSEC
  0
SECTION
  2
OBJECTS
  0
DICTIONARY
  0
ENDSEC
  0
EOF
