  0
SECTION
  2
BLOCKS
  0
ENDSEC
  0
SECTION
  2
ENTITIES
  0
LINE
  8
0
 10
-37.9163
 20
44.9655
 11
-37.7961
 21
43.8219
  0
LINE
  8
0
 10
-37.7961
 20
43.8219
 11
-37.4408
 21
42.7284
  0
LINE
  8
0
 10
-37.4408
 20
42.7284
 11
-36.8658
 21
41.7326
  0
LINE
  8
0
 10
-36.8658
 20
41.7326
 11
-4.44959
 21
-3.23282
  0
LINE
  8
0
 10
-4.44959
 20
-3.23282
 11
-3.68022
 21
-4.0873
  0
LINE
  8
0
 10
-3.68022
 20
-4.0873
 11
-2.75
 21
-4.76314
  0
LINE
  8
0
 10
-2.75
 20
-4.76314
 11
-1.69959
 21
-5.23081
  0
LINE
  8
0
 10
-1.69959
 20
-5.23081
 11
-0.574907
 21
-5.46987
  0
LINE
  8
0
 10
-0.574907
 20
-5.46987
 11
0.574907
 21
-5.46987
  0
LINE
  8
0
 10
0.574907
 20
-5.46987
 11
1.69959
 21
-5.23081
  0
LINE
  8
0
 10
1.69959
 20
-5.23081
 11
2.75
 21
-4.76314
  0
LINE
  8
0
 10
2.75
 20
-4.76314
 11
3.68022
 21
-4.0873
  0
LINE
  8
0
 10
3.68022
 20
-4.0873
 11
4.44959
 21
-3.23282
  0
LINE
  8
0
 10
4.44959
 20
-3.23282
 11
5.0245
 21
-2.23705
  0
LINE
  8
0
 10
5.0245
 20
-2.23705
 11
5.37981
 21
-1.14351
  0
LINE
  8
0
 10
5.37981
 20
-1.14351
 11
5.5
 21
0
  0
LINE
  8
0
 10
5.5
 20
0
 11
5.37981
 21
1.14351
  0
LINE
  8
0
 10
5.37981
 20
1.14351
 11
5.0245
 21
2.23705
  0
LINE
  8
0
 10
5.0245
 20
2.23705
 11
4.44959
 21
3.23282
  0
LINE
  8
0
 10
4.44959
 20
3.23282
 11
-27.9667
 21
48.1983
  0
LINE
  8
0
 10
-27.9667
 20
48.1983
 11
-28.736
 21
49.0528
  0
LINE
  8
0
 10
-28.736
 20
49.0528
 11
-29.6663
 21
49.7286
  0
LINE
  8
0
 10
-29.6663
 20
49.7286
 11
-30.7167
 21
50.1963
  0
LINE
  8
0
 10
-30.7167
 20
50.1963
 11
-31.8413
 21
50.4353
  0
LINE
  8
0
 10
-31.8413
 20
50.4353
 11
-32.9912
 21
50.4353
  0
LINE
  8
0
 10
-32.9912
 20
50.4353
 11
-34.1158
 21
50.1963
  0
LINE
  8
0
 10
-34.1158
 20
50.1963
 11
-35.1663
 21
49.7286
  0
LINE
  8
0
 10
-35.1663
 20
49.7286
 11
-36.0965
 21
49.0528
  0
LINE
  8
0
 10
-36.0965
 20
49.0528
 11
-36.8658
 21
48.1983
  0
LINE
  8
0
 10
-36.8658
 20
48.1983
 11
-37.4408
 21
47.2025
  0
LINE
  8
0
 10
-37.4408
 20
47.2025
 11
-37.7961
 21
46.109
  0
LINE
  8
0
 10
-37.7961
 20
46.109
 11
-37.9163
 21
44.9655
  0
ENDSEC
  0
SECTION
  2
OBJECTS
  0
DICTIONARY
  0
ENDSEC
  0
EOF
