  0
SECTION
  2
BLOCKS
  0
ENDSEC
  0
SECTION
  2
ENTITIES
  0
LINE
  8
0
 10
-6.21771
 20
7.98232
 11
-5.56113
 21
8.18149
  0
LINE
  8
0
 10
-5.56113
 20
8.18149
 11
-4.95602
 21
8.50493
  0
LINE
  8
0
 10
-4.95602
 20
8.50493
 11
-4.42564
 21
8.94019
  0
LINE
  8
0
 10
-4.42564
 20
8.94019
 11
-3.99039
 21
9.47057
  0
LINE
  8
0
 10
-3.99039
 20
9.47057
 11
-3.66695
 21
10.0757
  0
LINE
  8
0
 10
-3.66695
 20
10.0757
 11
-3.46777
 21
10.7323
  0
LINE
  8
0
 10
-3.46777
 20
10.7323
 11
-3.40053
 21
11.4151
  0
LINE
  8
0
 10
-3.40053
 20
11.4151
 11
-3.46777
 21
12.0979
  0
LINE
  8
0
 10
-3.46777
 20
12.0979
 11
-3.66695
 21
12.7545
  0
LINE
  8
0
 10
-3.66695
 20
12.7545
 11
-3.99039
 21
13.3596
  0
LINE
  8
0
 10
-3.99039
 20
13.3596
 11
-4.42564
 21
13.8899
  0
LINE
  8
0
 10
-4.42564
 20
13.8899
 11
-4.95602
 21
14.3252
  0
LINE
  8
0
 10
-4.95602
 20
14.3252
 11
-5.56113
 21
14.6487
  0
LINE
  8
0
 10
-5.56113
 20
14.6487
 11
-6.21771
 21
14.8478
  0
LINE
  8
0
 10
-6.21771
 20
14.8478
 11
-6.90053
 21
14.9151
  0
LINE
  8
0
 10
-6.90053
 20
14.9151
 11
-7.58334
 21
14.8478
  0
LINE
  8
0
 10
-7.58334
 20
14.8478
 11
-8.23991
 21
14.6487
  0
LINE
  8
0
 10
-8.23991
 20
14.6487
 11
-8.84502
 21
14.3252
  0
LINE
  8
0
 10
-8.84502
 20
14.3252
 11
-9.3754
 21
13.8899
  0
LINE
  8
0
 10
-9.3754
 20
13.8899
 11
-9.81067
 21
13.3596
  0
LINE
  8
0
 10
-9.81067
 20
13.3596
 11
-10.1341
 21
12.7545
  0
LINE
  8
0
 10
-10.1341
 20
12.7545
 11
-10.3333
 21
12.0979
  0
LINE
  8
0
 10
-10.3333
 20
12.0979
 11
-10.4005
 21
11.4151
  0
LINE
  8
0
 10
-10.4005
 20
11.4151
 11
-10.3333
 21
10.7323
  0
LINE
  8
0
 10
-10.3333
 20
10.7323
 11
-10.1341
 21
10.0757
  0
LINE
  8
0
 10
-10.1341
 20
10.0757
 11
-9.81067
 21
9.47057
  0
LINE
  8
0
 10
-9.81067
 20
9.47057
 11
-9.3754
 21
8.94019
  0
LINE
  8
0
 10
-9.3754
 20
8.94019
 11
-8.84502
 21
8.50493
  0
LINE
  8
0
 10
-8.84502
 20
8.50493
 11
-8.23991
 21
8.18149
  0
LINE
  8
0
 10
-8.23991
 20
8.18149
 11
-7.58334
 21
7.98232
  0
LINE
  8
0
 10
-7.58334
 20
7.98232
 11
-6.90053
 21
7.91507
  0
LINE
  8
0
 10
-6.90053
 20
7.91507
 11
-6.21771
 21
7.98232
  0
LINE
  8
0
 10
0.682816
 20
-3.43274
 11
1.33939
 21
-3.23357
  0
LINE
  8
0
 10
1.33939
 20
-3.23357
 11
1.94449
 21
-2.91014
  0
LINE
  8
0
 10
1.94449
 20
-2.91014
 11
2.47487
 21
-2.47487
  0
LINE
  8
0
 10
2.47487
 20
-2.47487
 11
2.91014
 21
-1.94449
  0
LINE
  8
0
 10
2.91014
 20
-1.94449
 11
3.23357
 21
-1.33939
  0
LINE
  8
0
 10
3.23357
 20
-1.33939
 11
3.43274
 21
-0.682816
  0
LINE
  8
0
 10
3.43274
 20
-0.682816
 11
3.5
 21
0
  0
LINE
  8
0
 10
3.5
 20
0
 11
3.43274
 21
0.682816
  0
LINE
  8
0
 10
3.43274
 20
0.682816
 11
3.23357
 21
1.33939
  0
LINE
  8
0
 10
3.23357
 20
1.33939
 11
2.91014
 21
1.94449
  0
LINE
  8
0
 10
2.91014
 20
1.94449
 11
2.47487
 21
2.47487
  0
LINE
  8
0
 10
2.47487
 20
2.47487
 11
1.94449
 21
2.91014
  0
LINE
  8
0
 10
1.94449
 20
2.91014
 11
1.33939
 21
3.23357
  0
LINE
  8
0
 10
1.33939
 20
3.23357
 11
0.682816
 21
3.43274
  0
LINE
  8
0
 10
0.682816
 20
3.43274
 11
0
 21
3.5
  0
LINE
  8
0
 10
0
 20
3.5
 11
-0.682816
 21
3.43274
  0
LINE
  8
0
 10
-0.682816
 20
3.43274
 11
-1.33939
 21
3.23357
  0
LINE
  8
0
 10
-1.33939
 20
3.23357
 11
-1.94449
 21
2.91014
  0
LINE
  8
0
 10
-1.94449
 20
2.91014
 11
-2.47487
 21
2.47487
  0
LINE
  8
0
 10
-2.47487
 20
2.47487
 11
-2.91014
 21
1.94449
  0
LINE
  8
0
 10
-2.91014
 20
1.94449
 11
-3.23357
 21
1.33939
  0
LINE
  8
0
 10
-3.23357
 20
1.33939
 11
-3.43274
 21
0.682816
  0
LINE
  8
0
 10
-3.43274
 20
0.682816
 11
-3.5
 21
0
  0
LINE
  8
0
 10
-3.5
 20
0
 11
-3.43274
 21
-0.682816
  0
LINE
  8
0
 10
-3.43274
 20
-0.682816
 11
-3.23357
 21
-1.33939
  0
LINE
  8
0
 10
-3.23357
 20
-1.33939
 11
-2.91014
 21
-1.94449
  0
LINE
  8
0
 10
-2.91014
 20
-1.94449
 11
-2.47487
 21
-2.47487
  0
LINE
  8
0
 10
-2.47487
 20
-2.47487
 11
-1.94449
 21
-2.91014
  0
LINE
  8
0
 10
-1.94449
 20
-2.91014
 11
-1.33939
 21
-3.23357
  0
LINE
  8
0
 10
-1.33939
 20
-3.23357
 11
-0.682816
 21
-3.43274
  0
LINE
  8
0
 10
-0.682816
 20
-3.43274
 11
0
 21
-3.5
  0
LINE
  8
0
 10
0
 20
-3.5
 11
0.682816
 21
-3.43274
  0
ENDSEC
  0
SECTION
  2
OBJECTS
  0
DICTIONARY
  0
ENDSEC
  0
EOF
