  0
SECTION
  2
BLOCKS
  0
ENDSEC
  0
SECTION
  2
ENTITIES
  0
LINE
  8
0
 10
-9.08783
 20
93.0916
 11
-5.5
 21
3.11605e-15
  0
LINE
  8
0
 10
-5.5
 20
3.11605e-15
 11
-5.37981
 21
-1.14351
  0
LINE
  8
0
 10
-5.37981
 20
-1.14351
 11
-5.0245
 21
-2.23705
  0
LINE
  8
0
 10
-5.0245
 20
-2.23705
 11
-4.44959
 21
-3.23282
  0
LINE
  8
0
 10
-4.44959
 20
-3.23282
 11
-3.68022
 21
-4.0873
  0
LINE
  8
0
 10
-3.68022
 20
-4.0873
 11
-2.75
 21
-4.76314
  0
LINE
  8
0
 10
-2.75
 20
-4.76314
 11
-1.69959
 21
-5.23081
  0
LINE
  8
0
 10
-1.69959
 20
-5.23081
 11
-0.574907
 21
-5.46987
  0
LINE
  8
0
 10
-0.574907
 20
-5.46987
 11
0.574907
 21
-5.46987
  0
LINE
  8
0
 10
0.574907
 20
-5.46987
 11
1.69959
 21
-5.23081
  0
LINE
  8
0
 10
1.69959
 20
-5.23081
 11
2.75
 21
-4.76314
  0
LINE
  8
0
 10
2.75
 20
-4.76314
 11
3.68022
 21
-4.0873
  0
LINE
  8
0
 10
3.68022
 20
-4.0873
 11
4.44959
 21
-3.23282
  0
LINE
  8
0
 10
4.44959
 20
-3.23282
 11
5.0245
 21
-2.23705
  0
LINE
  8
0
 10
5.0245
 20
-2.23705
 11
5.37981
 21
-1.14351
  0
LINE
  8
0
 10
5.37981
 20
-1.14351
 11
5.5
 21
0
  0
LINE
  8
0
 10
5.5
 20
0
 11
1.91217
 21
93.0916
  0
LINE
  8
0
 10
1.91217
 20
93.0916
 11
1.79199
 21
94.2351
  0
LINE
  8
0
 10
1.79199
 20
94.2351
 11
1.43667
 21
95.3286
  0
LINE
  8
0
 10
1.43667
 20
95.3286
 11
0.861767
 21
96.3244
  0
LINE
  8
0
 10
0.861767
 20
96.3244
 11
0.0923915
 21
97.1789
  0
LINE
  8
0
 10
0.0923915
 20
97.1789
 11
-0.837827
 21
97.8547
  0
LINE
  8
0
 10
-0.837827
 20
97.8547
 11
-1.88823
 21
98.3224
  0
LINE
  8
0
 10
-1.88823
 20
98.3224
 11
-3.01292
 21
98.5614
  0
LINE
  8
0
 10
-3.01292
 20
98.5614
 11
-4.16273
 21
98.5614
  0
LINE
  8
0
 10
-4.16273
 20
98.5614
 11
-5.28742
 21
98.3224
  0
LINE
  8
0
 10
-5.28742
 20
98.3224
 11
-6.33783
 21
97.8547
  0
LINE
  8
0
 10
-6.33783
 20
97.8547
 11
-7.26805
 21
97.1789
  0
LINE
  8
0
 10
-7.26805
 20
97.1789
 11
-8.03742
 21
96.3244
  0
LINE
  8
0
 10
-8.03742
 20
96.3244
 11
-8.61233
 21
95.3286
  0
LINE
  8
0
 10
-8.61233
 20
95.3286
 11
-8.96764
 21
94.2351
  0
LINE
  8
0
 10
-8.96764
 20
94.2351
 11
-9.08783
 21
93.0916
  0
ENDSEC
  0
SECTION
  2
OBJECTS
  0
DICTIONARY
  0
ENDSEC
  0
EOF
