  0
SECTION
  2
BLOCKS
  0
ENDSEC
  0
SECTION
  2
ENTITIES
  0
LINE
  8
0
 10
2.34612
 20
-0.0576782
 11
2.5405
 21
-0.0387421
  0
LINE
  8
0
 10
2.5405
 20
-0.0387421
 11
2.72311
 21
-0.00718689
  0
LINE
  8
0
 10
2.72311
 20
-0.00718689
 11
2.894
 21
0.0369873
  0
LINE
  8
0
 10
2.894
 20
0.0369873
 11
3.05275
 21
0.0936737
  0
LINE
  8
0
 10
3.05275
 20
0.0936737
 11
3.198
 21
0.161743
  0
LINE
  8
0
 10
3.198
 20
0.161743
 11
3.32974
 21
0.24118
  0
LINE
  8
0
 10
3.32974
 20
0.24118
 11
3.448
 21
0.331985
  0
LINE
  8
0
 10
3.448
 20
0.331985
 11
3.55281
 21
0.434372
  0
LINE
  8
0
 10
3.55281
 20
0.434372
 11
3.64424
 21
0.547485
  0
LINE
  8
0
 10
3.64424
 20
0.547485
 11
3.72231
 21
0.671371
  0
LINE
  8
0
 10
3.72231
 20
0.671371
 11
3.78699
 21
0.806
  0
LINE
  8
0
 10
3.78699
 20
0.806
 11
3.83818
 21
0.951309
  0
LINE
  8
0
 10
3.83818
 20
0.951309
 11
3.87474
 21
1.10625
  0
LINE
  8
0
 10
3.87474
 20
1.10625
 11
3.89668
 21
1.2708
  0
LINE
  8
0
 10
3.89668
 20
1.2708
 11
3.90399
 21
1.44499
  0
LINE
  8
0
 10
3.90399
 20
1.44499
 11
3.89925
 21
1.55812
  0
LINE
  8
0
 10
3.89925
 20
1.55812
 11
3.88499
 21
1.66849
  0
LINE
  8
0
 10
3.88499
 20
1.66849
 11
3.86124
 21
1.77612
  0
LINE
  8
0
 10
3.86124
 20
1.77612
 11
3.82799
 21
1.881
  0
LINE
  8
0
 10
3.82799
 20
1.881
 11
3.78519
 21
1.98167
  0
LINE
  8
0
 10
3.78519
 20
1.98167
 11
3.73274
 21
2.07674
  0
LINE
  8
0
 10
3.73274
 20
2.07674
 11
3.67068
 21
2.16618
  0
LINE
  8
0
 10
3.67068
 20
2.16618
 11
3.599
 21
2.25
  0
LINE
  8
0
 10
3.599
 20
2.25
 11
3.51787
 21
2.32768
  0
LINE
  8
0
 10
3.51787
 20
2.32768
 11
3.4265
 21
2.39874
  0
LINE
  8
0
 10
3.4265
 20
2.39874
 11
3.32487
 21
2.46318
  0
LINE
  8
0
 10
3.32487
 20
2.46318
 11
3.213
 21
2.521
  0
LINE
  8
0
 10
3.213
 20
2.521
 11
3.09131
 21
2.57074
  0
LINE
  8
0
 10
3.09131
 20
2.57074
 11
2.95924
 21
2.61099
  0
LINE
  8
0
 10
2.95924
 20
2.61099
 11
2.8168
 21
2.64174
  0
LINE
  8
0
 10
2.8168
 20
2.64174
 11
2.66399
 21
2.66299
  0
LINE
  8
0
 10
2.66399
 20
2.66299
 11
2.66399
 21
2.67799
  0
LINE
  8
0
 10
2.66399
 20
2.67799
 11
2.80568
 21
2.71143
  0
LINE
  8
0
 10
2.80568
 20
2.71143
 11
2.93674
 21
2.75174
  0
LINE
  8
0
 10
2.93674
 20
2.75174
 11
3.05717
 21
2.79893
  0
LINE
  8
0
 10
3.05717
 20
2.79893
 11
3.16699
 21
2.853
  0
LINE
  8
0
 10
3.16699
 20
2.853
 11
3.26694
 21
2.91374
  0
LINE
  8
0
 10
3.26694
 20
2.91374
 11
3.35774
 21
2.98
  0
LINE
  8
0
 10
3.35774
 20
2.98
 11
3.43942
 21
3.05174
  0
LINE
  8
0
 10
3.43942
 20
3.05174
 11
3.51199
 21
3.129
  0
LINE
  8
0
 10
3.51199
 20
3.129
 11
3.57549
 21
3.21155
  0
LINE
  8
0
 10
3.57549
 20
3.21155
 11
3.62999
 21
3.29924
  0
LINE
  8
0
 10
3.62999
 20
3.29924
 11
3.67549
 21
3.39206
  0
LINE
  8
0
 10
3.67549
 20
3.39206
 11
3.71199
 21
3.48999
  0
LINE
  8
0
 10
3.71199
 20
3.48999
 11
3.73999
 21
3.59236
  0
LINE
  8
0
 10
3.73999
 20
3.59236
 11
3.75999
 21
3.69849
  0
LINE
  8
0
 10
3.75999
 20
3.69849
 11
3.77199
 21
3.80836
  0
LINE
  8
0
 10
3.77199
 20
3.80836
 11
3.77599
 21
3.922
  0
LINE
  8
0
 10
3.77599
 20
3.922
 11
3.76999
 21
4.06337
  0
LINE
  8
0
 10
3.76999
 20
4.06337
 11
3.752
 21
4.20049
  0
LINE
  8
0
 10
3.752
 20
4.20049
 11
3.72198
 21
4.33337
  0
LINE
  8
0
 10
3.72198
 20
4.33337
 11
3.67999
 21
4.46199
  0
LINE
  8
0
 10
3.67999
 20
4.46199
 11
3.62581
 21
4.58487
  0
LINE
  8
0
 10
3.62581
 20
4.58487
 11
3.55824
 21
4.69949
  0
LINE
  8
0
 10
3.55824
 20
4.69949
 11
3.47731
 21
4.80586
  0
LINE
  8
0
 10
3.47731
 20
4.80586
 11
3.383
 21
4.90399
  0
LINE
  8
0
 10
3.383
 20
4.90399
 11
3.27518
 21
4.99312
  0
LINE
  8
0
 10
3.27518
 20
4.99312
 11
3.15274
 21
5.07249
  0
LINE
  8
0
 10
3.15274
 20
5.07249
 11
3.01569
 21
5.14212
  0
LINE
  8
0
 10
3.01569
 20
5.14212
 11
2.864
 21
5.202
  0
LINE
  8
0
 10
2.864
 20
5.202
 11
2.69774
 21
5.25012
  0
LINE
  8
0
 10
2.69774
 20
5.25012
 11
2.51599
 21
5.28448
  0
LINE
  8
0
 10
2.51599
 20
5.28448
 11
2.31874
 21
5.30511
  0
LINE
  8
0
 10
2.31874
 20
5.30511
 11
2.10599
 21
5.312
  0
LINE
  8
0
 10
2.10599
 20
5.312
 11
1.94225
 21
5.30675
  0
LINE
  8
0
 10
1.94225
 20
5.30675
 11
1.78299
 21
5.29099
  0
LINE
  8
0
 10
1.78299
 20
5.29099
 11
1.62823
 21
5.26474
  0
LINE
  8
0
 10
1.62823
 20
5.26474
 11
1.478
 21
5.228
  0
LINE
  8
0
 10
1.478
 20
5.228
 11
1.33455
 21
5.18106
  0
LINE
  8
0
 10
1.33455
 20
5.18106
 11
1.19925
 21
5.12325
  0
LINE
  8
0
 10
1.19925
 20
5.12325
 11
1.07205
 21
5.05455
  0
LINE
  8
0
 10
1.07205
 20
5.05455
 11
0.952988
 21
4.97499
  0
LINE
  8
0
 10
0.952988
 20
4.97499
 11
0.84343
 21
4.88499
  0
LINE
  8
0
 10
0.84343
 20
4.88499
 11
0.743744
 21
4.784
  0
LINE
  8
0
 10
0.743744
 20
4.784
 11
0.653931
 21
4.672
  0
LINE
  8
0
 10
0.653931
 20
4.672
 11
0.57399
 21
4.549
  0
LINE
  8
0
 10
0.57399
 20
4.549
 11
0.506241
 21
4.41537
  0
LINE
  8
0
 10
0.506241
 20
4.41537
 11
0.451996
 21
4.27049
  0
LINE
  8
0
 10
0.451996
 20
4.27049
 11
0.41124
 21
4.11436
  0
LINE
  8
0
 10
0.41124
 20
4.11436
 11
0.383987
 21
3.94699
  0
LINE
  8
0
 10
0.383987
 20
3.94699
 11
1.088
 21
3.89499
  0
LINE
  8
0
 10
1.088
 20
3.89499
 11
1.12405
 21
4.08418
  0
LINE
  8
0
 10
1.12405
 20
4.08418
 11
1.18825
 21
4.25075
  0
LINE
  8
0
 10
1.18825
 20
4.25075
 11
1.28055
 21
4.39468
  0
LINE
  8
0
 10
1.28055
 20
4.39468
 11
1.40099
 21
4.51599
  0
LINE
  8
0
 10
1.40099
 20
4.51599
 11
1.54593
 21
4.61224
  0
LINE
  8
0
 10
1.54593
 20
4.61224
 11
1.71175
 21
4.681
  0
LINE
  8
0
 10
1.71175
 20
4.681
 11
1.89844
 21
4.72224
  0
LINE
  8
0
 10
1.89844
 20
4.72224
 11
2.10599
 21
4.73599
  0
LINE
  8
0
 10
2.10599
 20
4.73599
 11
2.33075
 21
4.72093
  0
LINE
  8
0
 10
2.33075
 20
4.72093
 11
2.52599
 21
4.67574
  0
LINE
  8
0
 10
2.52599
 20
4.67574
 11
2.69174
 21
4.60043
  0
LINE
  8
0
 10
2.69174
 20
4.60043
 11
2.82799
 21
4.495
  0
LINE
  8
0
 10
2.82799
 20
4.495
 11
2.93474
 21
4.36356
  0
LINE
  8
0
 10
2.93474
 20
4.36356
 11
3.01099
 21
4.21024
  0
LINE
  8
0
 10
3.01099
 20
4.21024
 11
3.05675
 21
4.03505
  0
LINE
  8
0
 10
3.05675
 20
4.03505
 11
3.07199
 21
3.838
  0
LINE
  8
0
 10
3.07199
 20
3.838
 11
3.06505
 21
3.70993
  0
LINE
  8
0
 10
3.06505
 20
3.70993
 11
3.04424
 21
3.59375
  0
LINE
  8
0
 10
3.04424
 20
3.59375
 11
3.00955
 21
3.48943
  0
LINE
  8
0
 10
3.00955
 20
3.48943
 11
2.961
 21
3.39699
  0
LINE
  8
0
 10
2.961
 20
3.39699
 11
2.90175
 21
3.31493
  0
LINE
  8
0
 10
2.90175
 20
3.31493
 11
2.83499
 21
3.24174
  0
LINE
  8
0
 10
2.83499
 20
3.24174
 11
2.76074
 21
3.17743
  0
LINE
  8
0
 10
2.76074
 20
3.17743
 11
2.67899
 21
3.12199
  0
LINE
  8
0
 10
2.67899
 20
3.12199
 11
2.59167
 21
3.07536
  0
LINE
  8
0
 10
2.59167
 20
3.07536
 11
2.49974
 21
3.0365
  0
LINE
  8
0
 10
2.49974
 20
3.0365
 11
2.40318
 21
3.00537
  0
LINE
  8
0
 10
2.40318
 20
3.00537
 11
2.30199
 21
2.98199
  0
LINE
  8
0
 10
2.30199
 20
2.98199
 11
2.19987
 21
2.96536
  0
LINE
  8
0
 10
2.19987
 20
2.96536
 11
2.09949
 21
2.95349
  0
LINE
  8
0
 10
2.09949
 20
2.95349
 11
2.00087
 21
2.94637
  0
LINE
  8
0
 10
2.00087
 20
2.94637
 11
1.90399
 21
2.94398
  0
LINE
  8
0
 10
1.90399
 20
2.94398
 11
1.536
 21
2.94398
  0
LINE
  8
0
 10
1.536
 20
2.94398
 11
1.536
 21
2.368
  0
LINE
  8
0
 10
1.536
 20
2.368
 11
1.91699
 21
2.368
  0
LINE
  8
0
 10
1.91699
 20
2.368
 11
2.01418
 21
2.36594
  0
LINE
  8
0
 10
2.01418
 20
2.36594
 11
2.11574
 21
2.35974
  0
LINE
  8
0
 10
2.11574
 20
2.35974
 11
2.22168
 21
2.34943
  0
LINE
  8
0
 10
2.22168
 20
2.34943
 11
2.33199
 21
2.33499
  0
LINE
  8
0
 10
2.33199
 20
2.33499
 11
2.44287
 21
2.31456
  0
LINE
  8
0
 10
2.44287
 20
2.31456
 11
2.5495
 21
2.28624
  0
LINE
  8
0
 10
2.5495
 20
2.28624
 11
2.65187
 21
2.25006
  0
LINE
  8
0
 10
2.65187
 20
2.25006
 11
2.75
 21
2.20599
  0
LINE
  8
0
 10
2.75
 20
2.20599
 11
2.84242
 21
2.15318
  0
LINE
  8
0
 10
2.84242
 20
2.15318
 11
2.92674
 21
2.09074
  0
LINE
  8
0
 10
2.92674
 20
2.09074
 11
3.00293
 21
2.01868
  0
LINE
  8
0
 10
3.00293
 20
2.01868
 11
3.071
 21
1.937
  0
LINE
  8
0
 10
3.071
 20
1.937
 11
3.12743
 21
1.84355
  0
LINE
  8
0
 10
3.12743
 20
1.84355
 11
3.16774
 21
1.73624
  0
LINE
  8
0
 10
3.16774
 20
1.73624
 11
3.19193
 21
1.61505
  0
LINE
  8
0
 10
3.19193
 20
1.61505
 11
3.2
 21
1.48
  0
LINE
  8
0
 10
3.2
 20
1.48
 11
3.18237
 21
1.25475
  0
LINE
  8
0
 10
3.18237
 20
1.25475
 11
3.12949
 21
1.05899
  0
LINE
  8
0
 10
3.12949
 20
1.05899
 11
3.04137
 21
0.892746
  0
LINE
  8
0
 10
3.04137
 20
0.892746
 11
2.918
 21
0.755997
  0
LINE
  8
0
 10
2.918
 20
0.755997
 11
2.76369
 21
0.649246
  0
LINE
  8
0
 10
2.76369
 20
0.649246
 11
2.58275
 21
0.572998
  0
LINE
  8
0
 10
2.58275
 20
0.572998
 11
2.37518
 21
0.527237
  0
LINE
  8
0
 10
2.37518
 20
0.527237
 11
2.14099
 21
0.511993
  0
LINE
  8
0
 10
2.14099
 20
0.511993
 11
2.01099
 21
0.516052
  0
LINE
  8
0
 10
2.01099
 20
0.516052
 11
1.89
 21
0.528244
  0
LINE
  8
0
 10
1.89
 20
0.528244
 11
1.778
 21
0.548553
  0
LINE
  8
0
 10
1.778
 20
0.548553
 11
1.67499
 21
0.576996
  0
LINE
  8
0
 10
1.67499
 20
0.576996
 11
1.58081
 21
0.613312
  0
LINE
  8
0
 10
1.58081
 20
0.613312
 11
1.49425
 21
0.65625
  0
LINE
  8
0
 10
1.49425
 20
0.65625
 11
1.4153
 21
0.705811
  0
LINE
  8
0
 10
1.4153
 20
0.705811
 11
1.34399
 21
0.761993
  0
LINE
  8
0
 10
1.34399
 20
0.761993
 11
1.28043
 21
0.824936
  0
LINE
  8
0
 10
1.28043
 20
0.824936
 11
1.22374
 21
0.893738
  0
LINE
  8
0
 10
1.22374
 20
0.893738
 11
1.17393
 21
0.96843
  0
LINE
  8
0
 10
1.17393
 20
0.96843
 11
1.131
 21
1.049
  0
LINE
  8
0
 10
1.131
 20
1.049
 11
1.09506
 21
1.13474
  0
LINE
  8
0
 10
1.09506
 20
1.13474
 11
1.06525
 21
1.22499
  0
LINE
  8
0
 10
1.06525
 20
1.22499
 11
1.04155
 21
1.31975
  0
LINE
  8
0
 10
1.04155
 20
1.31975
 11
1.02399
 21
1.41899
  0
LINE
  8
0
 10
1.02399
 20
1.41899
 11
0.319992
 21
1.35599
  0
LINE
  8
0
 10
0.319992
 20
1.35599
 11
0.34111
 21
1.22105
  0
LINE
  8
0
 10
0.34111
 20
1.22105
 11
0.37149
 21
1.08824
  0
LINE
  8
0
 10
0.37149
 20
1.08824
 11
0.411118
 21
0.95755
  0
LINE
  8
0
 10
0.411118
 20
0.95755
 11
0.459991
 21
0.828995
  0
LINE
  8
0
 10
0.459991
 20
0.828995
 11
0.520187
 21
0.705429
  0
LINE
  8
0
 10
0.520187
 20
0.705429
 11
0.59375
 21
0.588745
  0
LINE
  8
0
 10
0.59375
 20
0.588745
 11
0.680679
 21
0.478928
  0
LINE
  8
0
 10
0.680679
 20
0.478928
 11
0.780991
 21
0.375992
  0
LINE
  8
0
 10
0.780991
 20
0.375992
 11
0.895248
 21
0.281799
  0
LINE
  8
0
 10
0.895248
 20
0.281799
 11
1.02399
 21
0.197235
  0
LINE
  8
0
 10
1.02399
 20
0.197235
 11
1.16724
 21
0.122299
  0
LINE
  8
0
 10
1.16724
 20
0.122299
 11
1.325
 21
0.0569916
  0
LINE
  8
0
 10
1.325
 20
0.0569916
 11
1.50006
 21
0.00405884
  0
LINE
  8
0
 10
1.50006
 20
0.00405884
 11
1.69424
 21
-0.0337372
  0
LINE
  8
0
 10
1.69424
 20
-0.0337372
 11
1.90756
 21
-0.056427
  0
LINE
  8
0
 10
1.90756
 20
-0.056427
 11
2.14
 21
-0.0639954
  0
LINE
  8
0
 10
2.14
 20
-0.0639954
 11
2.34612
 21
-0.0576782
  0
ENDSEC
  0
SECTION
  2
OBJECTS
  0
DICTIONARY
  0
ENDSEC
  0
EOF
