  0
SECTION
  2
BLOCKS
  0
ENDSEC
  0
SECTION
  2
ENTITIES
  0
LINE
  8
0
 10
3.5
 20
0
 11
3.42352
 21
0.727691
  0
LINE
  8
0
 10
3.42352
 20
0.727691
 11
3.19741
 21
1.42358
  0
LINE
  8
0
 10
3.19741
 20
1.42358
 11
2.83156
 21
2.05725
  0
LINE
  8
0
 10
2.83156
 20
2.05725
 11
2.34196
 21
2.60101
  0
LINE
  8
0
 10
2.34196
 20
2.60101
 11
1.75
 21
3.03109
  0
LINE
  8
0
 10
1.75
 20
3.03109
 11
1.08156
 21
3.3287
  0
LINE
  8
0
 10
1.08156
 20
3.3287
 11
0.36585
 21
3.48083
  0
LINE
  8
0
 10
0.36585
 20
3.48083
 11
-0.36585
 21
3.48083
  0
LINE
  8
0
 10
-0.36585
 20
3.48083
 11
-1.08156
 21
3.3287
  0
LINE
  8
0
 10
-1.08156
 20
3.3287
 11
-1.75
 21
3.03109
  0
LINE
  8
0
 10
-1.75
 20
3.03109
 11
-2.34196
 21
2.60101
  0
LINE
  8
0
 10
-2.34196
 20
2.60101
 11
-2.83156
 21
2.05725
  0
LINE
  8
0
 10
-2.83156
 20
2.05725
 11
-3.19741
 21
1.42358
  0
LINE
  8
0
 10
-3.19741
 20
1.42358
 11
-3.42352
 21
0.727691
  0
LINE
  8
0
 10
-3.42352
 20
0.727691
 11
-3.5
 21
1.98294e-15
  0
LINE
  8
0
 10
-3.5
 20
1.98294e-15
 11
-3.42352
 21
-0.727691
  0
LINE
  8
0
 10
-3.42352
 20
-0.727691
 11
-3.19741
 21
-1.42358
  0
LINE
  8
0
 10
-3.19741
 20
-1.42358
 11
-2.83156
 21
-2.05725
  0
LINE
  8
0
 10
-2.83156
 20
-2.05725
 11
-2.34196
 21
-2.60101
  0
LINE
  8
0
 10
-2.34196
 20
-2.60101
 11
-1.75
 21
-3.03109
  0
LINE
  8
0
 10
-1.75
 20
-3.03109
 11
-1.08156
 21
-3.3287
  0
LINE
  8
0
 10
-1.08156
 20
-3.3287
 11
-0.36585
 21
-3.48083
  0
LINE
  8
0
 10
-0.36585
 20
-3.48083
 11
0.36585
 21
-3.48083
  0
LINE
  8
0
 10
0.36585
 20
-3.48083
 11
1.08156
 21
-3.3287
  0
LINE
  8
0
 10
1.08156
 20
-3.3287
 11
1.75
 21
-3.03109
  0
LINE
  8
0
 10
1.75
 20
-3.03109
 11
2.34196
 21
-2.60101
  0
LINE
  8
0
 10
2.34196
 20
-2.60101
 11
2.83156
 21
-2.05725
  0
LINE
  8
0
 10
2.83156
 20
-2.05725
 11
3.19741
 21
-1.42358
  0
LINE
  8
0
 10
3.19741
 20
-1.42358
 11
3.42352
 21
-0.727691
  0
LINE
  8
0
 10
3.42352
 20
-0.727691
 11
3.5
 21
0
  0
ENDSEC
  0
SECTION
  2
OBJECTS
  0
DICTIONARY
  0
ENDSEC
  0
EOF
