  0
SECTION
  2
BLOCKS
  0
ENDSEC
  0
SECTION
  2
ENTITIES
  0
LINE
  8
0
 10
-46.9746
 20
61.7832
 11
-46.8544
 21
60.6397
  0
LINE
  8
0
 10
-46.8544
 20
60.6397
 11
-46.4991
 21
59.5462
  0
LINE
  8
0
 10
-46.4991
 20
59.5462
 11
-45.9242
 21
58.5504
  0
LINE
  8
0
 10
-45.9242
 20
58.5504
 11
-4.44959
 21
-3.23282
  0
LINE
  8
0
 10
-4.44959
 20
-3.23282
 11
-3.68022
 21
-4.0873
  0
LINE
  8
0
 10
-3.68022
 20
-4.0873
 11
-2.75
 21
-4.76314
  0
LINE
  8
0
 10
-2.75
 20
-4.76314
 11
-1.69959
 21
-5.23081
  0
LINE
  8
0
 10
-1.69959
 20
-5.23081
 11
-0.574907
 21
-5.46987
  0
LINE
  8
0
 10
-0.574907
 20
-5.46987
 11
0.574907
 21
-5.46987
  0
LINE
  8
0
 10
0.574907
 20
-5.46987
 11
1.69959
 21
-5.23081
  0
LINE
  8
0
 10
1.69959
 20
-5.23081
 11
2.75
 21
-4.76314
  0
LINE
  8
0
 10
2.75
 20
-4.76314
 11
3.68022
 21
-4.0873
  0
LINE
  8
0
 10
3.68022
 20
-4.0873
 11
4.44959
 21
-3.23282
  0
LINE
  8
0
 10
4.44959
 20
-3.23282
 11
5.0245
 21
-2.23705
  0
LINE
  8
0
 10
5.0245
 20
-2.23705
 11
5.37981
 21
-1.14351
  0
LINE
  8
0
 10
5.37981
 20
-1.14351
 11
5.5
 21
0
  0
LINE
  8
0
 10
5.5
 20
0
 11
5.37981
 21
1.14351
  0
LINE
  8
0
 10
5.37981
 20
1.14351
 11
5.0245
 21
2.23705
  0
LINE
  8
0
 10
5.0245
 20
2.23705
 11
4.44959
 21
3.23282
  0
LINE
  8
0
 10
4.44959
 20
3.23282
 11
-37.025
 21
65.016
  0
LINE
  8
0
 10
-37.025
 20
65.016
 11
-37.7944
 21
65.8705
  0
LINE
  8
0
 10
-37.7944
 20
65.8705
 11
-38.7246
 21
66.5463
  0
LINE
  8
0
 10
-38.7246
 20
66.5463
 11
-39.775
 21
67.014
  0
LINE
  8
0
 10
-39.775
 20
67.014
 11
-40.8997
 21
67.2531
  0
LINE
  8
0
 10
-40.8997
 20
67.2531
 11
-42.0495
 21
67.2531
  0
LINE
  8
0
 10
-42.0495
 20
67.2531
 11
-43.1742
 21
67.014
  0
LINE
  8
0
 10
-43.1742
 20
67.014
 11
-44.2246
 21
66.5463
  0
LINE
  8
0
 10
-44.2246
 20
66.5463
 11
-45.1548
 21
65.8705
  0
LINE
  8
0
 10
-45.1548
 20
65.8705
 11
-45.9242
 21
65.016
  0
LINE
  8
0
 10
-45.9242
 20
65.016
 11
-46.4991
 21
64.0203
  0
LINE
  8
0
 10
-46.4991
 20
64.0203
 11
-46.8544
 21
62.9267
  0
LINE
  8
0
 10
-46.8544
 20
62.9267
 11
-46.9746
 21
61.7832
  0
ENDSEC
  0
SECTION
  2
OBJECTS
  0
DICTIONARY
  0
ENDSEC
  0
EOF
