  0
SECTION
  2
BLOCKS
  0
ENDSEC
  0
SECTION
  2
ENTITIES
  0
LINE
  8
0
 10
-15.6272
 20
180.737
 11
-14.9706
 21
180.936
  0
LINE
  8
0
 10
-14.9706
 20
180.936
 11
-14.3655
 21
181.26
  0
LINE
  8
0
 10
-14.3655
 20
181.26
 11
-13.8351
 21
181.695
  0
LINE
  8
0
 10
-13.8351
 20
181.695
 11
-13.3998
 21
182.225
  0
LINE
  8
0
 10
-13.3998
 20
182.225
 11
-13.0764
 21
182.831
  0
LINE
  8
0
 10
-13.0764
 20
182.831
 11
-12.8772
 21
183.487
  0
LINE
  8
0
 10
-12.8772
 20
183.487
 11
-12.81
 21
184.17
  0
LINE
  8
0
 10
-12.81
 20
184.17
 11
-12.8772
 21
184.853
  0
LINE
  8
0
 10
-12.8772
 20
184.853
 11
-13.0764
 21
185.509
  0
LINE
  8
0
 10
-13.0764
 20
185.509
 11
-13.3998
 21
186.114
  0
LINE
  8
0
 10
-13.3998
 20
186.114
 11
-13.8351
 21
186.645
  0
LINE
  8
0
 10
-13.8351
 20
186.645
 11
-14.3655
 21
187.08
  0
LINE
  8
0
 10
-14.3655
 20
187.08
 11
-14.9706
 21
187.404
  0
LINE
  8
0
 10
-14.9706
 20
187.404
 11
-15.6272
 21
187.603
  0
LINE
  8
0
 10
-15.6272
 20
187.603
 11
-16.31
 21
187.67
  0
LINE
  8
0
 10
-16.31
 20
187.67
 11
-16.9928
 21
187.603
  0
LINE
  8
0
 10
-16.9928
 20
187.603
 11
-17.6494
 21
187.404
  0
LINE
  8
0
 10
-17.6494
 20
187.404
 11
-18.2545
 21
187.08
  0
LINE
  8
0
 10
-18.2545
 20
187.08
 11
-18.7849
 21
186.645
  0
LINE
  8
0
 10
-18.7849
 20
186.645
 11
-19.2201
 21
186.114
  0
LINE
  8
0
 10
-19.2201
 20
186.114
 11
-19.5436
 21
185.509
  0
LINE
  8
0
 10
-19.5436
 20
185.509
 11
-19.7427
 21
184.853
  0
LINE
  8
0
 10
-19.7427
 20
184.853
 11
-19.81
 21
184.17
  0
LINE
  8
0
 10
-19.81
 20
184.17
 11
-19.7427
 21
183.487
  0
LINE
  8
0
 10
-19.7427
 20
183.487
 11
-19.5436
 21
182.831
  0
LINE
  8
0
 10
-19.5436
 20
182.831
 11
-19.2201
 21
182.225
  0
LINE
  8
0
 10
-19.2201
 20
182.225
 11
-18.7849
 21
181.695
  0
LINE
  8
0
 10
-18.7849
 20
181.695
 11
-18.2545
 21
181.26
  0
LINE
  8
0
 10
-18.2545
 20
181.26
 11
-17.6494
 21
180.936
  0
LINE
  8
0
 10
-17.6494
 20
180.936
 11
-16.9928
 21
180.737
  0
LINE
  8
0
 10
-16.9928
 20
180.737
 11
-16.31
 21
180.67
  0
LINE
  8
0
 10
-16.31
 20
180.67
 11
-15.6272
 21
180.737
  0
LINE
  8
0
 10
0.682816
 20
-3.43274
 11
1.33939
 21
-3.23357
  0
LINE
  8
0
 10
1.33939
 20
-3.23357
 11
1.94449
 21
-2.91014
  0
LINE
  8
0
 10
1.94449
 20
-2.91014
 11
2.47487
 21
-2.47487
  0
LINE
  8
0
 10
2.47487
 20
-2.47487
 11
2.91014
 21
-1.94449
  0
LINE
  8
0
 10
2.91014
 20
-1.94449
 11
3.23357
 21
-1.33939
  0
LINE
  8
0
 10
3.23357
 20
-1.33939
 11
3.43274
 21
-0.682816
  0
LINE
  8
0
 10
3.43274
 20
-0.682816
 11
3.5
 21
0
  0
LINE
  8
0
 10
3.5
 20
0
 11
3.43274
 21
0.682816
  0
LINE
  8
0
 10
3.43274
 20
0.682816
 11
3.23357
 21
1.33939
  0
LINE
  8
0
 10
3.23357
 20
1.33939
 11
2.91014
 21
1.94449
  0
LINE
  8
0
 10
2.91014
 20
1.94449
 11
2.47487
 21
2.47487
  0
LINE
  8
0
 10
2.47487
 20
2.47487
 11
1.94449
 21
2.91014
  0
LINE
  8
0
 10
1.94449
 20
2.91014
 11
1.33939
 21
3.23357
  0
LINE
  8
0
 10
1.33939
 20
3.23357
 11
0.682816
 21
3.43274
  0
LINE
  8
0
 10
0.682816
 20
3.43274
 11
0
 21
3.5
  0
LINE
  8
0
 10
0
 20
3.5
 11
-0.682816
 21
3.43274
  0
LINE
  8
0
 10
-0.682816
 20
3.43274
 11
-1.33939
 21
3.23357
  0
LINE
  8
0
 10
-1.33939
 20
3.23357
 11
-1.94449
 21
2.91014
  0
LINE
  8
0
 10
-1.94449
 20
2.91014
 11
-2.47487
 21
2.47487
  0
LINE
  8
0
 10
-2.47487
 20
2.47487
 11
-2.91014
 21
1.94449
  0
LINE
  8
0
 10
-2.91014
 20
1.94449
 11
-3.23357
 21
1.33939
  0
LINE
  8
0
 10
-3.23357
 20
1.33939
 11
-3.43274
 21
0.682816
  0
LINE
  8
0
 10
-3.43274
 20
0.682816
 11
-3.5
 21
0
  0
LINE
  8
0
 10
-3.5
 20
0
 11
-3.43274
 21
-0.682816
  0
LINE
  8
0
 10
-3.43274
 20
-0.682816
 11
-3.23357
 21
-1.33939
  0
LINE
  8
0
 10
-3.23357
 20
-1.33939
 11
-2.91014
 21
-1.94449
  0
LINE
  8
0
 10
-2.91014
 20
-1.94449
 11
-2.47487
 21
-2.47487
  0
LINE
  8
0
 10
-2.47487
 20
-2.47487
 11
-1.94449
 21
-2.91014
  0
LINE
  8
0
 10
-1.94449
 20
-2.91014
 11
-1.33939
 21
-3.23357
  0
LINE
  8
0
 10
-1.33939
 20
-3.23357
 11
-0.682816
 21
-3.43274
  0
LINE
  8
0
 10
-0.682816
 20
-3.43274
 11
0
 21
-3.5
  0
LINE
  8
0
 10
0
 20
-3.5
 11
0.682816
 21
-3.43274
  0
LINE
  8
0
 10
51.1355
 20
-87.3178
 11
51.7921
 21
-87.1186
  0
LINE
  8
0
 10
51.7921
 20
-87.1186
 11
52.3972
 21
-86.7952
  0
LINE
  8
0
 10
52.3972
 20
-86.7952
 11
52.9275
 21
-86.3599
  0
LINE
  8
0
 10
52.9275
 20
-86.3599
 11
53.3628
 21
-85.8295
  0
LINE
  8
0
 10
53.3628
 20
-85.8295
 11
53.6862
 21
-85.2244
  0
LINE
  8
0
 10
53.6862
 20
-85.2244
 11
53.8854
 21
-84.5678
  0
LINE
  8
0
 10
53.8854
 20
-84.5678
 11
53.9527
 21
-83.885
  0
LINE
  8
0
 10
53.9527
 20
-83.885
 11
53.8854
 21
-83.2022
  0
LINE
  8
0
 10
53.8854
 20
-83.2022
 11
53.6862
 21
-82.5456
  0
LINE
  8
0
 10
53.6862
 20
-82.5456
 11
53.3628
 21
-81.9405
  0
LINE
  8
0
 10
53.3628
 20
-81.9405
 11
52.9275
 21
-81.4101
  0
LINE
  8
0
 10
52.9275
 20
-81.4101
 11
52.3972
 21
-80.9749
  0
LINE
  8
0
 10
52.3972
 20
-80.9749
 11
51.7921
 21
-80.6514
  0
LINE
  8
0
 10
51.7921
 20
-80.6514
 11
51.1355
 21
-80.4523
  0
LINE
  8
0
 10
51.1355
 20
-80.4523
 11
50.4527
 21
-80.385
  0
LINE
  8
0
 10
50.4527
 20
-80.385
 11
49.7699
 21
-80.4523
  0
LINE
  8
0
 10
49.7699
 20
-80.4523
 11
49.1133
 21
-80.6514
  0
LINE
  8
0
 10
49.1133
 20
-80.6514
 11
48.5082
 21
-80.9749
  0
LINE
  8
0
 10
48.5082
 20
-80.9749
 11
47.9778
 21
-81.4101
  0
LINE
  8
0
 10
47.9778
 20
-81.4101
 11
47.5425
 21
-81.9405
  0
LINE
  8
0
 10
47.5425
 20
-81.9405
 11
47.2191
 21
-82.5456
  0
LINE
  8
0
 10
47.2191
 20
-82.5456
 11
47.0199
 21
-83.2022
  0
LINE
  8
0
 10
47.0199
 20
-83.2022
 11
46.9527
 21
-83.885
  0
LINE
  8
0
 10
46.9527
 20
-83.885
 11
47.0199
 21
-84.5678
  0
LINE
  8
0
 10
47.0199
 20
-84.5678
 11
47.2191
 21
-85.2244
  0
LINE
  8
0
 10
47.2191
 20
-85.2244
 11
47.5425
 21
-85.8295
  0
LINE
  8
0
 10
47.5425
 20
-85.8295
 11
47.9778
 21
-86.3599
  0
LINE
  8
0
 10
47.9778
 20
-86.3599
 11
48.5082
 21
-86.7952
  0
LINE
  8
0
 10
48.5082
 20
-86.7952
 11
49.1133
 21
-87.1186
  0
LINE
  8
0
 10
49.1133
 20
-87.1186
 11
49.7699
 21
-87.3178
  0
LINE
  8
0
 10
49.7699
 20
-87.3178
 11
50.4527
 21
-87.385
  0
LINE
  8
0
 10
50.4527
 20
-87.385
 11
51.1355
 21
-87.3178
  0
ENDSEC
  0
SECTION
  2
OBJECTS
  0
DICTIONARY
  0
ENDSEC
  0
EOF
