  0
SECTION
  2
BLOCKS
  0
ENDSEC
  0
SECTION
  2
ENTITIES
  0
LINE
  8
0
 10
2.32217
 20
-0.0554352
 11
2.50374
 21
-0.0297394
  0
LINE
  8
0
 10
2.50374
 20
-0.0297394
 11
2.67969
 21
0.0130615
  0
LINE
  8
0
 10
2.67969
 20
0.0130615
 11
2.84999
 21
0.072998
  0
LINE
  8
0
 10
2.84999
 20
0.072998
 11
3.01205
 21
0.15274
  0
LINE
  8
0
 10
3.01205
 20
0.15274
 11
3.16324
 21
0.25499
  0
LINE
  8
0
 10
3.16324
 20
0.25499
 11
3.30356
 21
0.379745
  0
LINE
  8
0
 10
3.30356
 20
0.379745
 11
3.433
 21
0.526993
  0
LINE
  8
0
 10
3.433
 20
0.526993
 11
3.55043
 21
0.697739
  0
LINE
  8
0
 10
3.55043
 20
0.697739
 11
3.65474
 21
0.89299
  0
LINE
  8
0
 10
3.65474
 20
0.89299
 11
3.74593
 21
1.11275
  0
LINE
  8
0
 10
3.74593
 20
1.11275
 11
3.82399
 21
1.35699
  0
LINE
  8
0
 10
3.82399
 20
1.35699
 11
3.88699
 21
1.62894
  0
LINE
  8
0
 10
3.88699
 20
1.62894
 11
3.93199
 21
1.93074
  0
LINE
  8
0
 10
3.93199
 20
1.93074
 11
3.959
 21
2.26244
  0
LINE
  8
0
 10
3.959
 20
2.26244
 11
3.96799
 21
2.62399
  0
LINE
  8
0
 10
3.96799
 20
2.62399
 11
3.95912
 21
3.00192
  0
LINE
  8
0
 10
3.95912
 20
3.00192
 11
3.9325
 21
3.34575
  0
LINE
  8
0
 10
3.9325
 20
3.34575
 11
3.88812
 21
3.65543
  0
LINE
  8
0
 10
3.88812
 20
3.65543
 11
3.82599
 21
3.931
  0
LINE
  8
0
 10
3.82599
 20
3.931
 11
3.74893
 21
4.17644
  0
LINE
  8
0
 10
3.74893
 20
4.17644
 11
3.65874
 21
4.39574
  0
LINE
  8
0
 10
3.65874
 20
4.39574
 11
3.55544
 21
4.58893
  0
LINE
  8
0
 10
3.55544
 20
4.58893
 11
3.439
 21
4.756
  0
LINE
  8
0
 10
3.439
 20
4.756
 11
3.31075
 21
4.8985
  0
LINE
  8
0
 10
3.31075
 20
4.8985
 11
3.172
 21
5.01799
  0
LINE
  8
0
 10
3.172
 20
5.01799
 11
3.02274
 21
5.11449
  0
LINE
  8
0
 10
3.02274
 20
5.11449
 11
2.86299
 21
5.18799
  0
LINE
  8
0
 10
2.86299
 20
5.18799
 11
2.69511
 21
5.24225
  0
LINE
  8
0
 10
2.69511
 20
5.24225
 11
2.5215
 21
5.28099
  0
LINE
  8
0
 10
2.5215
 20
5.28099
 11
2.34212
 21
5.30424
  0
LINE
  8
0
 10
2.34212
 20
5.30424
 11
2.157
 21
5.312
  0
LINE
  8
0
 10
2.157
 20
5.312
 11
1.96318
 21
5.30424
  0
LINE
  8
0
 10
1.96318
 20
5.30424
 11
1.77675
 21
5.28099
  0
LINE
  8
0
 10
1.77675
 20
5.28099
 11
1.59769
 21
5.24225
  0
LINE
  8
0
 10
1.59769
 20
5.24225
 11
1.42599
 21
5.18799
  0
LINE
  8
0
 10
1.42599
 20
5.18799
 11
1.26405
 21
5.11449
  0
LINE
  8
0
 10
1.26405
 20
5.11449
 11
1.11324
 21
5.01799
  0
LINE
  8
0
 10
1.11324
 20
5.01799
 11
0.973557
 21
4.8985
  0
LINE
  8
0
 10
0.973557
 20
4.8985
 11
0.844986
 21
4.756
  0
LINE
  8
0
 10
0.844986
 20
4.756
 11
0.728622
 21
4.58893
  0
LINE
  8
0
 10
0.728622
 20
4.58893
 11
0.625488
 21
4.39574
  0
LINE
  8
0
 10
0.625488
 20
4.39574
 11
0.535614
 21
4.17644
  0
LINE
  8
0
 10
0.535614
 20
4.17644
 11
0.459
 21
3.931
  0
LINE
  8
0
 10
0.459
 20
3.931
 11
0.398178
 21
3.65543
  0
LINE
  8
0
 10
0.398178
 20
3.65543
 11
0.354736
 21
3.34575
  0
LINE
  8
0
 10
0.354736
 20
3.34575
 11
0.328674
 21
3.00192
  0
LINE
  8
0
 10
0.328674
 20
3.00192
 11
0.319992
 21
2.62399
  0
LINE
  8
0
 10
0.319992
 20
2.62399
 11
0.328674
 21
2.26112
  0
LINE
  8
0
 10
0.328674
 20
2.26112
 11
0.354736
 21
1.9285
  0
LINE
  8
0
 10
0.354736
 20
1.9285
 11
0.398178
 21
1.62611
  0
LINE
  8
0
 10
0.398178
 20
1.62611
 11
0.459
 21
1.35399
  0
LINE
  8
0
 10
0.459
 20
1.35399
 11
0.535492
 21
1.1098
  0
LINE
  8
0
 10
0.535492
 20
1.1098
 11
0.625
 21
0.890244
  0
LINE
  8
0
 10
0.625
 20
0.890244
 11
0.727493
 21
0.695312
  0
LINE
  8
0
 10
0.727493
 20
0.695312
 11
0.842987
 21
0.524994
  0
LINE
  8
0
 10
0.842987
 20
0.524994
 11
0.970871
 21
0.378616
  0
LINE
  8
0
 10
0.970871
 20
0.378616
 11
1.1095
 21
0.254486
  0
LINE
  8
0
 10
1.1095
 20
0.254486
 11
1.25887
 21
0.152618
  0
LINE
  8
0
 10
1.25887
 20
0.152618
 11
1.41899
 21
0.072998
  0
LINE
  8
0
 10
1.41899
 20
0.072998
 11
1.58824
 21
0.0130615
  0
LINE
  8
0
 10
1.58824
 20
0.0130615
 11
1.76399
 21
-0.0297394
  0
LINE
  8
0
 10
1.76399
 20
-0.0297394
 11
1.94624
 21
-0.0554352
  0
LINE
  8
0
 10
1.94624
 20
-0.0554352
 11
2.13499
 21
-0.0639954
  0
LINE
  8
0
 10
2.13499
 20
-0.0639954
 11
2.32217
 21
-0.0554352
  0
LINE
  8
0
 10
2.01462
 20
0.518677
 11
1.89249
 21
0.538742
  0
LINE
  8
0
 10
1.89249
 20
0.538742
 11
1.77762
 21
0.572174
  0
LINE
  8
0
 10
1.77762
 20
0.572174
 11
1.67
 21
0.618988
  0
LINE
  8
0
 10
1.67
 20
0.618988
 11
1.56999
 21
0.68161
  0
LINE
  8
0
 10
1.56999
 20
0.68161
 11
1.478
 21
0.76149
  0
LINE
  8
0
 10
1.478
 20
0.76149
 11
1.394
 21
0.858612
  0
LINE
  8
0
 10
1.394
 20
0.858612
 11
1.31799
 21
0.972992
  0
LINE
  8
0
 10
1.31799
 20
0.972992
 11
1.25031
 21
1.10637
  0
LINE
  8
0
 10
1.25031
 20
1.10637
 11
1.19124
 21
1.25949
  0
LINE
  8
0
 10
1.19124
 20
1.25949
 11
1.14081
 21
1.43237
  0
LINE
  8
0
 10
1.14081
 20
1.43237
 11
1.099
 21
1.625
  0
LINE
  8
0
 10
1.099
 20
1.625
 11
1.06618
 21
1.83955
  0
LINE
  8
0
 10
1.06618
 20
1.83955
 11
1.04274
 21
2.07724
  0
LINE
  8
0
 10
1.04274
 20
2.07724
 11
1.02869
 21
2.33806
  0
LINE
  8
0
 10
1.02869
 20
2.33806
 11
1.02399
 21
2.62199
  0
LINE
  8
0
 10
1.02399
 20
2.62199
 11
1.02855
 21
2.91431
  0
LINE
  8
0
 10
1.02855
 20
2.91431
 11
1.04224
 21
3.18124
  0
LINE
  8
0
 10
1.04224
 20
3.18124
 11
1.06505
 21
3.42281
  0
LINE
  8
0
 10
1.06505
 20
3.42281
 11
1.09698
 21
3.63899
  0
LINE
  8
0
 10
1.09698
 20
3.63899
 11
1.13792
 21
3.83224
  0
LINE
  8
0
 10
1.13792
 20
3.83224
 11
1.18774
 21
4.00499
  0
LINE
  8
0
 10
1.18774
 20
4.00499
 11
1.24643
 21
4.15724
  0
LINE
  8
0
 10
1.24643
 20
4.15724
 11
1.314
 21
4.28899
  0
LINE
  8
0
 10
1.314
 20
4.28899
 11
1.39018
 21
4.40167
  0
LINE
  8
0
 10
1.39018
 20
4.40167
 11
1.47475
 21
4.49675
  0
LINE
  8
0
 10
1.47475
 20
4.49675
 11
1.56767
 21
4.57417
  0
LINE
  8
0
 10
1.56767
 20
4.57417
 11
1.66899
 21
4.63399
  0
LINE
  8
0
 10
1.66899
 20
4.63399
 11
1.77911
 21
4.67862
  0
LINE
  8
0
 10
1.77911
 20
4.67862
 11
1.89749
 21
4.71049
  0
LINE
  8
0
 10
1.89749
 20
4.71049
 11
2.02412
 21
4.72961
  0
LINE
  8
0
 10
2.02412
 20
4.72961
 11
2.159
 21
4.73599
  0
LINE
  8
0
 10
2.159
 20
4.73599
 11
2.2865
 21
4.72968
  0
LINE
  8
0
 10
2.2865
 20
4.72968
 11
2.407
 21
4.71074
  0
LINE
  8
0
 10
2.407
 20
4.71074
 11
2.52049
 21
4.67918
  0
LINE
  8
0
 10
2.52049
 20
4.67918
 11
2.627
 21
4.63499
  0
LINE
  8
0
 10
2.627
 20
4.63499
 11
2.72643
 21
4.57605
  0
LINE
  8
0
 10
2.72643
 20
4.57605
 11
2.81775
 21
4.49924
  0
LINE
  8
0
 10
2.81775
 20
4.49924
 11
2.90092
 21
4.40456
  0
LINE
  8
0
 10
2.90092
 20
4.40456
 11
2.976
 21
4.29199
  0
LINE
  8
0
 10
2.976
 20
4.29199
 11
3.04268
 21
4.16068
  0
LINE
  8
0
 10
3.04268
 20
4.16068
 11
3.10074
 21
4.00874
  0
LINE
  8
0
 10
3.10074
 20
4.00874
 11
3.15018
 21
3.83618
  0
LINE
  8
0
 10
3.15018
 20
3.83618
 11
3.19099
 21
3.64299
  0
LINE
  8
0
 10
3.19099
 20
3.64299
 11
3.22293
 21
3.42656
  0
LINE
  8
0
 10
3.22293
 20
3.42656
 11
3.24574
 21
3.18425
  0
LINE
  8
0
 10
3.24574
 20
3.18425
 11
3.25943
 21
2.91606
  0
LINE
  8
0
 10
3.25943
 20
2.91606
 11
3.26399
 21
2.62199
  0
LINE
  8
0
 10
3.26399
 20
2.62199
 11
3.25905
 21
2.33806
  0
LINE
  8
0
 10
3.25905
 20
2.33806
 11
3.24425
 21
2.07724
  0
LINE
  8
0
 10
3.24425
 20
2.07724
 11
3.21956
 21
1.83955
  0
LINE
  8
0
 10
3.21956
 20
1.83955
 11
3.185
 21
1.625
  0
LINE
  8
0
 10
3.185
 20
1.625
 11
3.14186
 21
1.43237
  0
LINE
  8
0
 10
3.14186
 20
1.43237
 11
3.0905
 21
1.25949
  0
LINE
  8
0
 10
3.0905
 20
1.25949
 11
3.03087
 21
1.10637
  0
LINE
  8
0
 10
3.03087
 20
1.10637
 11
2.963
 21
0.972992
  0
LINE
  8
0
 10
2.963
 20
0.972992
 11
2.88699
 21
0.858612
  0
LINE
  8
0
 10
2.88699
 20
0.858612
 11
2.80299
 21
0.76149
  0
LINE
  8
0
 10
2.80299
 20
0.76149
 11
2.711
 21
0.68161
  0
LINE
  8
0
 10
2.711
 20
0.68161
 11
2.61099
 21
0.618988
  0
LINE
  8
0
 10
2.61099
 20
0.618988
 11
2.5038
 21
0.572174
  0
LINE
  8
0
 10
2.5038
 20
0.572174
 11
2.39024
 21
0.538742
  0
LINE
  8
0
 10
2.39024
 20
0.538742
 11
2.27031
 21
0.518677
  0
LINE
  8
0
 10
2.27031
 20
0.518677
 11
2.144
 21
0.511993
  0
LINE
  8
0
 10
2.144
 20
0.511993
 11
2.01462
 21
0.518677
  0
ENDSEC
  0
SECTION
  2
OBJECTS
  0
DICTIONARY
  0
ENDSEC
  0
EOF
