  0
SECTION
  2
BLOCKS
  0
ENDSEC
  0
SECTION
  2
ENTITIES
  0
LINE
  8
0
 10
0.682816
 20
-3.43274
 11
1.33939
 21
-3.23357
  0
LINE
  8
0
 10
1.33939
 20
-3.23357
 11
1.94449
 21
-2.91014
  0
LINE
  8
0
 10
1.94449
 20
-2.91014
 11
2.47487
 21
-2.47487
  0
LINE
  8
0
 10
2.47487
 20
-2.47487
 11
2.91014
 21
-1.94449
  0
LINE
  8
0
 10
2.91014
 20
-1.94449
 11
3.23357
 21
-1.33939
  0
LINE
  8
0
 10
3.23357
 20
-1.33939
 11
3.43274
 21
-0.682816
  0
LINE
  8
0
 10
3.43274
 20
-0.682816
 11
3.5
 21
0
  0
LINE
  8
0
 10
3.5
 20
0
 11
3.43274
 21
0.682816
  0
LINE
  8
0
 10
3.43274
 20
0.682816
 11
3.23357
 21
1.33939
  0
LINE
  8
0
 10
3.23357
 20
1.33939
 11
2.91014
 21
1.94449
  0
LINE
  8
0
 10
2.91014
 20
1.94449
 11
2.47487
 21
2.47487
  0
LINE
  8
0
 10
2.47487
 20
2.47487
 11
1.94449
 21
2.91014
  0
LINE
  8
0
 10
1.94449
 20
2.91014
 11
1.33939
 21
3.23357
  0
LINE
  8
0
 10
1.33939
 20
3.23357
 11
0.682816
 21
3.43274
  0
LINE
  8
0
 10
0.682816
 20
3.43274
 11
0
 21
3.5
  0
LINE
  8
0
 10
0
 20
3.5
 11
-0.682816
 21
3.43274
  0
LINE
  8
0
 10
-0.682816
 20
3.43274
 11
-1.33939
 21
3.23357
  0
LINE
  8
0
 10
-1.33939
 20
3.23357
 11
-1.94449
 21
2.91014
  0
LINE
  8
0
 10
-1.94449
 20
2.91014
 11
-2.47487
 21
2.47487
  0
LINE
  8
0
 10
-2.47487
 20
2.47487
 11
-2.91014
 21
1.94449
  0
LINE
  8
0
 10
-2.91014
 20
1.94449
 11
-3.23357
 21
1.33939
  0
LINE
  8
0
 10
-3.23357
 20
1.33939
 11
-3.43274
 21
0.682816
  0
LINE
  8
0
 10
-3.43274
 20
0.682816
 11
-3.5
 21
0
  0
LINE
  8
0
 10
-3.5
 20
0
 11
-3.43274
 21
-0.682816
  0
LINE
  8
0
 10
-3.43274
 20
-0.682816
 11
-3.23357
 21
-1.33939
  0
LINE
  8
0
 10
-3.23357
 20
-1.33939
 11
-2.91014
 21
-1.94449
  0
LINE
  8
0
 10
-2.91014
 20
-1.94449
 11
-2.47487
 21
-2.47487
  0
LINE
  8
0
 10
-2.47487
 20
-2.47487
 11
-1.94449
 21
-2.91014
  0
LINE
  8
0
 10
-1.94449
 20
-2.91014
 11
-1.33939
 21
-3.23357
  0
LINE
  8
0
 10
-1.33939
 20
-3.23357
 11
-0.682816
 21
-3.43274
  0
LINE
  8
0
 10
-0.682816
 20
-3.43274
 11
0
 21
-3.5
  0
LINE
  8
0
 10
0
 20
-3.5
 11
0.682816
 21
-3.43274
  0
LINE
  8
0
 10
32.251
 20
-8.51721
 11
32.9076
 21
-8.31804
  0
LINE
  8
0
 10
32.9076
 20
-8.31804
 11
33.5127
 21
-7.99461
  0
LINE
  8
0
 10
33.5127
 20
-7.99461
 11
34.0431
 21
-7.55934
  0
LINE
  8
0
 10
34.0431
 20
-7.55934
 11
34.4784
 21
-7.02896
  0
LINE
  8
0
 10
34.4784
 20
-7.02896
 11
34.8018
 21
-6.42386
  0
LINE
  8
0
 10
34.8018
 20
-6.42386
 11
35.001
 21
-5.76729
  0
LINE
  8
0
 10
35.001
 20
-5.76729
 11
35.0682
 21
-5.08447
  0
LINE
  8
0
 10
35.0682
 20
-5.08447
 11
35.001
 21
-4.40166
  0
LINE
  8
0
 10
35.001
 20
-4.40166
 11
34.8018
 21
-3.74507
  0
LINE
  8
0
 10
34.8018
 20
-3.74507
 11
34.4784
 21
-3.13997
  0
LINE
  8
0
 10
34.4784
 20
-3.13997
 11
34.0431
 21
-2.60959
  0
LINE
  8
0
 10
34.0431
 20
-2.60959
 11
33.5127
 21
-2.17432
  0
LINE
  8
0
 10
33.5127
 20
-2.17432
 11
32.9076
 21
-1.85089
  0
LINE
  8
0
 10
32.9076
 20
-1.85089
 11
32.251
 21
-1.65172
  0
LINE
  8
0
 10
32.251
 20
-1.65172
 11
31.5682
 21
-1.58447
  0
LINE
  8
0
 10
31.5682
 20
-1.58447
 11
30.8854
 21
-1.65172
  0
LINE
  8
0
 10
30.8854
 20
-1.65172
 11
30.2288
 21
-1.85089
  0
LINE
  8
0
 10
30.2288
 20
-1.85089
 11
29.6237
 21
-2.17432
  0
LINE
  8
0
 10
29.6237
 20
-2.17432
 11
29.0934
 21
-2.60959
  0
LINE
  8
0
 10
29.0934
 20
-2.60959
 11
28.6581
 21
-3.13997
  0
LINE
  8
0
 10
28.6581
 20
-3.13997
 11
28.3347
 21
-3.74507
  0
LINE
  8
0
 10
28.3347
 20
-3.74507
 11
28.1355
 21
-4.40166
  0
LINE
  8
0
 10
28.1355
 20
-4.40166
 11
28.0682
 21
-5.08447
  0
LINE
  8
0
 10
28.0682
 20
-5.08447
 11
28.1355
 21
-5.76729
  0
LINE
  8
0
 10
28.1355
 20
-5.76729
 11
28.3347
 21
-6.42386
  0
LINE
  8
0
 10
28.3347
 20
-6.42386
 11
28.6581
 21
-7.02896
  0
LINE
  8
0
 10
28.6581
 20
-7.02896
 11
29.0934
 21
-7.55934
  0
LINE
  8
0
 10
29.0934
 20
-7.55934
 11
29.6237
 21
-7.99461
  0
LINE
  8
0
 10
29.6237
 20
-7.99461
 11
30.2288
 21
-8.31804
  0
LINE
  8
0
 10
30.2288
 20
-8.31804
 11
30.8854
 21
-8.51721
  0
LINE
  8
0
 10
30.8854
 20
-8.51721
 11
31.5682
 21
-8.58447
  0
LINE
  8
0
 10
31.5682
 20
-8.58447
 11
32.251
 21
-8.51721
  0
LINE
  8
0
 10
-14.3172
 20
-23.4327
 11
-13.6606
 21
-23.2336
  0
LINE
  8
0
 10
-13.6606
 20
-23.2336
 11
-13.0555
 21
-22.9101
  0
LINE
  8
0
 10
-13.0555
 20
-22.9101
 11
-12.5251
 21
-22.4749
  0
LINE
  8
0
 10
-12.5251
 20
-22.4749
 11
-12.0898
 21
-21.9445
  0
LINE
  8
0
 10
-12.0898
 20
-21.9445
 11
-11.7664
 21
-21.3394
  0
LINE
  8
0
 10
-11.7664
 20
-21.3394
 11
-11.5672
 21
-20.6828
  0
LINE
  8
0
 10
-11.5672
 20
-20.6828
 11
-11.5
 21
-20
  0
LINE
  8
0
 10
-11.5
 20
-20
 11
-11.5672
 21
-19.3172
  0
LINE
  8
0
 10
-11.5672
 20
-19.3172
 11
-11.7664
 21
-18.6606
  0
LINE
  8
0
 10
-11.7664
 20
-18.6606
 11
-12.0898
 21
-18.0555
  0
LINE
  8
0
 10
-12.0898
 20
-18.0555
 11
-12.5251
 21
-17.5251
  0
LINE
  8
0
 10
-12.5251
 20
-17.5251
 11
-13.0555
 21
-17.0898
  0
LINE
  8
0
 10
-13.0555
 20
-17.0898
 11
-13.6606
 21
-16.7664
  0
LINE
  8
0
 10
-13.6606
 20
-16.7664
 11
-14.3172
 21
-16.5672
  0
LINE
  8
0
 10
-14.3172
 20
-16.5672
 11
-15
 21
-16.5
  0
LINE
  8
0
 10
-15
 20
-16.5
 11
-15.6828
 21
-16.5672
  0
LINE
  8
0
 10
-15.6828
 20
-16.5672
 11
-16.3394
 21
-16.7664
  0
LINE
  8
0
 10
-16.3394
 20
-16.7664
 11
-16.9445
 21
-17.0898
  0
LINE
  8
0
 10
-16.9445
 20
-17.0898
 11
-17.4749
 21
-17.5251
  0
LINE
  8
0
 10
-17.4749
 20
-17.5251
 11
-17.9101
 21
-18.0555
  0
LINE
  8
0
 10
-17.9101
 20
-18.0555
 11
-18.2336
 21
-18.6606
  0
LINE
  8
0
 10
-18.2336
 20
-18.6606
 11
-18.4327
 21
-19.3172
  0
LINE
  8
0
 10
-18.4327
 20
-19.3172
 11
-18.5
 21
-20
  0
LINE
  8
0
 10
-18.5
 20
-20
 11
-18.4327
 21
-20.6828
  0
LINE
  8
0
 10
-18.4327
 20
-20.6828
 11
-18.2336
 21
-21.3394
  0
LINE
  8
0
 10
-18.2336
 20
-21.3394
 11
-17.9101
 21
-21.9445
  0
LINE
  8
0
 10
-17.9101
 20
-21.9445
 11
-17.4749
 21
-22.4749
  0
LINE
  8
0
 10
-17.4749
 20
-22.4749
 11
-16.9445
 21
-22.9101
  0
LINE
  8
0
 10
-16.9445
 20
-22.9101
 11
-16.3394
 21
-23.2336
  0
LINE
  8
0
 10
-16.3394
 20
-23.2336
 11
-15.6828
 21
-23.4327
  0
LINE
  8
0
 10
-15.6828
 20
-23.4327
 11
-15
 21
-23.5
  0
LINE
  8
0
 10
-15
 20
-23.5
 11
-14.3172
 21
-23.4327
  0
ENDSEC
  0
SECTION
  2
OBJECTS
  0
DICTIONARY
  0
ENDSEC
  0
EOF
