  0
SECTION
  2
BLOCKS
  0
ENDSEC
  0
SECTION
  2
ENTITIES
  0
LINE
  8
0
 10
0.682816
 20
-3.43274
 11
1.33939
 21
-3.23357
  0
LINE
  8
0
 10
1.33939
 20
-3.23357
 11
1.94449
 21
-2.91014
  0
LINE
  8
0
 10
1.94449
 20
-2.91014
 11
2.47487
 21
-2.47487
  0
LINE
  8
0
 10
2.47487
 20
-2.47487
 11
2.91014
 21
-1.94449
  0
LINE
  8
0
 10
2.91014
 20
-1.94449
 11
3.23357
 21
-1.33939
  0
LINE
  8
0
 10
3.23357
 20
-1.33939
 11
3.43274
 21
-0.682816
  0
LINE
  8
0
 10
3.43274
 20
-0.682816
 11
3.5
 21
0
  0
LINE
  8
0
 10
3.5
 20
0
 11
3.43274
 21
0.682816
  0
LINE
  8
0
 10
3.43274
 20
0.682816
 11
3.23357
 21
1.33939
  0
LINE
  8
0
 10
3.23357
 20
1.33939
 11
2.91014
 21
1.94449
  0
LINE
  8
0
 10
2.91014
 20
1.94449
 11
2.47487
 21
2.47487
  0
LINE
  8
0
 10
2.47487
 20
2.47487
 11
1.94449
 21
2.91014
  0
LINE
  8
0
 10
1.94449
 20
2.91014
 11
1.33939
 21
3.23357
  0
LINE
  8
0
 10
1.33939
 20
3.23357
 11
0.682816
 21
3.43274
  0
LINE
  8
0
 10
0.682816
 20
3.43274
 11
0
 21
3.5
  0
LINE
  8
0
 10
0
 20
3.5
 11
-0.682816
 21
3.43274
  0
LINE
  8
0
 10
-0.682816
 20
3.43274
 11
-1.33939
 21
3.23357
  0
LINE
  8
0
 10
-1.33939
 20
3.23357
 11
-1.94449
 21
2.91014
  0
LINE
  8
0
 10
-1.94449
 20
2.91014
 11
-2.47487
 21
2.47487
  0
LINE
  8
0
 10
-2.47487
 20
2.47487
 11
-2.91014
 21
1.94449
  0
LINE
  8
0
 10
-2.91014
 20
1.94449
 11
-3.23357
 21
1.33939
  0
LINE
  8
0
 10
-3.23357
 20
1.33939
 11
-3.43274
 21
0.682816
  0
LINE
  8
0
 10
-3.43274
 20
0.682816
 11
-3.5
 21
0
  0
LINE
  8
0
 10
-3.5
 20
0
 11
-3.43274
 21
-0.682816
  0
LINE
  8
0
 10
-3.43274
 20
-0.682816
 11
-3.23357
 21
-1.33939
  0
LINE
  8
0
 10
-3.23357
 20
-1.33939
 11
-2.91014
 21
-1.94449
  0
LINE
  8
0
 10
-2.91014
 20
-1.94449
 11
-2.47487
 21
-2.47487
  0
LINE
  8
0
 10
-2.47487
 20
-2.47487
 11
-1.94449
 21
-2.91014
  0
LINE
  8
0
 10
-1.94449
 20
-2.91014
 11
-1.33939
 21
-3.23357
  0
LINE
  8
0
 10
-1.33939
 20
-3.23357
 11
-0.682816
 21
-3.43274
  0
LINE
  8
0
 10
-0.682816
 20
-3.43274
 11
0
 21
-3.5
  0
LINE
  8
0
 10
0
 20
-3.5
 11
0.682816
 21
-3.43274
  0
LINE
  8
0
 10
-14.3172
 20
-23.4327
 11
-13.6606
 21
-23.2336
  0
LINE
  8
0
 10
-13.6606
 20
-23.2336
 11
-13.0555
 21
-22.9101
  0
LINE
  8
0
 10
-13.0555
 20
-22.9101
 11
-12.5251
 21
-22.4749
  0
LINE
  8
0
 10
-12.5251
 20
-22.4749
 11
-12.0898
 21
-21.9445
  0
LINE
  8
0
 10
-12.0898
 20
-21.9445
 11
-11.7664
 21
-21.3394
  0
LINE
  8
0
 10
-11.7664
 20
-21.3394
 11
-11.5672
 21
-20.6828
  0
LINE
  8
0
 10
-11.5672
 20
-20.6828
 11
-11.5
 21
-20
  0
LINE
  8
0
 10
-11.5
 20
-20
 11
-11.5672
 21
-19.3172
  0
LINE
  8
0
 10
-11.5672
 20
-19.3172
 11
-11.7664
 21
-18.6606
  0
LINE
  8
0
 10
-11.7664
 20
-18.6606
 11
-12.0898
 21
-18.0555
  0
LINE
  8
0
 10
-12.0898
 20
-18.0555
 11
-12.5251
 21
-17.5251
  0
LINE
  8
0
 10
-12.5251
 20
-17.5251
 11
-13.0555
 21
-17.0898
  0
LINE
  8
0
 10
-13.0555
 20
-17.0898
 11
-13.6606
 21
-16.7664
  0
LINE
  8
0
 10
-13.6606
 20
-16.7664
 11
-14.3172
 21
-16.5672
  0
LINE
  8
0
 10
-14.3172
 20
-16.5672
 11
-15
 21
-16.5
  0
LINE
  8
0
 10
-15
 20
-16.5
 11
-15.6828
 21
-16.5672
  0
LINE
  8
0
 10
-15.6828
 20
-16.5672
 11
-16.3394
 21
-16.7664
  0
LINE
  8
0
 10
-16.3394
 20
-16.7664
 11
-16.9445
 21
-17.0898
  0
LINE
  8
0
 10
-16.9445
 20
-17.0898
 11
-17.4749
 21
-17.5251
  0
LINE
  8
0
 10
-17.4749
 20
-17.5251
 11
-17.9101
 21
-18.0555
  0
LINE
  8
0
 10
-17.9101
 20
-18.0555
 11
-18.2336
 21
-18.6606
  0
LINE
  8
0
 10
-18.2336
 20
-18.6606
 11
-18.4327
 21
-19.3172
  0
LINE
  8
0
 10
-18.4327
 20
-19.3172
 11
-18.5
 21
-20
  0
LINE
  8
0
 10
-18.5
 20
-20
 11
-18.4327
 21
-20.6828
  0
LINE
  8
0
 10
-18.4327
 20
-20.6828
 11
-18.2336
 21
-21.3394
  0
LINE
  8
0
 10
-18.2336
 20
-21.3394
 11
-17.9101
 21
-21.9445
  0
LINE
  8
0
 10
-17.9101
 20
-21.9445
 11
-17.4749
 21
-22.4749
  0
LINE
  8
0
 10
-17.4749
 20
-22.4749
 11
-16.9445
 21
-22.9101
  0
LINE
  8
0
 10
-16.9445
 20
-22.9101
 11
-16.3394
 21
-23.2336
  0
LINE
  8
0
 10
-16.3394
 20
-23.2336
 11
-15.6828
 21
-23.4327
  0
LINE
  8
0
 10
-15.6828
 20
-23.4327
 11
-15
 21
-23.5
  0
LINE
  8
0
 10
-15
 20
-23.5
 11
-14.3172
 21
-23.4327
  0
LINE
  8
0
 10
-3.38249
 20
-27.1855
 11
-2.72592
 21
-26.9863
  0
LINE
  8
0
 10
-2.72592
 20
-26.9863
 11
-2.12082
 21
-26.6629
  0
LINE
  8
0
 10
-2.12082
 20
-26.6629
 11
-1.59044
 21
-26.2276
  0
LINE
  8
0
 10
-1.59044
 20
-26.2276
 11
-1.15517
 21
-25.6973
  0
LINE
  8
0
 10
-1.15517
 20
-25.6973
 11
-0.831726
 21
-25.0921
  0
LINE
  8
0
 10
-0.831726
 20
-25.0921
 11
-0.632568
 21
-24.4356
  0
LINE
  8
0
 10
-0.632568
 20
-24.4356
 11
-0.565308
 21
-23.7528
  0
LINE
  8
0
 10
-0.565308
 20
-23.7528
 11
-0.632568
 21
-23.0699
  0
LINE
  8
0
 10
-0.632568
 20
-23.0699
 11
-0.831726
 21
-22.4134
  0
LINE
  8
0
 10
-0.831726
 20
-22.4134
 11
-1.15517
 21
-21.8083
  0
LINE
  8
0
 10
-1.15517
 20
-21.8083
 11
-1.59044
 21
-21.2779
  0
LINE
  8
0
 10
-1.59044
 20
-21.2779
 11
-2.12082
 21
-20.8426
  0
LINE
  8
0
 10
-2.12082
 20
-20.8426
 11
-2.72592
 21
-20.5192
  0
LINE
  8
0
 10
-2.72592
 20
-20.5192
 11
-3.38249
 21
-20.32
  0
LINE
  8
0
 10
-3.38249
 20
-20.32
 11
-4.06531
 21
-20.2528
  0
LINE
  8
0
 10
-4.06531
 20
-20.2528
 11
-4.74812
 21
-20.32
  0
LINE
  8
0
 10
-4.74812
 20
-20.32
 11
-5.40471
 21
-20.5192
  0
LINE
  8
0
 10
-5.40471
 20
-20.5192
 11
-6.00981
 21
-20.8426
  0
LINE
  8
0
 10
-6.00981
 20
-20.8426
 11
-6.54019
 21
-21.2779
  0
LINE
  8
0
 10
-6.54019
 20
-21.2779
 11
-6.97545
 21
-21.8083
  0
LINE
  8
0
 10
-6.97545
 20
-21.8083
 11
-7.29889
 21
-22.4134
  0
LINE
  8
0
 10
-7.29889
 20
-22.4134
 11
-7.49806
 21
-23.0699
  0
LINE
  8
0
 10
-7.49806
 20
-23.0699
 11
-7.56531
 21
-23.7528
  0
LINE
  8
0
 10
-7.56531
 20
-23.7528
 11
-7.49806
 21
-24.4356
  0
LINE
  8
0
 10
-7.49806
 20
-24.4356
 11
-7.29889
 21
-25.0921
  0
LINE
  8
0
 10
-7.29889
 20
-25.0921
 11
-6.97545
 21
-25.6973
  0
LINE
  8
0
 10
-6.97545
 20
-25.6973
 11
-6.54019
 21
-26.2276
  0
LINE
  8
0
 10
-6.54019
 20
-26.2276
 11
-6.00981
 21
-26.6629
  0
LINE
  8
0
 10
-6.00981
 20
-26.6629
 11
-5.40471
 21
-26.9863
  0
LINE
  8
0
 10
-5.40471
 20
-26.9863
 11
-4.74812
 21
-27.1855
  0
LINE
  8
0
 10
-4.74812
 20
-27.1855
 11
-4.06531
 21
-27.2528
  0
LINE
  8
0
 10
-4.06531
 20
-27.2528
 11
-3.38249
 21
-27.1855
  0
ENDSEC
  0
SECTION
  2
OBJECTS
  0
DICTIONARY
  0
ENDSEC
  0
EOF
