  0
SECTION
  2
BLOCKS
  0
ENDSEC
  0
SECTION
  2
ENTITIES
  0
LINE
  8
0
 10
-15.6272
 20
180.737
 11
-14.9706
 21
180.936
  0
LINE
  8
0
 10
-14.9706
 20
180.936
 11
-14.3655
 21
181.26
  0
LINE
  8
0
 10
-14.3655
 20
181.26
 11
-13.8351
 21
181.695
  0
LINE
  8
0
 10
-13.8351
 20
181.695
 11
-13.3998
 21
182.225
  0
LINE
  8
0
 10
-13.3998
 20
182.225
 11
-13.0764
 21
182.831
  0
LINE
  8
0
 10
-13.0764
 20
182.831
 11
-12.8772
 21
183.487
  0
LINE
  8
0
 10
-12.8772
 20
183.487
 11
-12.81
 21
184.17
  0
LINE
  8
0
 10
-12.81
 20
184.17
 11
-12.8772
 21
184.853
  0
LINE
  8
0
 10
-12.8772
 20
184.853
 11
-13.0764
 21
185.509
  0
LINE
  8
0
 10
-13.0764
 20
185.509
 11
-13.3998
 21
186.114
  0
LINE
  8
0
 10
-13.3998
 20
186.114
 11
-13.8351
 21
186.645
  0
LINE
  8
0
 10
-13.8351
 20
186.645
 11
-14.3655
 21
187.08
  0
LINE
  8
0
 10
-14.3655
 20
187.08
 11
-14.9706
 21
187.404
  0
LINE
  8
0
 10
-14.9706
 20
187.404
 11
-15.6272
 21
187.603
  0
LINE
  8
0
 10
-15.6272
 20
187.603
 11
-16.31
 21
187.67
  0
LINE
  8
0
 10
-16.31
 20
187.67
 11
-16.9928
 21
187.603
  0
LINE
  8
0
 10
-16.9928
 20
187.603
 11
-17.6494
 21
187.404
  0
LINE
  8
0
 10
-17.6494
 20
187.404
 11
-18.2545
 21
187.08
  0
LINE
  8
0
 10
-18.2545
 20
187.08
 11
-18.7849
 21
186.645
  0
LINE
  8
0
 10
-18.7849
 20
186.645
 11
-19.2201
 21
186.114
  0
LINE
  8
0
 10
-19.2201
 20
186.114
 11
-19.5436
 21
185.509
  0
LINE
  8
0
 10
-19.5436
 20
185.509
 11
-19.7427
 21
184.853
  0
LINE
  8
0
 10
-19.7427
 20
184.853
 11
-19.81
 21
184.17
  0
LINE
  8
0
 10
-19.81
 20
184.17
 11
-19.7427
 21
183.487
  0
LINE
  8
0
 10
-19.7427
 20
183.487
 11
-19.5436
 21
182.831
  0
LINE
  8
0
 10
-19.5436
 20
182.831
 11
-19.2201
 21
182.225
  0
LINE
  8
0
 10
-19.2201
 20
182.225
 11
-18.7849
 21
181.695
  0
LINE
  8
0
 10
-18.7849
 20
181.695
 11
-18.2545
 21
181.26
  0
LINE
  8
0
 10
-18.2545
 20
181.26
 11
-17.6494
 21
180.936
  0
LINE
  8
0
 10
-17.6494
 20
180.936
 11
-16.9928
 21
180.737
  0
LINE
  8
0
 10
-16.9928
 20
180.737
 11
-16.31
 21
180.67
  0
LINE
  8
0
 10
-16.31
 20
180.67
 11
-15.6272
 21
180.737
  0
LINE
  8
0
 10
0.682816
 20
-3.43274
 11
1.33939
 21
-3.23357
  0
LINE
  8
0
 10
1.33939
 20
-3.23357
 11
1.94449
 21
-2.91014
  0
LINE
  8
0
 10
1.94449
 20
-2.91014
 11
2.47487
 21
-2.47487
  0
LINE
  8
0
 10
2.47487
 20
-2.47487
 11
2.91014
 21
-1.94449
  0
LINE
  8
0
 10
2.91014
 20
-1.94449
 11
3.23357
 21
-1.33939
  0
LINE
  8
0
 10
3.23357
 20
-1.33939
 11
3.43274
 21
-0.682816
  0
LINE
  8
0
 10
3.43274
 20
-0.682816
 11
3.5
 21
0
  0
LINE
  8
0
 10
3.5
 20
0
 11
3.43274
 21
0.682816
  0
LINE
  8
0
 10
3.43274
 20
0.682816
 11
3.23357
 21
1.33939
  0
LINE
  8
0
 10
3.23357
 20
1.33939
 11
2.91014
 21
1.94449
  0
LINE
  8
0
 10
2.91014
 20
1.94449
 11
2.47487
 21
2.47487
  0
LINE
  8
0
 10
2.47487
 20
2.47487
 11
1.94449
 21
2.91014
  0
LINE
  8
0
 10
1.94449
 20
2.91014
 11
1.33939
 21
3.23357
  0
LINE
  8
0
 10
1.33939
 20
3.23357
 11
0.682816
 21
3.43274
  0
LINE
  8
0
 10
0.682816
 20
3.43274
 11
0
 21
3.5
  0
LINE
  8
0
 10
0
 20
3.5
 11
-0.682816
 21
3.43274
  0
LINE
  8
0
 10
-0.682816
 20
3.43274
 11
-1.33939
 21
3.23357
  0
LINE
  8
0
 10
-1.33939
 20
3.23357
 11
-1.94449
 21
2.91014
  0
LINE
  8
0
 10
-1.94449
 20
2.91014
 11
-2.47487
 21
2.47487
  0
LINE
  8
0
 10
-2.47487
 20
2.47487
 11
-2.91014
 21
1.94449
  0
LINE
  8
0
 10
-2.91014
 20
1.94449
 11
-3.23357
 21
1.33939
  0
LINE
  8
0
 10
-3.23357
 20
1.33939
 11
-3.43274
 21
0.682816
  0
LINE
  8
0
 10
-3.43274
 20
0.682816
 11
-3.5
 21
0
  0
LINE
  8
0
 10
-3.5
 20
0
 11
-3.43274
 21
-0.682816
  0
LINE
  8
0
 10
-3.43274
 20
-0.682816
 11
-3.23357
 21
-1.33939
  0
LINE
  8
0
 10
-3.23357
 20
-1.33939
 11
-2.91014
 21
-1.94449
  0
LINE
  8
0
 10
-2.91014
 20
-1.94449
 11
-2.47487
 21
-2.47487
  0
LINE
  8
0
 10
-2.47487
 20
-2.47487
 11
-1.94449
 21
-2.91014
  0
LINE
  8
0
 10
-1.94449
 20
-2.91014
 11
-1.33939
 21
-3.23357
  0
LINE
  8
0
 10
-1.33939
 20
-3.23357
 11
-0.682816
 21
-3.43274
  0
LINE
  8
0
 10
-0.682816
 20
-3.43274
 11
0
 21
-3.5
  0
LINE
  8
0
 10
0
 20
-3.5
 11
0.682816
 21
-3.43274
  0
LINE
  8
0
 10
89.1496
 20
-94.2233
 11
89.8062
 21
-94.0241
  0
LINE
  8
0
 10
89.8062
 20
-94.0241
 11
90.4113
 21
-93.7007
  0
LINE
  8
0
 10
90.4113
 20
-93.7007
 11
90.9417
 21
-93.2654
  0
LINE
  8
0
 10
90.9417
 20
-93.2654
 11
91.3769
 21
-92.735
  0
LINE
  8
0
 10
91.3769
 20
-92.735
 11
91.7004
 21
-92.1299
  0
LINE
  8
0
 10
91.7004
 20
-92.1299
 11
91.8995
 21
-91.4733
  0
LINE
  8
0
 10
91.8995
 20
-91.4733
 11
91.9668
 21
-90.7905
  0
LINE
  8
0
 10
91.9668
 20
-90.7905
 11
91.8995
 21
-90.1077
  0
LINE
  8
0
 10
91.8995
 20
-90.1077
 11
91.7004
 21
-89.4511
  0
LINE
  8
0
 10
91.7004
 20
-89.4511
 11
91.3769
 21
-88.846
  0
LINE
  8
0
 10
91.3769
 20
-88.846
 11
90.9417
 21
-88.3157
  0
LINE
  8
0
 10
90.9417
 20
-88.3157
 11
90.4113
 21
-87.8804
  0
LINE
  8
0
 10
90.4113
 20
-87.8804
 11
89.8062
 21
-87.5569
  0
LINE
  8
0
 10
89.8062
 20
-87.5569
 11
89.1496
 21
-87.3578
  0
LINE
  8
0
 10
89.1496
 20
-87.3578
 11
88.4668
 21
-87.2905
  0
LINE
  8
0
 10
88.4668
 20
-87.2905
 11
87.784
 21
-87.3578
  0
LINE
  8
0
 10
87.784
 20
-87.3578
 11
87.1274
 21
-87.5569
  0
LINE
  8
0
 10
87.1274
 20
-87.5569
 11
86.5223
 21
-87.8804
  0
LINE
  8
0
 10
86.5223
 20
-87.8804
 11
85.9919
 21
-88.3157
  0
LINE
  8
0
 10
85.9919
 20
-88.3157
 11
85.5566
 21
-88.846
  0
LINE
  8
0
 10
85.5566
 20
-88.846
 11
85.2332
 21
-89.4511
  0
LINE
  8
0
 10
85.2332
 20
-89.4511
 11
85.034
 21
-90.1077
  0
LINE
  8
0
 10
85.034
 20
-90.1077
 11
84.9668
 21
-90.7905
  0
LINE
  8
0
 10
84.9668
 20
-90.7905
 11
85.034
 21
-91.4733
  0
LINE
  8
0
 10
85.034
 20
-91.4733
 11
85.2332
 21
-92.1299
  0
LINE
  8
0
 10
85.2332
 20
-92.1299
 11
85.5566
 21
-92.735
  0
LINE
  8
0
 10
85.5566
 20
-92.735
 11
85.9919
 21
-93.2654
  0
LINE
  8
0
 10
85.9919
 20
-93.2654
 11
86.5223
 21
-93.7007
  0
LINE
  8
0
 10
86.5223
 20
-93.7007
 11
87.1274
 21
-94.0241
  0
LINE
  8
0
 10
87.1274
 20
-94.0241
 11
87.784
 21
-94.2233
  0
LINE
  8
0
 10
87.784
 20
-94.2233
 11
88.4668
 21
-94.2905
  0
LINE
  8
0
 10
88.4668
 20
-94.2905
 11
89.1496
 21
-94.2233
  0
ENDSEC
  0
SECTION
  2
OBJECTS
  0
DICTIONARY
  0
ENDSEC
  0
EOF
