  0
SECTION
  2
BLOCKS
  0
ENDSEC
  0
SECTION
  2
ENTITIES
  0
LINE
  8
0
 10
-5.5
 20
3.11605e-15
 11
-5.37981
 21
-1.14351
  0
LINE
  8
0
 10
-5.37981
 20
-1.14351
 11
-5.0245
 21
-2.23705
  0
LINE
  8
0
 10
-5.0245
 20
-2.23705
 11
-4.44959
 21
-3.23282
  0
LINE
  8
0
 10
-4.44959
 20
-3.23282
 11
-3.68022
 21
-4.0873
  0
LINE
  8
0
 10
-3.68022
 20
-4.0873
 11
8.50902
 21
-13.7446
  0
LINE
  8
0
 10
8.50902
 20
-13.7446
 11
9.43924
 21
-14.4204
  0
LINE
  8
0
 10
9.43924
 20
-14.4204
 11
10.4896
 21
-14.8881
  0
LINE
  8
0
 10
10.4896
 20
-14.8881
 11
11.6143
 21
-15.1272
  0
LINE
  8
0
 10
11.6143
 20
-15.1272
 11
12.7641
 21
-15.1272
  0
LINE
  8
0
 10
12.7641
 20
-15.1272
 11
13.8888
 21
-14.8881
  0
LINE
  8
0
 10
13.8888
 20
-14.8881
 11
14.9392
 21
-14.4204
  0
LINE
  8
0
 10
14.9392
 20
-14.4204
 11
15.8695
 21
-13.7446
  0
LINE
  8
0
 10
15.8695
 20
-13.7446
 11
16.6388
 21
-12.8901
  0
LINE
  8
0
 10
16.6388
 20
-12.8901
 11
17.2137
 21
-11.8943
  0
LINE
  8
0
 10
17.2137
 20
-11.8943
 11
17.569
 21
-10.8008
  0
LINE
  8
0
 10
17.569
 20
-10.8008
 11
17.6892
 21
-9.65728
  0
LINE
  8
0
 10
17.6892
 20
-9.65728
 11
17.569
 21
-8.51377
  0
LINE
  8
0
 10
17.569
 20
-8.51377
 11
17.2137
 21
-7.42023
  0
LINE
  8
0
 10
17.2137
 20
-7.42023
 11
16.6388
 21
-6.42446
  0
LINE
  8
0
 10
16.6388
 20
-6.42446
 11
15.8695
 21
-5.56998
  0
LINE
  8
0
 10
15.8695
 20
-5.56998
 11
3.68022
 21
4.0873
  0
LINE
  8
0
 10
3.68022
 20
4.0873
 11
2.75
 21
4.76314
  0
LINE
  8
0
 10
2.75
 20
4.76314
 11
1.69959
 21
5.23081
  0
LINE
  8
0
 10
1.69959
 20
5.23081
 11
0.574907
 21
5.46987
  0
LINE
  8
0
 10
0.574907
 20
5.46987
 11
-0.574907
 21
5.46987
  0
LINE
  8
0
 10
-0.574907
 20
5.46987
 11
-1.69959
 21
5.23081
  0
LINE
  8
0
 10
-1.69959
 20
5.23081
 11
-2.75
 21
4.76314
  0
LINE
  8
0
 10
-2.75
 20
4.76314
 11
-3.68022
 21
4.0873
  0
LINE
  8
0
 10
-3.68022
 20
4.0873
 11
-4.44959
 21
3.23282
  0
LINE
  8
0
 10
-4.44959
 20
3.23282
 11
-5.0245
 21
2.23705
  0
LINE
  8
0
 10
-5.0245
 20
2.23705
 11
-5.37981
 21
1.14351
  0
LINE
  8
0
 10
-5.37981
 20
1.14351
 11
-5.5
 21
3.11605e-15
  0
ENDSEC
  0
SECTION
  2
OBJECTS
  0
DICTIONARY
  0
ENDSEC
  0
EOF
