  0
SECTION
  2
BLOCKS
  0
ENDSEC
  0
SECTION
  2
ENTITIES
  0
LINE
  8
0
 10
-14.8002
 20
100.144
 11
-5.5
 21
3.11605e-15
  0
LINE
  8
0
 10
-5.5
 20
3.11605e-15
 11
-5.37981
 21
-1.14351
  0
LINE
  8
0
 10
-5.37981
 20
-1.14351
 11
-5.0245
 21
-2.23705
  0
LINE
  8
0
 10
-5.0245
 20
-2.23705
 11
-4.44959
 21
-3.23282
  0
LINE
  8
0
 10
-4.44959
 20
-3.23282
 11
-3.68022
 21
-4.0873
  0
LINE
  8
0
 10
-3.68022
 20
-4.0873
 11
-2.75
 21
-4.76314
  0
LINE
  8
0
 10
-2.75
 20
-4.76314
 11
-1.69959
 21
-5.23081
  0
LINE
  8
0
 10
-1.69959
 20
-5.23081
 11
-0.574907
 21
-5.46987
  0
LINE
  8
0
 10
-0.574907
 20
-5.46987
 11
0.574907
 21
-5.46987
  0
LINE
  8
0
 10
0.574907
 20
-5.46987
 11
1.69959
 21
-5.23081
  0
LINE
  8
0
 10
1.69959
 20
-5.23081
 11
2.75
 21
-4.76314
  0
LINE
  8
0
 10
2.75
 20
-4.76314
 11
3.68022
 21
-4.0873
  0
LINE
  8
0
 10
3.68022
 20
-4.0873
 11
4.44959
 21
-3.23282
  0
LINE
  8
0
 10
4.44959
 20
-3.23282
 11
5.0245
 21
-2.23705
  0
LINE
  8
0
 10
5.0245
 20
-2.23705
 11
5.37981
 21
-1.14351
  0
LINE
  8
0
 10
5.37981
 20
-1.14351
 11
5.5
 21
0
  0
LINE
  8
0
 10
5.5
 20
0
 11
-3.80017
 21
100.144
  0
LINE
  8
0
 10
-3.80017
 20
100.144
 11
-3.92036
 21
101.288
  0
LINE
  8
0
 10
-3.92036
 20
101.288
 11
-4.27567
 21
102.381
  0
LINE
  8
0
 10
-4.27567
 20
102.381
 11
-4.85058
 21
103.377
  0
LINE
  8
0
 10
-4.85058
 20
103.377
 11
-5.61995
 21
104.231
  0
LINE
  8
0
 10
-5.61995
 20
104.231
 11
-6.55017
 21
104.907
  0
LINE
  8
0
 10
-6.55017
 20
104.907
 11
-7.60058
 21
105.375
  0
LINE
  8
0
 10
-7.60058
 20
105.375
 11
-8.72526
 21
105.614
  0
LINE
  8
0
 10
-8.72526
 20
105.614
 11
-9.87508
 21
105.614
  0
LINE
  8
0
 10
-9.87508
 20
105.614
 11
-10.9998
 21
105.375
  0
LINE
  8
0
 10
-10.9998
 20
105.375
 11
-12.0502
 21
104.907
  0
LINE
  8
0
 10
-12.0502
 20
104.907
 11
-12.9804
 21
104.231
  0
LINE
  8
0
 10
-12.9804
 20
104.231
 11
-13.7498
 21
103.377
  0
LINE
  8
0
 10
-13.7498
 20
103.377
 11
-14.3247
 21
102.381
  0
LINE
  8
0
 10
-14.3247
 20
102.381
 11
-14.68
 21
101.288
  0
LINE
  8
0
 10
-14.68
 20
101.288
 11
-14.8002
 21
100.144
  0
ENDSEC
  0
SECTION
  2
OBJECTS
  0
DICTIONARY
  0
ENDSEC
  0
EOF
