  0
SECTION
  2
BLOCKS
  0
ENDSEC
  0
SECTION
  2
ENTITIES
  0
LINE
  8
0
 10
10.5892
 20
-0.13147
 11
11.2458
 21
0.067688
  0
LINE
  8
0
 10
11.2458
 20
0.067688
 11
11.8509
 21
0.391113
  0
LINE
  8
0
 10
11.8509
 20
0.391113
 11
12.3813
 21
0.826385
  0
LINE
  8
0
 10
12.3813
 20
0.826385
 11
12.8165
 21
1.35677
  0
LINE
  8
0
 10
12.8165
 20
1.35677
 11
13.14
 21
1.96187
  0
LINE
  8
0
 10
13.14
 20
1.96187
 11
13.3391
 21
2.61844
  0
LINE
  8
0
 10
13.3391
 20
2.61844
 11
13.4064
 21
3.30125
  0
LINE
  8
0
 10
13.4064
 20
3.30125
 11
13.3391
 21
3.98407
  0
LINE
  8
0
 10
13.3391
 20
3.98407
 11
13.14
 21
4.64066
  0
LINE
  8
0
 10
13.14
 20
4.64066
 11
12.8165
 21
5.24576
  0
LINE
  8
0
 10
12.8165
 20
5.24576
 11
12.3813
 21
5.77614
  0
LINE
  8
0
 10
12.3813
 20
5.77614
 11
11.8509
 21
6.21141
  0
LINE
  8
0
 10
11.8509
 20
6.21141
 11
11.2458
 21
6.53484
  0
LINE
  8
0
 10
11.2458
 20
6.53484
 11
10.5892
 21
6.73401
  0
LINE
  8
0
 10
10.5892
 20
6.73401
 11
9.90639
 21
6.80125
  0
LINE
  8
0
 10
9.90639
 20
6.80125
 11
9.22357
 21
6.73401
  0
LINE
  8
0
 10
9.22357
 20
6.73401
 11
8.56699
 21
6.53484
  0
LINE
  8
0
 10
8.56699
 20
6.53484
 11
7.96188
 21
6.21141
  0
LINE
  8
0
 10
7.96188
 20
6.21141
 11
7.43152
 21
5.77614
  0
LINE
  8
0
 10
7.43152
 20
5.77614
 11
6.99625
 21
5.24576
  0
LINE
  8
0
 10
6.99625
 20
5.24576
 11
6.67281
 21
4.64066
  0
LINE
  8
0
 10
6.67281
 20
4.64066
 11
6.47363
 21
3.98407
  0
LINE
  8
0
 10
6.47363
 20
3.98407
 11
6.40639
 21
3.30125
  0
LINE
  8
0
 10
6.40639
 20
3.30125
 11
6.47363
 21
2.61844
  0
LINE
  8
0
 10
6.47363
 20
2.61844
 11
6.67281
 21
1.96187
  0
LINE
  8
0
 10
6.67281
 20
1.96187
 11
6.99625
 21
1.35677
  0
LINE
  8
0
 10
6.99625
 20
1.35677
 11
7.43152
 21
0.826385
  0
LINE
  8
0
 10
7.43152
 20
0.826385
 11
7.96188
 21
0.391113
  0
LINE
  8
0
 10
7.96188
 20
0.391113
 11
8.56699
 21
0.067688
  0
LINE
  8
0
 10
8.56699
 20
0.067688
 11
9.22357
 21
-0.13147
  0
LINE
  8
0
 10
9.22357
 20
-0.13147
 11
9.90639
 21
-0.19873
  0
LINE
  8
0
 10
9.90639
 20
-0.19873
 11
10.5892
 21
-0.13147
  0
LINE
  8
0
 10
0.682816
 20
-3.43274
 11
1.33939
 21
-3.23357
  0
LINE
  8
0
 10
1.33939
 20
-3.23357
 11
1.94449
 21
-2.91014
  0
LINE
  8
0
 10
1.94449
 20
-2.91014
 11
2.47487
 21
-2.47487
  0
LINE
  8
0
 10
2.47487
 20
-2.47487
 11
2.91014
 21
-1.94449
  0
LINE
  8
0
 10
2.91014
 20
-1.94449
 11
3.23357
 21
-1.33939
  0
LINE
  8
0
 10
3.23357
 20
-1.33939
 11
3.43274
 21
-0.682816
  0
LINE
  8
0
 10
3.43274
 20
-0.682816
 11
3.5
 21
0
  0
LINE
  8
0
 10
3.5
 20
0
 11
3.43274
 21
0.682816
  0
LINE
  8
0
 10
3.43274
 20
0.682816
 11
3.23357
 21
1.33939
  0
LINE
  8
0
 10
3.23357
 20
1.33939
 11
2.91014
 21
1.94449
  0
LINE
  8
0
 10
2.91014
 20
1.94449
 11
2.47487
 21
2.47487
  0
LINE
  8
0
 10
2.47487
 20
2.47487
 11
1.94449
 21
2.91014
  0
LINE
  8
0
 10
1.94449
 20
2.91014
 11
1.33939
 21
3.23357
  0
LINE
  8
0
 10
1.33939
 20
3.23357
 11
0.682816
 21
3.43274
  0
LINE
  8
0
 10
0.682816
 20
3.43274
 11
0
 21
3.5
  0
LINE
  8
0
 10
0
 20
3.5
 11
-0.682816
 21
3.43274
  0
LINE
  8
0
 10
-0.682816
 20
3.43274
 11
-1.33939
 21
3.23357
  0
LINE
  8
0
 10
-1.33939
 20
3.23357
 11
-1.94449
 21
2.91014
  0
LINE
  8
0
 10
-1.94449
 20
2.91014
 11
-2.47487
 21
2.47487
  0
LINE
  8
0
 10
-2.47487
 20
2.47487
 11
-2.91014
 21
1.94449
  0
LINE
  8
0
 10
-2.91014
 20
1.94449
 11
-3.23357
 21
1.33939
  0
LINE
  8
0
 10
-3.23357
 20
1.33939
 11
-3.43274
 21
0.682816
  0
LINE
  8
0
 10
-3.43274
 20
0.682816
 11
-3.5
 21
0
  0
LINE
  8
0
 10
-3.5
 20
0
 11
-3.43274
 21
-0.682816
  0
LINE
  8
0
 10
-3.43274
 20
-0.682816
 11
-3.23357
 21
-1.33939
  0
LINE
  8
0
 10
-3.23357
 20
-1.33939
 11
-2.91014
 21
-1.94449
  0
LINE
  8
0
 10
-2.91014
 20
-1.94449
 11
-2.47487
 21
-2.47487
  0
LINE
  8
0
 10
-2.47487
 20
-2.47487
 11
-1.94449
 21
-2.91014
  0
LINE
  8
0
 10
-1.94449
 20
-2.91014
 11
-1.33939
 21
-3.23357
  0
LINE
  8
0
 10
-1.33939
 20
-3.23357
 11
-0.682816
 21
-3.43274
  0
LINE
  8
0
 10
-0.682816
 20
-3.43274
 11
0
 21
-3.5
  0
LINE
  8
0
 10
0
 20
-3.5
 11
0.682816
 21
-3.43274
  0
ENDSEC
  0
SECTION
  2
OBJECTS
  0
DICTIONARY
  0
ENDSEC
  0
EOF
