  0
SECTION
  2
BLOCKS
  0
ENDSEC
  0
SECTION
  2
ENTITIES
  0
LINE
  8
0
 10
-2.09225
 20
40.6119
 11
-1.43567
 21
40.8111
  0
LINE
  8
0
 10
-1.43567
 20
40.8111
 11
-0.830566
 21
41.1345
  0
LINE
  8
0
 10
-0.830566
 20
41.1345
 11
-0.300186
 21
41.5698
  0
LINE
  8
0
 10
-0.300186
 20
41.5698
 11
0.135071
 21
42.1002
  0
LINE
  8
0
 10
0.135071
 20
42.1002
 11
0.458496
 21
42.7053
  0
LINE
  8
0
 10
0.458496
 20
42.7053
 11
0.657669
 21
43.3618
  0
LINE
  8
0
 10
0.657669
 20
43.3618
 11
0.724915
 21
44.0446
  0
LINE
  8
0
 10
0.724915
 20
44.0446
 11
0.657669
 21
44.7275
  0
LINE
  8
0
 10
0.657669
 20
44.7275
 11
0.458496
 21
45.384
  0
LINE
  8
0
 10
0.458496
 20
45.384
 11
0.135071
 21
45.9892
  0
LINE
  8
0
 10
0.135071
 20
45.9892
 11
-0.300186
 21
46.5195
  0
LINE
  8
0
 10
-0.300186
 20
46.5195
 11
-0.830566
 21
46.9548
  0
LINE
  8
0
 10
-0.830566
 20
46.9548
 11
-1.43567
 21
47.2782
  0
LINE
  8
0
 10
-1.43567
 20
47.2782
 11
-2.09225
 21
47.4774
  0
LINE
  8
0
 10
-2.09225
 20
47.4774
 11
-2.77507
 21
47.5446
  0
LINE
  8
0
 10
-2.77507
 20
47.5446
 11
-3.45789
 21
47.4774
  0
LINE
  8
0
 10
-3.45789
 20
47.4774
 11
-4.11446
 21
47.2782
  0
LINE
  8
0
 10
-4.11446
 20
47.2782
 11
-4.71956
 21
46.9548
  0
LINE
  8
0
 10
-4.71956
 20
46.9548
 11
-5.24994
 21
46.5195
  0
LINE
  8
0
 10
-5.24994
 20
46.5195
 11
-5.68521
 21
45.9892
  0
LINE
  8
0
 10
-5.68521
 20
45.9892
 11
-6.00864
 21
45.384
  0
LINE
  8
0
 10
-6.00864
 20
45.384
 11
-6.20781
 21
44.7275
  0
LINE
  8
0
 10
-6.20781
 20
44.7275
 11
-6.27507
 21
44.0446
  0
LINE
  8
0
 10
-6.27507
 20
44.0446
 11
-6.20781
 21
43.3618
  0
LINE
  8
0
 10
-6.20781
 20
43.3618
 11
-6.00864
 21
42.7053
  0
LINE
  8
0
 10
-6.00864
 20
42.7053
 11
-5.68521
 21
42.1002
  0
LINE
  8
0
 10
-5.68521
 20
42.1002
 11
-5.24994
 21
41.5698
  0
LINE
  8
0
 10
-5.24994
 20
41.5698
 11
-4.71956
 21
41.1345
  0
LINE
  8
0
 10
-4.71956
 20
41.1345
 11
-4.11446
 21
40.8111
  0
LINE
  8
0
 10
-4.11446
 20
40.8111
 11
-3.45789
 21
40.6119
  0
LINE
  8
0
 10
-3.45789
 20
40.6119
 11
-2.77507
 21
40.5446
  0
LINE
  8
0
 10
-2.77507
 20
40.5446
 11
-2.09225
 21
40.6119
  0
LINE
  8
0
 10
0.682816
 20
-3.43274
 11
1.33939
 21
-3.23357
  0
LINE
  8
0
 10
1.33939
 20
-3.23357
 11
1.94449
 21
-2.91014
  0
LINE
  8
0
 10
1.94449
 20
-2.91014
 11
2.47487
 21
-2.47487
  0
LINE
  8
0
 10
2.47487
 20
-2.47487
 11
2.91014
 21
-1.94449
  0
LINE
  8
0
 10
2.91014
 20
-1.94449
 11
3.23357
 21
-1.33939
  0
LINE
  8
0
 10
3.23357
 20
-1.33939
 11
3.43274
 21
-0.682816
  0
LINE
  8
0
 10
3.43274
 20
-0.682816
 11
3.5
 21
0
  0
LINE
  8
0
 10
3.5
 20
0
 11
3.43274
 21
0.682816
  0
LINE
  8
0
 10
3.43274
 20
0.682816
 11
3.23357
 21
1.33939
  0
LINE
  8
0
 10
3.23357
 20
1.33939
 11
2.91014
 21
1.94449
  0
LINE
  8
0
 10
2.91014
 20
1.94449
 11
2.47487
 21
2.47487
  0
LINE
  8
0
 10
2.47487
 20
2.47487
 11
1.94449
 21
2.91014
  0
LINE
  8
0
 10
1.94449
 20
2.91014
 11
1.33939
 21
3.23357
  0
LINE
  8
0
 10
1.33939
 20
3.23357
 11
0.682816
 21
3.43274
  0
LINE
  8
0
 10
0.682816
 20
3.43274
 11
0
 21
3.5
  0
LINE
  8
0
 10
0
 20
3.5
 11
-0.682816
 21
3.43274
  0
LINE
  8
0
 10
-0.682816
 20
3.43274
 11
-1.33939
 21
3.23357
  0
LINE
  8
0
 10
-1.33939
 20
3.23357
 11
-1.94449
 21
2.91014
  0
LINE
  8
0
 10
-1.94449
 20
2.91014
 11
-2.47487
 21
2.47487
  0
LINE
  8
0
 10
-2.47487
 20
2.47487
 11
-2.91014
 21
1.94449
  0
LINE
  8
0
 10
-2.91014
 20
1.94449
 11
-3.23357
 21
1.33939
  0
LINE
  8
0
 10
-3.23357
 20
1.33939
 11
-3.43274
 21
0.682816
  0
LINE
  8
0
 10
-3.43274
 20
0.682816
 11
-3.5
 21
0
  0
LINE
  8
0
 10
-3.5
 20
0
 11
-3.43274
 21
-0.682816
  0
LINE
  8
0
 10
-3.43274
 20
-0.682816
 11
-3.23357
 21
-1.33939
  0
LINE
  8
0
 10
-3.23357
 20
-1.33939
 11
-2.91014
 21
-1.94449
  0
LINE
  8
0
 10
-2.91014
 20
-1.94449
 11
-2.47487
 21
-2.47487
  0
LINE
  8
0
 10
-2.47487
 20
-2.47487
 11
-1.94449
 21
-2.91014
  0
LINE
  8
0
 10
-1.94449
 20
-2.91014
 11
-1.33939
 21
-3.23357
  0
LINE
  8
0
 10
-1.33939
 20
-3.23357
 11
-0.682816
 21
-3.43274
  0
LINE
  8
0
 10
-0.682816
 20
-3.43274
 11
0
 21
-3.5
  0
LINE
  8
0
 10
0
 20
-3.5
 11
0.682816
 21
-3.43274
  0
ENDSEC
  0
SECTION
  2
OBJECTS
  0
DICTIONARY
  0
ENDSEC
  0
EOF
