  0
SECTION
  2
BLOCKS
  0
ENDSEC
  0
SECTION
  2
ENTITIES
  0
LINE
  8
0
 10
-5.5
 20
3.11605e-15
 11
-5.37981
 21
-1.14351
  0
LINE
  8
0
 10
-5.37981
 20
-1.14351
 11
-5.0245
 21
-2.23705
  0
LINE
  8
0
 10
-5.0245
 20
-2.23705
 11
-4.44959
 21
-3.23282
  0
LINE
  8
0
 10
-4.44959
 20
-3.23282
 11
-3.68022
 21
-4.0873
  0
LINE
  8
0
 10
-3.68022
 20
-4.0873
 11
-2.75
 21
-4.76314
  0
LINE
  8
0
 10
-2.75
 20
-4.76314
 11
-1.69959
 21
-5.23081
  0
LINE
  8
0
 10
-1.69959
 20
-5.23081
 11
-0.574907
 21
-5.46987
  0
LINE
  8
0
 10
-0.574907
 20
-5.46987
 11
0.574907
 21
-5.46987
  0
LINE
  8
0
 10
0.574907
 20
-5.46987
 11
1.69959
 21
-5.23081
  0
LINE
  8
0
 10
1.69959
 20
-5.23081
 11
2.75
 21
-4.76314
  0
LINE
  8
0
 10
2.75
 20
-4.76314
 11
51.9
 21
29.6469
  0
LINE
  8
0
 10
51.9
 20
29.6469
 11
52.8302
 21
30.3227
  0
LINE
  8
0
 10
52.8302
 20
30.3227
 11
53.5996
 21
31.1772
  0
LINE
  8
0
 10
53.5996
 20
31.1772
 11
54.1745
 21
32.1729
  0
LINE
  8
0
 10
54.1745
 20
32.1729
 11
54.5298
 21
33.2665
  0
LINE
  8
0
 10
54.5298
 20
33.2665
 11
54.65
 21
34.41
  0
LINE
  8
0
 10
54.65
 20
34.41
 11
54.5298
 21
35.5535
  0
LINE
  8
0
 10
54.5298
 20
35.5535
 11
54.1745
 21
36.6471
  0
LINE
  8
0
 10
54.1745
 20
36.6471
 11
53.5996
 21
37.6428
  0
LINE
  8
0
 10
53.5996
 20
37.6428
 11
52.8302
 21
38.4973
  0
LINE
  8
0
 10
52.8302
 20
38.4973
 11
51.9
 21
39.1731
  0
LINE
  8
0
 10
51.9
 20
39.1731
 11
50.8496
 21
39.6408
  0
LINE
  8
0
 10
50.8496
 20
39.6408
 11
49.7249
 21
39.8799
  0
LINE
  8
0
 10
49.7249
 20
39.8799
 11
48.5751
 21
39.8799
  0
LINE
  8
0
 10
48.5751
 20
39.8799
 11
47.4504
 21
39.6408
  0
LINE
  8
0
 10
47.4504
 20
39.6408
 11
46.4
 21
39.1731
  0
LINE
  8
0
 10
46.4
 20
39.1731
 11
-2.75
 21
4.76314
  0
LINE
  8
0
 10
-2.75
 20
4.76314
 11
-3.68022
 21
4.0873
  0
LINE
  8
0
 10
-3.68022
 20
4.0873
 11
-4.44959
 21
3.23282
  0
LINE
  8
0
 10
-4.44959
 20
3.23282
 11
-5.0245
 21
2.23705
  0
LINE
  8
0
 10
-5.0245
 20
2.23705
 11
-5.37981
 21
1.14351
  0
LINE
  8
0
 10
-5.37981
 20
1.14351
 11
-5.5
 21
3.11605e-15
  0
ENDSEC
  0
SECTION
  2
OBJECTS
  0
DICTIONARY
  0
ENDSEC
  0
EOF
