  0
SECTION
  2
BLOCKS
  0
ENDSEC
  0
SECTION
  2
ENTITIES
  0
LINE
  8
0
 10
-5.5
 20
-60
 11
-5.37981
 21
-61.1435
  0
LINE
  8
0
 10
-5.37981
 20
-61.1435
 11
-5.0245
 21
-62.2371
  0
LINE
  8
0
 10
-5.0245
 20
-62.2371
 11
-4.44959
 21
-63.2328
  0
LINE
  8
0
 10
-4.44959
 20
-63.2328
 11
-3.68022
 21
-64.0873
  0
LINE
  8
0
 10
-3.68022
 20
-64.0873
 11
-2.75
 21
-64.7631
  0
LINE
  8
0
 10
-2.75
 20
-64.7631
 11
-1.69959
 21
-65.2308
  0
LINE
  8
0
 10
-1.69959
 20
-65.2308
 11
-0.574907
 21
-65.4699
  0
LINE
  8
0
 10
-0.574907
 20
-65.4699
 11
0.574907
 21
-65.4699
  0
LINE
  8
0
 10
0.574907
 20
-65.4699
 11
1.69959
 21
-65.2308
  0
LINE
  8
0
 10
1.69959
 20
-65.2308
 11
2.75
 21
-64.7631
  0
LINE
  8
0
 10
2.75
 20
-64.7631
 11
3.68022
 21
-64.0873
  0
LINE
  8
0
 10
3.68022
 20
-64.0873
 11
4.44959
 21
-63.2328
  0
LINE
  8
0
 10
4.44959
 20
-63.2328
 11
5.0245
 21
-62.2371
  0
LINE
  8
0
 10
5.0245
 20
-62.2371
 11
5.37981
 21
-61.1435
  0
LINE
  8
0
 10
5.37981
 20
-61.1435
 11
5.5
 21
-60
  0
LINE
  8
0
 10
5.5
 20
-60
 11
5.5
 21
0
  0
LINE
  8
0
 10
5.5
 20
0
 11
5.37981
 21
1.14351
  0
LINE
  8
0
 10
5.37981
 20
1.14351
 11
5.0245
 21
2.23705
  0
LINE
  8
0
 10
5.0245
 20
2.23705
 11
4.44959
 21
3.23282
  0
LINE
  8
0
 10
4.44959
 20
3.23282
 11
3.68022
 21
4.0873
  0
LINE
  8
0
 10
3.68022
 20
4.0873
 11
2.75
 21
4.76314
  0
LINE
  8
0
 10
2.75
 20
4.76314
 11
1.69959
 21
5.23081
  0
LINE
  8
0
 10
1.69959
 20
5.23081
 11
0.574907
 21
5.46987
  0
LINE
  8
0
 10
0.574907
 20
5.46987
 11
-0.574907
 21
5.46987
  0
LINE
  8
0
 10
-0.574907
 20
5.46987
 11
-1.69959
 21
5.23081
  0
LINE
  8
0
 10
-1.69959
 20
5.23081
 11
-2.75
 21
4.76314
  0
LINE
  8
0
 10
-2.75
 20
4.76314
 11
-3.68022
 21
4.0873
  0
LINE
  8
0
 10
-3.68022
 20
4.0873
 11
-4.44959
 21
3.23282
  0
LINE
  8
0
 10
-4.44959
 20
3.23282
 11
-5.0245
 21
2.23705
  0
LINE
  8
0
 10
-5.0245
 20
2.23705
 11
-5.37981
 21
1.14351
  0
LINE
  8
0
 10
-5.37981
 20
1.14351
 11
-5.5
 21
3.11605e-15
  0
LINE
  8
0
 10
-5.5
 20
3.11605e-15
 11
-5.5
 21
-60
  0
ENDSEC
  0
SECTION
  2
OBJECTS
  0
DICTIONARY
  0
ENDSEC
  0
EOF
