  0
SECTION
  2
BLOCKS
  0
ENDSEC
  0
SECTION
  2
ENTITIES
  0
LINE
  8
0
 10
-69.6534
 20
18.2601
 11
-68.9968
 21
18.4593
  0
LINE
  8
0
 10
-68.9968
 20
18.4593
 11
-68.3917
 21
18.7827
  0
LINE
  8
0
 10
-68.3917
 20
18.7827
 11
-67.8614
 21
19.218
  0
LINE
  8
0
 10
-67.8614
 20
19.218
 11
-67.4261
 21
19.7484
  0
LINE
  8
0
 10
-67.4261
 20
19.7484
 11
-67.1026
 21
20.3535
  0
LINE
  8
0
 10
-67.1026
 20
20.3535
 11
-66.9035
 21
21.01
  0
LINE
  8
0
 10
-66.9035
 20
21.01
 11
-66.8362
 21
21.6928
  0
LINE
  8
0
 10
-66.8362
 20
21.6928
 11
-66.9035
 21
22.3757
  0
LINE
  8
0
 10
-66.9035
 20
22.3757
 11
-67.1026
 21
23.0322
  0
LINE
  8
0
 10
-67.1026
 20
23.0322
 11
-67.4261
 21
23.6373
  0
LINE
  8
0
 10
-67.4261
 20
23.6373
 11
-67.8614
 21
24.1677
  0
LINE
  8
0
 10
-67.8614
 20
24.1677
 11
-68.3917
 21
24.603
  0
LINE
  8
0
 10
-68.3917
 20
24.603
 11
-68.9968
 21
24.9264
  0
LINE
  8
0
 10
-68.9968
 20
24.9264
 11
-69.6534
 21
25.1256
  0
LINE
  8
0
 10
-69.6534
 20
25.1256
 11
-70.3362
 21
25.1928
  0
LINE
  8
0
 10
-70.3362
 20
25.1928
 11
-71.019
 21
25.1256
  0
LINE
  8
0
 10
-71.019
 20
25.1256
 11
-71.6756
 21
24.9264
  0
LINE
  8
0
 10
-71.6756
 20
24.9264
 11
-72.2807
 21
24.603
  0
LINE
  8
0
 10
-72.2807
 20
24.603
 11
-72.8111
 21
24.1677
  0
LINE
  8
0
 10
-72.8111
 20
24.1677
 11
-73.2464
 21
23.6373
  0
LINE
  8
0
 10
-73.2464
 20
23.6373
 11
-73.5698
 21
23.0322
  0
LINE
  8
0
 10
-73.5698
 20
23.0322
 11
-73.769
 21
22.3757
  0
LINE
  8
0
 10
-73.769
 20
22.3757
 11
-73.8362
 21
21.6928
  0
LINE
  8
0
 10
-73.8362
 20
21.6928
 11
-73.769
 21
21.01
  0
LINE
  8
0
 10
-73.769
 20
21.01
 11
-73.5698
 21
20.3535
  0
LINE
  8
0
 10
-73.5698
 20
20.3535
 11
-73.2464
 21
19.7484
  0
LINE
  8
0
 10
-73.2464
 20
19.7484
 11
-72.8111
 21
19.218
  0
LINE
  8
0
 10
-72.8111
 20
19.218
 11
-72.2807
 21
18.7827
  0
LINE
  8
0
 10
-72.2807
 20
18.7827
 11
-71.6756
 21
18.4593
  0
LINE
  8
0
 10
-71.6756
 20
18.4593
 11
-71.019
 21
18.2601
  0
LINE
  8
0
 10
-71.019
 20
18.2601
 11
-70.3362
 21
18.1928
  0
LINE
  8
0
 10
-70.3362
 20
18.1928
 11
-69.6534
 21
18.2601
  0
LINE
  8
0
 10
0.682816
 20
-3.43274
 11
1.33939
 21
-3.23357
  0
LINE
  8
0
 10
1.33939
 20
-3.23357
 11
1.94449
 21
-2.91014
  0
LINE
  8
0
 10
1.94449
 20
-2.91014
 11
2.47487
 21
-2.47487
  0
LINE
  8
0
 10
2.47487
 20
-2.47487
 11
2.91014
 21
-1.94449
  0
LINE
  8
0
 10
2.91014
 20
-1.94449
 11
3.23357
 21
-1.33939
  0
LINE
  8
0
 10
3.23357
 20
-1.33939
 11
3.43274
 21
-0.682816
  0
LINE
  8
0
 10
3.43274
 20
-0.682816
 11
3.5
 21
0
  0
LINE
  8
0
 10
3.5
 20
0
 11
3.43274
 21
0.682816
  0
LINE
  8
0
 10
3.43274
 20
0.682816
 11
3.23357
 21
1.33939
  0
LINE
  8
0
 10
3.23357
 20
1.33939
 11
2.91014
 21
1.94449
  0
LINE
  8
0
 10
2.91014
 20
1.94449
 11
2.47487
 21
2.47487
  0
LINE
  8
0
 10
2.47487
 20
2.47487
 11
1.94449
 21
2.91014
  0
LINE
  8
0
 10
1.94449
 20
2.91014
 11
1.33939
 21
3.23357
  0
LINE
  8
0
 10
1.33939
 20
3.23357
 11
0.682816
 21
3.43274
  0
LINE
  8
0
 10
0.682816
 20
3.43274
 11
0
 21
3.5
  0
LINE
  8
0
 10
0
 20
3.5
 11
-0.682816
 21
3.43274
  0
LINE
  8
0
 10
-0.682816
 20
3.43274
 11
-1.33939
 21
3.23357
  0
LINE
  8
0
 10
-1.33939
 20
3.23357
 11
-1.94449
 21
2.91014
  0
LINE
  8
0
 10
-1.94449
 20
2.91014
 11
-2.47487
 21
2.47487
  0
LINE
  8
0
 10
-2.47487
 20
2.47487
 11
-2.91014
 21
1.94449
  0
LINE
  8
0
 10
-2.91014
 20
1.94449
 11
-3.23357
 21
1.33939
  0
LINE
  8
0
 10
-3.23357
 20
1.33939
 11
-3.43274
 21
0.682816
  0
LINE
  8
0
 10
-3.43274
 20
0.682816
 11
-3.5
 21
0
  0
LINE
  8
0
 10
-3.5
 20
0
 11
-3.43274
 21
-0.682816
  0
LINE
  8
0
 10
-3.43274
 20
-0.682816
 11
-3.23357
 21
-1.33939
  0
LINE
  8
0
 10
-3.23357
 20
-1.33939
 11
-2.91014
 21
-1.94449
  0
LINE
  8
0
 10
-2.91014
 20
-1.94449
 11
-2.47487
 21
-2.47487
  0
LINE
  8
0
 10
-2.47487
 20
-2.47487
 11
-1.94449
 21
-2.91014
  0
LINE
  8
0
 10
-1.94449
 20
-2.91014
 11
-1.33939
 21
-3.23357
  0
LINE
  8
0
 10
-1.33939
 20
-3.23357
 11
-0.682816
 21
-3.43274
  0
LINE
  8
0
 10
-0.682816
 20
-3.43274
 11
0
 21
-3.5
  0
LINE
  8
0
 10
0
 20
-3.5
 11
0.682816
 21
-3.43274
  0
ENDSEC
  0
SECTION
  2
OBJECTS
  0
DICTIONARY
  0
ENDSEC
  0
EOF
