  0
SECTION
  2
BLOCKS
  0
ENDSEC
  0
SECTION
  2
ENTITIES
  0
LINE
  8
0
 10
-31.7334
 20
41.5327
 11
-31.0769
 21
41.7319
  0
LINE
  8
0
 10
-31.0769
 20
41.7319
 11
-30.4718
 21
42.0553
  0
LINE
  8
0
 10
-30.4718
 20
42.0553
 11
-29.9414
 21
42.4906
  0
LINE
  8
0
 10
-29.9414
 20
42.4906
 11
-29.5061
 21
43.021
  0
LINE
  8
0
 10
-29.5061
 20
43.021
 11
-29.1827
 21
43.6261
  0
LINE
  8
0
 10
-29.1827
 20
43.6261
 11
-28.9835
 21
44.2826
  0
LINE
  8
0
 10
-28.9835
 20
44.2826
 11
-28.9162
 21
44.9655
  0
LINE
  8
0
 10
-28.9162
 20
44.9655
 11
-28.9835
 21
45.6483
  0
LINE
  8
0
 10
-28.9835
 20
45.6483
 11
-29.1827
 21
46.3048
  0
LINE
  8
0
 10
-29.1827
 20
46.3048
 11
-29.5061
 21
46.9099
  0
LINE
  8
0
 10
-29.5061
 20
46.9099
 11
-29.9414
 21
47.4403
  0
LINE
  8
0
 10
-29.9414
 20
47.4403
 11
-30.4718
 21
47.8756
  0
LINE
  8
0
 10
-30.4718
 20
47.8756
 11
-31.0769
 21
48.199
  0
LINE
  8
0
 10
-31.0769
 20
48.199
 11
-31.7334
 21
48.3982
  0
LINE
  8
0
 10
-31.7334
 20
48.3982
 11
-32.4162
 21
48.4655
  0
LINE
  8
0
 10
-32.4162
 20
48.4655
 11
-33.0991
 21
48.3982
  0
LINE
  8
0
 10
-33.0991
 20
48.3982
 11
-33.7556
 21
48.199
  0
LINE
  8
0
 10
-33.7556
 20
48.199
 11
-34.3607
 21
47.8756
  0
LINE
  8
0
 10
-34.3607
 20
47.8756
 11
-34.8911
 21
47.4403
  0
LINE
  8
0
 10
-34.8911
 20
47.4403
 11
-35.3264
 21
46.9099
  0
LINE
  8
0
 10
-35.3264
 20
46.9099
 11
-35.6498
 21
46.3048
  0
LINE
  8
0
 10
-35.6498
 20
46.3048
 11
-35.849
 21
45.6483
  0
LINE
  8
0
 10
-35.849
 20
45.6483
 11
-35.9162
 21
44.9655
  0
LINE
  8
0
 10
-35.9162
 20
44.9655
 11
-35.849
 21
44.2826
  0
LINE
  8
0
 10
-35.849
 20
44.2826
 11
-35.6498
 21
43.6261
  0
LINE
  8
0
 10
-35.6498
 20
43.6261
 11
-35.3264
 21
43.021
  0
LINE
  8
0
 10
-35.3264
 20
43.021
 11
-34.8911
 21
42.4906
  0
LINE
  8
0
 10
-34.8911
 20
42.4906
 11
-34.3607
 21
42.0553
  0
LINE
  8
0
 10
-34.3607
 20
42.0553
 11
-33.7556
 21
41.7319
  0
LINE
  8
0
 10
-33.7556
 20
41.7319
 11
-33.0991
 21
41.5327
  0
LINE
  8
0
 10
-33.0991
 20
41.5327
 11
-32.4162
 21
41.4655
  0
LINE
  8
0
 10
-32.4162
 20
41.4655
 11
-31.7334
 21
41.5327
  0
LINE
  8
0
 10
0.682816
 20
-3.43274
 11
1.33939
 21
-3.23357
  0
LINE
  8
0
 10
1.33939
 20
-3.23357
 11
1.94449
 21
-2.91014
  0
LINE
  8
0
 10
1.94449
 20
-2.91014
 11
2.47487
 21
-2.47487
  0
LINE
  8
0
 10
2.47487
 20
-2.47487
 11
2.91014
 21
-1.94449
  0
LINE
  8
0
 10
2.91014
 20
-1.94449
 11
3.23357
 21
-1.33939
  0
LINE
  8
0
 10
3.23357
 20
-1.33939
 11
3.43274
 21
-0.682816
  0
LINE
  8
0
 10
3.43274
 20
-0.682816
 11
3.5
 21
0
  0
LINE
  8
0
 10
3.5
 20
0
 11
3.43274
 21
0.682816
  0
LINE
  8
0
 10
3.43274
 20
0.682816
 11
3.23357
 21
1.33939
  0
LINE
  8
0
 10
3.23357
 20
1.33939
 11
2.91014
 21
1.94449
  0
LINE
  8
0
 10
2.91014
 20
1.94449
 11
2.47487
 21
2.47487
  0
LINE
  8
0
 10
2.47487
 20
2.47487
 11
1.94449
 21
2.91014
  0
LINE
  8
0
 10
1.94449
 20
2.91014
 11
1.33939
 21
3.23357
  0
LINE
  8
0
 10
1.33939
 20
3.23357
 11
0.682816
 21
3.43274
  0
LINE
  8
0
 10
0.682816
 20
3.43274
 11
0
 21
3.5
  0
LINE
  8
0
 10
0
 20
3.5
 11
-0.682816
 21
3.43274
  0
LINE
  8
0
 10
-0.682816
 20
3.43274
 11
-1.33939
 21
3.23357
  0
LINE
  8
0
 10
-1.33939
 20
3.23357
 11
-1.94449
 21
2.91014
  0
LINE
  8
0
 10
-1.94449
 20
2.91014
 11
-2.47487
 21
2.47487
  0
LINE
  8
0
 10
-2.47487
 20
2.47487
 11
-2.91014
 21
1.94449
  0
LINE
  8
0
 10
-2.91014
 20
1.94449
 11
-3.23357
 21
1.33939
  0
LINE
  8
0
 10
-3.23357
 20
1.33939
 11
-3.43274
 21
0.682816
  0
LINE
  8
0
 10
-3.43274
 20
0.682816
 11
-3.5
 21
0
  0
LINE
  8
0
 10
-3.5
 20
0
 11
-3.43274
 21
-0.682816
  0
LINE
  8
0
 10
-3.43274
 20
-0.682816
 11
-3.23357
 21
-1.33939
  0
LINE
  8
0
 10
-3.23357
 20
-1.33939
 11
-2.91014
 21
-1.94449
  0
LINE
  8
0
 10
-2.91014
 20
-1.94449
 11
-2.47487
 21
-2.47487
  0
LINE
  8
0
 10
-2.47487
 20
-2.47487
 11
-1.94449
 21
-2.91014
  0
LINE
  8
0
 10
-1.94449
 20
-2.91014
 11
-1.33939
 21
-3.23357
  0
LINE
  8
0
 10
-1.33939
 20
-3.23357
 11
-0.682816
 21
-3.43274
  0
LINE
  8
0
 10
-0.682816
 20
-3.43274
 11
0
 21
-3.5
  0
LINE
  8
0
 10
0
 20
-3.5
 11
0.682816
 21
-3.43274
  0
ENDSEC
  0
SECTION
  2
OBJECTS
  0
DICTIONARY
  0
ENDSEC
  0
EOF
