  0
SECTION
  2
BLOCKS
  0
ENDSEC
  0
SECTION
  2
ENTITIES
  0
LINE
  8
0
 10
-8.27507
 20
44.0447
 11
-5.5
 21
3.11605e-15
  0
LINE
  8
0
 10
-5.5
 20
3.11605e-15
 11
-5.37981
 21
-1.14351
  0
LINE
  8
0
 10
-5.37981
 20
-1.14351
 11
-5.0245
 21
-2.23705
  0
LINE
  8
0
 10
-5.0245
 20
-2.23705
 11
-4.44959
 21
-3.23282
  0
LINE
  8
0
 10
-4.44959
 20
-3.23282
 11
-3.68022
 21
-4.0873
  0
LINE
  8
0
 10
-3.68022
 20
-4.0873
 11
-2.75
 21
-4.76314
  0
LINE
  8
0
 10
-2.75
 20
-4.76314
 11
-1.69959
 21
-5.23081
  0
LINE
  8
0
 10
-1.69959
 20
-5.23081
 11
-0.574907
 21
-5.46987
  0
LINE
  8
0
 10
-0.574907
 20
-5.46987
 11
0.574907
 21
-5.46987
  0
LINE
  8
0
 10
0.574907
 20
-5.46987
 11
1.69959
 21
-5.23081
  0
LINE
  8
0
 10
1.69959
 20
-5.23081
 11
2.75
 21
-4.76314
  0
LINE
  8
0
 10
2.75
 20
-4.76314
 11
3.68022
 21
-4.0873
  0
LINE
  8
0
 10
3.68022
 20
-4.0873
 11
4.44959
 21
-3.23282
  0
LINE
  8
0
 10
4.44959
 20
-3.23282
 11
5.0245
 21
-2.23705
  0
LINE
  8
0
 10
5.0245
 20
-2.23705
 11
5.37981
 21
-1.14351
  0
LINE
  8
0
 10
5.37981
 20
-1.14351
 11
5.5
 21
0
  0
LINE
  8
0
 10
5.5
 20
0
 11
2.72493
 21
44.0447
  0
LINE
  8
0
 10
2.72493
 20
44.0447
 11
2.60474
 21
45.1882
  0
LINE
  8
0
 10
2.60474
 20
45.1882
 11
2.24943
 21
46.2817
  0
LINE
  8
0
 10
2.24943
 20
46.2817
 11
1.67452
 21
47.2775
  0
LINE
  8
0
 10
1.67452
 20
47.2775
 11
0.905147
 21
48.132
  0
LINE
  8
0
 10
0.905147
 20
48.132
 11
-0.0250714
 21
48.8078
  0
LINE
  8
0
 10
-0.0250714
 20
48.8078
 11
-1.07548
 21
49.2755
  0
LINE
  8
0
 10
-1.07548
 20
49.2755
 11
-2.20016
 21
49.5145
  0
LINE
  8
0
 10
-2.20016
 20
49.5145
 11
-3.34998
 21
49.5145
  0
LINE
  8
0
 10
-3.34998
 20
49.5145
 11
-4.47466
 21
49.2755
  0
LINE
  8
0
 10
-4.47466
 20
49.2755
 11
-5.52507
 21
48.8078
  0
LINE
  8
0
 10
-5.52507
 20
48.8078
 11
-6.45529
 21
48.132
  0
LINE
  8
0
 10
-6.45529
 20
48.132
 11
-7.22466
 21
47.2775
  0
LINE
  8
0
 10
-7.22466
 20
47.2775
 11
-7.79957
 21
46.2817
  0
LINE
  8
0
 10
-7.79957
 20
46.2817
 11
-8.15488
 21
45.1882
  0
LINE
  8
0
 10
-8.15488
 20
45.1882
 11
-8.27507
 21
44.0447
  0
ENDSEC
  0
SECTION
  2
OBJECTS
  0
DICTIONARY
  0
ENDSEC
  0
EOF
