  0
SECTION
  2
BLOCKS
  0
ENDSEC
  0
SECTION
  2
ENTITIES
  0
LINE
  8
0
 10
0.682816
 20
-3.43274
 11
1.33939
 21
-3.23357
  0
LINE
  8
0
 10
1.33939
 20
-3.23357
 11
1.94449
 21
-2.91014
  0
LINE
  8
0
 10
1.94449
 20
-2.91014
 11
2.47487
 21
-2.47487
  0
LINE
  8
0
 10
2.47487
 20
-2.47487
 11
2.91014
 21
-1.94449
  0
LINE
  8
0
 10
2.91014
 20
-1.94449
 11
3.23357
 21
-1.33939
  0
LINE
  8
0
 10
3.23357
 20
-1.33939
 11
3.43274
 21
-0.682816
  0
LINE
  8
0
 10
3.43274
 20
-0.682816
 11
3.5
 21
0
  0
LINE
  8
0
 10
3.5
 20
0
 11
3.43274
 21
0.682816
  0
LINE
  8
0
 10
3.43274
 20
0.682816
 11
3.23357
 21
1.33939
  0
LINE
  8
0
 10
3.23357
 20
1.33939
 11
2.91014
 21
1.94449
  0
LINE
  8
0
 10
2.91014
 20
1.94449
 11
2.47487
 21
2.47487
  0
LINE
  8
0
 10
2.47487
 20
2.47487
 11
1.94449
 21
2.91014
  0
LINE
  8
0
 10
1.94449
 20
2.91014
 11
1.33939
 21
3.23357
  0
LINE
  8
0
 10
1.33939
 20
3.23357
 11
0.682816
 21
3.43274
  0
LINE
  8
0
 10
0.682816
 20
3.43274
 11
0
 21
3.5
  0
LINE
  8
0
 10
0
 20
3.5
 11
-0.682816
 21
3.43274
  0
LINE
  8
0
 10
-0.682816
 20
3.43274
 11
-1.33939
 21
3.23357
  0
LINE
  8
0
 10
-1.33939
 20
3.23357
 11
-1.94449
 21
2.91014
  0
LINE
  8
0
 10
-1.94449
 20
2.91014
 11
-2.47487
 21
2.47487
  0
LINE
  8
0
 10
-2.47487
 20
2.47487
 11
-2.91014
 21
1.94449
  0
LINE
  8
0
 10
-2.91014
 20
1.94449
 11
-3.23357
 21
1.33939
  0
LINE
  8
0
 10
-3.23357
 20
1.33939
 11
-3.43274
 21
0.682816
  0
LINE
  8
0
 10
-3.43274
 20
0.682816
 11
-3.5
 21
0
  0
LINE
  8
0
 10
-3.5
 20
0
 11
-3.43274
 21
-0.682816
  0
LINE
  8
0
 10
-3.43274
 20
-0.682816
 11
-3.23357
 21
-1.33939
  0
LINE
  8
0
 10
-3.23357
 20
-1.33939
 11
-2.91014
 21
-1.94449
  0
LINE
  8
0
 10
-2.91014
 20
-1.94449
 11
-2.47487
 21
-2.47487
  0
LINE
  8
0
 10
-2.47487
 20
-2.47487
 11
-1.94449
 21
-2.91014
  0
LINE
  8
0
 10
-1.94449
 20
-2.91014
 11
-1.33939
 21
-3.23357
  0
LINE
  8
0
 10
-1.33939
 20
-3.23357
 11
-0.682816
 21
-3.43274
  0
LINE
  8
0
 10
-0.682816
 20
-3.43274
 11
0
 21
-3.5
  0
LINE
  8
0
 10
0
 20
-3.5
 11
0.682816
 21
-3.43274
  0
LINE
  8
0
 10
-45.5429
 20
-23.9503
 11
-44.8863
 21
-23.7511
  0
LINE
  8
0
 10
-44.8863
 20
-23.7511
 11
-44.2812
 21
-23.4277
  0
LINE
  8
0
 10
-44.2812
 20
-23.4277
 11
-43.7508
 21
-22.9924
  0
LINE
  8
0
 10
-43.7508
 20
-22.9924
 11
-43.3155
 21
-22.462
  0
LINE
  8
0
 10
-43.3155
 20
-22.462
 11
-42.9921
 21
-21.8569
  0
LINE
  8
0
 10
-42.9921
 20
-21.8569
 11
-42.7929
 21
-21.2003
  0
LINE
  8
0
 10
-42.7929
 20
-21.2003
 11
-42.7257
 21
-20.5175
  0
LINE
  8
0
 10
-42.7257
 20
-20.5175
 11
-42.7929
 21
-19.8347
  0
LINE
  8
0
 10
-42.7929
 20
-19.8347
 11
-42.9921
 21
-19.1781
  0
LINE
  8
0
 10
-42.9921
 20
-19.1781
 11
-43.3155
 21
-18.573
  0
LINE
  8
0
 10
-43.3155
 20
-18.573
 11
-43.7508
 21
-18.0426
  0
LINE
  8
0
 10
-43.7508
 20
-18.0426
 11
-44.2812
 21
-17.6074
  0
LINE
  8
0
 10
-44.2812
 20
-17.6074
 11
-44.8863
 21
-17.2839
  0
LINE
  8
0
 10
-44.8863
 20
-17.2839
 11
-45.5429
 21
-17.0848
  0
LINE
  8
0
 10
-45.5429
 20
-17.0848
 11
-46.2257
 21
-17.0175
  0
LINE
  8
0
 10
-46.2257
 20
-17.0175
 11
-46.9085
 21
-17.0848
  0
LINE
  8
0
 10
-46.9085
 20
-17.0848
 11
-47.5651
 21
-17.2839
  0
LINE
  8
0
 10
-47.5651
 20
-17.2839
 11
-48.1702
 21
-17.6074
  0
LINE
  8
0
 10
-48.1702
 20
-17.6074
 11
-48.7005
 21
-18.0426
  0
LINE
  8
0
 10
-48.7005
 20
-18.0426
 11
-49.1358
 21
-18.573
  0
LINE
  8
0
 10
-49.1358
 20
-18.573
 11
-49.4593
 21
-19.1781
  0
LINE
  8
0
 10
-49.4593
 20
-19.1781
 11
-49.6584
 21
-19.8347
  0
LINE
  8
0
 10
-49.6584
 20
-19.8347
 11
-49.7257
 21
-20.5175
  0
LINE
  8
0
 10
-49.7257
 20
-20.5175
 11
-49.6584
 21
-21.2003
  0
LINE
  8
0
 10
-49.6584
 20
-21.2003
 11
-49.4593
 21
-21.8569
  0
LINE
  8
0
 10
-49.4593
 20
-21.8569
 11
-49.1358
 21
-22.462
  0
LINE
  8
0
 10
-49.1358
 20
-22.462
 11
-48.7005
 21
-22.9924
  0
LINE
  8
0
 10
-48.7005
 20
-22.9924
 11
-48.1702
 21
-23.4277
  0
LINE
  8
0
 10
-48.1702
 20
-23.4277
 11
-47.5651
 21
-23.7511
  0
LINE
  8
0
 10
-47.5651
 20
-23.7511
 11
-46.9085
 21
-23.9503
  0
LINE
  8
0
 10
-46.9085
 20
-23.9503
 11
-46.2257
 21
-24.0175
  0
LINE
  8
0
 10
-46.2257
 20
-24.0175
 11
-45.5429
 21
-23.9503
  0
ENDSEC
  0
SECTION
  2
OBJECTS
  0
DICTIONARY
  0
ENDSEC
  0
EOF
