  0
SECTION
  2
BLOCKS
  0
ENDSEC
  0
SECTION
  2
ENTITIES
  0
LINE
  8
0
 10
-5.5
 20
3.11605e-15
 11
-5.37981
 21
-1.14351
  0
LINE
  8
0
 10
-5.37981
 20
-1.14351
 11
-5.0245
 21
-2.23705
  0
LINE
  8
0
 10
-5.0245
 20
-2.23705
 11
-4.44959
 21
-3.23282
  0
LINE
  8
0
 10
-4.44959
 20
-3.23282
 11
-3.68022
 21
-4.0873
  0
LINE
  8
0
 10
-3.68022
 20
-4.0873
 11
-2.75
 21
-4.76314
  0
LINE
  8
0
 10
-2.75
 20
-4.76314
 11
-1.69959
 21
-5.23081
  0
LINE
  8
0
 10
-1.69959
 20
-5.23081
 11
6.77163
 21
-8.00786
  0
LINE
  8
0
 10
6.77163
 20
-8.00786
 11
7.89632
 21
-8.24692
  0
LINE
  8
0
 10
7.89632
 20
-8.24692
 11
9.04613
 21
-8.24692
  0
LINE
  8
0
 10
9.04613
 20
-8.24692
 11
10.1708
 21
-8.00786
  0
LINE
  8
0
 10
10.1708
 20
-8.00786
 11
11.2212
 21
-7.54019
  0
LINE
  8
0
 10
11.2212
 20
-7.54019
 11
12.1514
 21
-6.86435
  0
LINE
  8
0
 10
12.1514
 20
-6.86435
 11
12.9208
 21
-6.00987
  0
LINE
  8
0
 10
12.9208
 20
-6.00987
 11
13.4957
 21
-5.0141
  0
LINE
  8
0
 10
13.4957
 20
-5.0141
 11
13.851
 21
-3.92057
  0
LINE
  8
0
 10
13.851
 20
-3.92057
 11
13.9712
 21
-2.77705
  0
LINE
  8
0
 10
13.9712
 20
-2.77705
 11
13.851
 21
-1.63354
  0
LINE
  8
0
 10
13.851
 20
-1.63354
 11
13.4957
 21
-0.54
  0
LINE
  8
0
 10
13.4957
 20
-0.54
 11
12.9208
 21
0.455768
  0
LINE
  8
0
 10
12.9208
 20
0.455768
 11
12.1514
 21
1.31025
  0
LINE
  8
0
 10
12.1514
 20
1.31025
 11
11.2212
 21
1.98609
  0
LINE
  8
0
 10
11.2212
 20
1.98609
 11
10.1708
 21
2.45376
  0
LINE
  8
0
 10
10.1708
 20
2.45376
 11
1.69959
 21
5.23081
  0
LINE
  8
0
 10
1.69959
 20
5.23081
 11
0.574907
 21
5.46987
  0
LINE
  8
0
 10
0.574907
 20
5.46987
 11
-0.574907
 21
5.46987
  0
LINE
  8
0
 10
-0.574907
 20
5.46987
 11
-1.69959
 21
5.23081
  0
LINE
  8
0
 10
-1.69959
 20
5.23081
 11
-2.75
 21
4.76314
  0
LINE
  8
0
 10
-2.75
 20
4.76314
 11
-3.68022
 21
4.0873
  0
LINE
  8
0
 10
-3.68022
 20
4.0873
 11
-4.44959
 21
3.23282
  0
LINE
  8
0
 10
-4.44959
 20
3.23282
 11
-5.0245
 21
2.23705
  0
LINE
  8
0
 10
-5.0245
 20
2.23705
 11
-5.37981
 21
1.14351
  0
LINE
  8
0
 10
-5.37981
 20
1.14351
 11
-5.5
 21
3.11605e-15
  0
ENDSEC
  0
SECTION
  2
OBJECTS
  0
DICTIONARY
  0
ENDSEC
  0
EOF
