  0
SECTION
  2
BLOCKS
  0
ENDSEC
  0
SECTION
  2
ENTITIES
  0
LINE
  8
0
 10
-75.8362
 20
21.6929
 11
-75.716
 21
20.5493
  0
LINE
  8
0
 10
-75.716
 20
20.5493
 11
-75.3607
 21
19.4558
  0
LINE
  8
0
 10
-75.3607
 20
19.4558
 11
-74.7858
 21
18.46
  0
LINE
  8
0
 10
-74.7858
 20
18.46
 11
-74.0165
 21
17.6056
  0
LINE
  8
0
 10
-74.0165
 20
17.6056
 11
-73.0862
 21
16.9297
  0
LINE
  8
0
 10
-73.0862
 20
16.9297
 11
-72.0358
 21
16.462
  0
LINE
  8
0
 10
-72.0358
 20
16.462
 11
-1.69959
 21
-5.23081
  0
LINE
  8
0
 10
-1.69959
 20
-5.23081
 11
-0.574907
 21
-5.46987
  0
LINE
  8
0
 10
-0.574907
 20
-5.46987
 11
0.574907
 21
-5.46987
  0
LINE
  8
0
 10
0.574907
 20
-5.46987
 11
1.69959
 21
-5.23081
  0
LINE
  8
0
 10
1.69959
 20
-5.23081
 11
2.75
 21
-4.76314
  0
LINE
  8
0
 10
2.75
 20
-4.76314
 11
3.68022
 21
-4.0873
  0
LINE
  8
0
 10
3.68022
 20
-4.0873
 11
4.44959
 21
-3.23282
  0
LINE
  8
0
 10
4.44959
 20
-3.23282
 11
5.0245
 21
-2.23705
  0
LINE
  8
0
 10
5.0245
 20
-2.23705
 11
5.37981
 21
-1.14351
  0
LINE
  8
0
 10
5.37981
 20
-1.14351
 11
5.5
 21
0
  0
LINE
  8
0
 10
5.5
 20
0
 11
5.37981
 21
1.14351
  0
LINE
  8
0
 10
5.37981
 20
1.14351
 11
5.0245
 21
2.23705
  0
LINE
  8
0
 10
5.0245
 20
2.23705
 11
4.44959
 21
3.23282
  0
LINE
  8
0
 10
4.44959
 20
3.23282
 11
3.68022
 21
4.0873
  0
LINE
  8
0
 10
3.68022
 20
4.0873
 11
2.75
 21
4.76314
  0
LINE
  8
0
 10
2.75
 20
4.76314
 11
1.69959
 21
5.23081
  0
LINE
  8
0
 10
1.69959
 20
5.23081
 11
-68.6366
 21
26.9237
  0
LINE
  8
0
 10
-68.6366
 20
26.9237
 11
-69.7613
 21
27.1627
  0
LINE
  8
0
 10
-69.7613
 20
27.1627
 11
-70.9111
 21
27.1627
  0
LINE
  8
0
 10
-70.9111
 20
27.1627
 11
-72.0358
 21
26.9237
  0
LINE
  8
0
 10
-72.0358
 20
26.9237
 11
-73.0862
 21
26.456
  0
LINE
  8
0
 10
-73.0862
 20
26.456
 11
-74.0165
 21
25.7801
  0
LINE
  8
0
 10
-74.0165
 20
25.7801
 11
-74.7858
 21
24.9257
  0
LINE
  8
0
 10
-74.7858
 20
24.9257
 11
-75.3607
 21
23.9299
  0
LINE
  8
0
 10
-75.3607
 20
23.9299
 11
-75.716
 21
22.8364
  0
LINE
  8
0
 10
-75.716
 20
22.8364
 11
-75.8362
 21
21.6929
  0
ENDSEC
  0
SECTION
  2
OBJECTS
  0
DICTIONARY
  0
ENDSEC
  0
EOF
