  0
SECTION
  2
BLOCKS
  0
ENDSEC
  0
SECTION
  2
ENTITIES
  0
LINE
  8
0
 10
-23.3165
 20
4.39412
 11
-23.1963
 21
3.2506
  0
LINE
  8
0
 10
-23.1963
 20
3.2506
 11
-22.841
 21
2.15707
  0
LINE
  8
0
 10
-22.841
 20
2.15707
 11
-22.2661
 21
1.1613
  0
LINE
  8
0
 10
-22.2661
 20
1.1613
 11
-21.4967
 21
0.30682
  0
LINE
  8
0
 10
-21.4967
 20
0.30682
 11
-20.5665
 21
-0.369023
  0
LINE
  8
0
 10
-20.5665
 20
-0.369023
 11
-19.5161
 21
-0.836694
  0
LINE
  8
0
 10
-19.5161
 20
-0.836694
 11
-1.69959
 21
-5.23081
  0
LINE
  8
0
 10
-1.69959
 20
-5.23081
 11
-0.574907
 21
-5.46987
  0
LINE
  8
0
 10
-0.574907
 20
-5.46987
 11
0.574907
 21
-5.46987
  0
LINE
  8
0
 10
0.574907
 20
-5.46987
 11
1.69959
 21
-5.23081
  0
LINE
  8
0
 10
1.69959
 20
-5.23081
 11
2.75
 21
-4.76314
  0
LINE
  8
0
 10
2.75
 20
-4.76314
 11
3.68022
 21
-4.0873
  0
LINE
  8
0
 10
3.68022
 20
-4.0873
 11
4.44959
 21
-3.23282
  0
LINE
  8
0
 10
4.44959
 20
-3.23282
 11
5.0245
 21
-2.23705
  0
LINE
  8
0
 10
5.0245
 20
-2.23705
 11
5.37981
 21
-1.14351
  0
LINE
  8
0
 10
5.37981
 20
-1.14351
 11
5.5
 21
0
  0
LINE
  8
0
 10
5.5
 20
0
 11
5.37981
 21
1.14351
  0
LINE
  8
0
 10
5.37981
 20
1.14351
 11
5.0245
 21
2.23705
  0
LINE
  8
0
 10
5.0245
 20
2.23705
 11
4.44959
 21
3.23282
  0
LINE
  8
0
 10
4.44959
 20
3.23282
 11
3.68022
 21
4.0873
  0
LINE
  8
0
 10
3.68022
 20
4.0873
 11
2.75
 21
4.76314
  0
LINE
  8
0
 10
2.75
 20
4.76314
 11
1.69959
 21
5.23081
  0
LINE
  8
0
 10
1.69959
 20
5.23081
 11
-16.1169
 21
9.62493
  0
LINE
  8
0
 10
-16.1169
 20
9.62493
 11
-17.2416
 21
9.86399
  0
LINE
  8
0
 10
-17.2416
 20
9.86399
 11
-18.3914
 21
9.86399
  0
LINE
  8
0
 10
-18.3914
 20
9.86399
 11
-19.5161
 21
9.62493
  0
LINE
  8
0
 10
-19.5161
 20
9.62493
 11
-20.5665
 21
9.15726
  0
LINE
  8
0
 10
-20.5665
 20
9.15726
 11
-21.4967
 21
8.48141
  0
LINE
  8
0
 10
-21.4967
 20
8.48141
 11
-22.2661
 21
7.62694
  0
LINE
  8
0
 10
-22.2661
 20
7.62694
 11
-22.841
 21
6.63117
  0
LINE
  8
0
 10
-22.841
 20
6.63117
 11
-23.1963
 21
5.53763
  0
LINE
  8
0
 10
-23.1963
 20
5.53763
 11
-23.3165
 21
4.39412
  0
ENDSEC
  0
SECTION
  2
OBJECTS
  0
DICTIONARY
  0
ENDSEC
  0
EOF
