  0
SECTION
  2
BLOCKS
  0
ENDSEC
  0
SECTION
  2
ENTITIES
  0
LINE
  8
0
 10
0.682816
 20
-3.43274
 11
1.33939
 21
-3.23357
  0
LINE
  8
0
 10
1.33939
 20
-3.23357
 11
1.94449
 21
-2.91014
  0
LINE
  8
0
 10
1.94449
 20
-2.91014
 11
2.47487
 21
-2.47487
  0
LINE
  8
0
 10
2.47487
 20
-2.47487
 11
2.91014
 21
-1.94449
  0
LINE
  8
0
 10
2.91014
 20
-1.94449
 11
3.23357
 21
-1.33939
  0
LINE
  8
0
 10
3.23357
 20
-1.33939
 11
3.43274
 21
-0.682816
  0
LINE
  8
0
 10
3.43274
 20
-0.682816
 11
3.5
 21
0
  0
LINE
  8
0
 10
3.5
 20
0
 11
3.43274
 21
0.682816
  0
LINE
  8
0
 10
3.43274
 20
0.682816
 11
3.23357
 21
1.33939
  0
LINE
  8
0
 10
3.23357
 20
1.33939
 11
2.91014
 21
1.94449
  0
LINE
  8
0
 10
2.91014
 20
1.94449
 11
2.47487
 21
2.47487
  0
LINE
  8
0
 10
2.47487
 20
2.47487
 11
1.94449
 21
2.91014
  0
LINE
  8
0
 10
1.94449
 20
2.91014
 11
1.33939
 21
3.23357
  0
LINE
  8
0
 10
1.33939
 20
3.23357
 11
0.682816
 21
3.43274
  0
LINE
  8
0
 10
0.682816
 20
3.43274
 11
0
 21
3.5
  0
LINE
  8
0
 10
0
 20
3.5
 11
-0.682816
 21
3.43274
  0
LINE
  8
0
 10
-0.682816
 20
3.43274
 11
-1.33939
 21
3.23357
  0
LINE
  8
0
 10
-1.33939
 20
3.23357
 11
-1.94449
 21
2.91014
  0
LINE
  8
0
 10
-1.94449
 20
2.91014
 11
-2.47487
 21
2.47487
  0
LINE
  8
0
 10
-2.47487
 20
2.47487
 11
-2.91014
 21
1.94449
  0
LINE
  8
0
 10
-2.91014
 20
1.94449
 11
-3.23357
 21
1.33939
  0
LINE
  8
0
 10
-3.23357
 20
1.33939
 11
-3.43274
 21
0.682816
  0
LINE
  8
0
 10
-3.43274
 20
0.682816
 11
-3.5
 21
0
  0
LINE
  8
0
 10
-3.5
 20
0
 11
-3.43274
 21
-0.682816
  0
LINE
  8
0
 10
-3.43274
 20
-0.682816
 11
-3.23357
 21
-1.33939
  0
LINE
  8
0
 10
-3.23357
 20
-1.33939
 11
-2.91014
 21
-1.94449
  0
LINE
  8
0
 10
-2.91014
 20
-1.94449
 11
-2.47487
 21
-2.47487
  0
LINE
  8
0
 10
-2.47487
 20
-2.47487
 11
-1.94449
 21
-2.91014
  0
LINE
  8
0
 10
-1.94449
 20
-2.91014
 11
-1.33939
 21
-3.23357
  0
LINE
  8
0
 10
-1.33939
 20
-3.23357
 11
-0.682816
 21
-3.43274
  0
LINE
  8
0
 10
-0.682816
 20
-3.43274
 11
0
 21
-3.5
  0
LINE
  8
0
 10
0
 20
-3.5
 11
0.682816
 21
-3.43274
  0
LINE
  8
0
 10
12.872
 20
-13.09
 11
13.5286
 21
-12.8909
  0
LINE
  8
0
 10
13.5286
 20
-12.8909
 11
14.1337
 21
-12.5674
  0
LINE
  8
0
 10
14.1337
 20
-12.5674
 11
14.6641
 21
-12.1321
  0
LINE
  8
0
 10
14.6641
 20
-12.1321
 11
15.0994
 21
-11.6018
  0
LINE
  8
0
 10
15.0994
 20
-11.6018
 11
15.4228
 21
-10.9967
  0
LINE
  8
0
 10
15.4228
 20
-10.9967
 11
15.622
 21
-10.3401
  0
LINE
  8
0
 10
15.622
 20
-10.3401
 11
15.6892
 21
-9.65727
  0
LINE
  8
0
 10
15.6892
 20
-9.65727
 11
15.622
 21
-8.97446
  0
LINE
  8
0
 10
15.622
 20
-8.97446
 11
15.4228
 21
-8.31789
  0
LINE
  8
0
 10
15.4228
 20
-8.31789
 11
15.0994
 21
-7.71278
  0
LINE
  8
0
 10
15.0994
 20
-7.71278
 11
14.6641
 21
-7.1824
  0
LINE
  8
0
 10
14.6641
 20
-7.1824
 11
14.1337
 21
-6.74713
  0
LINE
  8
0
 10
14.1337
 20
-6.74713
 11
13.5286
 21
-6.42369
  0
LINE
  8
0
 10
13.5286
 20
-6.42369
 11
12.872
 21
-6.22452
  0
LINE
  8
0
 10
12.872
 20
-6.22452
 11
12.1892
 21
-6.15727
  0
LINE
  8
0
 10
12.1892
 20
-6.15727
 11
11.5064
 21
-6.22452
  0
LINE
  8
0
 10
11.5064
 20
-6.22452
 11
10.8498
 21
-6.42369
  0
LINE
  8
0
 10
10.8498
 20
-6.42369
 11
10.2447
 21
-6.74713
  0
LINE
  8
0
 10
10.2447
 20
-6.74713
 11
9.71436
 21
-7.1824
  0
LINE
  8
0
 10
9.71436
 20
-7.1824
 11
9.27908
 21
-7.71278
  0
LINE
  8
0
 10
9.27908
 20
-7.71278
 11
8.95566
 21
-8.31789
  0
LINE
  8
0
 10
8.95566
 20
-8.31789
 11
8.75648
 21
-8.97446
  0
LINE
  8
0
 10
8.75648
 20
-8.97446
 11
8.68922
 21
-9.65727
  0
LINE
  8
0
 10
8.68922
 20
-9.65727
 11
8.75648
 21
-10.3401
  0
LINE
  8
0
 10
8.75648
 20
-10.3401
 11
8.95566
 21
-10.9967
  0
LINE
  8
0
 10
8.95566
 20
-10.9967
 11
9.27908
 21
-11.6018
  0
LINE
  8
0
 10
9.27908
 20
-11.6018
 11
9.71436
 21
-12.1321
  0
LINE
  8
0
 10
9.71436
 20
-12.1321
 11
10.2447
 21
-12.5674
  0
LINE
  8
0
 10
10.2447
 20
-12.5674
 11
10.8498
 21
-12.8909
  0
LINE
  8
0
 10
10.8498
 20
-12.8909
 11
11.5064
 21
-13.09
  0
LINE
  8
0
 10
11.5064
 20
-13.09
 11
12.1892
 21
-13.1573
  0
LINE
  8
0
 10
12.1892
 20
-13.1573
 11
12.872
 21
-13.09
  0
ENDSEC
  0
SECTION
  2
OBJECTS
  0
DICTIONARY
  0
ENDSEC
  0
EOF
