  0
SECTION
  2
BLOCKS
  0
ENDSEC
  0
SECTION
  2
ENTITIES
  0
LINE
  8
0
 10
-51.7257
 20
-20.5175
 11
-51.6055
 21
-21.661
  0
LINE
  8
0
 10
-51.6055
 20
-21.661
 11
-51.2502
 21
-22.7546
  0
LINE
  8
0
 10
-51.2502
 20
-22.7546
 11
-50.6753
 21
-23.7503
  0
LINE
  8
0
 10
-50.6753
 20
-23.7503
 11
-49.9059
 21
-24.6048
  0
LINE
  8
0
 10
-49.9059
 20
-24.6048
 11
-48.9757
 21
-25.2807
  0
LINE
  8
0
 10
-48.9757
 20
-25.2807
 11
-47.9253
 21
-25.7483
  0
LINE
  8
0
 10
-47.9253
 20
-25.7483
 11
-46.8006
 21
-25.9874
  0
LINE
  8
0
 10
-46.8006
 20
-25.9874
 11
-45.6508
 21
-25.9874
  0
LINE
  8
0
 10
-45.6508
 20
-25.9874
 11
-44.5261
 21
-25.7483
  0
LINE
  8
0
 10
-44.5261
 20
-25.7483
 11
1.69959
 21
-5.23081
  0
LINE
  8
0
 10
1.69959
 20
-5.23081
 11
2.75
 21
-4.76314
  0
LINE
  8
0
 10
2.75
 20
-4.76314
 11
3.68022
 21
-4.0873
  0
LINE
  8
0
 10
3.68022
 20
-4.0873
 11
4.44959
 21
-3.23282
  0
LINE
  8
0
 10
4.44959
 20
-3.23282
 11
5.0245
 21
-2.23705
  0
LINE
  8
0
 10
5.0245
 20
-2.23705
 11
5.37981
 21
-1.14351
  0
LINE
  8
0
 10
5.37981
 20
-1.14351
 11
5.5
 21
0
  0
LINE
  8
0
 10
5.5
 20
0
 11
5.37981
 21
1.14351
  0
LINE
  8
0
 10
5.37981
 20
1.14351
 11
5.0245
 21
2.23705
  0
LINE
  8
0
 10
5.0245
 20
2.23705
 11
4.44959
 21
3.23282
  0
LINE
  8
0
 10
4.44959
 20
3.23282
 11
3.68022
 21
4.0873
  0
LINE
  8
0
 10
3.68022
 20
4.0873
 11
2.75
 21
4.76314
  0
LINE
  8
0
 10
2.75
 20
4.76314
 11
1.69959
 21
5.23081
  0
LINE
  8
0
 10
1.69959
 20
5.23081
 11
0.574907
 21
5.46987
  0
LINE
  8
0
 10
0.574907
 20
5.46987
 11
-0.574907
 21
5.46987
  0
LINE
  8
0
 10
-0.574907
 20
5.46987
 11
-1.69959
 21
5.23081
  0
LINE
  8
0
 10
-1.69959
 20
5.23081
 11
-47.9253
 21
-15.2867
  0
LINE
  8
0
 10
-47.9253
 20
-15.2867
 11
-48.9757
 21
-15.7544
  0
LINE
  8
0
 10
-48.9757
 20
-15.7544
 11
-49.9059
 21
-16.4302
  0
LINE
  8
0
 10
-49.9059
 20
-16.4302
 11
-50.6753
 21
-17.2847
  0
LINE
  8
0
 10
-50.6753
 20
-17.2847
 11
-51.2502
 21
-18.2805
  0
LINE
  8
0
 10
-51.2502
 20
-18.2805
 11
-51.6055
 21
-19.374
  0
LINE
  8
0
 10
-51.6055
 20
-19.374
 11
-51.7257
 21
-20.5175
  0
ENDSEC
  0
SECTION
  2
OBJECTS
  0
DICTIONARY
  0
ENDSEC
  0
EOF
