solid leftjoint.stl
facet normal 27.811499 0.000000 4.404898
  outer loop
    vertex 8.559510 10.000000 8.781150
    vertex 8.559510 0.000000 8.781150
    vertex 9.000000 0.000000 6.000000
  endloop
endfacet
facet normal 25.089502 -0.000000 12.783604
  outer loop
    vertex 7.281150 0.000000 11.290100
    vertex 8.559510 10.000000 8.781150
    vertex 7.281150 10.000000 11.290100
  endloop
endfacet
facet normal 25.089502 0.000000 12.783604
  outer loop
    vertex 8.559510 10.000000 8.781150
    vertex 7.281150 0.000000 11.290100
    vertex 8.559510 0.000000 8.781150
  endloop
endfacet
facet normal 27.811499 0.000000 4.404898
  outer loop
    vertex 9.000000 10.000000 6.000000
    vertex 8.559510 10.000000 8.781150
    vertex 9.000000 0.000000 6.000000
  endloop
endfacet
facet normal -0.000000 2.450149 -0.000000
  outer loop
    vertex -5.290070 10.000000 -1.281150
    vertex -7.281150 10.000000 0.709932
    vertex -2.781150 10.000000 -2.559510
  endloop
endfacet
facet normal -4.405003 0.000000 27.811501
  outer loop
    vertex -2.781150 10.000000 14.559500
    vertex 0.000000 0.000000 15.000000
    vertex 0.000000 10.000000 15.000000
  endloop
endfacet
facet normal -4.405003 0.000000 27.811501
  outer loop
    vertex 0.000000 0.000000 15.000000
    vertex -2.781150 10.000000 14.559500
    vertex -2.781150 0.000000 14.559500
  endloop
endfacet
facet normal -0.000000 7.110604 -0.000000
  outer loop
    vertex -2.781150 10.000000 -2.559510
    vertex -7.281150 10.000000 0.709932
    vertex 0.000000 10.000000 -3.000000
  endloop
endfacet
facet normal 0.000000 23.400000 -0.000000
  outer loop
    vertex 18.000000 10.000000 3.400000
    vertex 9.000000 10.000000 6.000000
    vertex 18.000000 10.000000 6.000000
  endloop
endfacet
facet normal 0.000000 1.668690 0.000000
  outer loop
    vertex 9.000000 10.000000 6.000000
    vertex 5.911900 10.000000 5.443770
    vertex 6.000000 10.000000 6.000000
  endloop
endfacet
facet normal 0.000000 32.951668 0.000000
  outer loop
    vertex 5.326280 10.000000 3.400000
    vertex 9.000000 10.000000 6.000000
    vertex 18.000000 10.000000 3.400000
  endloop
endfacet
facet normal 0.000000 3.893614 0.000000
  outer loop
    vertex 9.000000 10.000000 6.000000
    vertex 5.706340 10.000000 4.145900
    vertex 5.911900 10.000000 5.443770
  endloop
endfacet
facet normal 0.000000 1.752071 0.000000
  outer loop
    vertex 9.000000 10.000000 6.000000
    vertex 5.326280 10.000000 3.400000
    vertex 5.706340 10.000000 4.145900
  endloop
endfacet
facet normal 0.000000 8.343451 0.000000
  outer loop
    vertex 0.000000 10.000000 12.000000
    vertex 0.000000 10.000000 15.000000
    vertex 2.781150 10.000000 14.559500
  endloop
endfacet
facet normal 0.000000 8.343498 0.000000
  outer loop
    vertex 1.854100 10.000000 11.706300
    vertex 2.781150 10.000000 14.559500
    vertex 5.290070 10.000000 13.281200
  endloop
endfacet
facet normal 0.000000 8.343451 0.000000
  outer loop
    vertex 0.000000 10.000000 15.000000
    vertex 0.000000 10.000000 12.000000
    vertex -2.781150 10.000000 14.559500
  endloop
endfacet
facet normal 0.000000 5.562393 -0.000000
  outer loop
    vertex -1.854100 10.000000 11.706300
    vertex -2.781150 10.000000 14.559500
    vertex 0.000000 10.000000 12.000000
  endloop
endfacet
facet normal 0.000000 5.562393 0.000000
  outer loop
    vertex 2.781150 10.000000 14.559500
    vertex 1.854100 10.000000 11.706300
    vertex 0.000000 10.000000 12.000000
  endloop
endfacet
facet normal 0.000000 8.343577 0.000000
  outer loop
    vertex 3.526710 10.000000 10.854100
    vertex 5.290070 10.000000 13.281200
    vertex 7.281150 10.000000 11.290100
  endloop
endfacet
facet normal 0.000000 5.562326 0.000000
  outer loop
    vertex 5.290070 10.000000 13.281200
    vertex 3.526710 10.000000 10.854100
    vertex 1.854100 10.000000 11.706300
  endloop
endfacet
facet normal 0.000000 5.562350 0.000000
  outer loop
    vertex 7.281150 10.000000 11.290100
    vertex 4.854100 10.000000 9.526710
    vertex 3.526710 10.000000 10.854100
  endloop
endfacet
facet normal 0.000000 8.343596 0.000000
  outer loop
    vertex 8.559510 10.000000 8.781150
    vertex 4.854100 10.000000 9.526710
    vertex 7.281150 10.000000 11.290100
  endloop
endfacet
facet normal 0.000000 5.562308 0.000000
  outer loop
    vertex 8.559510 10.000000 8.781150
    vertex 5.706340 10.000000 7.854100
    vertex 4.854100 10.000000 9.526710
  endloop
endfacet
facet normal 0.000000 1.668692 0.000000
  outer loop
    vertex 8.559510 10.000000 8.781150
    vertex 5.794440 10.000000 7.297870
    vertex 5.706340 10.000000 7.854100
  endloop
endfacet
facet normal 0.000000 8.343445 0.000000
  outer loop
    vertex 9.000000 10.000000 6.000000
    vertex 5.794440 10.000000 7.297870
    vertex 8.559510 10.000000 8.781150
  endloop
endfacet
facet normal 0.000000 3.893610 0.000000
  outer loop
    vertex 5.794440 10.000000 7.297870
    vertex 9.000000 10.000000 6.000000
    vertex 6.000000 10.000000 6.000000
  endloop
endfacet
facet normal 0.000000 8.343497 0.000000
  outer loop
    vertex -2.781150 10.000000 14.559500
    vertex -1.854100 10.000000 11.706300
    vertex -5.290070 10.000000 13.281200
  endloop
endfacet
facet normal 0.000000 5.562327 -0.000000
  outer loop
    vertex -3.526710 10.000000 10.854100
    vertex -5.290070 10.000000 13.281200
    vertex -1.854100 10.000000 11.706300
  endloop
endfacet
facet normal 0.000000 8.343576 0.000000
  outer loop
    vertex -5.290070 10.000000 13.281200
    vertex -3.526710 10.000000 10.854100
    vertex -7.281150 10.000000 11.290100
  endloop
endfacet
facet normal 0.000000 5.562350 -0.000000
  outer loop
    vertex -4.854100 10.000000 9.526710
    vertex -7.281150 10.000000 11.290100
    vertex -3.526710 10.000000 10.854100
  endloop
endfacet
facet normal 0.000000 8.343596 0.000000
  outer loop
    vertex -4.854100 10.000000 9.526710
    vertex -8.559510 10.000000 8.781150
    vertex -7.281150 10.000000 11.290100
  endloop
endfacet
facet normal 0.000000 5.562308 -0.000000
  outer loop
    vertex -5.706340 10.000000 7.854100
    vertex -8.559510 10.000000 8.781150
    vertex -4.854100 10.000000 9.526710
  endloop
endfacet
facet normal 0.000000 5.562301 -0.000000
  outer loop
    vertex -6.000000 10.000000 6.000000
    vertex -8.559510 10.000000 8.781150
    vertex -5.706340 10.000000 7.854100
  endloop
endfacet
facet normal 0.000000 8.343450 0.000000
  outer loop
    vertex -6.000000 10.000000 6.000000
    vertex -9.000000 10.000000 6.000000
    vertex -8.559510 10.000000 8.781150
  endloop
endfacet
facet normal 0.000000 5.562301 0.000000
  outer loop
    vertex -5.706340 10.000000 4.145900
    vertex -9.000000 10.000000 6.000000
    vertex -6.000000 10.000000 6.000000
  endloop
endfacet
facet normal 0.000000 8.343451 0.000000
  outer loop
    vertex -5.706340 10.000000 4.145900
    vertex -8.559510 10.000000 3.218850
    vertex -9.000000 10.000000 6.000000
  endloop
endfacet
facet normal 0.000000 5.562310 0.000000
  outer loop
    vertex -4.854100 10.000000 2.473290
    vertex -8.559510 10.000000 3.218850
    vertex -5.706340 10.000000 4.145900
  endloop
endfacet
facet normal 0.000000 5.562305 0.000000
  outer loop
    vertex -7.281150 10.000000 0.709932
    vertex -4.854100 10.000000 2.473290
    vertex -3.526710 10.000000 1.145900
  endloop
endfacet
facet normal 0.000000 2.009843 0.000000
  outer loop
    vertex -7.281150 10.000000 0.709932
    vertex -3.526710 10.000000 1.145900
    vertex -2.671080 10.000000 0.709932
  endloop
endfacet
facet normal 0.000000 8.343475 0.000000
  outer loop
    vertex -4.854100 10.000000 2.473290
    vertex -7.281150 10.000000 0.709932
    vertex -8.559510 10.000000 3.218850
  endloop
endfacet
facet normal 0.000000 -22.249201 0.000000
  outer loop
    vertex 0.000000 0.000000 7.000000
    vertex 0.000000 0.000000 15.000000
    vertex -2.781150 0.000000 14.559500
  endloop
endfacet
facet normal 0.000000 -22.249096 0.000000
  outer loop
    vertex -0.309016 0.000000 6.951060
    vertex -2.781150 0.000000 14.559500
    vertex -5.290070 0.000000 13.281200
  endloop
endfacet
facet normal 0.000000 -22.249201 0.000000
  outer loop
    vertex 0.000000 0.000000 15.000000
    vertex 0.000000 0.000000 7.000000
    vertex 2.781150 0.000000 14.559500
  endloop
endfacet
facet normal 0.000000 -22.249353 0.000000
  outer loop
    vertex -0.587785 0.000000 6.809020
    vertex -5.290070 0.000000 13.281200
    vertex -7.281150 0.000000 11.290100
  endloop
endfacet
facet normal 0.000000 -2.472116 0.000000
  outer loop
    vertex 0.309016 0.000000 6.951060
    vertex 2.781150 0.000000 14.559500
    vertex 0.000000 0.000000 7.000000
  endloop
endfacet
facet normal 0.000000 -22.249523 0.000000
  outer loop
    vertex -0.809016 0.000000 6.587780
    vertex -7.281150 0.000000 11.290100
    vertex -8.559510 0.000000 8.781150
  endloop
endfacet
facet normal 0.000000 -22.249094 -0.000000
  outer loop
    vertex 2.781150 0.000000 14.559500
    vertex 0.309016 0.000000 6.951060
    vertex 5.290070 0.000000 13.281200
  endloop
endfacet
facet normal 0.000000 -2.472155 0.000000
  outer loop
    vertex 0.587785 0.000000 6.809020
    vertex 5.290070 0.000000 13.281200
    vertex 0.309016 0.000000 6.951060
  endloop
endfacet
facet normal 0.000000 -2.472116 0.000000
  outer loop
    vertex -2.781150 0.000000 14.559500
    vertex -0.309016 0.000000 6.951060
    vertex 0.000000 0.000000 7.000000
  endloop
endfacet
facet normal 0.000000 -2.472157 0.000000
  outer loop
    vertex -5.290070 0.000000 13.281200
    vertex -0.587785 0.000000 6.809020
    vertex -0.309016 0.000000 6.951060
  endloop
endfacet
facet normal 0.000000 -2.472197 0.000000
  outer loop
    vertex -7.281150 0.000000 11.290100
    vertex -0.809016 0.000000 6.587780
    vertex -0.587785 0.000000 6.809020
  endloop
endfacet
facet normal 0.000000 -2.472073 0.000000
  outer loop
    vertex -8.559510 0.000000 8.781150
    vertex -0.951056 0.000000 6.309020
    vertex -0.809016 0.000000 6.587780
  endloop
endfacet
facet normal 0.000000 -22.249201 0.000000
  outer loop
    vertex -9.000000 0.000000 6.000000
    vertex -0.951056 0.000000 6.309020
    vertex -8.559510 0.000000 8.781150
  endloop
endfacet
facet normal 0.000000 -2.472160 0.000000
  outer loop
    vertex -9.000000 0.000000 6.000000
    vertex -1.000000 0.000000 6.000000
    vertex -0.951056 0.000000 6.309020
  endloop
endfacet
facet normal 0.000000 -2.472160 0.000000
  outer loop
    vertex -9.000000 0.000000 6.000000
    vertex -0.951056 0.000000 5.690980
    vertex -1.000000 0.000000 6.000000
  endloop
endfacet
facet normal 0.000000 -22.249201 0.000000
  outer loop
    vertex -8.559510 0.000000 3.218850
    vertex -0.951056 0.000000 5.690980
    vertex -9.000000 0.000000 6.000000
  endloop
endfacet
facet normal 0.000000 -2.472150 -0.000000
  outer loop
    vertex -0.951056 0.000000 5.690980
    vertex -8.559510 0.000000 3.218850
    vertex -0.809016 0.000000 5.412210
  endloop
endfacet
facet normal 0.000000 -22.249256 0.000000
  outer loop
    vertex -7.281150 0.000000 0.709932
    vertex -0.809016 0.000000 5.412210
    vertex -8.559510 0.000000 3.218850
  endloop
endfacet
facet normal -0.000000 -16.827511 0.000000
  outer loop
    vertex 0.000000 0.000000 3.400000
    vertex -0.809016 0.000000 5.412210
    vertex -7.281150 0.000000 0.709932
  endloop
endfacet
facet normal 0.000000 -0.266185 0.000000
  outer loop
    vertex -0.809016 0.000000 5.412210
    vertex 0.000000 0.000000 3.400000
    vertex -0.587785 0.000000 5.190980
  endloop
endfacet
facet normal 0.000000 -0.494426 0.000000
  outer loop
    vertex -0.309016 0.000000 5.048940
    vertex 0.000000 0.000000 3.400000
    vertex 0.000000 0.000000 5.000000
  endloop
endfacet
facet normal 0.000000 -0.415781 0.000000
  outer loop
    vertex -0.587785 0.000000 5.190980
    vertex 0.000000 0.000000 3.400000
    vertex -0.309016 0.000000 5.048940
  endloop
endfacet
facet normal 0.000000 -19.853506 0.000000
  outer loop
    vertex -5.290070 0.000000 -1.281150
    vertex 0.000000 0.000000 3.400000
    vertex -7.281150 0.000000 0.709932
  endloop
endfacet
facet normal 0.000000 -17.986238 -0.000000
  outer loop
    vertex 0.000000 0.000000 3.400000
    vertex -5.290070 0.000000 -1.281150
    vertex 0.000000 0.000000 0.000000
  endloop
endfacet
facet normal 0.000000 -9.976916 0.000000
  outer loop
    vertex -2.781150 0.000000 -2.559510
    vertex 0.000000 0.000000 0.000000
    vertex -5.290070 0.000000 -1.281150
  endloop
endfacet
facet normal 0.000000 -8.343451 -0.000000
  outer loop
    vertex 0.000000 0.000000 0.000000
    vertex -2.781150 0.000000 -2.559510
    vertex 0.000000 0.000000 -3.000000
  endloop
endfacet
facet normal 0.000000 -54.000000 0.000000
  outer loop
    vertex 0.000000 0.000000 0.000000
    vertex 0.000000 0.000000 -3.000000
    vertex 18.000000 0.000000 0.000000
  endloop
endfacet
facet normal 0.000000 -54.000000 -0.000000
  outer loop
    vertex 18.000000 0.000000 0.000000
    vertex 0.000000 0.000000 -3.000000
    vertex 18.000000 0.000000 -3.000000
  endloop
endfacet
facet normal 0.000000 -22.249348 -0.000000
  outer loop
    vertex 5.290070 0.000000 13.281200
    vertex 0.587785 0.000000 6.809020
    vertex 7.281150 0.000000 11.290100
  endloop
endfacet
facet normal 0.000000 -2.472194 0.000000
  outer loop
    vertex 0.809016 0.000000 6.587780
    vertex 7.281150 0.000000 11.290100
    vertex 0.587785 0.000000 6.809020
  endloop
endfacet
facet normal 0.000000 -22.249519 -0.000000
  outer loop
    vertex 7.281150 0.000000 11.290100
    vertex 0.809016 0.000000 6.587780
    vertex 8.559510 0.000000 8.781150
  endloop
endfacet
facet normal 0.000000 -2.472074 0.000000
  outer loop
    vertex 0.951056 0.000000 6.309020
    vertex 8.559510 0.000000 8.781150
    vertex 0.809016 0.000000 6.587780
  endloop
endfacet
facet normal 0.000000 -2.472161 0.000000
  outer loop
    vertex 1.000000 0.000000 6.000000
    vertex 8.559510 0.000000 8.781150
    vertex 0.951056 0.000000 6.309020
  endloop
endfacet
facet normal 0.000000 -22.249199 0.000000
  outer loop
    vertex 1.000000 0.000000 6.000000
    vertex 9.000000 0.000000 6.000000
    vertex 8.559510 0.000000 8.781150
  endloop
endfacet
facet normal 0.000000 -2.472161 0.000000
  outer loop
    vertex 0.951056 0.000000 5.690980
    vertex 9.000000 0.000000 6.000000
    vertex 1.000000 0.000000 6.000000
  endloop
endfacet
facet normal 0.000000 -2.199911 0.000000
  outer loop
    vertex 0.809016 0.000000 5.412210
    vertex 9.000000 0.000000 6.000000
    vertex 0.951056 0.000000 5.690980
  endloop
endfacet
facet normal 0.000000 -16.006449 0.000000
  outer loop
    vertex 0.000000 0.000000 3.400000
    vertex 9.000000 0.000000 6.000000
    vertex 0.809016 0.000000 5.412210
  endloop
endfacet
facet normal 0.000000 -0.266185 0.000000
  outer loop
    vertex 0.000000 0.000000 3.400000
    vertex 0.809016 0.000000 5.412210
    vertex 0.587785 0.000000 5.190980
  endloop
endfacet
facet normal 0.000000 -0.415781 0.000000
  outer loop
    vertex 0.000000 0.000000 3.400000
    vertex 0.587785 0.000000 5.190980
    vertex 0.309016 0.000000 5.048940
  endloop
endfacet
facet normal 0.000000 -0.494426 0.000000
  outer loop
    vertex 0.000000 0.000000 3.400000
    vertex 0.309016 0.000000 5.048940
    vertex 0.000000 0.000000 5.000000
  endloop
endfacet
facet normal 0.000000 -46.799999 -0.000000
  outer loop
    vertex 9.000000 0.000000 6.000000
    vertex 0.000000 0.000000 3.400000
    vertex 18.000000 0.000000 3.400000
  endloop
endfacet
facet normal 0.000000 -23.400000 0.000000
  outer loop
    vertex 9.000000 0.000000 6.000000
    vertex 18.000000 0.000000 3.400000
    vertex 18.000000 0.000000 6.000000
  endloop
endfacet
facet normal -12.782993 0.000000 25.089199
  outer loop
    vertex -5.290070 10.000000 13.281200
    vertex -2.781150 0.000000 14.559500
    vertex -2.781150 10.000000 14.559500
  endloop
endfacet
facet normal -12.782993 0.000000 25.089199
  outer loop
    vertex -2.781150 0.000000 14.559500
    vertex -5.290070 10.000000 13.281200
    vertex -5.290070 0.000000 13.281200
  endloop
endfacet
facet normal -25.089178 0.000000 -12.783604
  outer loop
    vertex -7.281150 0.000000 0.709932
    vertex -8.559510 10.000000 3.218850
    vertex -7.281150 10.000000 0.709932
  endloop
endfacet
facet normal -25.089178 -0.000000 -12.783604
  outer loop
    vertex -8.559510 10.000000 3.218850
    vertex -7.281150 0.000000 0.709932
    vertex -8.559510 0.000000 3.218850
  endloop
endfacet
facet normal 4.405003 0.000000 27.811501
  outer loop
    vertex 0.000000 10.000000 15.000000
    vertex 2.781150 0.000000 14.559500
    vertex 2.781150 10.000000 14.559500
  endloop
endfacet
facet normal 4.405003 0.000000 27.811501
  outer loop
    vertex 2.781150 0.000000 14.559500
    vertex 0.000000 10.000000 15.000000
    vertex 0.000000 0.000000 15.000000
  endloop
endfacet
facet normal -27.811499 0.000000 4.404898
  outer loop
    vertex -9.000000 0.000000 6.000000
    vertex -8.559510 10.000000 8.781150
    vertex -9.000000 10.000000 6.000000
  endloop
endfacet
facet normal -27.811499 0.000000 4.404898
  outer loop
    vertex -8.559510 10.000000 8.781150
    vertex -9.000000 0.000000 6.000000
    vertex -8.559510 0.000000 8.781150
  endloop
endfacet
facet normal -27.811501 0.000000 -4.404898
  outer loop
    vertex -8.559510 0.000000 3.218850
    vertex -9.000000 10.000000 6.000000
    vertex -8.559510 10.000000 3.218850
  endloop
endfacet
facet normal -27.811501 -0.000000 -4.404898
  outer loop
    vertex -9.000000 10.000000 6.000000
    vertex -8.559510 0.000000 3.218850
    vertex -9.000000 0.000000 6.000000
  endloop
endfacet
facet normal 0.000000 1.919044 0.000000
  outer loop
    vertex 0.000000 10.000000 -3.000000
    vertex -2.671080 10.000000 0.709932
    vertex -1.854100 10.000000 0.293660
  endloop
endfacet
facet normal 0.000000 3.893609 0.000000
  outer loop
    vertex 0.000000 10.000000 -3.000000
    vertex -1.854100 10.000000 0.293660
    vertex -0.556230 10.000000 0.088097
  endloop
endfacet
facet normal 0.000000 1.668690 -0.000000
  outer loop
    vertex 0.000000 10.000000 -3.000000
    vertex -0.556230 10.000000 0.088097
    vertex 0.000000 10.000000 -0.000001
  endloop
endfacet
facet normal 0.000000 17.103046 0.000000
  outer loop
    vertex -2.671080 10.000000 0.709932
    vertex 0.000000 10.000000 -3.000000
    vertex -7.281150 10.000000 0.709932
  endloop
endfacet
facet normal -4.404900 0.000000 -27.811501
  outer loop
    vertex -2.781150 0.000000 -2.559510
    vertex 0.000000 10.000000 -3.000000
    vertex 0.000000 0.000000 -3.000000
  endloop
endfacet
facet normal -4.404900 0.000000 -27.811501
  outer loop
    vertex 0.000000 10.000000 -3.000000
    vertex -2.781150 0.000000 -2.559510
    vertex -2.781150 10.000000 -2.559510
  endloop
endfacet
facet normal 19.911003 -0.000000 19.910797
  outer loop
    vertex 5.290070 0.000000 13.281200
    vertex 7.281150 10.000000 11.290100
    vertex 5.290070 10.000000 13.281200
  endloop
endfacet
facet normal 19.911003 0.000000 19.910797
  outer loop
    vertex 7.281150 10.000000 11.290100
    vertex 5.290070 0.000000 13.281200
    vertex 7.281150 0.000000 11.290100
  endloop
endfacet
facet normal 12.782993 0.000000 25.089199
  outer loop
    vertex 2.781150 10.000000 14.559500
    vertex 5.290070 0.000000 13.281200
    vertex 5.290070 10.000000 13.281200
  endloop
endfacet
facet normal 12.782993 0.000000 25.089199
  outer loop
    vertex 5.290070 0.000000 13.281200
    vertex 2.781150 10.000000 14.559500
    vertex 2.781150 0.000000 14.559500
  endloop
endfacet
facet normal -19.911003 0.000000 19.910797
  outer loop
    vertex -7.281150 0.000000 11.290100
    vertex -5.290070 10.000000 13.281200
    vertex -7.281150 10.000000 11.290100
  endloop
endfacet
facet normal -19.911003 0.000000 19.910797
  outer loop
    vertex -5.290070 10.000000 13.281200
    vertex -7.281150 0.000000 11.290100
    vertex -5.290070 0.000000 13.281200
  endloop
endfacet
facet normal -25.089502 0.000000 12.783604
  outer loop
    vertex -8.559510 0.000000 8.781150
    vertex -7.281150 10.000000 11.290100
    vertex -8.559510 10.000000 8.781150
  endloop
endfacet
facet normal -25.089502 0.000000 12.783604
  outer loop
    vertex -7.281150 10.000000 11.290100
    vertex -8.559510 0.000000 8.781150
    vertex -7.281150 0.000000 11.290100
  endloop
endfacet
facet normal -19.910820 0.000000 -19.910797
  outer loop
    vertex -5.290070 0.000000 -1.281150
    vertex -7.281150 10.000000 0.709932
    vertex -5.290070 10.000000 -1.281150
  endloop
endfacet
facet normal -19.910820 -0.000000 -19.910797
  outer loop
    vertex -7.281150 10.000000 0.709932
    vertex -5.290070 0.000000 -1.281150
    vertex -7.281150 0.000000 0.709932
  endloop
endfacet
facet normal -12.783600 0.000000 -25.089199
  outer loop
    vertex -5.290070 0.000000 -1.281150
    vertex -2.781150 10.000000 -2.559510
    vertex -2.781150 0.000000 -2.559510
  endloop
endfacet
facet normal -12.783600 0.000000 -25.089199
  outer loop
    vertex -2.781150 10.000000 -2.559510
    vertex -5.290070 0.000000 -1.281150
    vertex -5.290070 10.000000 -1.281150
  endloop
endfacet
facet normal 0.000000 0.000000 27.500000
  outer loop
    vertex 18.000000 10.000000 0.000000
    vertex 15.250000 5.000000 0.000000
    vertex 18.000000 0.000000 0.000000
  endloop
endfacet
facet normal 0.000000 0.000000 1.915646
  outer loop
    vertex 18.000000 10.000000 0.000000
    vertex 15.164300 5.540780 0.000000
    vertex 15.250000 5.000000 0.000000
  endloop
endfacet
facet normal 0.000000 0.000000 2.491483
  outer loop
    vertex 18.000000 10.000000 0.000000
    vertex 14.915800 6.028620 0.000000
    vertex 15.164300 5.540780 0.000000
  endloop
endfacet
facet normal 0.000000 0.000000 2.731799
  outer loop
    vertex 18.000000 10.000000 0.000000
    vertex 14.528600 6.415780 0.000000
    vertex 14.915800 6.028620 0.000000
  endloop
endfacet
facet normal 0.000000 0.000000 2.611267
  outer loop
    vertex 18.000000 10.000000 0.000000
    vertex 14.040800 6.664350 0.000000
    vertex 14.528600 6.415780 0.000000
  endloop
endfacet
facet normal 0.000000 0.000000 2.143025
  outer loop
    vertex 18.000000 10.000000 0.000000
    vertex 13.500000 6.750000 0.000000
    vertex 14.040800 6.664350 0.000000
  endloop
endfacet
facet normal 0.000000 0.000000 1.372176
  outer loop
    vertex 18.000000 10.000000 0.000000
    vertex 12.959200 6.664350 0.000000
    vertex 13.500000 6.750000 0.000000
  endloop
endfacet
facet normal -0.000000 0.000000 60.041687
  outer loop
    vertex 0.000004 10.000000 0.000000
    vertex 12.959200 6.664350 0.000000
    vertex 18.000000 10.000000 0.000000
  endloop
endfacet
facet normal 0.000000 0.000000 82.849892
  outer loop
    vertex 0.000000 3.000000 0.000000
    vertex 11.835700 5.540780 0.000000
    vertex 0.000004 10.000000 0.000000
  endloop
endfacet
facet normal 0.000000 0.000000 6.882038
  outer loop
    vertex 12.084200 6.028620 0.000000
    vertex 0.000004 10.000000 0.000000
    vertex 11.835700 5.540780 0.000000
  endloop
endfacet
facet normal 0.000000 0.000000 6.216241
  outer loop
    vertex 12.471400 6.415780 0.000000
    vertex 0.000004 10.000000 0.000000
    vertex 12.084200 6.028620 0.000000
  endloop
endfacet
facet normal 0.000000 0.000000 4.848396
  outer loop
    vertex 12.959200 6.664350 0.000000
    vertex 0.000004 10.000000 0.000000
    vertex 12.471400 6.415780 0.000000
  endloop
endfacet
facet normal -0.000000 0.000000 1.915645
  outer loop
    vertex 15.164300 4.459220 0.000000
    vertex 18.000000 0.000000 0.000000
    vertex 15.250000 5.000000 0.000000
  endloop
endfacet
facet normal -0.000000 0.000000 2.491483
  outer loop
    vertex 14.915800 3.971380 0.000000
    vertex 18.000000 0.000000 0.000000
    vertex 15.164300 4.459220 0.000000
  endloop
endfacet
facet normal -0.000000 0.000000 2.731799
  outer loop
    vertex 14.528600 3.584220 0.000000
    vertex 18.000000 0.000000 0.000000
    vertex 14.915800 3.971380 0.000000
  endloop
endfacet
facet normal -0.000000 0.000000 2.611267
  outer loop
    vertex 14.040800 3.335650 0.000000
    vertex 18.000000 0.000000 0.000000
    vertex 14.528600 3.584220 0.000000
  endloop
endfacet
facet normal -0.000000 0.000000 2.143025
  outer loop
    vertex 13.500000 3.250000 0.000000
    vertex 18.000000 0.000000 0.000000
    vertex 14.040800 3.335650 0.000000
  endloop
endfacet
facet normal 0.000000 0.000000 1.372175
  outer loop
    vertex 12.959200 3.335650 0.000000
    vertex 18.000000 0.000000 0.000000
    vertex 13.500000 3.250000 0.000000
  endloop
endfacet
facet normal 0.000000 0.000000 4.848396
  outer loop
    vertex 0.000000 0.000000 0.000000
    vertex 12.959200 3.335650 0.000000
    vertex 12.471400 3.584220 0.000000
  endloop
endfacet
facet normal 0.000000 0.000000 6.182766
  outer loop
    vertex 11.835700 5.540780 0.000000
    vertex 0.000000 3.000000 0.000000
    vertex 11.750000 5.000000 0.000000
  endloop
endfacet
facet normal 0.000000 0.000000 6.525566
  outer loop
    vertex 11.750000 5.000000 0.000000
    vertex 0.000000 3.000000 0.000000
    vertex 11.835700 4.459220 0.000000
  endloop
endfacet
facet normal 0.000000 0.000000 35.507099
  outer loop
    vertex 0.000000 0.000000 0.000000
    vertex 11.835700 4.459220 0.000000
    vertex 0.000000 3.000000 0.000000
  endloop
endfacet
facet normal 0.000000 0.000000 6.882043
  outer loop
    vertex 11.835700 4.459220 0.000000
    vertex 0.000000 0.000000 0.000000
    vertex 12.084200 3.971380 0.000000
  endloop
endfacet
facet normal 0.000000 0.000000 6.216239
  outer loop
    vertex 12.084200 3.971380 0.000000
    vertex 0.000000 0.000000 0.000000
    vertex 12.471400 3.584220 0.000000
  endloop
endfacet
facet normal 0.000000 0.000000 60.041702
  outer loop
    vertex 12.959200 3.335650 0.000000
    vertex 0.000000 0.000000 0.000000
    vertex 18.000000 0.000000 0.000000
  endloop
endfacet
facet normal 30.000000 -0.000000 0.000000
  outer loop
    vertex 18.000000 0.000000 0.000000
    vertex 18.000000 10.000000 -3.000000
    vertex 18.000000 10.000000 0.000000
  endloop
endfacet
facet normal 30.000000 0.000000 0.000000
  outer loop
    vertex 18.000000 10.000000 -3.000000
    vertex 18.000000 0.000000 0.000000
    vertex 18.000000 0.000000 -3.000000
  endloop
endfacet
facet normal 0.000000 0.000000 -27.500000
  outer loop
    vertex 18.000000 0.000000 -3.000000
    vertex 15.250000 5.000000 -3.000000
    vertex 18.000000 10.000000 -3.000000
  endloop
endfacet
facet normal 0.000000 0.000000 -1.915646
  outer loop
    vertex 18.000000 0.000000 -3.000000
    vertex 15.164300 4.459220 -3.000000
    vertex 15.250000 5.000000 -3.000000
  endloop
endfacet
facet normal 0.000000 0.000000 -2.491484
  outer loop
    vertex 18.000000 0.000000 -3.000000
    vertex 14.915800 3.971380 -3.000000
    vertex 15.164300 4.459220 -3.000000
  endloop
endfacet
facet normal 0.000000 0.000000 -2.731798
  outer loop
    vertex 18.000000 0.000000 -3.000000
    vertex 14.528600 3.584220 -3.000000
    vertex 14.915800 3.971380 -3.000000
  endloop
endfacet
facet normal 0.000000 0.000000 -2.611267
  outer loop
    vertex 18.000000 0.000000 -3.000000
    vertex 14.040800 3.335650 -3.000000
    vertex 14.528600 3.584220 -3.000000
  endloop
endfacet
facet normal 0.000000 0.000000 -2.143025
  outer loop
    vertex 18.000000 0.000000 -3.000000
    vertex 13.500000 3.250000 -3.000000
    vertex 14.040800 3.335650 -3.000000
  endloop
endfacet
facet normal 0.000000 0.000000 -1.372176
  outer loop
    vertex 18.000000 0.000000 -3.000000
    vertex 12.959200 3.335650 -3.000000
    vertex 13.500000 3.250000 -3.000000
  endloop
endfacet
facet normal 0.000000 0.000000 -60.041698
  outer loop
    vertex 0.000000 0.000000 -3.000000
    vertex 12.959200 3.335650 -3.000000
    vertex 18.000000 0.000000 -3.000000
  endloop
endfacet
facet normal -0.000000 0.000000 -6.782666
  outer loop
    vertex 11.835700 4.459220 -3.000000
    vertex 0.000000 0.000000 -3.000000
    vertex 11.750000 5.000000 -3.000000
  endloop
endfacet
facet normal -0.000000 0.000000 -6.882043
  outer loop
    vertex 12.084200 3.971380 -3.000000
    vertex 0.000000 0.000000 -3.000000
    vertex 11.835700 4.459220 -3.000000
  endloop
endfacet
facet normal -0.000000 0.000000 -6.216239
  outer loop
    vertex 12.471400 3.584220 -3.000000
    vertex 0.000000 0.000000 -3.000000
    vertex 12.084200 3.971380 -3.000000
  endloop
endfacet
facet normal -0.000000 0.000000 -4.848397
  outer loop
    vertex 12.959200 3.335650 -3.000000
    vertex 0.000000 0.000000 -3.000000
    vertex 12.471400 3.584220 -3.000000
  endloop
endfacet
facet normal 0.000000 0.000000 -1.915645
  outer loop
    vertex 15.164300 5.540780 -3.000000
    vertex 18.000000 10.000000 -3.000000
    vertex 15.250000 5.000000 -3.000000
  endloop
endfacet
facet normal 0.000000 0.000000 -2.491483
  outer loop
    vertex 14.915800 6.028620 -3.000000
    vertex 18.000000 10.000000 -3.000000
    vertex 15.164300 5.540780 -3.000000
  endloop
endfacet
facet normal 0.000000 0.000000 -2.731800
  outer loop
    vertex 14.528600 6.415780 -3.000000
    vertex 18.000000 10.000000 -3.000000
    vertex 14.915800 6.028620 -3.000000
  endloop
endfacet
facet normal 0.000000 0.000000 -2.611267
  outer loop
    vertex 14.040800 6.664350 -3.000000
    vertex 18.000000 10.000000 -3.000000
    vertex 14.528600 6.415780 -3.000000
  endloop
endfacet
facet normal 0.000000 0.000000 -2.143025
  outer loop
    vertex 13.500000 6.750000 -3.000000
    vertex 18.000000 10.000000 -3.000000
    vertex 14.040800 6.664350 -3.000000
  endloop
endfacet
facet normal 0.000000 0.000000 -1.372175
  outer loop
    vertex 12.959200 6.664350 -3.000000
    vertex 18.000000 10.000000 -3.000000
    vertex 13.500000 6.750000 -3.000000
  endloop
endfacet
facet normal 0.000000 0.000000 -4.848396
  outer loop
    vertex 0.000000 10.000000 -3.000000
    vertex 12.959200 6.664350 -3.000000
    vertex 12.471400 6.415780 -3.000000
  endloop
endfacet
facet normal 0.000000 0.000000 -117.500000
  outer loop
    vertex 0.000000 10.000000 -3.000000
    vertex 11.750000 5.000000 -3.000000
    vertex 0.000000 0.000000 -3.000000
  endloop
endfacet
facet normal 0.000000 0.000000 -6.782666
  outer loop
    vertex 11.750000 5.000000 -3.000000
    vertex 0.000000 10.000000 -3.000000
    vertex 11.835700 5.540780 -3.000000
  endloop
endfacet
facet normal 0.000000 0.000000 -6.882040
  outer loop
    vertex 11.835700 5.540780 -3.000000
    vertex 0.000000 10.000000 -3.000000
    vertex 12.084200 6.028620 -3.000000
  endloop
endfacet
facet normal 0.000000 0.000000 -6.216242
  outer loop
    vertex 12.084200 6.028620 -3.000000
    vertex 0.000000 10.000000 -3.000000
    vertex 12.471400 6.415780 -3.000000
  endloop
endfacet
facet normal 0.000000 0.000000 -60.041702
  outer loop
    vertex 12.959200 6.664350 -3.000000
    vertex 0.000000 10.000000 -3.000000
    vertex 18.000000 10.000000 -3.000000
  endloop
endfacet
facet normal 0.000000 53.999989 -0.000000
  outer loop
    vertex 18.000000 10.000000 -3.000000
    vertex 0.000004 10.000000 0.000000
    vertex 18.000000 10.000000 0.000000
  endloop
endfacet
facet normal 0.000000 54.000000 0.000000
  outer loop
    vertex 0.000000 10.000000 -3.000000
    vertex 0.000004 10.000000 0.000000
    vertex 18.000000 10.000000 -3.000000
  endloop
endfacet
facet normal 0.000000 0.000013 0.000000
  outer loop
    vertex 0.000004 10.000000 0.000000
    vertex 0.000000 10.000000 -3.000000
    vertex 0.000000 10.000000 -0.000001
  endloop
endfacet
facet normal 0.000000 0.000000 27.500000
  outer loop
    vertex 18.000000 10.000000 6.000000
    vertex 15.250000 5.000000 6.000000
    vertex 18.000000 0.000000 6.000000
  endloop
endfacet
facet normal 0.000000 0.000000 1.915646
  outer loop
    vertex 18.000000 10.000000 6.000000
    vertex 15.164300 5.540780 6.000000
    vertex 15.250000 5.000000 6.000000
  endloop
endfacet
facet normal 0.000000 0.000000 2.491483
  outer loop
    vertex 18.000000 10.000000 6.000000
    vertex 14.915800 6.028620 6.000000
    vertex 15.164300 5.540780 6.000000
  endloop
endfacet
facet normal 0.000000 0.000000 2.731799
  outer loop
    vertex 18.000000 10.000000 6.000000
    vertex 14.528600 6.415780 6.000000
    vertex 14.915800 6.028620 6.000000
  endloop
endfacet
facet normal 0.000000 0.000000 2.611267
  outer loop
    vertex 18.000000 10.000000 6.000000
    vertex 14.040800 6.664350 6.000000
    vertex 14.528600 6.415780 6.000000
  endloop
endfacet
facet normal 0.000000 0.000000 2.143025
  outer loop
    vertex 18.000000 10.000000 6.000000
    vertex 13.500000 6.750000 6.000000
    vertex 14.040800 6.664350 6.000000
  endloop
endfacet
facet normal -0.000000 0.000000 29.250000
  outer loop
    vertex 9.000000 10.000000 6.000000
    vertex 13.500000 6.750000 6.000000
    vertex 18.000000 10.000000 6.000000
  endloop
endfacet
facet normal 0.000000 0.000000 2.143025
  outer loop
    vertex 13.500000 6.750000 6.000000
    vertex 9.000000 10.000000 6.000000
    vertex 12.959200 6.664350 6.000000
  endloop
endfacet
facet normal 0.000000 0.000000 1.915645
  outer loop
    vertex 11.835700 5.540780 6.000000
    vertex 9.000000 10.000000 6.000000
    vertex 11.750000 5.000000 6.000000
  endloop
endfacet
facet normal 0.000000 0.000000 2.491483
  outer loop
    vertex 12.084200 6.028620 6.000000
    vertex 9.000000 10.000000 6.000000
    vertex 11.835700 5.540780 6.000000
  endloop
endfacet
facet normal 0.000000 0.000000 2.731800
  outer loop
    vertex 12.471400 6.415780 6.000000
    vertex 9.000000 10.000000 6.000000
    vertex 12.084200 6.028620 6.000000
  endloop
endfacet
facet normal 0.000000 0.000000 2.611267
  outer loop
    vertex 12.959200 6.664350 6.000000
    vertex 9.000000 10.000000 6.000000
    vertex 12.471400 6.415780 6.000000
  endloop
endfacet
facet normal -0.000000 0.000000 1.915645
  outer loop
    vertex 15.164300 4.459220 6.000000
    vertex 18.000000 0.000000 6.000000
    vertex 15.250000 5.000000 6.000000
  endloop
endfacet
facet normal -0.000000 0.000000 2.491483
  outer loop
    vertex 14.915800 3.971380 6.000000
    vertex 18.000000 0.000000 6.000000
    vertex 15.164300 4.459220 6.000000
  endloop
endfacet
facet normal -0.000000 0.000000 2.731799
  outer loop
    vertex 14.528600 3.584220 6.000000
    vertex 18.000000 0.000000 6.000000
    vertex 14.915800 3.971380 6.000000
  endloop
endfacet
facet normal -0.000000 0.000000 2.611267
  outer loop
    vertex 14.040800 3.335650 6.000000
    vertex 18.000000 0.000000 6.000000
    vertex 14.528600 3.584220 6.000000
  endloop
endfacet
facet normal -0.000000 0.000000 2.143025
  outer loop
    vertex 13.500000 3.250000 6.000000
    vertex 18.000000 0.000000 6.000000
    vertex 14.040800 3.335650 6.000000
  endloop
endfacet
facet normal 0.000000 0.000000 2.143025
  outer loop
    vertex 9.000000 0.000000 6.000000
    vertex 13.500000 3.250000 6.000000
    vertex 12.959200 3.335650 6.000000
  endloop
endfacet
facet normal 0.000000 0.000000 2.611267
  outer loop
    vertex 9.000000 0.000000 6.000000
    vertex 12.959200 3.335650 6.000000
    vertex 12.471400 3.584220 6.000000
  endloop
endfacet
facet normal 0.000000 0.000000 27.500000
  outer loop
    vertex 9.000000 0.000000 6.000000
    vertex 11.750000 5.000000 6.000000
    vertex 9.000000 10.000000 6.000000
  endloop
endfacet
facet normal 0.000000 0.000000 1.915645
  outer loop
    vertex 11.750000 5.000000 6.000000
    vertex 9.000000 0.000000 6.000000
    vertex 11.835700 4.459220 6.000000
  endloop
endfacet
facet normal 0.000000 0.000000 29.250000
  outer loop
    vertex 13.500000 3.250000 6.000000
    vertex 9.000000 0.000000 6.000000
    vertex 18.000000 0.000000 6.000000
  endloop
endfacet
facet normal 0.000000 0.000000 2.731799
  outer loop
    vertex 12.084200 3.971380 6.000000
    vertex 9.000000 0.000000 6.000000
    vertex 12.471400 3.584220 6.000000
  endloop
endfacet
facet normal 0.000000 0.000000 2.491483
  outer loop
    vertex 11.835700 4.459220 6.000000
    vertex 9.000000 0.000000 6.000000
    vertex 12.084200 3.971380 6.000000
  endloop
endfacet
facet normal 26.000000 -0.000000 0.000000
  outer loop
    vertex 18.000000 0.000000 6.000000
    vertex 18.000000 10.000000 3.400000
    vertex 18.000000 10.000000 6.000000
  endloop
endfacet
facet normal 26.000000 0.000000 0.000000
  outer loop
    vertex 18.000000 10.000000 3.400000
    vertex 18.000000 0.000000 6.000000
    vertex 18.000000 0.000000 3.400000
  endloop
endfacet
facet normal 2.780130 -0.000000 0.000000
  outer loop
    vertex 0.000000 0.000000 3.400000
    vertex 0.000000 3.000000 2.473290
    vertex 0.000000 3.000000 3.400000
  endloop
endfacet
facet normal 10.200001 0.000000 0.000000
  outer loop
    vertex 0.000000 0.000000 0.000000
    vertex 0.000000 3.000000 2.473290
    vertex 0.000000 0.000000 3.400000
  endloop
endfacet
facet normal 7.419870 0.000000 0.000000
  outer loop
    vertex 0.000000 3.000000 2.473290
    vertex 0.000000 0.000000 0.000000
    vertex 0.000000 3.000000 0.000000
  endloop
endfacet
facet normal 0.000000 0.000000 -27.500000
  outer loop
    vertex 18.000000 0.000000 3.400000
    vertex 15.250000 5.000000 3.400000
    vertex 18.000000 10.000000 3.400000
  endloop
endfacet
facet normal 0.000000 0.000000 -1.915646
  outer loop
    vertex 18.000000 0.000000 3.400000
    vertex 15.164300 4.459220 3.400000
    vertex 15.250000 5.000000 3.400000
  endloop
endfacet
facet normal 0.000000 0.000000 -2.491484
  outer loop
    vertex 18.000000 0.000000 3.400000
    vertex 14.915800 3.971380 3.400000
    vertex 15.164300 4.459220 3.400000
  endloop
endfacet
facet normal 0.000000 0.000000 -2.731798
  outer loop
    vertex 18.000000 0.000000 3.400000
    vertex 14.528600 3.584220 3.400000
    vertex 14.915800 3.971380 3.400000
  endloop
endfacet
facet normal 0.000000 0.000000 -2.611267
  outer loop
    vertex 18.000000 0.000000 3.400000
    vertex 14.040800 3.335650 3.400000
    vertex 14.528600 3.584220 3.400000
  endloop
endfacet
facet normal 0.000000 0.000000 -2.143025
  outer loop
    vertex 18.000000 0.000000 3.400000
    vertex 13.500000 3.250000 3.400000
    vertex 14.040800 3.335650 3.400000
  endloop
endfacet
facet normal 0.000000 0.000000 -1.372176
  outer loop
    vertex 18.000000 0.000000 3.400000
    vertex 12.959200 3.335650 3.400000
    vertex 13.500000 3.250000 3.400000
  endloop
endfacet
facet normal 0.000000 0.000000 -27.152693
  outer loop
    vertex 5.326280 3.000000 3.400000
    vertex 12.959200 3.335650 3.400000
    vertex 18.000000 0.000000 3.400000
  endloop
endfacet
facet normal -0.000000 0.000000 -3.645220
  outer loop
    vertex 11.835700 4.459220 3.400000
    vertex 5.326280 3.000000 3.400000
    vertex 11.750000 5.000000 3.400000
  endloop
endfacet
facet normal -0.000000 0.000000 -3.538171
  outer loop
    vertex 12.084200 3.971380 3.400000
    vertex 5.326280 3.000000 3.400000
    vertex 11.835700 4.459220 3.400000
  endloop
endfacet
facet normal -0.000000 0.000000 -2.992515
  outer loop
    vertex 12.471400 3.584220 3.400000
    vertex 5.326280 3.000000 3.400000
    vertex 12.084200 3.971380 3.400000
  endloop
endfacet
facet normal -0.000000 0.000000 -2.061044
  outer loop
    vertex 12.959200 3.335650 3.400000
    vertex 5.326280 3.000000 3.400000
    vertex 12.471400 3.584220 3.400000
  endloop
endfacet
facet normal 0.000000 0.000000 -54.000000
  outer loop
    vertex 0.000000 0.000000 3.400000
    vertex 5.326280 3.000000 3.400000
    vertex 18.000000 0.000000 3.400000
  endloop
endfacet
facet normal -0.000000 0.000000 -0.513210
  outer loop
    vertex 5.326280 3.000000 3.400000
    vertex 0.000000 0.000000 3.400000
    vertex 5.155210 3.000000 3.400000
  endloop
endfacet
facet normal -0.000000 0.000000 -0.462991
  outer loop
    vertex 5.155210 3.000000 3.400000
    vertex 0.000000 0.000000 3.400000
    vertex 5.000880 3.000000 3.400000
  endloop
endfacet
facet normal -0.000000 0.000000 -0.440339
  outer loop
    vertex 5.000880 3.000000 3.400000
    vertex 0.000000 0.000000 3.400000
    vertex 4.854100 3.000000 3.400000
  endloop
endfacet
facet normal -0.000000 0.000000 -0.440340
  outer loop
    vertex 4.854100 3.000000 3.400000
    vertex 0.000000 0.000000 3.400000
    vertex 4.707320 3.000000 3.400000
  endloop
endfacet
facet normal -0.000000 0.000000 -0.462991
  outer loop
    vertex 4.707320 3.000000 3.400000
    vertex 0.000000 0.000000 3.400000
    vertex 4.552990 3.000000 3.400000
  endloop
endfacet
facet normal -0.000000 0.000000 -0.513210
  outer loop
    vertex 4.552990 3.000000 3.400000
    vertex 0.000000 0.000000 3.400000
    vertex 4.381920 3.000000 3.400000
  endloop
endfacet
facet normal -0.000000 0.000000 -13.145760
  outer loop
    vertex 4.381920 3.000000 3.400000
    vertex 0.000000 0.000000 3.400000
    vertex 0.000000 3.000000 3.400000
  endloop
endfacet
facet normal 0.000000 0.000000 -1.915645
  outer loop
    vertex 15.164300 5.540780 3.400000
    vertex 18.000000 10.000000 3.400000
    vertex 15.250000 5.000000 3.400000
  endloop
endfacet
facet normal 0.000000 0.000000 -2.491483
  outer loop
    vertex 14.915800 6.028620 3.400000
    vertex 18.000000 10.000000 3.400000
    vertex 15.164300 5.540780 3.400000
  endloop
endfacet
facet normal 0.000000 0.000000 -2.731800
  outer loop
    vertex 14.528600 6.415780 3.400000
    vertex 18.000000 10.000000 3.400000
    vertex 14.915800 6.028620 3.400000
  endloop
endfacet
facet normal 0.000000 0.000000 -2.611267
  outer loop
    vertex 14.040800 6.664350 3.400000
    vertex 18.000000 10.000000 3.400000
    vertex 14.528600 6.415780 3.400000
  endloop
endfacet
facet normal 0.000000 0.000000 -2.143025
  outer loop
    vertex 13.500000 6.750000 3.400000
    vertex 18.000000 10.000000 3.400000
    vertex 14.040800 6.664350 3.400000
  endloop
endfacet
facet normal 0.000000 0.000000 -1.372175
  outer loop
    vertex 12.959200 6.664350 3.400000
    vertex 18.000000 10.000000 3.400000
    vertex 13.500000 6.750000 3.400000
  endloop
endfacet
facet normal 0.000000 0.000000 -3.524443
  outer loop
    vertex 5.326280 10.000000 3.400000
    vertex 12.959200 6.664350 3.400000
    vertex 12.471400 6.415780 3.400000
  endloop
endfacet
facet normal 0.000000 0.000000 -3.302419
  outer loop
    vertex 5.326280 3.000000 3.400000
    vertex 11.835700 5.540780 3.400000
    vertex 11.750000 5.000000 3.400000
  endloop
endfacet
facet normal 0.000000 0.000000 -45.565941
  outer loop
    vertex 5.326280 10.000000 3.400000
    vertex 11.835700 5.540780 3.400000
    vertex 5.326280 3.000000 3.400000
  endloop
endfacet
facet normal 0.000000 0.000000 -4.283669
  outer loop
    vertex 11.835700 5.540780 3.400000
    vertex 5.326280 10.000000 3.400000
    vertex 12.084200 6.028620 3.400000
  endloop
endfacet
facet normal 0.000000 0.000000 -4.154118
  outer loop
    vertex 12.084200 6.028620 3.400000
    vertex 5.326280 10.000000 3.400000
    vertex 12.471400 6.415780 3.400000
  endloop
endfacet
facet normal 0.000000 0.000000 -42.275093
  outer loop
    vertex 12.959200 6.664350 3.400000
    vertex 5.326280 10.000000 3.400000
    vertex 18.000000 10.000000 3.400000
  endloop
endfacet
facet normal -0.927060 -0.000000 -0.146832
  outer loop
    vertex 0.951056 0.000000 6.309020
    vertex 0.985317 3.000000 6.092700
    vertex 1.000000 0.000000 6.000000
  endloop
endfacet
facet normal -0.648960 0.000000 -0.102783
  outer loop
    vertex 0.985317 3.000000 6.092700
    vertex 0.951056 0.000000 6.309020
    vertex 0.951056 3.000000 6.309020
  endloop
endfacet
facet normal -0.278100 -0.000000 -0.044049
  outer loop
    vertex 1.000000 3.000000 6.000000
    vertex 1.000000 0.000000 6.000000
    vertex 0.985317 3.000000 6.092700
  endloop
endfacet
facet normal -0.044040 -0.000000 -0.278115
  outer loop
    vertex 0.000000 3.000000 7.000000
    vertex 0.092705 3.000000 6.985320
    vertex 0.000000 0.000000 7.000000
  endloop
endfacet
facet normal -0.663720 0.000000 -0.663693
  outer loop
    vertex 0.809016 0.000000 6.587780
    vertex 0.587785 3.000000 6.809020
    vertex 0.809016 3.000000 6.587780
  endloop
endfacet
facet normal -0.663720 -0.000000 -0.663693
  outer loop
    vertex 0.587785 3.000000 6.809020
    vertex 0.809016 0.000000 6.587780
    vertex 0.587785 0.000000 6.809020
  endloop
endfacet
facet normal 0.146821 0.000001 -0.927048
  outer loop
    vertex -0.309016 0.000000 6.951060
    vertex -0.092705 3.000000 6.985320
    vertex 0.000000 0.000000 7.000000
  endloop
endfacet
facet normal 0.102781 0.000000 -0.648933
  outer loop
    vertex -0.092705 3.000000 6.985320
    vertex -0.309016 0.000000 6.951060
    vertex -0.309016 3.000000 6.951060
  endloop
endfacet
facet normal -0.102779 0.000000 0.648933
  outer loop
    vertex 0.000000 0.000000 5.000000
    vertex 0.216311 3.000000 5.034260
    vertex 0.000000 3.000000 5.000000
  endloop
endfacet
facet normal -0.146821 -0.000001 0.927048
  outer loop
    vertex 0.216311 3.000000 5.034260
    vertex 0.000000 0.000000 5.000000
    vertex 0.309016 0.000000 5.048940
  endloop
endfacet
facet normal -0.426119 0.000000 0.836307
  outer loop
    vertex 0.309016 3.000000 5.048940
    vertex 0.587785 0.000000 5.190980
    vertex 0.587785 3.000000 5.190980
  endloop
endfacet
facet normal -0.426119 0.000000 0.836307
  outer loop
    vertex 0.587785 0.000000 5.190980
    vertex 0.309016 3.000000 5.048940
    vertex 0.309016 0.000000 5.048940
  endloop
endfacet
facet normal 0.278130 -0.000000 0.044052
  outer loop
    vertex -0.951056 0.000000 5.690980
    vertex -0.951056 3.000000 5.690980
    vertex -0.965740 3.000000 5.783690
  endloop
endfacet
facet normal 0.836310 -0.000000 0.426120
  outer loop
    vertex -0.951056 0.000000 5.690980
    vertex -0.809016 3.000000 5.412210
    vertex -0.951056 3.000000 5.690980
  endloop
endfacet
facet normal 0.836310 0.000000 0.426120
  outer loop
    vertex -0.809016 3.000000 5.412210
    vertex -0.951056 0.000000 5.690980
    vertex -0.809016 0.000000 5.412210
  endloop
endfacet
facet normal -0.044041 0.000000 0.278115
  outer loop
    vertex 0.309016 0.000000 5.048940
    vertex 0.309016 3.000000 5.048940
    vertex 0.216311 3.000000 5.034260
  endloop
endfacet
facet normal 0.044040 0.000000 -0.278115
  outer loop
    vertex 0.000000 3.000000 7.000000
    vertex 0.000000 0.000000 7.000000
    vertex -0.092705 3.000000 6.985320
  endloop
endfacet
facet normal -0.426119 0.000000 -0.836307
  outer loop
    vertex 0.309016 0.000000 6.951060
    vertex 0.587785 3.000000 6.809020
    vertex 0.587785 0.000000 6.809020
  endloop
endfacet
facet normal -0.426119 0.000000 -0.836307
  outer loop
    vertex 0.587785 3.000000 6.809020
    vertex 0.309016 0.000000 6.951060
    vertex 0.309016 3.000000 6.951060
  endloop
endfacet
facet normal -0.102781 0.000000 -0.648933
  outer loop
    vertex 0.309016 0.000000 6.951060
    vertex 0.092705 3.000000 6.985320
    vertex 0.309016 3.000000 6.951060
  endloop
endfacet
facet normal -0.146821 0.000001 -0.927048
  outer loop
    vertex 0.092705 3.000000 6.985320
    vertex 0.309016 0.000000 6.951060
    vertex 0.000000 0.000000 7.000000
  endloop
endfacet
facet normal -0.836280 0.000000 -0.426120
  outer loop
    vertex 0.951056 0.000000 6.309020
    vertex 0.809016 3.000000 6.587780
    vertex 0.951056 3.000000 6.309020
  endloop
endfacet
facet normal -0.836280 -0.000000 -0.426120
  outer loop
    vertex 0.809016 3.000000 6.587780
    vertex 0.951056 0.000000 6.309020
    vertex 0.809016 0.000000 6.587780
  endloop
endfacet
facet normal -0.836310 0.000000 0.426120
  outer loop
    vertex 0.809016 0.000000 5.412210
    vertex 0.951056 3.000000 5.690980
    vertex 0.809016 3.000000 5.412210
  endloop
endfacet
facet normal -0.836310 0.000000 0.426120
  outer loop
    vertex 0.951056 3.000000 5.690980
    vertex 0.809016 0.000000 5.412210
    vertex 0.951056 0.000000 5.690980
  endloop
endfacet
facet normal 0.836280 0.000000 -0.426120
  outer loop
    vertex -0.809016 0.000000 6.587780
    vertex -0.951056 3.000000 6.309020
    vertex -0.809016 3.000000 6.587780
  endloop
endfacet
facet normal 0.836280 0.000000 -0.426120
  outer loop
    vertex -0.951056 3.000000 6.309020
    vertex -0.809016 0.000000 6.587780
    vertex -0.951056 0.000000 6.309020
  endloop
endfacet
facet normal 0.044041 0.000000 0.278115
  outer loop
    vertex -0.216311 3.000000 5.034260
    vertex -0.309016 3.000000 5.048940
    vertex -0.309016 0.000000 5.048940
  endloop
endfacet
facet normal 0.663690 -0.000000 0.663693
  outer loop
    vertex -0.809016 0.000000 5.412210
    vertex -0.587785 3.000000 5.190980
    vertex -0.809016 3.000000 5.412210
  endloop
endfacet
facet normal 0.663690 0.000000 0.663693
  outer loop
    vertex -0.587785 3.000000 5.190980
    vertex -0.809016 0.000000 5.412210
    vertex -0.587785 0.000000 5.190980
  endloop
endfacet
facet normal 0.648930 -0.000000 0.102780
  outer loop
    vertex -1.000000 0.000000 6.000000
    vertex -0.965740 3.000000 5.783690
    vertex -1.000000 3.000000 6.000000
  endloop
endfacet
facet normal 0.927060 0.000000 0.146832
  outer loop
    vertex -0.965740 3.000000 5.783690
    vertex -1.000000 0.000000 6.000000
    vertex -0.951056 0.000000 5.690980
  endloop
endfacet
facet normal -0.278130 0.000000 0.044052
  outer loop
    vertex 0.965740 3.000000 5.783690
    vertex 0.951056 3.000000 5.690980
    vertex 0.951056 0.000000 5.690980
  endloop
endfacet
facet normal -0.927060 0.000000 0.146832
  outer loop
    vertex 1.000000 0.000000 6.000000
    vertex 0.965740 3.000000 5.783690
    vertex 0.951056 0.000000 5.690980
  endloop
endfacet
facet normal -0.648930 0.000000 0.102780
  outer loop
    vertex 0.965740 3.000000 5.783690
    vertex 1.000000 0.000000 6.000000
    vertex 1.000000 3.000000 6.000000
  endloop
endfacet
facet normal 0.426119 0.000000 -0.836307
  outer loop
    vertex -0.587785 0.000000 6.809020
    vertex -0.309016 3.000000 6.951060
    vertex -0.309016 0.000000 6.951060
  endloop
endfacet
facet normal 0.426119 0.000000 -0.836307
  outer loop
    vertex -0.309016 3.000000 6.951060
    vertex -0.587785 0.000000 6.809020
    vertex -0.587785 3.000000 6.809020
  endloop
endfacet
facet normal 0.663720 0.000000 -0.663693
  outer loop
    vertex -0.587785 0.000000 6.809020
    vertex -0.809016 3.000000 6.587780
    vertex -0.587785 3.000000 6.809020
  endloop
endfacet
facet normal 0.663720 0.000000 -0.663693
  outer loop
    vertex -0.809016 3.000000 6.587780
    vertex -0.587785 0.000000 6.809020
    vertex -0.809016 0.000000 6.587780
  endloop
endfacet
facet normal 0.102779 0.000000 0.648933
  outer loop
    vertex -0.216311 3.000000 5.034260
    vertex 0.000000 0.000000 5.000000
    vertex 0.000000 3.000000 5.000000
  endloop
endfacet
facet normal 0.146821 -0.000001 0.927048
  outer loop
    vertex 0.000000 0.000000 5.000000
    vertex -0.216311 3.000000 5.034260
    vertex -0.309016 0.000000 5.048940
  endloop
endfacet
facet normal 0.426119 0.000000 0.836307
  outer loop
    vertex -0.587785 3.000000 5.190980
    vertex -0.309016 0.000000 5.048940
    vertex -0.309016 3.000000 5.048940
  endloop
endfacet
facet normal 0.426119 0.000000 0.836307
  outer loop
    vertex -0.309016 0.000000 5.048940
    vertex -0.587785 3.000000 5.190980
    vertex -0.587785 0.000000 5.190980
  endloop
endfacet
facet normal 0.648960 0.000000 -0.102783
  outer loop
    vertex -0.951056 0.000000 6.309020
    vertex -0.985317 3.000000 6.092700
    vertex -0.951056 3.000000 6.309020
  endloop
endfacet
facet normal 0.927060 -0.000000 -0.146832
  outer loop
    vertex -0.985317 3.000000 6.092700
    vertex -0.951056 0.000000 6.309020
    vertex -1.000000 0.000000 6.000000
  endloop
endfacet
facet normal 0.278100 0.000000 -0.044049
  outer loop
    vertex -1.000000 3.000000 6.000000
    vertex -0.985317 3.000000 6.092700
    vertex -1.000000 0.000000 6.000000
  endloop
endfacet
facet normal -0.663690 0.000000 0.663693
  outer loop
    vertex 0.587785 0.000000 5.190980
    vertex 0.809016 3.000000 5.412210
    vertex 0.587785 3.000000 5.190980
  endloop
endfacet
facet normal -0.663690 0.000000 0.663693
  outer loop
    vertex 0.809016 3.000000 5.412210
    vertex 0.587785 0.000000 5.190980
    vertex 0.809016 0.000000 5.412210
  endloop
endfacet
facet normal -12.978702 0.000004 -2.055621
  outer loop
    vertex 5.706340 3.000000 7.854100
    vertex 5.794440 10.000000 7.297870
    vertex 6.000000 3.000000 6.000000
  endloop
endfacet
facet normal -3.893610 0.000000 -0.616700
  outer loop
    vertex 5.794440 10.000000 7.297870
    vertex 5.706340 3.000000 7.854100
    vertex 5.706340 10.000000 7.854100
  endloop
endfacet
facet normal 0.000000 0.463524 0.000000
  outer loop
    vertex 0.000000 3.000000 12.000000
    vertex 0.092705 3.000000 6.985320
    vertex 0.000000 3.000000 7.000000
  endloop
endfacet
facet normal 0.000000 1.081555 0.000000
  outer loop
    vertex 0.000000 3.000000 12.000000
    vertex 0.309016 3.000000 6.951060
    vertex 0.092705 3.000000 6.985320
  endloop
endfacet
facet normal 0.000000 1.363596 0.000000
  outer loop
    vertex 0.000000 3.000000 12.000000
    vertex 0.587785 3.000000 6.809020
    vertex 0.309016 3.000000 6.951060
  endloop
endfacet
facet normal 0.000000 1.018364 0.000000
  outer loop
    vertex 0.000000 3.000000 12.000000
    vertex 0.809016 3.000000 6.587780
    vertex 0.587785 3.000000 6.809020
  endloop
endfacet
facet normal 0.000000 16.758377 0.000000
  outer loop
    vertex 4.381920 3.000000 3.400000
    vertex 0.809016 3.000000 6.587780
    vertex 0.000000 3.000000 12.000000
  endloop
endfacet
facet normal 0.000000 0.148328 0.000000
  outer loop
    vertex 0.309016 3.000000 5.048940
    vertex 0.000000 3.000000 3.400000
    vertex 0.216311 3.000000 5.034260
  endloop
endfacet
facet normal 0.000000 0.415781 0.000000
  outer loop
    vertex 0.587785 3.000000 5.190980
    vertex 0.000000 3.000000 3.400000
    vertex 0.309016 3.000000 5.048940
  endloop
endfacet
facet normal 0.000000 7.847930 0.000000
  outer loop
    vertex 0.000000 3.000000 3.400000
    vertex 0.587785 3.000000 5.190980
    vertex 4.381920 3.000000 3.400000
  endloop
endfacet
facet normal 0.000000 1.235597 0.000000
  outer loop
    vertex 0.809016 3.000000 5.412210
    vertex 4.381920 3.000000 3.400000
    vertex 0.587785 3.000000 5.190980
  endloop
endfacet
facet normal 0.000000 1.281833 0.000000
  outer loop
    vertex 0.951056 3.000000 5.690980
    vertex 4.381920 3.000000 3.400000
    vertex 0.809016 3.000000 5.412210
  endloop
endfacet
facet normal 0.000000 0.351716 0.000000
  outer loop
    vertex 0.965740 3.000000 5.783690
    vertex 4.381920 3.000000 3.400000
    vertex 0.951056 3.000000 5.690980
  endloop
endfacet
facet normal 0.000000 0.820619 0.000000
  outer loop
    vertex 1.000000 3.000000 6.000000
    vertex 4.381920 3.000000 3.400000
    vertex 0.965740 3.000000 5.783690
  endloop
endfacet
facet normal 0.000000 0.275328 0.000000
  outer loop
    vertex 0.985317 3.000000 6.092700
    vertex 4.381920 3.000000 3.400000
    vertex 1.000000 3.000000 6.000000
  endloop
endfacet
facet normal 0.000000 0.642499 0.000000
  outer loop
    vertex 0.951056 3.000000 6.309020
    vertex 4.381920 3.000000 3.400000
    vertex 0.985317 3.000000 6.092700
  endloop
endfacet
facet normal 0.000000 0.543190 0.000000
  outer loop
    vertex 0.809016 3.000000 6.587780
    vertex 4.381920 3.000000 3.400000
    vertex 0.951056 3.000000 6.309020
  endloop
endfacet
facet normal 0.000000 0.463524 0.000000
  outer loop
    vertex -0.092705 3.000000 6.985320
    vertex 0.000000 3.000000 12.000000
    vertex 0.000000 3.000000 7.000000
  endloop
endfacet
facet normal 0.000000 1.081555 0.000000
  outer loop
    vertex -0.309016 3.000000 6.951060
    vertex 0.000000 3.000000 12.000000
    vertex -0.092705 3.000000 6.985320
  endloop
endfacet
facet normal 0.000000 1.363596 0.000000
  outer loop
    vertex -0.587785 3.000000 6.809020
    vertex 0.000000 3.000000 12.000000
    vertex -0.309016 3.000000 6.951060
  endloop
endfacet
facet normal 0.000000 1.018364 0.000000
  outer loop
    vertex -0.809016 3.000000 6.587780
    vertex 0.000000 3.000000 12.000000
    vertex -0.587785 3.000000 6.809020
  endloop
endfacet
facet normal 0.000000 0.543231 0.000000
  outer loop
    vertex -0.951056 3.000000 6.309020
    vertex 0.000000 3.000000 12.000000
    vertex -0.809016 3.000000 6.587780
  endloop
endfacet
facet normal 0.000000 0.346098 0.000000
  outer loop
    vertex 0.216311 3.000000 5.034260
    vertex 0.000000 3.000000 3.400000
    vertex 0.000000 3.000000 5.000000
  endloop
endfacet
facet normal 0.000000 0.346098 0.000000
  outer loop
    vertex 0.000000 3.000000 5.000000
    vertex 0.000000 3.000000 3.400000
    vertex -0.216311 3.000000 5.034260
  endloop
endfacet
facet normal 0.000000 0.148329 0.000000
  outer loop
    vertex -0.216311 3.000000 5.034260
    vertex 0.000000 3.000000 3.400000
    vertex -0.309016 3.000000 5.048940
  endloop
endfacet
facet normal 0.000000 0.415781 0.000000
  outer loop
    vertex 0.000000 3.000000 3.400000
    vertex -0.587785 3.000000 5.190980
    vertex -0.309016 3.000000 5.048940
  endloop
endfacet
facet normal 0.000000 0.266185 0.000000
  outer loop
    vertex 0.000000 3.000000 3.400000
    vertex -0.809016 3.000000 5.412210
    vertex -0.587785 3.000000 5.190980
  endloop
endfacet
facet normal 0.000000 10.517192 0.000000
  outer loop
    vertex -4.854100 3.000000 2.473290
    vertex -0.809016 3.000000 5.412210
    vertex 0.000000 3.000000 3.400000
  endloop
endfacet
facet normal 0.000000 4.498344 0.000000
  outer loop
    vertex -4.854100 3.000000 2.473290
    vertex 0.000000 3.000000 3.400000
    vertex 0.000000 3.000000 2.473290
  endloop
endfacet
facet normal 0.000000 18.564152 -0.000000
  outer loop
    vertex -0.951056 3.000000 6.309020
    vertex -4.854100 3.000000 2.473290
    vertex 0.000000 3.000000 12.000000
  endloop
endfacet
facet normal 0.000000 0.712891 -0.000000
  outer loop
    vertex -0.985317 3.000000 6.092700
    vertex -4.854100 3.000000 2.473290
    vertex -0.951056 3.000000 6.309020
  endloop
endfacet
facet normal 0.000000 0.305492 -0.000000
  outer loop
    vertex -1.000000 3.000000 6.000000
    vertex -4.854100 3.000000 2.473290
    vertex -0.985317 3.000000 6.092700
  endloop
endfacet
facet normal 0.000000 0.954506 0.000000
  outer loop
    vertex -0.965740 3.000000 5.783690
    vertex -4.854100 3.000000 2.473290
    vertex -1.000000 3.000000 6.000000
  endloop
endfacet
facet normal 0.000000 0.409100 0.000000
  outer loop
    vertex -0.951056 3.000000 5.690980
    vertex -4.854100 3.000000 2.473290
    vertex -0.965740 3.000000 5.783690
  endloop
endfacet
facet normal 0.000000 1.545092 0.000000
  outer loop
    vertex -0.809016 3.000000 5.412210
    vertex -4.854100 3.000000 2.473290
    vertex -0.951056 3.000000 5.690980
  endloop
endfacet
facet normal -9.085091 -0.000000 -1.438921
  outer loop
    vertex 6.000000 10.000000 6.000000
    vertex 6.000000 3.000000 6.000000
    vertex 5.794440 10.000000 7.297870
  endloop
endfacet
facet normal -9.291735 0.000000 -9.291731
  outer loop
    vertex 4.854100 3.000000 9.526710
    vertex 3.526710 10.000000 10.854100
    vertex 4.854100 10.000000 9.526710
  endloop
endfacet
facet normal -9.291735 -0.000000 -9.291731
  outer loop
    vertex 3.526710 10.000000 10.854100
    vertex 4.854100 3.000000 9.526710
    vertex 3.526710 3.000000 10.854100
  endloop
endfacet
facet normal 12.978702 -0.000000 2.055621
  outer loop
    vertex -6.000000 3.000000 6.000000
    vertex -5.706340 10.000000 4.145900
    vertex -6.000000 10.000000 6.000000
  endloop
endfacet
facet normal 12.978702 0.000000 2.055621
  outer loop
    vertex -5.706340 10.000000 4.145900
    vertex -6.000000 3.000000 6.000000
    vertex -5.706340 3.000000 4.145900
  endloop
endfacet
facet normal -12.978702 -0.000004 2.055621
  outer loop
    vertex 6.000000 3.000000 6.000000
    vertex 5.911900 10.000000 5.443770
    vertex 5.706340 3.000000 4.145900
  endloop
endfacet
facet normal -3.893610 0.000000 0.616700
  outer loop
    vertex 5.911900 10.000000 5.443770
    vertex 6.000000 3.000000 6.000000
    vertex 6.000000 10.000000 6.000000
  endloop
endfacet
facet normal 0.000000 6.443284 0.000000
  outer loop
    vertex 0.000000 3.000000 2.473290
    vertex -3.526710 3.000000 1.145900
    vertex -4.854100 3.000000 2.473290
  endloop
endfacet
facet normal 0.000000 5.225809 0.000000
  outer loop
    vertex 0.000000 3.000000 2.473290
    vertex -1.854100 3.000000 0.293660
    vertex -3.526710 3.000000 1.145900
  endloop
endfacet
facet normal -0.000000 4.585727 0.000000
  outer loop
    vertex -1.854100 3.000000 0.293660
    vertex 0.000000 3.000000 2.473290
    vertex 0.000000 3.000000 0.000000
  endloop
endfacet
facet normal 11.708269 -0.000000 5.965677
  outer loop
    vertex -5.706340 3.000000 4.145900
    vertex -4.854100 10.000000 2.473290
    vertex -5.706340 10.000000 4.145900
  endloop
endfacet
facet normal 11.708269 0.000000 5.965677
  outer loop
    vertex -4.854100 10.000000 2.473290
    vertex -5.706340 3.000000 4.145900
    vertex -4.854100 3.000000 2.473290
  endloop
endfacet
facet normal 2.055902 0.000000 -12.978700
  outer loop
    vertex -1.854100 3.000000 11.706300
    vertex 0.000000 10.000000 12.000000
    vertex 0.000000 3.000000 12.000000
  endloop
endfacet
facet normal 2.055902 0.000000 -12.978700
  outer loop
    vertex 0.000000 10.000000 12.000000
    vertex -1.854100 3.000000 11.706300
    vertex -1.854100 10.000000 11.706300
  endloop
endfacet
facet normal -5.965397 0.000000 -11.708270
  outer loop
    vertex 1.854100 3.000000 11.706300
    vertex 3.526710 10.000000 10.854100
    vertex 3.526710 3.000000 10.854100
  endloop
endfacet
facet normal -5.965397 0.000000 -11.708270
  outer loop
    vertex 3.526710 10.000000 10.854100
    vertex 1.854100 3.000000 11.706300
    vertex 1.854100 10.000000 11.706300
  endloop
endfacet
facet normal 0.000000 3.160267 0.000000
  outer loop
    vertex -5.706340 3.000000 7.854100
    vertex -4.854100 3.000000 2.473290
    vertex -6.000000 3.000000 6.000000
  endloop
endfacet
facet normal -0.000000 9.362640 0.000000
  outer loop
    vertex -4.854100 3.000000 9.526710
    vertex -3.526710 3.000000 10.854100
    vertex -4.854100 3.000000 2.473290
  endloop
endfacet
facet normal 0.000000 0.127601 0.000000
  outer loop
    vertex 5.155210 3.000000 3.400000
    vertex 5.706340 3.000000 4.145900
    vertex 5.326280 3.000000 3.400000
  endloop
endfacet
facet normal 0.000000 0.802809 -0.000000
  outer loop
    vertex 5.706340 3.000000 4.145900
    vertex 5.155210 3.000000 3.400000
    vertex 6.000000 3.000000 6.000000
  endloop
endfacet
facet normal 0.000000 0.401259 0.000000
  outer loop
    vertex 5.000880 3.000000 3.400000
    vertex 6.000000 3.000000 6.000000
    vertex 5.155210 3.000000 3.400000
  endloop
endfacet
facet normal 0.000000 2.615985 0.000000
  outer loop
    vertex 6.000000 3.000000 6.000000
    vertex 5.000880 3.000000 3.400000
    vertex 5.706340 3.000000 7.854100
  endloop
endfacet
facet normal 9.291730 -0.000000 9.291731
  outer loop
    vertex -4.854100 3.000000 2.473290
    vertex -3.526710 10.000000 1.145900
    vertex -4.854100 10.000000 2.473290
  endloop
endfacet
facet normal 9.291730 0.000000 9.291731
  outer loop
    vertex -3.526710 10.000000 1.145900
    vertex -4.854100 3.000000 2.473290
    vertex -3.526710 3.000000 1.145900
  endloop
endfacet
facet normal -0.000005 0.000000 0.000030
  outer loop
    vertex 0.000004 10.000000 0.000000
    vertex 0.000000 10.000000 -0.000001
    vertex 0.000000 3.000000 0.000000
  endloop
endfacet
facet normal -11.708265 0.000000 -5.965677
  outer loop
    vertex 5.706340 3.000000 7.854100
    vertex 4.854100 10.000000 9.526710
    vertex 5.706340 10.000000 7.854100
  endloop
endfacet
facet normal -11.708265 -0.000000 -5.965677
  outer loop
    vertex 4.854100 10.000000 9.526710
    vertex 5.706340 3.000000 7.854100
    vertex 4.854100 3.000000 9.526710
  endloop
endfacet
facet normal 0.000000 0.653771 0.000000
  outer loop
    vertex 4.854100 3.000000 3.400000
    vertex 5.706340 3.000000 7.854100
    vertex 5.000880 3.000000 3.400000
  endloop
endfacet
facet normal 0.000000 5.221425 0.000000
  outer loop
    vertex 5.706340 3.000000 7.854100
    vertex 4.854100 3.000000 3.400000
    vertex 4.854100 3.000000 9.526710
  endloop
endfacet
facet normal 0.000000 0.899279 0.000000
  outer loop
    vertex 4.707320 3.000000 3.400000
    vertex 4.854100 3.000000 9.526710
    vertex 4.854100 3.000000 3.400000
  endloop
endfacet
facet normal 0.000000 8.327369 0.000000
  outer loop
    vertex 4.854100 3.000000 9.526710
    vertex 4.707320 3.000000 3.400000
    vertex 3.526710 3.000000 10.854100
  endloop
endfacet
facet normal -2.055902 0.000000 -12.978700
  outer loop
    vertex 0.000000 3.000000 12.000000
    vertex 1.854100 10.000000 11.706300
    vertex 1.854100 3.000000 11.706300
  endloop
endfacet
facet normal -2.055902 0.000000 -12.978700
  outer loop
    vertex 1.854100 10.000000 11.706300
    vertex 0.000000 3.000000 12.000000
    vertex 0.000000 10.000000 12.000000
  endloop
endfacet
facet normal -0.000000 16.237822 0.000000
  outer loop
    vertex -1.854100 3.000000 11.706300
    vertex 0.000000 3.000000 12.000000
    vertex -4.854100 3.000000 2.473290
  endloop
endfacet
facet normal 0.000000 1.088959 0.000000
  outer loop
    vertex -4.854100 3.000000 2.473290
    vertex -5.706340 3.000000 4.145900
    vertex -6.000000 3.000000 6.000000
  endloop
endfacet
facet normal 12.978702 0.000000 -2.055621
  outer loop
    vertex -5.706340 3.000000 7.854100
    vertex -6.000000 10.000000 6.000000
    vertex -5.706340 10.000000 7.854100
  endloop
endfacet
facet normal 12.978702 0.000000 -2.055621
  outer loop
    vertex -6.000000 10.000000 6.000000
    vertex -5.706340 3.000000 7.854100
    vertex -6.000000 3.000000 6.000000
  endloop
endfacet
facet normal 5.965397 0.000000 -11.708270
  outer loop
    vertex -3.526710 3.000000 10.854100
    vertex -1.854100 10.000000 11.706300
    vertex -1.854100 3.000000 11.706300
  endloop
endfacet
facet normal 5.965397 0.000000 -11.708270
  outer loop
    vertex -1.854100 10.000000 11.706300
    vertex -3.526710 3.000000 10.854100
    vertex -3.526710 10.000000 10.854100
  endloop
endfacet
facet normal -5.221298 0.000000 2.660418
  outer loop
    vertex 5.326280 10.000000 3.400000
    vertex 5.706340 3.000000 4.145900
    vertex 5.706340 10.000000 4.145900
  endloop
endfacet
facet normal -5.221298 0.000000 2.660418
  outer loop
    vertex 5.706340 3.000000 4.145900
    vertex 5.326280 10.000000 3.400000
    vertex 5.326280 3.000000 3.400000
  endloop
endfacet
facet normal -9.085091 0.000000 1.438921
  outer loop
    vertex 5.911900 10.000000 5.443770
    vertex 5.706340 10.000000 4.145900
    vertex 5.706340 3.000000 4.145900
  endloop
endfacet
facet normal 0.000000 1.420959 -0.000000
  outer loop
    vertex 4.381920 3.000000 3.400000
    vertex 1.854100 3.000000 11.706300
    vertex 4.552990 3.000000 3.400000
  endloop
endfacet
facet normal 0.000000 14.658288 0.000000
  outer loop
    vertex 1.854100 3.000000 11.706300
    vertex 4.381920 3.000000 3.400000
    vertex 0.000000 3.000000 12.000000
  endloop
endfacet
facet normal 0.000000 1.150393 -0.000000
  outer loop
    vertex 4.552990 3.000000 3.400000
    vertex 3.526710 3.000000 10.854100
    vertex 4.707320 3.000000 3.400000
  endloop
endfacet
facet normal 0.000000 11.593207 0.000000
  outer loop
    vertex 3.526710 3.000000 10.854100
    vertex 4.552990 3.000000 3.400000
    vertex 1.854100 3.000000 11.706300
  endloop
endfacet
facet normal -0.000000 12.886625 0.000000
  outer loop
    vertex -3.526710 3.000000 10.854100
    vertex -1.854100 3.000000 11.706300
    vertex -4.854100 3.000000 2.473290
  endloop
endfacet
facet normal 0.000000 6.011204 0.000000
  outer loop
    vertex -4.854100 3.000000 9.526710
    vertex -4.854100 3.000000 2.473290
    vertex -5.706340 3.000000 7.854100
  endloop
endfacet
facet normal 9.291735 0.000000 -9.291731
  outer loop
    vertex -3.526710 3.000000 10.854100
    vertex -4.854100 10.000000 9.526710
    vertex -3.526710 10.000000 10.854100
  endloop
endfacet
facet normal 9.291735 0.000000 -9.291731
  outer loop
    vertex -4.854100 10.000000 9.526710
    vertex -3.526710 3.000000 10.854100
    vertex -4.854100 3.000000 9.526710
  endloop
endfacet
facet normal 11.708265 0.000000 -5.965677
  outer loop
    vertex -4.854100 3.000000 9.526710
    vertex -5.706340 10.000000 7.854100
    vertex -4.854100 10.000000 9.526710
  endloop
endfacet
facet normal 11.708265 0.000000 -5.965677
  outer loop
    vertex -5.706340 10.000000 7.854100
    vertex -4.854100 3.000000 9.526710
    vertex -5.706340 3.000000 7.854100
  endloop
endfacet
facet normal 2.913904 0.000000 5.718861
  outer loop
    vertex -2.671080 10.000000 0.709932
    vertex -1.854100 3.000000 0.293660
    vertex -1.854100 10.000000 0.293660
  endloop
endfacet
facet normal 3.051776 -0.000000 5.989409
  outer loop
    vertex -3.526710 3.000000 1.145900
    vertex -2.671080 10.000000 0.709932
    vertex -3.526710 10.000000 1.145900
  endloop
endfacet
facet normal 5.965680 0.000002 11.708270
  outer loop
    vertex -2.671080 10.000000 0.709932
    vertex -3.526710 3.000000 1.145900
    vertex -1.854100 3.000000 0.293660
  endloop
endfacet
facet normal 1.438938 0.000000 9.085090
  outer loop
    vertex -0.556230 10.000000 0.088097
    vertex -1.854100 10.000000 0.293660
    vertex -1.854100 3.000000 0.293660
  endloop
endfacet
facet normal 0.616687 0.000000 3.893610
  outer loop
    vertex -0.556230 10.000000 0.088097
    vertex 0.000000 3.000000 0.000000
    vertex 0.000000 10.000000 -0.000001
  endloop
endfacet
facet normal 2.055620 0.000001 12.978700
  outer loop
    vertex 0.000000 3.000000 0.000000
    vertex -0.556230 10.000000 0.088097
    vertex -1.854100 3.000000 0.293660
  endloop
endfacet
facet normal -1.622340 -0.257100 0.000000
  outer loop
    vertex 15.250000 5.000000 -3.000000
    vertex 15.164300 5.540780 0.000000
    vertex 15.164300 5.540780 -3.000000
  endloop
endfacet
facet normal -1.622340 -0.257100 0.000000
  outer loop
    vertex 15.164300 5.540780 0.000000
    vertex 15.250000 5.000000 -3.000000
    vertex 15.250000 5.000000 0.000000
  endloop
endfacet
facet normal -1.406028 -0.222820 0.000000
  outer loop
    vertex 15.250000 5.000000 3.400000
    vertex 15.164300 5.540780 6.000000
    vertex 15.164300 5.540780 3.400000
  endloop
endfacet
facet normal -1.406028 -0.222820 0.000000
  outer loop
    vertex 15.164300 5.540780 6.000000
    vertex 15.250000 5.000000 3.400000
    vertex 15.250000 5.000000 6.000000
  endloop
endfacet
facet normal -0.256950 -1.622400 0.000000
  outer loop
    vertex 13.500000 6.750000 -3.000000
    vertex 14.040800 6.664350 0.000000
    vertex 13.500000 6.750000 0.000000
  endloop
endfacet
facet normal -0.256950 -1.622400 -0.000000
  outer loop
    vertex 14.040800 6.664350 0.000000
    vertex 13.500000 6.750000 -3.000000
    vertex 14.040800 6.664350 -3.000000
  endloop
endfacet
facet normal -0.222690 -1.406080 0.000000
  outer loop
    vertex 13.500000 6.750000 3.400000
    vertex 14.040800 6.664350 6.000000
    vertex 13.500000 6.750000 6.000000
  endloop
endfacet
facet normal -0.222690 -1.406080 -0.000000
  outer loop
    vertex 14.040800 6.664350 6.000000
    vertex 13.500000 6.750000 3.400000
    vertex 14.040800 6.664350 3.400000
  endloop
endfacet
facet normal 1.622340 0.257100 0.000000
  outer loop
    vertex 11.835700 4.459220 0.000000
    vertex 11.750000 5.000000 -3.000000
    vertex 11.750000 5.000000 0.000000
  endloop
endfacet
facet normal 1.622340 0.257100 0.000000
  outer loop
    vertex 11.750000 5.000000 -3.000000
    vertex 11.835700 4.459220 0.000000
    vertex 11.835700 4.459220 -3.000000
  endloop
endfacet
facet normal 1.406028 0.222820 0.000000
  outer loop
    vertex 11.835700 4.459220 6.000000
    vertex 11.750000 5.000000 3.400000
    vertex 11.750000 5.000000 6.000000
  endloop
endfacet
facet normal 1.406028 0.222820 0.000000
  outer loop
    vertex 11.750000 5.000000 3.400000
    vertex 11.835700 4.459220 6.000000
    vertex 11.835700 4.459220 3.400000
  endloop
endfacet
facet normal -0.745710 1.463399 0.000000
  outer loop
    vertex 14.528600 3.584220 -3.000000
    vertex 14.040800 3.335650 0.000000
    vertex 14.528600 3.584220 0.000000
  endloop
endfacet
facet normal -0.745710 1.463399 0.000000
  outer loop
    vertex 14.040800 3.335650 0.000000
    vertex 14.528600 3.584220 -3.000000
    vertex 14.040800 3.335650 -3.000000
  endloop
endfacet
facet normal -0.646282 1.268279 0.000000
  outer loop
    vertex 14.528600 3.584220 3.400000
    vertex 14.040800 3.335650 6.000000
    vertex 14.528600 3.584220 6.000000
  endloop
endfacet
facet normal -0.646282 1.268279 0.000000
  outer loop
    vertex 14.040800 3.335650 6.000000
    vertex 14.528600 3.584220 3.400000
    vertex 14.040800 3.335650 3.400000
  endloop
endfacet
facet normal -0.256950 1.622400 0.000000
  outer loop
    vertex 14.040800 3.335650 -3.000000
    vertex 13.500000 3.250000 0.000000
    vertex 14.040800 3.335650 0.000000
  endloop
endfacet
facet normal -0.256950 1.622400 0.000000
  outer loop
    vertex 13.500000 3.250000 0.000000
    vertex 14.040800 3.335650 -3.000000
    vertex 13.500000 3.250000 -3.000000
  endloop
endfacet
facet normal -0.222690 1.406080 0.000000
  outer loop
    vertex 14.040800 3.335650 3.400000
    vertex 13.500000 3.250000 6.000000
    vertex 14.040800 3.335650 6.000000
  endloop
endfacet
facet normal -0.222690 1.406080 0.000000
  outer loop
    vertex 13.500000 3.250000 6.000000
    vertex 14.040800 3.335650 3.400000
    vertex 13.500000 3.250000 3.400000
  endloop
endfacet
facet normal -1.463519 -0.745500 0.000000
  outer loop
    vertex 15.164300 5.540780 -3.000000
    vertex 14.915800 6.028620 0.000000
    vertex 14.915800 6.028620 -3.000000
  endloop
endfacet
facet normal -1.463519 -0.745500 0.000000
  outer loop
    vertex 14.915800 6.028620 0.000000
    vertex 15.164300 5.540780 -3.000000
    vertex 15.164300 5.540780 0.000000
  endloop
endfacet
facet normal -1.268383 -0.646100 0.000000
  outer loop
    vertex 15.164300 5.540780 3.400000
    vertex 14.915800 6.028620 6.000000
    vertex 14.915800 6.028620 3.400000
  endloop
endfacet
facet normal -1.268383 -0.646100 0.000000
  outer loop
    vertex 14.915800 6.028620 6.000000
    vertex 15.164300 5.540780 3.400000
    vertex 15.164300 5.540780 6.000000
  endloop
endfacet
facet normal 0.256950 -1.622400 0.000000
  outer loop
    vertex 12.959200 6.664350 -3.000000
    vertex 13.500000 6.750000 0.000000
    vertex 12.959200 6.664350 0.000000
  endloop
endfacet
facet normal 0.256950 -1.622400 0.000000
  outer loop
    vertex 13.500000 6.750000 0.000000
    vertex 12.959200 6.664350 -3.000000
    vertex 13.500000 6.750000 -3.000000
  endloop
endfacet
facet normal 0.222690 -1.406080 0.000000
  outer loop
    vertex 12.959200 6.664350 3.400000
    vertex 13.500000 6.750000 6.000000
    vertex 12.959200 6.664350 6.000000
  endloop
endfacet
facet normal 0.222690 -1.406080 0.000000
  outer loop
    vertex 13.500000 6.750000 6.000000
    vertex 12.959200 6.664350 3.400000
    vertex 13.500000 6.750000 3.400000
  endloop
endfacet
facet normal 0.745710 -1.463399 0.000000
  outer loop
    vertex 12.471400 6.415780 -3.000000
    vertex 12.959200 6.664350 0.000000
    vertex 12.471400 6.415780 0.000000
  endloop
endfacet
facet normal 0.745710 -1.463399 0.000000
  outer loop
    vertex 12.959200 6.664350 0.000000
    vertex 12.471400 6.415780 -3.000000
    vertex 12.959200 6.664350 -3.000000
  endloop
endfacet
facet normal 0.646282 -1.268279 0.000000
  outer loop
    vertex 12.471400 6.415780 3.400000
    vertex 12.959200 6.664350 6.000000
    vertex 12.471400 6.415780 6.000000
  endloop
endfacet
facet normal 0.646282 -1.268279 0.000000
  outer loop
    vertex 12.959200 6.664350 6.000000
    vertex 12.471400 6.415780 3.400000
    vertex 12.959200 6.664350 3.400000
  endloop
endfacet
facet normal 1.622340 -0.257100 0.000000
  outer loop
    vertex 11.750000 5.000000 0.000000
    vertex 11.835700 5.540780 -3.000000
    vertex 11.835700 5.540780 0.000000
  endloop
endfacet
facet normal 1.622340 -0.257100 0.000000
  outer loop
    vertex 11.835700 5.540780 -3.000000
    vertex 11.750000 5.000000 0.000000
    vertex 11.750000 5.000000 -3.000000
  endloop
endfacet
facet normal 1.406028 -0.222820 0.000000
  outer loop
    vertex 11.750000 5.000000 6.000000
    vertex 11.835700 5.540780 3.400000
    vertex 11.835700 5.540780 6.000000
  endloop
endfacet
facet normal 1.406028 -0.222820 0.000000
  outer loop
    vertex 11.835700 5.540780 3.400000
    vertex 11.750000 5.000000 6.000000
    vertex 11.750000 5.000000 3.400000
  endloop
endfacet
facet normal 1.463520 0.745500 0.000000
  outer loop
    vertex 12.084200 3.971380 0.000000
    vertex 11.835700 4.459220 -3.000000
    vertex 11.835700 4.459220 0.000000
  endloop
endfacet
facet normal 1.463520 0.745500 0.000000
  outer loop
    vertex 11.835700 4.459220 -3.000000
    vertex 12.084200 3.971380 0.000000
    vertex 12.084200 3.971380 -3.000000
  endloop
endfacet
facet normal 1.268384 0.646100 0.000000
  outer loop
    vertex 12.084200 3.971380 6.000000
    vertex 11.835700 4.459220 3.400000
    vertex 11.835700 4.459220 6.000000
  endloop
endfacet
facet normal 1.268384 0.646100 0.000000
  outer loop
    vertex 11.835700 4.459220 3.400000
    vertex 12.084200 3.971380 6.000000
    vertex 12.084200 3.971380 3.400000
  endloop
endfacet
facet normal 0.256950 1.622400 -0.000000
  outer loop
    vertex 13.500000 3.250000 -3.000000
    vertex 12.959200 3.335650 0.000000
    vertex 13.500000 3.250000 0.000000
  endloop
endfacet
facet normal 0.256950 1.622400 0.000000
  outer loop
    vertex 12.959200 3.335650 0.000000
    vertex 13.500000 3.250000 -3.000000
    vertex 12.959200 3.335650 -3.000000
  endloop
endfacet
facet normal 0.222690 1.406080 -0.000000
  outer loop
    vertex 13.500000 3.250000 3.400000
    vertex 12.959200 3.335650 6.000000
    vertex 13.500000 3.250000 6.000000
  endloop
endfacet
facet normal 0.222690 1.406080 0.000000
  outer loop
    vertex 12.959200 3.335650 6.000000
    vertex 13.500000 3.250000 3.400000
    vertex 12.959200 3.335650 3.400000
  endloop
endfacet
facet normal -1.161481 -1.161601 0.000000
  outer loop
    vertex 14.915800 6.028620 -3.000000
    vertex 14.528600 6.415780 0.000000
    vertex 14.528600 6.415780 -3.000000
  endloop
endfacet
facet normal -1.161481 -1.161601 0.000000
  outer loop
    vertex 14.528600 6.415780 0.000000
    vertex 14.915800 6.028620 -3.000000
    vertex 14.915800 6.028620 0.000000
  endloop
endfacet
facet normal -1.006617 -1.006721 0.000000
  outer loop
    vertex 14.915800 6.028620 3.400000
    vertex 14.528600 6.415780 6.000000
    vertex 14.528600 6.415780 3.400000
  endloop
endfacet
facet normal -1.006617 -1.006721 0.000000
  outer loop
    vertex 14.528600 6.415780 6.000000
    vertex 14.915800 6.028620 3.400000
    vertex 14.915800 6.028620 6.000000
  endloop
endfacet
facet normal -0.745710 -1.463399 0.000000
  outer loop
    vertex 14.040800 6.664350 -3.000000
    vertex 14.528600 6.415780 0.000000
    vertex 14.040800 6.664350 0.000000
  endloop
endfacet
facet normal -0.745710 -1.463399 -0.000000
  outer loop
    vertex 14.528600 6.415780 0.000000
    vertex 14.040800 6.664350 -3.000000
    vertex 14.528600 6.415780 -3.000000
  endloop
endfacet
facet normal -0.646282 -1.268279 0.000000
  outer loop
    vertex 14.040800 6.664350 3.400000
    vertex 14.528600 6.415780 6.000000
    vertex 14.040800 6.664350 6.000000
  endloop
endfacet
facet normal -0.646282 -1.268279 -0.000000
  outer loop
    vertex 14.528600 6.415780 6.000000
    vertex 14.040800 6.664350 3.400000
    vertex 14.528600 6.415780 3.400000
  endloop
endfacet
facet normal 1.161481 -1.161601 0.000000
  outer loop
    vertex 12.084200 6.028620 0.000000
    vertex 12.471400 6.415780 -3.000000
    vertex 12.471400 6.415780 0.000000
  endloop
endfacet
facet normal 1.161481 -1.161601 0.000000
  outer loop
    vertex 12.471400 6.415780 -3.000000
    vertex 12.084200 6.028620 0.000000
    vertex 12.084200 6.028620 -3.000000
  endloop
endfacet
facet normal 1.006617 -1.006721 0.000000
  outer loop
    vertex 12.084200 6.028620 6.000000
    vertex 12.471400 6.415780 3.400000
    vertex 12.471400 6.415780 6.000000
  endloop
endfacet
facet normal 1.006617 -1.006721 0.000000
  outer loop
    vertex 12.471400 6.415780 3.400000
    vertex 12.084200 6.028620 6.000000
    vertex 12.084200 6.028620 3.400000
  endloop
endfacet
facet normal 1.463519 -0.745500 0.000000
  outer loop
    vertex 11.835700 5.540780 0.000000
    vertex 12.084200 6.028620 -3.000000
    vertex 12.084200 6.028620 0.000000
  endloop
endfacet
facet normal 1.463519 -0.745500 0.000000
  outer loop
    vertex 12.084200 6.028620 -3.000000
    vertex 11.835700 5.540780 0.000000
    vertex 11.835700 5.540780 -3.000000
  endloop
endfacet
facet normal 1.268383 -0.646100 0.000000
  outer loop
    vertex 11.835700 5.540780 6.000000
    vertex 12.084200 6.028620 3.400000
    vertex 12.084200 6.028620 6.000000
  endloop
endfacet
facet normal 1.268383 -0.646100 0.000000
  outer loop
    vertex 12.084200 6.028620 3.400000
    vertex 11.835700 5.540780 6.000000
    vertex 11.835700 5.540780 3.400000
  endloop
endfacet
facet normal -1.161480 1.161601 0.000000
  outer loop
    vertex 14.528600 3.584220 -3.000000
    vertex 14.915800 3.971380 0.000000
    vertex 14.915800 3.971380 -3.000000
  endloop
endfacet
facet normal -1.161480 1.161601 0.000000
  outer loop
    vertex 14.915800 3.971380 0.000000
    vertex 14.528600 3.584220 -3.000000
    vertex 14.528600 3.584220 0.000000
  endloop
endfacet
facet normal -1.006616 1.006721 0.000000
  outer loop
    vertex 14.528600 3.584220 3.400000
    vertex 14.915800 3.971380 6.000000
    vertex 14.915800 3.971380 3.400000
  endloop
endfacet
facet normal -1.006616 1.006721 0.000000
  outer loop
    vertex 14.915800 3.971380 6.000000
    vertex 14.528600 3.584220 3.400000
    vertex 14.528600 3.584220 6.000000
  endloop
endfacet
facet normal -1.622340 0.257100 0.000000
  outer loop
    vertex 15.164300 4.459220 -3.000000
    vertex 15.250000 5.000000 0.000000
    vertex 15.250000 5.000000 -3.000000
  endloop
endfacet
facet normal -1.622340 0.257100 0.000000
  outer loop
    vertex 15.250000 5.000000 0.000000
    vertex 15.164300 4.459220 -3.000000
    vertex 15.164300 4.459220 0.000000
  endloop
endfacet
facet normal -1.406028 0.222820 0.000000
  outer loop
    vertex 15.164300 4.459220 3.400000
    vertex 15.250000 5.000000 6.000000
    vertex 15.250000 5.000000 3.400000
  endloop
endfacet
facet normal -1.406028 0.222820 0.000000
  outer loop
    vertex 15.250000 5.000000 6.000000
    vertex 15.164300 4.459220 3.400000
    vertex 15.164300 4.459220 6.000000
  endloop
endfacet
facet normal 1.161480 1.161601 0.000000
  outer loop
    vertex 12.471400 3.584220 0.000000
    vertex 12.084200 3.971380 -3.000000
    vertex 12.084200 3.971380 0.000000
  endloop
endfacet
facet normal 1.161480 1.161601 0.000000
  outer loop
    vertex 12.084200 3.971380 -3.000000
    vertex 12.471400 3.584220 0.000000
    vertex 12.471400 3.584220 -3.000000
  endloop
endfacet
facet normal 1.006616 1.006721 0.000000
  outer loop
    vertex 12.471400 3.584220 6.000000
    vertex 12.084200 3.971380 3.400000
    vertex 12.084200 3.971380 6.000000
  endloop
endfacet
facet normal 1.006616 1.006721 0.000000
  outer loop
    vertex 12.084200 3.971380 3.400000
    vertex 12.471400 3.584220 6.000000
    vertex 12.471400 3.584220 3.400000
  endloop
endfacet
facet normal 0.745710 1.463399 -0.000000
  outer loop
    vertex 12.959200 3.335650 -3.000000
    vertex 12.471400 3.584220 0.000000
    vertex 12.959200 3.335650 0.000000
  endloop
endfacet
facet normal 0.745710 1.463399 0.000000
  outer loop
    vertex 12.471400 3.584220 0.000000
    vertex 12.959200 3.335650 -3.000000
    vertex 12.471400 3.584220 -3.000000
  endloop
endfacet
facet normal 0.646282 1.268279 -0.000000
  outer loop
    vertex 12.959200 3.335650 3.400000
    vertex 12.471400 3.584220 6.000000
    vertex 12.959200 3.335650 6.000000
  endloop
endfacet
facet normal 0.646282 1.268279 0.000000
  outer loop
    vertex 12.471400 3.584220 6.000000
    vertex 12.959200 3.335650 3.400000
    vertex 12.471400 3.584220 3.400000
  endloop
endfacet
facet normal -1.463520 0.745500 0.000000
  outer loop
    vertex 14.915800 3.971380 -3.000000
    vertex 15.164300 4.459220 0.000000
    vertex 15.164300 4.459220 -3.000000
  endloop
endfacet
facet normal -1.463520 0.745500 0.000000
  outer loop
    vertex 15.164300 4.459220 0.000000
    vertex 14.915800 3.971380 -3.000000
    vertex 14.915800 3.971380 0.000000
  endloop
endfacet
facet normal -1.268384 0.646100 0.000000
  outer loop
    vertex 14.915800 3.971380 3.400000
    vertex 15.164300 4.459220 6.000000
    vertex 15.164300 4.459220 3.400000
  endloop
endfacet
facet normal -1.268384 0.646100 0.000000
  outer loop
    vertex 15.164300 4.459220 6.000000
    vertex 14.915800 3.971380 3.400000
    vertex 14.915800 3.971380 6.000000
  endloop
endfacet
endsolid leftjoint.stl
